M48
;GenerationSoftware,Autodesk,EAGLE,9.5.2*%
;CreationDate,2021-01-07T10:09:51Z*%
FMAT,2
ICI,OFF
METRIC,TZ,000.000
T5C0.350
T4C0.700
T3C1.000
T2C1.016
T1C1.500
%
G90
M71
T1
X24980Y1765
X32180Y1765
T2
X62997Y44446
X62997Y13966
X62997Y11426
X62997Y16506
X62997Y19046
X62997Y21586
X62997Y24126
X62997Y26666
X62997Y29206
X62997Y31746
X62997Y34286
X62997Y36826
X62997Y39366
X62997Y41906
T3
X39756Y49653
X42296Y49653
X44836Y49653
X37216Y49653
T4
X31005Y4665
X26155Y4665
T5
X5085Y49145
X3942Y12442
X4831Y47113
X15753Y42033
X33025Y34921
X44836Y36318
X28072Y9267
X29230Y8998
X21087Y25777
X21087Y27047
X2672Y32127
X16007Y46605
X2672Y30857
X57663Y28825
X15118Y29968
X16134Y31492
X14991Y32762
X27564Y38731
X17531Y35810
X29850Y37461
X54996Y35683
X3561Y35937
X36708Y39239
X31501Y36318
X22357Y5330
X14864Y23745
X33025Y5711
X22357Y3552
X30866Y17014
X17912Y17649
X25659Y15363
X45852Y9140
X53345Y9013
X53345Y21967
X52202Y34667
X37597Y5965
X24516Y34667
X36073Y33524
X38613Y13458
X26548Y41271
X33406Y42795
X55250Y12950
X55250Y15490
X50170Y18030
X46360Y19300
X45090Y21840
X48900Y20570
X41280Y21840
X42550Y20570
X22357Y7489
X8260Y15490
X6990Y16760
X24516Y10593
X10546Y1774
X10038Y5965
X53980Y52320
X58679Y45081
X47630Y11680
X12070Y44700
X30612Y7489
X13594Y2282
X4196Y29206
X18715Y7489
X6625Y1774
X42550Y4441
X6609Y5330
X6228Y3552
X30485Y47621
X11689Y49653
X58552Y27428
X58552Y13712
X2291Y23237
X1783Y40255
X42550Y24380
M30