G04 EAGLE Gerber RS-274X export*
G75*
%MOMM*%
%FSLAX34Y34*%
%LPD*%
%INBottom Copper*%
%IPPOS*%
%AMOC8*
5,1,8,0,0,1.08239X$1,22.5*%
G01*
%ADD10C,2.250000*%
%ADD11R,0.400000X1.350000*%
%ADD12C,1.208000*%
%ADD13C,1.508000*%
%ADD14C,1.879600*%
%ADD15R,1.500000X0.900000*%
%ADD16R,0.900000X1.500000*%
%ADD17R,6.000000X6.000000*%
%ADD18R,1.500000X1.600000*%
%ADD19R,2.500000X2.500000*%
%ADD20R,1.550000X0.600000*%
%ADD21R,1.800000X1.200000*%
%ADD22C,0.756400*%
%ADD23C,0.304800*%
%ADD24C,0.406400*%
%ADD25C,0.508000*%
%ADD26C,0.203200*%
%ADD27C,0.254000*%

G36*
X60370Y10767D02*
X60370Y10767D01*
X60442Y10769D01*
X60491Y10787D01*
X60542Y10795D01*
X60606Y10829D01*
X60673Y10854D01*
X60714Y10886D01*
X60760Y10911D01*
X60809Y10963D01*
X60865Y11007D01*
X60893Y11051D01*
X60929Y11089D01*
X60959Y11154D01*
X60998Y11214D01*
X61011Y11265D01*
X61033Y11312D01*
X61041Y11383D01*
X61058Y11453D01*
X61054Y11505D01*
X61060Y11556D01*
X61044Y11627D01*
X61039Y11698D01*
X61019Y11746D01*
X61007Y11797D01*
X60971Y11858D01*
X60943Y11924D01*
X60898Y11980D01*
X60881Y12008D01*
X60864Y12023D01*
X60838Y12055D01*
X59598Y13295D01*
X58403Y16179D01*
X58403Y19301D01*
X59598Y22185D01*
X61805Y24392D01*
X64664Y25576D01*
X64719Y25611D01*
X64780Y25636D01*
X64845Y25688D01*
X64873Y25706D01*
X64885Y25721D01*
X64911Y25741D01*
X66259Y27090D01*
X66316Y27169D01*
X66378Y27244D01*
X66388Y27268D01*
X66403Y27290D01*
X66432Y27383D01*
X66466Y27474D01*
X66468Y27500D01*
X66475Y27525D01*
X66473Y27622D01*
X66477Y27719D01*
X66470Y27744D01*
X66469Y27771D01*
X66435Y27862D01*
X66408Y27956D01*
X66393Y27977D01*
X66384Y28002D01*
X66323Y28078D01*
X66268Y28158D01*
X66247Y28173D01*
X66231Y28194D01*
X66149Y28246D01*
X66071Y28304D01*
X66046Y28312D01*
X66024Y28327D01*
X65929Y28350D01*
X65837Y28381D01*
X65811Y28380D01*
X65785Y28387D01*
X65688Y28379D01*
X65591Y28378D01*
X65559Y28369D01*
X65540Y28368D01*
X65510Y28355D01*
X65430Y28331D01*
X63841Y27673D01*
X60719Y27673D01*
X57835Y28868D01*
X57121Y29582D01*
X57047Y29635D01*
X56977Y29695D01*
X56947Y29707D01*
X56921Y29726D01*
X56834Y29753D01*
X56749Y29787D01*
X56708Y29791D01*
X56686Y29798D01*
X56654Y29797D01*
X56582Y29805D01*
X40146Y29805D01*
X37765Y32186D01*
X37765Y41869D01*
X37765Y41870D01*
X37765Y41871D01*
X37765Y51554D01*
X40146Y53935D01*
X57482Y53935D01*
X57502Y53938D01*
X57521Y53936D01*
X57623Y53958D01*
X57725Y53974D01*
X57742Y53984D01*
X57762Y53988D01*
X57851Y54041D01*
X57942Y54090D01*
X57956Y54104D01*
X57973Y54114D01*
X58040Y54193D01*
X58112Y54268D01*
X58120Y54286D01*
X58133Y54301D01*
X58172Y54397D01*
X58215Y54491D01*
X58217Y54511D01*
X58225Y54529D01*
X58243Y54696D01*
X58243Y54861D01*
X59438Y57745D01*
X61645Y59952D01*
X64529Y61147D01*
X67651Y61147D01*
X70535Y59952D01*
X72742Y57745D01*
X73937Y54861D01*
X73937Y54236D01*
X73940Y54216D01*
X73938Y54197D01*
X73960Y54095D01*
X73976Y53993D01*
X73986Y53976D01*
X73990Y53956D01*
X74043Y53867D01*
X74092Y53776D01*
X74106Y53762D01*
X74116Y53745D01*
X74195Y53678D01*
X74270Y53606D01*
X74288Y53598D01*
X74303Y53585D01*
X74399Y53546D01*
X74493Y53503D01*
X74513Y53501D01*
X74531Y53493D01*
X74698Y53475D01*
X80264Y53475D01*
X82691Y52469D01*
X84549Y50611D01*
X85555Y48184D01*
X85555Y29126D01*
X84549Y26699D01*
X74251Y16401D01*
X74213Y16348D01*
X74167Y16301D01*
X74127Y16228D01*
X74108Y16201D01*
X74102Y16182D01*
X74086Y16154D01*
X72902Y13295D01*
X71662Y12055D01*
X71620Y11997D01*
X71571Y11945D01*
X71549Y11898D01*
X71519Y11856D01*
X71498Y11787D01*
X71467Y11722D01*
X71462Y11670D01*
X71446Y11620D01*
X71448Y11549D01*
X71440Y11478D01*
X71451Y11427D01*
X71453Y11375D01*
X71477Y11307D01*
X71493Y11237D01*
X71519Y11192D01*
X71537Y11144D01*
X71582Y11088D01*
X71619Y11026D01*
X71658Y10992D01*
X71691Y10952D01*
X71751Y10913D01*
X71806Y10866D01*
X71854Y10847D01*
X71898Y10819D01*
X71967Y10801D01*
X72034Y10774D01*
X72105Y10766D01*
X72136Y10758D01*
X72160Y10760D01*
X72200Y10756D01*
X234940Y10756D01*
X234985Y10763D01*
X235031Y10761D01*
X235106Y10783D01*
X235183Y10795D01*
X235223Y10817D01*
X235267Y10830D01*
X235331Y10874D01*
X235400Y10911D01*
X235432Y10944D01*
X235469Y10970D01*
X235516Y11033D01*
X235569Y11089D01*
X235589Y11131D01*
X235616Y11167D01*
X235640Y11241D01*
X235673Y11312D01*
X235678Y11358D01*
X235692Y11401D01*
X235692Y11479D01*
X235700Y11556D01*
X235690Y11601D01*
X235690Y11647D01*
X235652Y11779D01*
X235648Y11797D01*
X235645Y11801D01*
X235643Y11808D01*
X234485Y14604D01*
X234485Y20696D01*
X236817Y26325D01*
X241125Y30633D01*
X243765Y31727D01*
X243865Y31789D01*
X243965Y31848D01*
X243969Y31853D01*
X243974Y31856D01*
X244049Y31947D01*
X244125Y32035D01*
X244127Y32041D01*
X244131Y32046D01*
X244173Y32154D01*
X244217Y32263D01*
X244218Y32271D01*
X244219Y32276D01*
X244220Y32294D01*
X244235Y32430D01*
X244235Y38834D01*
X246616Y41215D01*
X250684Y41215D01*
X250704Y41218D01*
X250723Y41216D01*
X250825Y41238D01*
X250927Y41254D01*
X250944Y41264D01*
X250964Y41268D01*
X251053Y41321D01*
X251144Y41370D01*
X251158Y41384D01*
X251175Y41394D01*
X251242Y41473D01*
X251314Y41548D01*
X251322Y41566D01*
X251335Y41581D01*
X251374Y41677D01*
X251417Y41771D01*
X251419Y41791D01*
X251427Y41809D01*
X251445Y41976D01*
X251445Y54700D01*
X252984Y58414D01*
X255826Y61256D01*
X259540Y62795D01*
X263560Y62795D01*
X267274Y61256D01*
X270116Y58414D01*
X271655Y54700D01*
X271655Y54452D01*
X271658Y54432D01*
X271656Y54413D01*
X271678Y54311D01*
X271694Y54209D01*
X271704Y54192D01*
X271708Y54172D01*
X271761Y54083D01*
X271801Y54009D01*
X271801Y53237D01*
X271812Y53166D01*
X271814Y53094D01*
X271832Y53045D01*
X271840Y52994D01*
X271874Y52931D01*
X271899Y52863D01*
X271931Y52823D01*
X271956Y52777D01*
X272008Y52727D01*
X272052Y52671D01*
X272096Y52643D01*
X272134Y52607D01*
X272199Y52577D01*
X272259Y52538D01*
X272310Y52526D01*
X272357Y52504D01*
X272428Y52496D01*
X272498Y52478D01*
X272550Y52482D01*
X272601Y52477D01*
X272672Y52492D01*
X272743Y52497D01*
X272791Y52518D01*
X272842Y52529D01*
X272903Y52566D01*
X272969Y52594D01*
X273025Y52639D01*
X273053Y52655D01*
X273068Y52673D01*
X273100Y52699D01*
X273576Y53175D01*
X273630Y53249D01*
X273689Y53318D01*
X273701Y53348D01*
X273720Y53374D01*
X273747Y53462D01*
X273781Y53546D01*
X273785Y53587D01*
X273792Y53610D01*
X273791Y53642D01*
X273797Y53694D01*
X273867Y53705D01*
X273958Y53713D01*
X273988Y53725D01*
X274020Y53730D01*
X274100Y53773D01*
X274184Y53809D01*
X274216Y53835D01*
X274237Y53846D01*
X274259Y53869D01*
X274315Y53914D01*
X275616Y55215D01*
X279958Y55215D01*
X279978Y55218D01*
X279997Y55216D01*
X280099Y55238D01*
X280201Y55254D01*
X280218Y55264D01*
X280238Y55268D01*
X280327Y55321D01*
X280418Y55370D01*
X280432Y55384D01*
X280449Y55394D01*
X280516Y55473D01*
X280588Y55548D01*
X280596Y55566D01*
X280609Y55581D01*
X280648Y55677D01*
X280691Y55771D01*
X280693Y55791D01*
X280701Y55809D01*
X280719Y55976D01*
X280719Y80642D01*
X280705Y80732D01*
X280697Y80823D01*
X280685Y80853D01*
X280680Y80885D01*
X280637Y80965D01*
X280601Y81049D01*
X280575Y81081D01*
X280564Y81102D01*
X280541Y81124D01*
X280496Y81180D01*
X279685Y81991D01*
X275982Y85694D01*
X275604Y86607D01*
X275569Y86663D01*
X275544Y86723D01*
X275492Y86788D01*
X275474Y86816D01*
X275459Y86829D01*
X275439Y86854D01*
X274068Y88225D01*
X272873Y91109D01*
X272873Y94231D01*
X274068Y97115D01*
X276275Y99322D01*
X279159Y100517D01*
X282281Y100517D01*
X285165Y99322D01*
X287437Y97050D01*
X287452Y97026D01*
X287467Y97014D01*
X287479Y96997D01*
X287561Y96936D01*
X287641Y96870D01*
X287660Y96862D01*
X287676Y96850D01*
X287774Y96818D01*
X287871Y96781D01*
X287891Y96780D01*
X287910Y96774D01*
X288013Y96775D01*
X288116Y96771D01*
X288136Y96776D01*
X288156Y96777D01*
X288291Y96816D01*
X288296Y96817D01*
X288299Y96818D01*
X288317Y96823D01*
X290739Y97827D01*
X293861Y97827D01*
X296745Y96632D01*
X298952Y94425D01*
X300147Y91541D01*
X300147Y88419D01*
X298952Y85535D01*
X297604Y84187D01*
X297551Y84113D01*
X297491Y84043D01*
X297479Y84013D01*
X297460Y83987D01*
X297433Y83900D01*
X297399Y83815D01*
X297395Y83774D01*
X297388Y83752D01*
X297389Y83720D01*
X297381Y83648D01*
X297381Y78123D01*
X297396Y78027D01*
X297406Y77930D01*
X297416Y77906D01*
X297420Y77880D01*
X297466Y77794D01*
X297506Y77705D01*
X297523Y77686D01*
X297536Y77663D01*
X297606Y77596D01*
X297672Y77524D01*
X297695Y77512D01*
X297714Y77494D01*
X297802Y77452D01*
X297888Y77406D01*
X297913Y77401D01*
X297937Y77390D01*
X298034Y77379D01*
X298130Y77362D01*
X298156Y77366D01*
X298181Y77363D01*
X298277Y77383D01*
X298373Y77398D01*
X298396Y77409D01*
X298422Y77415D01*
X298505Y77465D01*
X298592Y77509D01*
X298611Y77528D01*
X298633Y77541D01*
X298696Y77615D01*
X298764Y77685D01*
X298780Y77713D01*
X298793Y77728D01*
X298805Y77759D01*
X298845Y77832D01*
X299468Y79335D01*
X301675Y81542D01*
X304559Y82737D01*
X307681Y82737D01*
X310565Y81542D01*
X312772Y79335D01*
X313967Y76451D01*
X313967Y73329D01*
X312772Y70445D01*
X310565Y68238D01*
X307681Y67043D01*
X306492Y67043D01*
X306402Y67029D01*
X306311Y67021D01*
X306281Y67009D01*
X306249Y67004D01*
X306169Y66961D01*
X306085Y66925D01*
X306053Y66899D01*
X306032Y66888D01*
X306010Y66865D01*
X305954Y66820D01*
X304612Y65478D01*
X304559Y65404D01*
X304499Y65335D01*
X304487Y65305D01*
X304468Y65278D01*
X304441Y65191D01*
X304407Y65106D01*
X304403Y65066D01*
X304396Y65043D01*
X304397Y65011D01*
X304389Y64940D01*
X304389Y62422D01*
X304396Y62376D01*
X304394Y62330D01*
X304416Y62256D01*
X304428Y62179D01*
X304450Y62138D01*
X304463Y62094D01*
X304507Y62030D01*
X304544Y61961D01*
X304577Y61930D01*
X304603Y61892D01*
X304665Y61846D01*
X304722Y61792D01*
X304764Y61773D01*
X304800Y61745D01*
X304874Y61721D01*
X304945Y61688D01*
X304991Y61683D01*
X305034Y61669D01*
X305112Y61670D01*
X305189Y61661D01*
X305234Y61671D01*
X305280Y61672D01*
X305412Y61710D01*
X305430Y61714D01*
X305434Y61716D01*
X305441Y61718D01*
X308040Y62795D01*
X312060Y62795D01*
X315774Y61256D01*
X318616Y58414D01*
X320155Y54700D01*
X320155Y41976D01*
X320158Y41956D01*
X320156Y41937D01*
X320178Y41835D01*
X320194Y41733D01*
X320204Y41716D01*
X320208Y41696D01*
X320261Y41607D01*
X320310Y41516D01*
X320324Y41502D01*
X320334Y41485D01*
X320413Y41418D01*
X320488Y41346D01*
X320506Y41338D01*
X320521Y41325D01*
X320617Y41286D01*
X320711Y41243D01*
X320731Y41241D01*
X320749Y41233D01*
X320916Y41215D01*
X324984Y41215D01*
X327365Y38834D01*
X327365Y32430D01*
X327384Y32315D01*
X327401Y32199D01*
X327403Y32194D01*
X327404Y32187D01*
X327459Y32085D01*
X327512Y31980D01*
X327517Y31976D01*
X327520Y31970D01*
X327604Y31890D01*
X327688Y31808D01*
X327694Y31804D01*
X327698Y31801D01*
X327715Y31793D01*
X327835Y31727D01*
X330475Y30633D01*
X334783Y26325D01*
X337115Y20696D01*
X337115Y14604D01*
X335957Y11808D01*
X335946Y11764D01*
X335927Y11722D01*
X335918Y11645D01*
X335901Y11569D01*
X335905Y11523D01*
X335900Y11478D01*
X335916Y11401D01*
X335924Y11324D01*
X335942Y11282D01*
X335952Y11237D01*
X335992Y11170D01*
X336024Y11099D01*
X336055Y11065D01*
X336078Y11026D01*
X336137Y10975D01*
X336190Y10918D01*
X336230Y10896D01*
X336265Y10866D01*
X336337Y10837D01*
X336406Y10800D01*
X336451Y10791D01*
X336493Y10774D01*
X336629Y10759D01*
X336648Y10756D01*
X336653Y10757D01*
X336660Y10756D01*
X549833Y10756D01*
X549853Y10759D01*
X549872Y10757D01*
X549974Y10779D01*
X550076Y10795D01*
X550093Y10805D01*
X550113Y10809D01*
X550202Y10862D01*
X550293Y10911D01*
X550307Y10925D01*
X550324Y10935D01*
X550391Y11014D01*
X550463Y11089D01*
X550471Y11107D01*
X550484Y11122D01*
X550523Y11218D01*
X550566Y11312D01*
X550568Y11332D01*
X550576Y11350D01*
X550594Y11517D01*
X550594Y18294D01*
X554279Y36819D01*
X561507Y54269D01*
X572001Y69974D01*
X585356Y83329D01*
X601061Y93823D01*
X618511Y101051D01*
X621809Y101707D01*
X621921Y101749D01*
X622034Y101790D01*
X622037Y101792D01*
X622040Y101793D01*
X622133Y101869D01*
X622226Y101944D01*
X622228Y101947D01*
X622230Y101949D01*
X622294Y102049D01*
X622359Y102151D01*
X622360Y102154D01*
X622362Y102157D01*
X622390Y102272D01*
X622419Y102389D01*
X622419Y102392D01*
X622420Y102396D01*
X622409Y102515D01*
X622400Y102635D01*
X622399Y102637D01*
X622399Y102641D01*
X622350Y102752D01*
X622304Y102861D01*
X622302Y102864D01*
X622301Y102866D01*
X622293Y102874D01*
X622199Y102992D01*
X618557Y106634D01*
X616507Y111582D01*
X616507Y116938D01*
X618557Y121886D01*
X622344Y125673D01*
X625730Y127076D01*
X625816Y127129D01*
X625905Y127177D01*
X625920Y127194D01*
X625939Y127205D01*
X626003Y127283D01*
X626072Y127357D01*
X626081Y127378D01*
X626096Y127395D01*
X626132Y127489D01*
X626174Y127582D01*
X626176Y127604D01*
X626184Y127624D01*
X626188Y127725D01*
X626198Y127826D01*
X626193Y127848D01*
X626194Y127870D01*
X626166Y127967D01*
X626143Y128066D01*
X626132Y128085D01*
X626126Y128106D01*
X626068Y128189D01*
X626015Y128276D01*
X625998Y128290D01*
X625985Y128308D01*
X625904Y128369D01*
X625826Y128434D01*
X625802Y128445D01*
X625788Y128455D01*
X625757Y128465D01*
X625674Y128503D01*
X625387Y128596D01*
X623713Y129449D01*
X622192Y130554D01*
X620864Y131882D01*
X619759Y133403D01*
X618906Y135077D01*
X618325Y136864D01*
X618124Y138137D01*
X629208Y138137D01*
X629228Y138140D01*
X629247Y138138D01*
X629349Y138160D01*
X629451Y138177D01*
X629468Y138186D01*
X629488Y138190D01*
X629577Y138243D01*
X629668Y138292D01*
X629682Y138306D01*
X629699Y138316D01*
X629766Y138395D01*
X629837Y138470D01*
X629846Y138488D01*
X629859Y138503D01*
X629897Y138599D01*
X629941Y138693D01*
X629943Y138713D01*
X629951Y138731D01*
X629969Y138898D01*
X629969Y140422D01*
X629966Y140442D01*
X629968Y140461D01*
X629946Y140563D01*
X629929Y140665D01*
X629920Y140682D01*
X629916Y140702D01*
X629863Y140791D01*
X629814Y140882D01*
X629800Y140896D01*
X629790Y140913D01*
X629711Y140980D01*
X629636Y141051D01*
X629618Y141060D01*
X629603Y141073D01*
X629507Y141112D01*
X629413Y141155D01*
X629393Y141157D01*
X629375Y141165D01*
X629208Y141183D01*
X618124Y141183D01*
X618325Y142456D01*
X618906Y144243D01*
X619759Y145917D01*
X620864Y147438D01*
X622192Y148766D01*
X623713Y149871D01*
X625387Y150724D01*
X625674Y150817D01*
X625764Y150864D01*
X625856Y150905D01*
X625872Y150920D01*
X625892Y150930D01*
X625963Y151003D01*
X626037Y151071D01*
X626048Y151091D01*
X626063Y151107D01*
X626107Y151198D01*
X626156Y151287D01*
X626160Y151309D01*
X626169Y151329D01*
X626182Y151429D01*
X626200Y151529D01*
X626196Y151551D01*
X626199Y151573D01*
X626179Y151672D01*
X626164Y151772D01*
X626154Y151792D01*
X626149Y151814D01*
X626098Y151901D01*
X626052Y151991D01*
X626036Y152007D01*
X626025Y152026D01*
X625949Y152093D01*
X625877Y152164D01*
X625853Y152177D01*
X625840Y152188D01*
X625810Y152200D01*
X625730Y152244D01*
X622344Y153647D01*
X618557Y157434D01*
X616507Y162382D01*
X616507Y167738D01*
X618557Y172686D01*
X622344Y176473D01*
X623753Y177057D01*
X623814Y177095D01*
X623879Y177124D01*
X623918Y177159D01*
X623962Y177186D01*
X624008Y177242D01*
X624060Y177290D01*
X624085Y177336D01*
X624119Y177376D01*
X624144Y177443D01*
X624179Y177506D01*
X624188Y177557D01*
X624207Y177605D01*
X624210Y177677D01*
X624223Y177748D01*
X624215Y177799D01*
X624217Y177851D01*
X624197Y177920D01*
X624187Y177991D01*
X624163Y178037D01*
X624149Y178087D01*
X624108Y178146D01*
X624075Y178210D01*
X624038Y178247D01*
X624008Y178289D01*
X623951Y178332D01*
X623900Y178382D01*
X623837Y178417D01*
X623811Y178436D01*
X623789Y178443D01*
X623753Y178463D01*
X622344Y179047D01*
X618557Y182834D01*
X616507Y187782D01*
X616507Y193138D01*
X618557Y198086D01*
X622344Y201873D01*
X623753Y202457D01*
X623814Y202495D01*
X623879Y202524D01*
X623918Y202559D01*
X623962Y202586D01*
X624008Y202642D01*
X624060Y202690D01*
X624085Y202736D01*
X624119Y202776D01*
X624144Y202843D01*
X624179Y202906D01*
X624188Y202957D01*
X624207Y203005D01*
X624210Y203077D01*
X624223Y203148D01*
X624215Y203199D01*
X624217Y203251D01*
X624197Y203320D01*
X624187Y203391D01*
X624163Y203437D01*
X624149Y203487D01*
X624108Y203546D01*
X624075Y203610D01*
X624038Y203647D01*
X624008Y203689D01*
X623951Y203732D01*
X623900Y203782D01*
X623837Y203817D01*
X623811Y203836D01*
X623789Y203843D01*
X623753Y203863D01*
X622344Y204447D01*
X618557Y208234D01*
X616507Y213182D01*
X616507Y218538D01*
X618557Y223486D01*
X622344Y227273D01*
X623753Y227857D01*
X623814Y227895D01*
X623879Y227924D01*
X623918Y227959D01*
X623962Y227986D01*
X624008Y228042D01*
X624060Y228090D01*
X624085Y228136D01*
X624119Y228176D01*
X624144Y228243D01*
X624179Y228306D01*
X624188Y228357D01*
X624207Y228405D01*
X624210Y228477D01*
X624223Y228548D01*
X624215Y228599D01*
X624217Y228651D01*
X624197Y228720D01*
X624187Y228791D01*
X624163Y228837D01*
X624149Y228887D01*
X624108Y228946D01*
X624075Y229010D01*
X624038Y229047D01*
X624008Y229089D01*
X623951Y229132D01*
X623900Y229182D01*
X623837Y229217D01*
X623811Y229236D01*
X623789Y229243D01*
X623753Y229263D01*
X622344Y229847D01*
X618557Y233634D01*
X616507Y238582D01*
X616507Y243938D01*
X618557Y248886D01*
X622344Y252673D01*
X623753Y253257D01*
X623814Y253295D01*
X623879Y253324D01*
X623918Y253359D01*
X623962Y253386D01*
X624008Y253442D01*
X624060Y253490D01*
X624085Y253536D01*
X624119Y253576D01*
X624144Y253643D01*
X624179Y253706D01*
X624188Y253757D01*
X624207Y253805D01*
X624210Y253877D01*
X624223Y253948D01*
X624215Y253999D01*
X624217Y254051D01*
X624197Y254120D01*
X624187Y254191D01*
X624163Y254237D01*
X624149Y254287D01*
X624108Y254346D01*
X624075Y254410D01*
X624038Y254447D01*
X624008Y254489D01*
X623951Y254532D01*
X623900Y254582D01*
X623837Y254617D01*
X623811Y254636D01*
X623789Y254643D01*
X623753Y254663D01*
X622344Y255247D01*
X618557Y259034D01*
X616507Y263982D01*
X616507Y269338D01*
X618557Y274286D01*
X622344Y278073D01*
X623753Y278657D01*
X623814Y278695D01*
X623879Y278724D01*
X623918Y278759D01*
X623962Y278786D01*
X624008Y278842D01*
X624060Y278890D01*
X624085Y278936D01*
X624119Y278976D01*
X624144Y279043D01*
X624179Y279106D01*
X624188Y279157D01*
X624207Y279205D01*
X624210Y279277D01*
X624223Y279348D01*
X624215Y279399D01*
X624217Y279451D01*
X624197Y279520D01*
X624187Y279591D01*
X624163Y279637D01*
X624149Y279687D01*
X624108Y279746D01*
X624075Y279810D01*
X624038Y279847D01*
X624008Y279889D01*
X623951Y279932D01*
X623900Y279982D01*
X623837Y280017D01*
X623811Y280036D01*
X623789Y280043D01*
X623753Y280063D01*
X622344Y280647D01*
X618557Y284434D01*
X617908Y286001D01*
X617846Y286101D01*
X617786Y286201D01*
X617781Y286205D01*
X617778Y286210D01*
X617688Y286285D01*
X617599Y286361D01*
X617593Y286363D01*
X617589Y286367D01*
X617480Y286409D01*
X617371Y286453D01*
X617363Y286454D01*
X617359Y286455D01*
X617341Y286456D01*
X617204Y286471D01*
X584895Y286471D01*
X584780Y286452D01*
X584664Y286435D01*
X584659Y286433D01*
X584652Y286432D01*
X584550Y286377D01*
X584445Y286324D01*
X584440Y286319D01*
X584435Y286316D01*
X584355Y286232D01*
X584273Y286148D01*
X584269Y286142D01*
X584266Y286138D01*
X584258Y286121D01*
X584192Y286001D01*
X583282Y283805D01*
X582644Y283167D01*
X582587Y283088D01*
X582525Y283013D01*
X582516Y282989D01*
X582501Y282968D01*
X582472Y282874D01*
X582437Y282784D01*
X582436Y282757D01*
X582428Y282732D01*
X582431Y282635D01*
X582427Y282538D01*
X582434Y282513D01*
X582435Y282487D01*
X582468Y282395D01*
X582495Y282302D01*
X582510Y282280D01*
X582519Y282256D01*
X582580Y282179D01*
X582635Y282100D01*
X582656Y282084D01*
X582673Y282064D01*
X582755Y282011D01*
X582833Y281953D01*
X582858Y281945D01*
X582880Y281931D01*
X582974Y281907D01*
X583067Y281877D01*
X583093Y281877D01*
X583118Y281870D01*
X583215Y281878D01*
X583313Y281879D01*
X583344Y281888D01*
X583363Y281890D01*
X583394Y281902D01*
X583474Y281926D01*
X583959Y282127D01*
X587081Y282127D01*
X589965Y280932D01*
X592172Y278725D01*
X593367Y275841D01*
X593367Y272719D01*
X592183Y269861D01*
X592173Y269818D01*
X592158Y269786D01*
X592155Y269766D01*
X592143Y269736D01*
X592134Y269653D01*
X592127Y269621D01*
X592128Y269602D01*
X592125Y269569D01*
X592125Y141831D01*
X592135Y141766D01*
X592136Y141700D01*
X592159Y141620D01*
X592164Y141588D01*
X592174Y141571D01*
X592183Y141539D01*
X593367Y138681D01*
X593367Y135559D01*
X592172Y132675D01*
X589965Y130468D01*
X587081Y129273D01*
X583959Y129273D01*
X581075Y130468D01*
X578868Y132675D01*
X577673Y135559D01*
X577673Y138681D01*
X578857Y141539D01*
X578872Y141603D01*
X578897Y141664D01*
X578906Y141747D01*
X578913Y141779D01*
X578912Y141798D01*
X578915Y141831D01*
X578915Y269569D01*
X578908Y269611D01*
X578909Y269620D01*
X578905Y269643D01*
X578904Y269700D01*
X578881Y269780D01*
X578876Y269812D01*
X578866Y269829D01*
X578857Y269861D01*
X577673Y272719D01*
X577673Y275841D01*
X578868Y278725D01*
X579506Y279363D01*
X579563Y279442D01*
X579625Y279517D01*
X579634Y279541D01*
X579649Y279562D01*
X579678Y279656D01*
X579713Y279746D01*
X579714Y279773D01*
X579722Y279798D01*
X579719Y279895D01*
X579723Y279992D01*
X579716Y280017D01*
X579715Y280043D01*
X579682Y280135D01*
X579655Y280228D01*
X579640Y280250D01*
X579631Y280274D01*
X579570Y280351D01*
X579515Y280430D01*
X579494Y280446D01*
X579477Y280466D01*
X579395Y280519D01*
X579317Y280577D01*
X579292Y280585D01*
X579270Y280599D01*
X579176Y280623D01*
X579083Y280653D01*
X579057Y280653D01*
X579032Y280660D01*
X578935Y280652D01*
X578837Y280651D01*
X578806Y280642D01*
X578787Y280640D01*
X578756Y280628D01*
X578676Y280604D01*
X578191Y280403D01*
X575069Y280403D01*
X572185Y281598D01*
X569978Y283805D01*
X568783Y286689D01*
X568783Y289811D01*
X569978Y292695D01*
X572185Y294902D01*
X575069Y296097D01*
X576258Y296097D01*
X576348Y296111D01*
X576439Y296119D01*
X576469Y296131D01*
X576500Y296136D01*
X576581Y296179D01*
X576665Y296215D01*
X576697Y296241D01*
X576718Y296252D01*
X576740Y296275D01*
X576796Y296320D01*
X577274Y296798D01*
X579328Y297649D01*
X617204Y297649D01*
X617319Y297668D01*
X617435Y297685D01*
X617441Y297687D01*
X617447Y297688D01*
X617550Y297743D01*
X617655Y297796D01*
X617659Y297801D01*
X617664Y297804D01*
X617744Y297888D01*
X617827Y297972D01*
X617830Y297978D01*
X617834Y297982D01*
X617842Y297999D01*
X617908Y298119D01*
X618557Y299686D01*
X622344Y303473D01*
X623753Y304057D01*
X623814Y304095D01*
X623879Y304124D01*
X623918Y304159D01*
X623962Y304186D01*
X624008Y304242D01*
X624060Y304290D01*
X624085Y304336D01*
X624119Y304376D01*
X624144Y304443D01*
X624179Y304506D01*
X624188Y304557D01*
X624207Y304605D01*
X624210Y304677D01*
X624223Y304748D01*
X624215Y304799D01*
X624217Y304851D01*
X624197Y304920D01*
X624187Y304991D01*
X624163Y305037D01*
X624149Y305087D01*
X624108Y305146D01*
X624075Y305210D01*
X624038Y305247D01*
X624008Y305289D01*
X623951Y305332D01*
X623900Y305382D01*
X623837Y305417D01*
X623811Y305436D01*
X623789Y305443D01*
X623753Y305463D01*
X622344Y306047D01*
X618557Y309834D01*
X616507Y314782D01*
X616507Y320138D01*
X618557Y325086D01*
X622344Y328873D01*
X623753Y329457D01*
X623814Y329495D01*
X623879Y329524D01*
X623918Y329559D01*
X623962Y329586D01*
X624008Y329642D01*
X624060Y329690D01*
X624085Y329736D01*
X624119Y329776D01*
X624144Y329843D01*
X624179Y329906D01*
X624188Y329957D01*
X624207Y330005D01*
X624210Y330077D01*
X624223Y330148D01*
X624215Y330199D01*
X624217Y330251D01*
X624197Y330320D01*
X624187Y330391D01*
X624163Y330437D01*
X624149Y330487D01*
X624108Y330546D01*
X624075Y330610D01*
X624038Y330647D01*
X624008Y330689D01*
X623951Y330732D01*
X623900Y330782D01*
X623837Y330817D01*
X623811Y330836D01*
X623789Y330843D01*
X623753Y330863D01*
X622344Y331447D01*
X618557Y335234D01*
X617908Y336801D01*
X617846Y336901D01*
X617786Y337001D01*
X617781Y337005D01*
X617778Y337010D01*
X617688Y337085D01*
X617599Y337161D01*
X617593Y337163D01*
X617589Y337167D01*
X617480Y337209D01*
X617371Y337253D01*
X617363Y337254D01*
X617359Y337255D01*
X617341Y337256D01*
X617204Y337271D01*
X545038Y337271D01*
X542984Y338122D01*
X541305Y339801D01*
X530445Y350661D01*
X530366Y350718D01*
X530291Y350780D01*
X530267Y350789D01*
X530246Y350805D01*
X530152Y350833D01*
X530062Y350868D01*
X530036Y350869D01*
X530010Y350877D01*
X529913Y350874D01*
X529816Y350879D01*
X529791Y350871D01*
X529765Y350871D01*
X529673Y350837D01*
X529580Y350810D01*
X529558Y350795D01*
X529534Y350786D01*
X529457Y350725D01*
X529378Y350670D01*
X529362Y350649D01*
X529342Y350632D01*
X529289Y350550D01*
X529231Y350472D01*
X529223Y350448D01*
X529209Y350426D01*
X529185Y350331D01*
X529155Y350239D01*
X529155Y350212D01*
X529148Y350187D01*
X529156Y350090D01*
X529157Y349993D01*
X529166Y349961D01*
X529168Y349942D01*
X529180Y349912D01*
X529204Y349831D01*
X529856Y348256D01*
X529891Y348200D01*
X529916Y348140D01*
X529968Y348075D01*
X529986Y348047D01*
X530001Y348035D01*
X530021Y348009D01*
X539049Y338981D01*
X540055Y336554D01*
X540055Y224381D01*
X540065Y224316D01*
X540066Y224250D01*
X540089Y224170D01*
X540094Y224138D01*
X540104Y224121D01*
X540113Y224089D01*
X541297Y221231D01*
X541297Y218109D01*
X540102Y215225D01*
X537895Y213018D01*
X535011Y211823D01*
X531889Y211823D01*
X529005Y213018D01*
X526798Y215225D01*
X525603Y218109D01*
X525603Y221231D01*
X526787Y224089D01*
X526802Y224153D01*
X526827Y224214D01*
X526836Y224297D01*
X526843Y224329D01*
X526842Y224348D01*
X526845Y224381D01*
X526845Y332189D01*
X526831Y332279D01*
X526823Y332370D01*
X526811Y332400D01*
X526806Y332432D01*
X526763Y332512D01*
X526727Y332596D01*
X526701Y332628D01*
X526690Y332649D01*
X526667Y332671D01*
X526622Y332727D01*
X520681Y338669D01*
X520628Y338707D01*
X520581Y338753D01*
X520508Y338793D01*
X520481Y338812D01*
X520462Y338818D01*
X520434Y338834D01*
X517575Y340018D01*
X515368Y342225D01*
X514173Y345109D01*
X514173Y348231D01*
X515368Y351115D01*
X517575Y353322D01*
X520459Y354517D01*
X523581Y354517D01*
X525181Y353854D01*
X525276Y353831D01*
X525369Y353803D01*
X525396Y353804D01*
X525421Y353798D01*
X525518Y353807D01*
X525615Y353809D01*
X525640Y353818D01*
X525666Y353821D01*
X525755Y353860D01*
X525846Y353894D01*
X525867Y353910D01*
X525891Y353921D01*
X525962Y353987D01*
X526038Y354047D01*
X526052Y354069D01*
X526072Y354087D01*
X526119Y354172D01*
X526171Y354254D01*
X526178Y354280D01*
X526190Y354303D01*
X526208Y354398D01*
X526231Y354493D01*
X526229Y354519D01*
X526234Y354545D01*
X526220Y354641D01*
X526212Y354738D01*
X526202Y354762D01*
X526198Y354788D01*
X526154Y354875D01*
X526116Y354964D01*
X526096Y354990D01*
X526087Y355007D01*
X526063Y355030D01*
X526011Y355095D01*
X512308Y368798D01*
X512234Y368851D01*
X512165Y368911D01*
X512134Y368923D01*
X512108Y368942D01*
X512021Y368969D01*
X511936Y369003D01*
X511896Y369007D01*
X511873Y369014D01*
X511841Y369013D01*
X511770Y369021D01*
X455453Y369021D01*
X455383Y369010D01*
X455311Y369008D01*
X455262Y368990D01*
X455211Y368982D01*
X455148Y368948D01*
X455080Y368923D01*
X455039Y368891D01*
X454993Y368866D01*
X454944Y368815D01*
X454888Y368770D01*
X454860Y368726D01*
X454824Y368688D01*
X454794Y368623D01*
X454755Y368563D01*
X454742Y368512D01*
X454720Y368465D01*
X454712Y368394D01*
X454695Y368324D01*
X454699Y368272D01*
X454693Y368221D01*
X454709Y368150D01*
X454714Y368079D01*
X454734Y368031D01*
X454746Y367980D01*
X454782Y367919D01*
X454810Y367853D01*
X454855Y367797D01*
X454872Y367769D01*
X454889Y367754D01*
X454915Y367722D01*
X455012Y367625D01*
X456207Y364741D01*
X456207Y361619D01*
X455012Y358735D01*
X452805Y356528D01*
X449921Y355333D01*
X446799Y355333D01*
X443941Y356517D01*
X443877Y356532D01*
X443816Y356557D01*
X443733Y356566D01*
X443701Y356573D01*
X443682Y356572D01*
X443649Y356575D01*
X359971Y356575D01*
X359881Y356561D01*
X359790Y356553D01*
X359760Y356541D01*
X359728Y356536D01*
X359648Y356493D01*
X359564Y356457D01*
X359532Y356431D01*
X359511Y356420D01*
X359489Y356397D01*
X359433Y356352D01*
X353588Y350507D01*
X353535Y350433D01*
X353475Y350364D01*
X353463Y350334D01*
X353444Y350307D01*
X353417Y350220D01*
X353383Y350136D01*
X353379Y350095D01*
X353372Y350072D01*
X353373Y350040D01*
X353365Y349969D01*
X353365Y340809D01*
X353376Y340739D01*
X353378Y340667D01*
X353396Y340618D01*
X353404Y340567D01*
X353438Y340503D01*
X353463Y340436D01*
X353495Y340395D01*
X353520Y340349D01*
X353572Y340300D01*
X353616Y340244D01*
X353660Y340216D01*
X353698Y340180D01*
X353763Y340150D01*
X353823Y340111D01*
X353874Y340098D01*
X353921Y340076D01*
X353992Y340068D01*
X354062Y340051D01*
X354114Y340055D01*
X354165Y340049D01*
X354236Y340065D01*
X354307Y340070D01*
X354355Y340090D01*
X354406Y340102D01*
X354467Y340138D01*
X354533Y340166D01*
X354589Y340211D01*
X354617Y340228D01*
X354632Y340245D01*
X354664Y340271D01*
X356285Y341892D01*
X359169Y343087D01*
X362291Y343087D01*
X365175Y341892D01*
X367382Y339685D01*
X368577Y336801D01*
X368577Y333679D01*
X367382Y330795D01*
X366542Y329955D01*
X366489Y329881D01*
X366429Y329811D01*
X366417Y329781D01*
X366398Y329755D01*
X366371Y329668D01*
X366337Y329583D01*
X366333Y329542D01*
X366326Y329520D01*
X366327Y329488D01*
X366319Y329416D01*
X366319Y162610D01*
X366333Y162520D01*
X366341Y162429D01*
X366353Y162399D01*
X366358Y162368D01*
X366401Y162287D01*
X366437Y162203D01*
X366463Y162171D01*
X366474Y162150D01*
X366497Y162128D01*
X366542Y162072D01*
X385964Y142650D01*
X386038Y142597D01*
X386107Y142537D01*
X386138Y142525D01*
X386164Y142506D01*
X386251Y142479D01*
X386336Y142445D01*
X386376Y142441D01*
X386399Y142434D01*
X386431Y142435D01*
X386502Y142427D01*
X387691Y142427D01*
X390575Y141232D01*
X392782Y139025D01*
X393977Y136141D01*
X393977Y133019D01*
X392782Y130135D01*
X390575Y127928D01*
X387691Y126733D01*
X384569Y126733D01*
X381685Y127928D01*
X379478Y130135D01*
X378283Y133019D01*
X378283Y134208D01*
X378269Y134298D01*
X378261Y134389D01*
X378249Y134419D01*
X378244Y134450D01*
X378201Y134531D01*
X378165Y134615D01*
X378139Y134647D01*
X378128Y134668D01*
X378105Y134690D01*
X378060Y134746D01*
X355992Y156814D01*
X355141Y158868D01*
X355141Y329416D01*
X355127Y329506D01*
X355119Y329597D01*
X355107Y329627D01*
X355102Y329659D01*
X355059Y329740D01*
X355023Y329824D01*
X354997Y329856D01*
X354986Y329877D01*
X354963Y329899D01*
X354918Y329955D01*
X354664Y330209D01*
X354606Y330251D01*
X354554Y330300D01*
X354507Y330322D01*
X354465Y330352D01*
X354396Y330373D01*
X354331Y330404D01*
X354279Y330409D01*
X354229Y330425D01*
X354158Y330423D01*
X354087Y330431D01*
X354036Y330420D01*
X353984Y330418D01*
X353916Y330394D01*
X353846Y330378D01*
X353801Y330352D01*
X353753Y330334D01*
X353697Y330289D01*
X353635Y330252D01*
X353601Y330213D01*
X353561Y330180D01*
X353522Y330120D01*
X353475Y330065D01*
X353456Y330017D01*
X353428Y329973D01*
X353410Y329904D01*
X353383Y329837D01*
X353375Y329766D01*
X353367Y329735D01*
X353369Y329711D01*
X353365Y329671D01*
X353365Y290746D01*
X352359Y288319D01*
X303981Y239941D01*
X301554Y238935D01*
X206516Y238935D01*
X206496Y238932D01*
X206477Y238934D01*
X206375Y238912D01*
X206273Y238896D01*
X206256Y238886D01*
X206236Y238882D01*
X206147Y238829D01*
X206056Y238780D01*
X206042Y238766D01*
X206025Y238756D01*
X205958Y238677D01*
X205886Y238602D01*
X205878Y238584D01*
X205865Y238569D01*
X205826Y238473D01*
X205783Y238379D01*
X205781Y238359D01*
X205773Y238341D01*
X205755Y238174D01*
X205755Y226656D01*
X204454Y225355D01*
X204401Y225281D01*
X204341Y225212D01*
X204329Y225182D01*
X204310Y225156D01*
X204283Y225069D01*
X204249Y224984D01*
X204245Y224943D01*
X204238Y224920D01*
X204239Y224888D01*
X204231Y224817D01*
X204231Y221663D01*
X194952Y221663D01*
X194932Y221660D01*
X194913Y221662D01*
X194811Y221640D01*
X194709Y221623D01*
X194692Y221614D01*
X194672Y221610D01*
X194583Y221557D01*
X194492Y221508D01*
X194478Y221494D01*
X194461Y221484D01*
X194394Y221405D01*
X194323Y221330D01*
X194314Y221312D01*
X194301Y221297D01*
X194262Y221201D01*
X194219Y221107D01*
X194217Y221087D01*
X194209Y221069D01*
X194191Y220902D01*
X194191Y219378D01*
X194194Y219358D01*
X194192Y219339D01*
X194214Y219237D01*
X194231Y219135D01*
X194240Y219118D01*
X194244Y219098D01*
X194297Y219009D01*
X194346Y218918D01*
X194360Y218904D01*
X194370Y218887D01*
X194449Y218820D01*
X194524Y218749D01*
X194542Y218740D01*
X194557Y218727D01*
X194653Y218688D01*
X194747Y218645D01*
X194767Y218643D01*
X194785Y218635D01*
X194952Y218617D01*
X204231Y218617D01*
X204231Y215306D01*
X204058Y214659D01*
X203723Y214080D01*
X203184Y213541D01*
X203117Y213487D01*
X203115Y213484D01*
X203112Y213481D01*
X203049Y213381D01*
X202984Y213280D01*
X202983Y213277D01*
X202981Y213273D01*
X202953Y213157D01*
X202924Y213042D01*
X202924Y213038D01*
X202923Y213034D01*
X202934Y212914D01*
X202943Y212797D01*
X202945Y212793D01*
X202945Y212789D01*
X202993Y212679D01*
X203039Y212570D01*
X203042Y212567D01*
X203044Y212564D01*
X203053Y212554D01*
X203144Y212439D01*
X204285Y211299D01*
X214338Y201246D01*
X215189Y199192D01*
X215189Y137278D01*
X214993Y136805D01*
X214978Y136741D01*
X214953Y136680D01*
X214944Y136598D01*
X214937Y136566D01*
X214938Y136546D01*
X214935Y136514D01*
X214935Y69795D01*
X214949Y69705D01*
X214957Y69614D01*
X214969Y69584D01*
X214974Y69552D01*
X215017Y69472D01*
X215053Y69388D01*
X215079Y69356D01*
X215090Y69335D01*
X215113Y69313D01*
X215158Y69257D01*
X223045Y61370D01*
X223119Y61317D01*
X223188Y61257D01*
X223218Y61245D01*
X223245Y61226D01*
X223331Y61199D01*
X223416Y61165D01*
X223457Y61161D01*
X223480Y61154D01*
X223512Y61155D01*
X223583Y61147D01*
X225131Y61147D01*
X228015Y59952D01*
X230222Y57745D01*
X231417Y54861D01*
X231417Y51739D01*
X230222Y48855D01*
X228015Y46648D01*
X225131Y45453D01*
X223019Y45453D01*
X222948Y45442D01*
X222877Y45440D01*
X222828Y45422D01*
X222776Y45414D01*
X222713Y45380D01*
X222646Y45355D01*
X222605Y45323D01*
X222559Y45298D01*
X222509Y45246D01*
X222454Y45202D01*
X222425Y45158D01*
X222389Y45120D01*
X222359Y45055D01*
X222321Y44995D01*
X222308Y44944D01*
X222286Y44897D01*
X222278Y44826D01*
X222260Y44756D01*
X222265Y44704D01*
X222259Y44653D01*
X222274Y44582D01*
X222280Y44511D01*
X222300Y44463D01*
X222311Y44412D01*
X222348Y44351D01*
X222376Y44285D01*
X222421Y44229D01*
X222437Y44201D01*
X222455Y44186D01*
X222481Y44154D01*
X223045Y43590D01*
X223119Y43536D01*
X223188Y43477D01*
X223218Y43465D01*
X223245Y43446D01*
X223332Y43419D01*
X223416Y43385D01*
X223457Y43381D01*
X223480Y43374D01*
X223512Y43375D01*
X223583Y43367D01*
X225131Y43367D01*
X228015Y42172D01*
X230222Y39965D01*
X231417Y37081D01*
X231417Y33959D01*
X230222Y31075D01*
X228015Y28868D01*
X225131Y27673D01*
X222009Y27673D01*
X219125Y28868D01*
X216918Y31075D01*
X215723Y33959D01*
X215723Y35507D01*
X215709Y35597D01*
X215701Y35688D01*
X215689Y35718D01*
X215684Y35750D01*
X215641Y35830D01*
X215605Y35914D01*
X215579Y35946D01*
X215568Y35967D01*
X215545Y35989D01*
X215500Y36045D01*
X193647Y57898D01*
X192835Y59859D01*
X192835Y67637D01*
X192824Y67707D01*
X192822Y67779D01*
X192804Y67828D01*
X192796Y67879D01*
X192762Y67943D01*
X192737Y68010D01*
X192705Y68051D01*
X192680Y68097D01*
X192628Y68146D01*
X192583Y68202D01*
X192540Y68230D01*
X192502Y68266D01*
X192437Y68296D01*
X192377Y68335D01*
X192326Y68348D01*
X192279Y68370D01*
X192208Y68378D01*
X192138Y68395D01*
X192086Y68391D01*
X192035Y68397D01*
X191964Y68381D01*
X191893Y68376D01*
X191845Y68356D01*
X191794Y68344D01*
X191733Y68308D01*
X191666Y68279D01*
X191631Y68251D01*
X190202Y67659D01*
X190146Y67625D01*
X190086Y67599D01*
X190021Y67547D01*
X189993Y67530D01*
X189980Y67514D01*
X189955Y67494D01*
X143941Y21481D01*
X143903Y21428D01*
X143857Y21381D01*
X143817Y21308D01*
X143798Y21281D01*
X143792Y21262D01*
X143776Y21234D01*
X142592Y18375D01*
X140385Y16168D01*
X137501Y14973D01*
X134379Y14973D01*
X131495Y16168D01*
X129288Y18375D01*
X128093Y21259D01*
X128093Y24381D01*
X129288Y27265D01*
X131495Y29472D01*
X134354Y30656D01*
X134410Y30691D01*
X134470Y30716D01*
X134534Y30768D01*
X134563Y30786D01*
X134575Y30801D01*
X134601Y30821D01*
X179084Y75305D01*
X179137Y75379D01*
X179197Y75448D01*
X179209Y75478D01*
X179228Y75505D01*
X179255Y75592D01*
X179289Y75676D01*
X179293Y75717D01*
X179300Y75740D01*
X179299Y75772D01*
X179307Y75843D01*
X179307Y76451D01*
X180502Y79335D01*
X182709Y81542D01*
X185593Y82737D01*
X188715Y82737D01*
X191630Y81529D01*
X191646Y81514D01*
X191693Y81492D01*
X191735Y81462D01*
X191804Y81441D01*
X191869Y81410D01*
X191921Y81405D01*
X191970Y81389D01*
X192042Y81391D01*
X192113Y81383D01*
X192164Y81394D01*
X192216Y81396D01*
X192284Y81420D01*
X192354Y81436D01*
X192398Y81462D01*
X192447Y81480D01*
X192503Y81525D01*
X192565Y81562D01*
X192599Y81601D01*
X192639Y81634D01*
X192678Y81694D01*
X192725Y81749D01*
X192744Y81797D01*
X192772Y81840D01*
X192790Y81910D01*
X192817Y81977D01*
X192825Y82048D01*
X192833Y82079D01*
X192831Y82102D01*
X192835Y82143D01*
X192835Y137784D01*
X192825Y137848D01*
X192824Y137914D01*
X192801Y137994D01*
X192796Y138026D01*
X192786Y138044D01*
X192777Y138075D01*
X192581Y138548D01*
X192581Y191640D01*
X192567Y191730D01*
X192559Y191821D01*
X192547Y191851D01*
X192542Y191882D01*
X192499Y191963D01*
X192463Y192047D01*
X192437Y192079D01*
X192426Y192100D01*
X192403Y192122D01*
X192358Y192178D01*
X189728Y194808D01*
X189654Y194861D01*
X189585Y194921D01*
X189554Y194933D01*
X189528Y194952D01*
X189441Y194979D01*
X189356Y195013D01*
X189316Y195017D01*
X189293Y195024D01*
X189261Y195023D01*
X189190Y195031D01*
X164038Y195031D01*
X161984Y195882D01*
X129932Y227934D01*
X129081Y229988D01*
X129081Y250060D01*
X129067Y250150D01*
X129059Y250241D01*
X129047Y250271D01*
X129042Y250302D01*
X128999Y250383D01*
X128963Y250467D01*
X128937Y250499D01*
X128926Y250520D01*
X128903Y250542D01*
X128858Y250598D01*
X126228Y253228D01*
X126154Y253281D01*
X126085Y253341D01*
X126054Y253353D01*
X126028Y253372D01*
X125941Y253399D01*
X125856Y253433D01*
X125816Y253437D01*
X125793Y253444D01*
X125761Y253443D01*
X125690Y253451D01*
X72598Y253451D01*
X70544Y254302D01*
X61352Y263494D01*
X60501Y265548D01*
X60501Y332610D01*
X60487Y332700D01*
X60479Y332791D01*
X60467Y332821D01*
X60462Y332852D01*
X60419Y332933D01*
X60383Y333017D01*
X60357Y333049D01*
X60346Y333070D01*
X60323Y333092D01*
X60278Y333148D01*
X52098Y341328D01*
X52024Y341381D01*
X51955Y341441D01*
X51924Y341453D01*
X51898Y341472D01*
X51811Y341499D01*
X51726Y341533D01*
X51686Y341537D01*
X51663Y341544D01*
X51631Y341543D01*
X51560Y341551D01*
X26516Y341551D01*
X26496Y341548D01*
X26477Y341550D01*
X26375Y341528D01*
X26273Y341512D01*
X26256Y341502D01*
X26236Y341498D01*
X26147Y341445D01*
X26056Y341396D01*
X26042Y341382D01*
X26025Y341372D01*
X25958Y341293D01*
X25886Y341218D01*
X25878Y341200D01*
X25865Y341185D01*
X25826Y341089D01*
X25783Y340995D01*
X25781Y340975D01*
X25773Y340957D01*
X25755Y340790D01*
X25755Y329878D01*
X25758Y329858D01*
X25756Y329839D01*
X25778Y329737D01*
X25794Y329635D01*
X25804Y329618D01*
X25808Y329598D01*
X25861Y329509D01*
X25910Y329418D01*
X25924Y329404D01*
X25934Y329387D01*
X26013Y329320D01*
X26088Y329248D01*
X26106Y329240D01*
X26121Y329227D01*
X26217Y329188D01*
X26311Y329145D01*
X26331Y329143D01*
X26349Y329135D01*
X26516Y329117D01*
X28281Y329117D01*
X31165Y327922D01*
X33372Y325715D01*
X34567Y322831D01*
X34567Y319709D01*
X33372Y316825D01*
X32005Y315458D01*
X31994Y315442D01*
X31978Y315430D01*
X31922Y315342D01*
X31862Y315259D01*
X31856Y315240D01*
X31845Y315223D01*
X31820Y315122D01*
X31789Y315023D01*
X31790Y315004D01*
X31785Y314984D01*
X31793Y314881D01*
X31796Y314778D01*
X31803Y314759D01*
X31804Y314739D01*
X31844Y314644D01*
X31880Y314547D01*
X31893Y314531D01*
X31900Y314513D01*
X32005Y314382D01*
X33372Y313015D01*
X34567Y310131D01*
X34567Y307009D01*
X33319Y303997D01*
X33309Y303953D01*
X33289Y303911D01*
X33281Y303834D01*
X33263Y303758D01*
X33267Y303712D01*
X33262Y303667D01*
X33279Y303590D01*
X33286Y303513D01*
X33305Y303471D01*
X33314Y303426D01*
X33354Y303359D01*
X33386Y303288D01*
X33417Y303254D01*
X33441Y303215D01*
X33500Y303164D01*
X33552Y303107D01*
X33593Y303085D01*
X33628Y303055D01*
X33700Y303026D01*
X33768Y302989D01*
X33813Y302980D01*
X33856Y302963D01*
X33992Y302948D01*
X34010Y302945D01*
X34015Y302946D01*
X34022Y302945D01*
X38994Y302945D01*
X41421Y301939D01*
X43299Y300061D01*
X43352Y300023D01*
X43399Y299977D01*
X43472Y299937D01*
X43499Y299918D01*
X43518Y299912D01*
X43546Y299896D01*
X46405Y298712D01*
X48612Y296505D01*
X49807Y293621D01*
X49807Y290499D01*
X48612Y287615D01*
X46405Y285408D01*
X43521Y284213D01*
X40399Y284213D01*
X37515Y285408D01*
X35308Y287615D01*
X34624Y289265D01*
X34563Y289365D01*
X34503Y289465D01*
X34498Y289469D01*
X34495Y289474D01*
X34405Y289549D01*
X34316Y289625D01*
X34310Y289627D01*
X34305Y289631D01*
X34197Y289673D01*
X34088Y289717D01*
X34080Y289718D01*
X34076Y289719D01*
X34057Y289720D01*
X33921Y289735D01*
X26516Y289735D01*
X26496Y289732D01*
X26477Y289734D01*
X26375Y289712D01*
X26273Y289696D01*
X26256Y289686D01*
X26236Y289682D01*
X26147Y289629D01*
X26056Y289580D01*
X26042Y289566D01*
X26025Y289556D01*
X25958Y289477D01*
X25886Y289402D01*
X25878Y289384D01*
X25865Y289369D01*
X25826Y289273D01*
X25783Y289179D01*
X25781Y289159D01*
X25773Y289141D01*
X25755Y288974D01*
X25755Y265098D01*
X25758Y265078D01*
X25756Y265059D01*
X25778Y264957D01*
X25794Y264855D01*
X25804Y264838D01*
X25808Y264818D01*
X25861Y264729D01*
X25910Y264638D01*
X25924Y264624D01*
X25934Y264607D01*
X26013Y264540D01*
X26088Y264468D01*
X26106Y264460D01*
X26121Y264447D01*
X26217Y264408D01*
X26311Y264365D01*
X26331Y264363D01*
X26349Y264355D01*
X26516Y264337D01*
X47783Y264337D01*
X50024Y263409D01*
X130622Y182810D01*
X130696Y182757D01*
X130766Y182697D01*
X130796Y182685D01*
X130822Y182666D01*
X130909Y182639D01*
X130994Y182605D01*
X131035Y182601D01*
X131057Y182594D01*
X131089Y182595D01*
X131161Y182587D01*
X173804Y182587D01*
X173895Y182601D01*
X173985Y182609D01*
X174015Y182621D01*
X174047Y182626D01*
X174128Y182669D01*
X174212Y182705D01*
X174244Y182731D01*
X174265Y182742D01*
X174287Y182765D01*
X174343Y182810D01*
X174675Y183142D01*
X177559Y184337D01*
X180681Y184337D01*
X183565Y183142D01*
X185772Y180935D01*
X186967Y178051D01*
X186967Y174929D01*
X185772Y172045D01*
X183565Y169838D01*
X180681Y168643D01*
X177559Y168643D01*
X174675Y169838D01*
X174343Y170170D01*
X174269Y170223D01*
X174199Y170283D01*
X174169Y170295D01*
X174143Y170314D01*
X174056Y170341D01*
X173971Y170375D01*
X173930Y170379D01*
X173908Y170386D01*
X173876Y170385D01*
X173804Y170393D01*
X127107Y170393D01*
X124866Y171321D01*
X44268Y251920D01*
X44194Y251973D01*
X44124Y252033D01*
X44094Y252045D01*
X44068Y252064D01*
X43981Y252091D01*
X43896Y252125D01*
X43855Y252129D01*
X43833Y252136D01*
X43801Y252135D01*
X43729Y252143D01*
X32549Y252143D01*
X32453Y252128D01*
X32356Y252118D01*
X32332Y252108D01*
X32307Y252104D01*
X32221Y252058D01*
X32132Y252018D01*
X32112Y252001D01*
X32089Y251988D01*
X32022Y251918D01*
X31951Y251852D01*
X31938Y251829D01*
X31920Y251810D01*
X31879Y251722D01*
X31832Y251636D01*
X31827Y251611D01*
X31816Y251587D01*
X31806Y251490D01*
X31788Y251394D01*
X31792Y251368D01*
X31789Y251343D01*
X31810Y251247D01*
X31824Y251151D01*
X31836Y251128D01*
X31841Y251102D01*
X31891Y251018D01*
X31936Y250932D01*
X31954Y250914D01*
X31968Y250891D01*
X32042Y250828D01*
X32111Y250760D01*
X32140Y250744D01*
X32155Y250731D01*
X32185Y250719D01*
X32258Y250679D01*
X33226Y250278D01*
X37808Y245696D01*
X38659Y243642D01*
X38659Y142290D01*
X38673Y142200D01*
X38681Y142109D01*
X38693Y142079D01*
X38698Y142048D01*
X38741Y141967D01*
X38777Y141883D01*
X38803Y141851D01*
X38814Y141830D01*
X38837Y141808D01*
X38882Y141752D01*
X40116Y140518D01*
X40190Y140465D01*
X40259Y140405D01*
X40290Y140393D01*
X40316Y140374D01*
X40403Y140347D01*
X40488Y140313D01*
X40528Y140309D01*
X40551Y140302D01*
X40583Y140303D01*
X40654Y140295D01*
X54954Y140295D01*
X57335Y137914D01*
X57335Y118546D01*
X54954Y116165D01*
X36586Y116165D01*
X35097Y117655D01*
X35066Y117677D01*
X32768Y119975D01*
X31573Y122859D01*
X31573Y125981D01*
X32768Y128865D01*
X33826Y129923D01*
X33838Y129940D01*
X33854Y129952D01*
X33910Y130039D01*
X33970Y130123D01*
X33976Y130142D01*
X33987Y130159D01*
X34012Y130259D01*
X34042Y130358D01*
X34042Y130378D01*
X34047Y130397D01*
X34039Y130500D01*
X34036Y130604D01*
X34029Y130623D01*
X34028Y130643D01*
X33987Y130738D01*
X33952Y130835D01*
X33939Y130851D01*
X33931Y130869D01*
X33826Y131000D01*
X30011Y134815D01*
X28332Y136494D01*
X27481Y138548D01*
X27481Y224631D01*
X27474Y224676D01*
X27476Y224722D01*
X27454Y224797D01*
X27442Y224874D01*
X27420Y224914D01*
X27407Y224958D01*
X27363Y225022D01*
X27326Y225091D01*
X27293Y225123D01*
X27267Y225160D01*
X27204Y225207D01*
X27148Y225260D01*
X27106Y225280D01*
X27070Y225307D01*
X26996Y225331D01*
X26925Y225364D01*
X26879Y225369D01*
X26836Y225383D01*
X26758Y225383D01*
X26681Y225391D01*
X26636Y225381D01*
X26590Y225381D01*
X26458Y225343D01*
X26440Y225339D01*
X26436Y225336D01*
X26429Y225334D01*
X24701Y224619D01*
X24601Y224557D01*
X24501Y224497D01*
X24497Y224492D01*
X24492Y224489D01*
X24417Y224399D01*
X24341Y224310D01*
X24339Y224304D01*
X24335Y224299D01*
X24293Y224191D01*
X24274Y224142D01*
X24259Y224111D01*
X24258Y224104D01*
X24249Y224082D01*
X24248Y224074D01*
X24247Y224070D01*
X24246Y224052D01*
X24231Y223915D01*
X24231Y221663D01*
X14952Y221663D01*
X14932Y221660D01*
X14913Y221662D01*
X14811Y221640D01*
X14709Y221623D01*
X14692Y221614D01*
X14672Y221610D01*
X14583Y221557D01*
X14492Y221508D01*
X14478Y221494D01*
X14461Y221484D01*
X14394Y221405D01*
X14323Y221330D01*
X14314Y221312D01*
X14301Y221297D01*
X14262Y221201D01*
X14219Y221107D01*
X14217Y221087D01*
X14209Y221069D01*
X14191Y220902D01*
X14191Y220139D01*
X13428Y220139D01*
X13408Y220136D01*
X13389Y220138D01*
X13287Y220116D01*
X13185Y220099D01*
X13168Y220090D01*
X13148Y220086D01*
X13059Y220033D01*
X12968Y219984D01*
X12954Y219970D01*
X12937Y219960D01*
X12870Y219881D01*
X12799Y219806D01*
X12790Y219788D01*
X12777Y219773D01*
X12738Y219677D01*
X12695Y219583D01*
X12693Y219563D01*
X12685Y219545D01*
X12667Y219378D01*
X12667Y213099D01*
X11607Y213099D01*
X11587Y213096D01*
X11568Y213098D01*
X11466Y213076D01*
X11364Y213060D01*
X11347Y213050D01*
X11327Y213046D01*
X11238Y212993D01*
X11147Y212944D01*
X11133Y212930D01*
X11116Y212920D01*
X11049Y212841D01*
X10977Y212766D01*
X10969Y212748D01*
X10956Y212733D01*
X10917Y212637D01*
X10874Y212543D01*
X10872Y212523D01*
X10864Y212505D01*
X10846Y212338D01*
X10846Y70696D01*
X10849Y70676D01*
X10847Y70657D01*
X10869Y70555D01*
X10885Y70453D01*
X10895Y70436D01*
X10899Y70416D01*
X10952Y70327D01*
X11001Y70236D01*
X11015Y70222D01*
X11025Y70205D01*
X11104Y70138D01*
X11179Y70066D01*
X11197Y70058D01*
X11212Y70045D01*
X11308Y70006D01*
X11402Y69963D01*
X11422Y69961D01*
X11440Y69953D01*
X11607Y69935D01*
X21514Y69935D01*
X23895Y67554D01*
X23895Y52186D01*
X21514Y49805D01*
X11607Y49805D01*
X11587Y49802D01*
X11568Y49804D01*
X11466Y49782D01*
X11364Y49766D01*
X11347Y49756D01*
X11327Y49752D01*
X11238Y49699D01*
X11147Y49650D01*
X11133Y49636D01*
X11116Y49626D01*
X11049Y49547D01*
X10977Y49472D01*
X10969Y49454D01*
X10956Y49439D01*
X10917Y49343D01*
X10874Y49249D01*
X10872Y49229D01*
X10864Y49211D01*
X10846Y49044D01*
X10846Y34696D01*
X10849Y34676D01*
X10847Y34657D01*
X10869Y34555D01*
X10885Y34453D01*
X10895Y34436D01*
X10899Y34416D01*
X10952Y34327D01*
X11001Y34236D01*
X11015Y34222D01*
X11025Y34205D01*
X11104Y34138D01*
X11179Y34066D01*
X11197Y34058D01*
X11212Y34045D01*
X11308Y34006D01*
X11402Y33963D01*
X11422Y33961D01*
X11440Y33953D01*
X11607Y33935D01*
X21514Y33935D01*
X23895Y31554D01*
X23895Y16186D01*
X21514Y13805D01*
X11607Y13805D01*
X11587Y13802D01*
X11568Y13804D01*
X11466Y13782D01*
X11364Y13766D01*
X11347Y13756D01*
X11327Y13752D01*
X11238Y13699D01*
X11147Y13650D01*
X11133Y13636D01*
X11116Y13626D01*
X11049Y13547D01*
X10977Y13472D01*
X10969Y13454D01*
X10956Y13439D01*
X10917Y13343D01*
X10874Y13249D01*
X10872Y13229D01*
X10864Y13211D01*
X10846Y13044D01*
X10846Y11517D01*
X10849Y11497D01*
X10847Y11478D01*
X10869Y11376D01*
X10885Y11274D01*
X10895Y11257D01*
X10899Y11237D01*
X10952Y11148D01*
X11001Y11057D01*
X11015Y11043D01*
X11025Y11026D01*
X11104Y10959D01*
X11179Y10887D01*
X11197Y10879D01*
X11212Y10866D01*
X11308Y10827D01*
X11402Y10784D01*
X11422Y10782D01*
X11440Y10774D01*
X11607Y10756D01*
X60300Y10756D01*
X60370Y10767D01*
G37*
G36*
X183670Y213848D02*
X183670Y213848D01*
X183788Y213866D01*
X183792Y213868D01*
X183796Y213868D01*
X183900Y213924D01*
X184006Y213979D01*
X184009Y213982D01*
X184013Y213984D01*
X184094Y214069D01*
X184178Y214155D01*
X184180Y214159D01*
X184182Y214162D01*
X184233Y214270D01*
X184284Y214377D01*
X184284Y214381D01*
X184286Y214385D01*
X184299Y214500D01*
X184314Y214621D01*
X184313Y214626D01*
X184313Y214629D01*
X184310Y214643D01*
X184288Y214787D01*
X184149Y215306D01*
X184149Y218617D01*
X193428Y218617D01*
X193448Y218620D01*
X193467Y218618D01*
X193569Y218640D01*
X193671Y218657D01*
X193688Y218666D01*
X193708Y218670D01*
X193797Y218723D01*
X193888Y218772D01*
X193902Y218786D01*
X193919Y218796D01*
X193986Y218875D01*
X194057Y218950D01*
X194066Y218968D01*
X194079Y218983D01*
X194118Y219079D01*
X194161Y219173D01*
X194163Y219193D01*
X194171Y219211D01*
X194189Y219378D01*
X194189Y220902D01*
X194186Y220922D01*
X194188Y220941D01*
X194166Y221043D01*
X194149Y221145D01*
X194140Y221162D01*
X194136Y221182D01*
X194083Y221271D01*
X194034Y221362D01*
X194020Y221376D01*
X194010Y221393D01*
X193931Y221460D01*
X193856Y221531D01*
X193838Y221540D01*
X193823Y221553D01*
X193727Y221592D01*
X193633Y221635D01*
X193613Y221637D01*
X193595Y221645D01*
X193428Y221663D01*
X184149Y221663D01*
X184149Y224817D01*
X184135Y224907D01*
X184127Y224998D01*
X184115Y225028D01*
X184110Y225060D01*
X184067Y225140D01*
X184031Y225224D01*
X184005Y225256D01*
X183994Y225277D01*
X183971Y225299D01*
X183926Y225355D01*
X182723Y226558D01*
X182649Y226611D01*
X182580Y226671D01*
X182550Y226683D01*
X182524Y226702D01*
X182437Y226729D01*
X182352Y226763D01*
X182311Y226767D01*
X182288Y226774D01*
X182256Y226773D01*
X182185Y226781D01*
X180548Y226781D01*
X178494Y227632D01*
X168032Y238094D01*
X167181Y240148D01*
X167181Y307827D01*
X167170Y307897D01*
X167168Y307969D01*
X167150Y308018D01*
X167142Y308069D01*
X167108Y308132D01*
X167083Y308200D01*
X167051Y308241D01*
X167026Y308287D01*
X166975Y308336D01*
X166930Y308392D01*
X166886Y308420D01*
X166848Y308456D01*
X166783Y308486D01*
X166723Y308525D01*
X166672Y308538D01*
X166625Y308560D01*
X166554Y308568D01*
X166484Y308585D01*
X166432Y308581D01*
X166381Y308587D01*
X166310Y308571D01*
X166239Y308566D01*
X166191Y308546D01*
X166140Y308534D01*
X166079Y308498D01*
X166013Y308470D01*
X165957Y308425D01*
X165929Y308408D01*
X165914Y308391D01*
X165882Y308365D01*
X165785Y308268D01*
X162901Y307073D01*
X159779Y307073D01*
X156895Y308268D01*
X154688Y310475D01*
X153493Y313359D01*
X153493Y316481D01*
X154688Y319365D01*
X154954Y319631D01*
X155011Y319710D01*
X155073Y319785D01*
X155082Y319809D01*
X155097Y319831D01*
X155126Y319924D01*
X155161Y320014D01*
X155162Y320041D01*
X155170Y320066D01*
X155167Y320163D01*
X155171Y320260D01*
X155164Y320285D01*
X155163Y320312D01*
X155130Y320403D01*
X155103Y320496D01*
X155088Y320518D01*
X155079Y320543D01*
X155018Y320619D01*
X154963Y320699D01*
X154942Y320714D01*
X154925Y320735D01*
X154843Y320787D01*
X154765Y320845D01*
X154740Y320853D01*
X154718Y320868D01*
X154624Y320891D01*
X154531Y320921D01*
X154505Y320921D01*
X154480Y320928D01*
X154383Y320920D01*
X154285Y320919D01*
X154254Y320910D01*
X154235Y320908D01*
X154204Y320896D01*
X154124Y320872D01*
X151471Y319773D01*
X148349Y319773D01*
X147661Y320058D01*
X147617Y320069D01*
X147575Y320088D01*
X147498Y320097D01*
X147422Y320114D01*
X147376Y320110D01*
X147331Y320115D01*
X147254Y320099D01*
X147177Y320091D01*
X147135Y320073D01*
X147090Y320063D01*
X147023Y320023D01*
X146952Y319991D01*
X146918Y319960D01*
X146879Y319937D01*
X146828Y319878D01*
X146771Y319825D01*
X146749Y319785D01*
X146719Y319750D01*
X146690Y319677D01*
X146653Y319609D01*
X146644Y319564D01*
X146627Y319522D01*
X146612Y319386D01*
X146609Y319367D01*
X146610Y319362D01*
X146609Y319355D01*
X146609Y312470D01*
X146623Y312380D01*
X146631Y312289D01*
X146643Y312259D01*
X146648Y312228D01*
X146691Y312147D01*
X146727Y312063D01*
X146753Y312031D01*
X146764Y312010D01*
X146787Y311988D01*
X146832Y311932D01*
X151014Y307750D01*
X151088Y307697D01*
X151157Y307637D01*
X151188Y307625D01*
X151214Y307606D01*
X151301Y307579D01*
X151386Y307545D01*
X151426Y307541D01*
X151449Y307534D01*
X151481Y307535D01*
X151552Y307527D01*
X152741Y307527D01*
X155625Y306332D01*
X157832Y304125D01*
X159027Y301241D01*
X159027Y298119D01*
X157832Y295235D01*
X155625Y293028D01*
X152741Y291833D01*
X149619Y291833D01*
X146735Y293028D01*
X144528Y295235D01*
X143333Y298119D01*
X143333Y299308D01*
X143319Y299398D01*
X143311Y299489D01*
X143299Y299519D01*
X143294Y299550D01*
X143251Y299631D01*
X143215Y299715D01*
X143189Y299747D01*
X143178Y299768D01*
X143155Y299790D01*
X143110Y299846D01*
X138030Y304926D01*
X137972Y304968D01*
X137920Y305017D01*
X137873Y305039D01*
X137831Y305070D01*
X137762Y305091D01*
X137697Y305121D01*
X137645Y305127D01*
X137595Y305142D01*
X137524Y305140D01*
X137453Y305148D01*
X137402Y305137D01*
X137350Y305136D01*
X137282Y305111D01*
X137212Y305096D01*
X137167Y305069D01*
X137119Y305051D01*
X137063Y305006D01*
X137001Y304970D01*
X136967Y304930D01*
X136927Y304897D01*
X136888Y304837D01*
X136841Y304783D01*
X136822Y304734D01*
X136794Y304691D01*
X136776Y304621D01*
X136749Y304555D01*
X136741Y304483D01*
X136733Y304452D01*
X136735Y304429D01*
X136731Y304388D01*
X136731Y298663D01*
X105713Y298663D01*
X105713Y329681D01*
X134609Y329681D01*
X134709Y329670D01*
X134713Y329670D01*
X134717Y329670D01*
X134833Y329696D01*
X134950Y329722D01*
X134953Y329724D01*
X134957Y329725D01*
X135059Y329787D01*
X135161Y329848D01*
X135164Y329851D01*
X135167Y329853D01*
X135244Y329945D01*
X135321Y330035D01*
X135322Y330039D01*
X135325Y330042D01*
X135368Y330152D01*
X135413Y330263D01*
X135413Y330268D01*
X135414Y330271D01*
X135415Y330284D01*
X135431Y330430D01*
X135431Y384612D01*
X136282Y386666D01*
X136892Y387276D01*
X136934Y387334D01*
X136983Y387386D01*
X137005Y387433D01*
X137036Y387475D01*
X137057Y387544D01*
X137087Y387609D01*
X137093Y387661D01*
X137108Y387711D01*
X137106Y387782D01*
X137114Y387853D01*
X137103Y387904D01*
X137102Y387956D01*
X137077Y388024D01*
X137062Y388094D01*
X137035Y388139D01*
X137017Y388187D01*
X136972Y388243D01*
X136936Y388305D01*
X136896Y388339D01*
X136863Y388379D01*
X136803Y388418D01*
X136749Y388465D01*
X136700Y388484D01*
X136657Y388512D01*
X136587Y388530D01*
X136521Y388557D01*
X136449Y388565D01*
X136418Y388573D01*
X136395Y388571D01*
X136354Y388575D01*
X53556Y388575D01*
X52255Y389876D01*
X52181Y389929D01*
X52112Y389989D01*
X52082Y390001D01*
X52056Y390020D01*
X51969Y390047D01*
X51884Y390081D01*
X51843Y390085D01*
X51820Y390092D01*
X51788Y390091D01*
X51717Y390099D01*
X48563Y390099D01*
X48563Y399378D01*
X48560Y399398D01*
X48562Y399417D01*
X48540Y399519D01*
X48523Y399621D01*
X48514Y399638D01*
X48510Y399658D01*
X48457Y399747D01*
X48408Y399838D01*
X48394Y399852D01*
X48384Y399869D01*
X48305Y399936D01*
X48230Y400007D01*
X48212Y400016D01*
X48197Y400029D01*
X48101Y400068D01*
X48007Y400111D01*
X47987Y400113D01*
X47969Y400121D01*
X47802Y400139D01*
X47039Y400139D01*
X47039Y400141D01*
X47802Y400141D01*
X47822Y400144D01*
X47841Y400142D01*
X47943Y400164D01*
X48045Y400181D01*
X48062Y400190D01*
X48082Y400194D01*
X48171Y400247D01*
X48262Y400296D01*
X48276Y400310D01*
X48293Y400320D01*
X48360Y400399D01*
X48431Y400474D01*
X48440Y400492D01*
X48453Y400507D01*
X48492Y400603D01*
X48535Y400697D01*
X48537Y400717D01*
X48545Y400735D01*
X48563Y400902D01*
X48563Y410181D01*
X51717Y410181D01*
X51807Y410195D01*
X51898Y410203D01*
X51928Y410215D01*
X51960Y410220D01*
X52040Y410263D01*
X52124Y410299D01*
X52156Y410325D01*
X52177Y410336D01*
X52199Y410359D01*
X52255Y410404D01*
X53589Y411737D01*
X53633Y411744D01*
X53650Y411754D01*
X53670Y411758D01*
X53759Y411811D01*
X53850Y411860D01*
X53864Y411874D01*
X53881Y411884D01*
X53948Y411963D01*
X54020Y412038D01*
X54028Y412056D01*
X54041Y412071D01*
X54080Y412167D01*
X54123Y412261D01*
X54125Y412281D01*
X54133Y412299D01*
X54151Y412466D01*
X54151Y415092D01*
X55002Y417146D01*
X74354Y436498D01*
X76408Y437349D01*
X138223Y437349D01*
X138294Y437360D01*
X138365Y437362D01*
X138414Y437380D01*
X138466Y437388D01*
X138529Y437422D01*
X138596Y437447D01*
X138637Y437479D01*
X138683Y437504D01*
X138732Y437556D01*
X138788Y437600D01*
X138817Y437644D01*
X138852Y437682D01*
X138883Y437747D01*
X138921Y437807D01*
X138934Y437858D01*
X138956Y437905D01*
X138964Y437976D01*
X138981Y438046D01*
X138977Y438098D01*
X138983Y438149D01*
X138968Y438220D01*
X138962Y438291D01*
X138942Y438339D01*
X138931Y438390D01*
X138894Y438451D01*
X138866Y438517D01*
X138821Y438573D01*
X138805Y438601D01*
X138787Y438616D01*
X138761Y438648D01*
X115796Y461614D01*
X113831Y463579D01*
X113717Y463853D01*
X113655Y463953D01*
X113596Y464053D01*
X113591Y464057D01*
X113587Y464062D01*
X113497Y464137D01*
X113409Y464213D01*
X113403Y464215D01*
X113398Y464219D01*
X113290Y464261D01*
X113180Y464305D01*
X113173Y464306D01*
X113168Y464307D01*
X113150Y464308D01*
X113014Y464323D01*
X99923Y464323D01*
X99923Y477841D01*
X111234Y477841D01*
X111867Y477671D01*
X111986Y477659D01*
X112103Y477646D01*
X112108Y477647D01*
X112112Y477647D01*
X112227Y477673D01*
X112344Y477699D01*
X112347Y477701D01*
X112351Y477702D01*
X112453Y477764D01*
X112555Y477825D01*
X112558Y477828D01*
X112561Y477830D01*
X112637Y477921D01*
X112715Y478012D01*
X112716Y478016D01*
X112719Y478019D01*
X112761Y478126D01*
X112807Y478240D01*
X112807Y478245D01*
X112809Y478248D01*
X112809Y478261D01*
X112825Y478407D01*
X112825Y489212D01*
X112806Y489327D01*
X112789Y489443D01*
X112787Y489448D01*
X112786Y489455D01*
X112731Y489558D01*
X112678Y489662D01*
X112673Y489666D01*
X112670Y489672D01*
X112586Y489752D01*
X112502Y489834D01*
X112496Y489838D01*
X112492Y489841D01*
X112475Y489849D01*
X112472Y489851D01*
X110238Y492085D01*
X109043Y494969D01*
X109043Y498091D01*
X110238Y500975D01*
X112445Y503182D01*
X115329Y504377D01*
X118451Y504377D01*
X121335Y503182D01*
X123542Y500975D01*
X124726Y498116D01*
X124761Y498060D01*
X124786Y498000D01*
X124838Y497935D01*
X124856Y497907D01*
X124871Y497895D01*
X124891Y497869D01*
X125029Y497731D01*
X126035Y495304D01*
X126035Y470371D01*
X126049Y470281D01*
X126057Y470190D01*
X126069Y470160D01*
X126074Y470128D01*
X126117Y470048D01*
X126153Y469964D01*
X126179Y469932D01*
X126190Y469911D01*
X126213Y469889D01*
X126258Y469833D01*
X147343Y448748D01*
X147417Y448695D01*
X147486Y448635D01*
X147516Y448623D01*
X147543Y448604D01*
X147630Y448577D01*
X147714Y448543D01*
X147755Y448539D01*
X147778Y448532D01*
X147810Y448533D01*
X147881Y448525D01*
X151074Y448525D01*
X151094Y448528D01*
X151113Y448526D01*
X151215Y448548D01*
X151317Y448564D01*
X151334Y448574D01*
X151354Y448578D01*
X151443Y448631D01*
X151534Y448680D01*
X151548Y448694D01*
X151565Y448704D01*
X151632Y448783D01*
X151704Y448858D01*
X151712Y448876D01*
X151725Y448891D01*
X151764Y448987D01*
X151807Y449081D01*
X151809Y449101D01*
X151817Y449119D01*
X151835Y449286D01*
X151835Y476984D01*
X154216Y479365D01*
X182584Y479365D01*
X184965Y476984D01*
X184965Y449286D01*
X184968Y449266D01*
X184966Y449247D01*
X184988Y449145D01*
X185004Y449043D01*
X185014Y449026D01*
X185018Y449006D01*
X185071Y448917D01*
X185120Y448826D01*
X185134Y448812D01*
X185144Y448795D01*
X185223Y448728D01*
X185298Y448656D01*
X185316Y448648D01*
X185331Y448635D01*
X185427Y448596D01*
X185521Y448553D01*
X185541Y448551D01*
X185559Y448543D01*
X185726Y448525D01*
X187499Y448525D01*
X187589Y448539D01*
X187680Y448547D01*
X187710Y448559D01*
X187742Y448564D01*
X187822Y448607D01*
X187906Y448643D01*
X187938Y448669D01*
X187959Y448680D01*
X187981Y448703D01*
X188037Y448748D01*
X221099Y481809D01*
X223526Y482815D01*
X300139Y482815D01*
X300204Y482825D01*
X300270Y482826D01*
X300350Y482849D01*
X300382Y482854D01*
X300399Y482864D01*
X300431Y482873D01*
X303289Y484057D01*
X306411Y484057D01*
X309269Y482873D01*
X309333Y482858D01*
X309394Y482833D01*
X309477Y482824D01*
X309509Y482817D01*
X309528Y482818D01*
X309561Y482815D01*
X374189Y482815D01*
X374279Y482829D01*
X374370Y482837D01*
X374400Y482849D01*
X374432Y482854D01*
X374512Y482897D01*
X374596Y482933D01*
X374628Y482959D01*
X374649Y482970D01*
X374671Y482993D01*
X374727Y483038D01*
X378482Y486792D01*
X378519Y486844D01*
X378564Y486890D01*
X378590Y486943D01*
X378625Y486992D01*
X378644Y487053D01*
X378672Y487110D01*
X378680Y487170D01*
X378698Y487227D01*
X378696Y487291D01*
X378704Y487354D01*
X378693Y487413D01*
X378691Y487473D01*
X378669Y487533D01*
X378657Y487596D01*
X378627Y487648D01*
X378607Y487704D01*
X378567Y487754D01*
X378535Y487809D01*
X378491Y487849D01*
X378453Y487896D01*
X378399Y487930D01*
X378352Y487973D01*
X378297Y487997D01*
X378246Y488029D01*
X378184Y488045D01*
X378125Y488070D01*
X378066Y488074D01*
X378008Y488089D01*
X377944Y488084D01*
X377880Y488089D01*
X377822Y488075D01*
X377762Y488070D01*
X377704Y488045D01*
X377642Y488029D01*
X377566Y487986D01*
X377536Y487974D01*
X377517Y487958D01*
X377496Y487946D01*
X377443Y487908D01*
X376030Y487188D01*
X374521Y486697D01*
X373683Y486565D01*
X373683Y495007D01*
X382125Y495007D01*
X381993Y494169D01*
X381502Y492660D01*
X380782Y491247D01*
X380744Y491194D01*
X380715Y491137D01*
X380678Y491085D01*
X380660Y491028D01*
X380633Y490974D01*
X380624Y490911D01*
X380605Y490850D01*
X380607Y490790D01*
X380598Y490731D01*
X380610Y490668D01*
X380612Y490604D01*
X380632Y490548D01*
X380643Y490489D01*
X380674Y490433D01*
X380696Y490373D01*
X380734Y490326D01*
X380763Y490274D01*
X380810Y490231D01*
X380850Y490181D01*
X380900Y490149D01*
X380945Y490108D01*
X381003Y490083D01*
X381057Y490048D01*
X381115Y490033D01*
X381170Y490009D01*
X381233Y490004D01*
X381295Y489988D01*
X381355Y489993D01*
X381415Y489987D01*
X381477Y490002D01*
X381541Y490007D01*
X381596Y490031D01*
X381654Y490045D01*
X381708Y490079D01*
X381767Y490103D01*
X381834Y490157D01*
X381862Y490175D01*
X381879Y490193D01*
X381898Y490208D01*
X385732Y494043D01*
X385785Y494117D01*
X385845Y494186D01*
X385857Y494216D01*
X385876Y494243D01*
X385903Y494329D01*
X385937Y494414D01*
X385941Y494455D01*
X385948Y494478D01*
X385947Y494510D01*
X385955Y494581D01*
X385955Y498838D01*
X387722Y503104D01*
X390986Y506368D01*
X395252Y508135D01*
X399868Y508135D01*
X404134Y506368D01*
X407398Y503104D01*
X409165Y498838D01*
X409165Y494222D01*
X407398Y489956D01*
X404134Y486692D01*
X399868Y484925D01*
X395611Y484925D01*
X395521Y484911D01*
X395430Y484903D01*
X395400Y484891D01*
X395368Y484886D01*
X395288Y484843D01*
X395204Y484807D01*
X395172Y484781D01*
X395151Y484770D01*
X395129Y484747D01*
X395073Y484702D01*
X380981Y470611D01*
X378554Y469605D01*
X309561Y469605D01*
X309496Y469595D01*
X309430Y469594D01*
X309350Y469571D01*
X309318Y469566D01*
X309301Y469556D01*
X309269Y469547D01*
X306411Y468363D01*
X303289Y468363D01*
X300431Y469547D01*
X300367Y469562D01*
X300306Y469587D01*
X300223Y469596D01*
X300191Y469603D01*
X300172Y469602D01*
X300139Y469605D01*
X227891Y469605D01*
X227801Y469591D01*
X227710Y469583D01*
X227680Y469571D01*
X227648Y469566D01*
X227568Y469523D01*
X227484Y469487D01*
X227452Y469461D01*
X227431Y469450D01*
X227409Y469427D01*
X227353Y469382D01*
X196619Y438648D01*
X196577Y438590D01*
X196528Y438538D01*
X196506Y438491D01*
X196475Y438449D01*
X196454Y438380D01*
X196424Y438315D01*
X196418Y438263D01*
X196403Y438213D01*
X196405Y438142D01*
X196397Y438071D01*
X196408Y438020D01*
X196409Y437968D01*
X196434Y437900D01*
X196449Y437830D01*
X196476Y437785D01*
X196494Y437737D01*
X196539Y437681D01*
X196575Y437619D01*
X196615Y437585D01*
X196647Y437545D01*
X196708Y437506D01*
X196762Y437459D01*
X196811Y437440D01*
X196854Y437412D01*
X196924Y437394D01*
X196990Y437367D01*
X197062Y437359D01*
X197093Y437351D01*
X197116Y437353D01*
X197157Y437349D01*
X331362Y437349D01*
X333416Y436498D01*
X333894Y436020D01*
X333968Y435967D01*
X334037Y435907D01*
X334068Y435895D01*
X334094Y435876D01*
X334181Y435849D01*
X334266Y435815D01*
X334306Y435811D01*
X334329Y435804D01*
X334361Y435805D01*
X334432Y435797D01*
X335621Y435797D01*
X338505Y434602D01*
X340712Y432395D01*
X341907Y429511D01*
X341907Y426389D01*
X340712Y423505D01*
X338505Y421298D01*
X335621Y420103D01*
X332499Y420103D01*
X329615Y421298D01*
X327408Y423505D01*
X326498Y425701D01*
X326437Y425801D01*
X326377Y425901D01*
X326372Y425905D01*
X326369Y425910D01*
X326279Y425985D01*
X326190Y426061D01*
X326184Y426063D01*
X326179Y426067D01*
X326071Y426109D01*
X325962Y426153D01*
X325954Y426154D01*
X325949Y426155D01*
X325931Y426156D01*
X325795Y426171D01*
X164623Y426171D01*
X164553Y426160D01*
X164481Y426158D01*
X164432Y426140D01*
X164381Y426132D01*
X164318Y426098D01*
X164250Y426073D01*
X164209Y426041D01*
X164163Y426016D01*
X164114Y425965D01*
X164058Y425920D01*
X164030Y425876D01*
X163994Y425838D01*
X163964Y425773D01*
X163925Y425713D01*
X163912Y425662D01*
X163890Y425615D01*
X163882Y425544D01*
X163865Y425474D01*
X163869Y425422D01*
X163863Y425371D01*
X163879Y425300D01*
X163884Y425229D01*
X163904Y425181D01*
X163916Y425130D01*
X163952Y425069D01*
X163980Y425003D01*
X164025Y424947D01*
X164042Y424919D01*
X164059Y424904D01*
X164085Y424872D01*
X164182Y424775D01*
X164566Y423849D01*
X164628Y423749D01*
X164687Y423649D01*
X164692Y423645D01*
X164695Y423640D01*
X164786Y423565D01*
X164874Y423489D01*
X164880Y423487D01*
X164885Y423483D01*
X164993Y423441D01*
X165102Y423397D01*
X165110Y423396D01*
X165114Y423395D01*
X165133Y423394D01*
X165269Y423379D01*
X182772Y423379D01*
X184826Y422528D01*
X198928Y408426D01*
X199779Y406372D01*
X199779Y394566D01*
X199782Y394546D01*
X199780Y394527D01*
X199802Y394425D01*
X199818Y394323D01*
X199828Y394306D01*
X199832Y394286D01*
X199885Y394197D01*
X199934Y394106D01*
X199948Y394092D01*
X199958Y394075D01*
X200037Y394008D01*
X200112Y393936D01*
X200130Y393928D01*
X200145Y393915D01*
X200241Y393876D01*
X200335Y393833D01*
X200355Y393831D01*
X200373Y393823D01*
X200540Y393805D01*
X203374Y393805D01*
X205755Y391424D01*
X205755Y353490D01*
X205758Y353470D01*
X205756Y353451D01*
X205778Y353349D01*
X205794Y353247D01*
X205804Y353230D01*
X205808Y353210D01*
X205861Y353121D01*
X205910Y353030D01*
X205924Y353016D01*
X205934Y352999D01*
X206013Y352932D01*
X206088Y352860D01*
X206106Y352852D01*
X206121Y352839D01*
X206217Y352800D01*
X206311Y352757D01*
X206331Y352755D01*
X206349Y352747D01*
X206516Y352729D01*
X239806Y352729D01*
X239897Y352743D01*
X239987Y352751D01*
X240017Y352763D01*
X240049Y352768D01*
X240130Y352811D01*
X240214Y352847D01*
X240246Y352873D01*
X240267Y352884D01*
X240289Y352907D01*
X240345Y352952D01*
X240715Y353322D01*
X243599Y354517D01*
X246721Y354517D01*
X249605Y353322D01*
X251812Y351115D01*
X253007Y348231D01*
X253007Y345109D01*
X252344Y343509D01*
X252321Y343414D01*
X252293Y343321D01*
X252294Y343294D01*
X252288Y343269D01*
X252297Y343172D01*
X252299Y343075D01*
X252308Y343050D01*
X252311Y343024D01*
X252350Y342935D01*
X252384Y342844D01*
X252400Y342823D01*
X252411Y342799D01*
X252477Y342728D01*
X252537Y342652D01*
X252559Y342638D01*
X252577Y342618D01*
X252662Y342571D01*
X252744Y342519D01*
X252770Y342512D01*
X252793Y342500D01*
X252888Y342482D01*
X252983Y342459D01*
X253009Y342461D01*
X253035Y342456D01*
X253131Y342470D01*
X253228Y342478D01*
X253252Y342488D01*
X253278Y342492D01*
X253365Y342536D01*
X253454Y342574D01*
X253480Y342594D01*
X253497Y342603D01*
X253520Y342627D01*
X253585Y342679D01*
X259668Y348762D01*
X259721Y348836D01*
X259781Y348905D01*
X259793Y348936D01*
X259812Y348962D01*
X259839Y349049D01*
X259873Y349134D01*
X259877Y349174D01*
X259884Y349197D01*
X259883Y349229D01*
X259891Y349300D01*
X259891Y406886D01*
X259877Y406977D01*
X259869Y407067D01*
X259857Y407097D01*
X259852Y407129D01*
X259809Y407210D01*
X259773Y407294D01*
X259747Y407326D01*
X259736Y407347D01*
X259713Y407369D01*
X259668Y407425D01*
X258828Y408265D01*
X257633Y411149D01*
X257633Y414271D01*
X258828Y417155D01*
X261035Y419362D01*
X263919Y420557D01*
X267041Y420557D01*
X269925Y419362D01*
X272132Y417155D01*
X273327Y414271D01*
X273327Y411149D01*
X272132Y408265D01*
X271292Y407425D01*
X271239Y407351D01*
X271179Y407281D01*
X271167Y407251D01*
X271148Y407225D01*
X271121Y407138D01*
X271087Y407053D01*
X271083Y407012D01*
X271076Y406990D01*
X271077Y406958D01*
X271069Y406886D01*
X271069Y395049D01*
X271076Y395004D01*
X271074Y394958D01*
X271096Y394883D01*
X271108Y394806D01*
X271130Y394766D01*
X271143Y394722D01*
X271187Y394658D01*
X271224Y394589D01*
X271257Y394557D01*
X271283Y394520D01*
X271345Y394473D01*
X271402Y394420D01*
X271444Y394400D01*
X271480Y394373D01*
X271554Y394349D01*
X271625Y394316D01*
X271671Y394311D01*
X271714Y394297D01*
X271792Y394297D01*
X271869Y394289D01*
X271914Y394299D01*
X271960Y394299D01*
X272092Y394337D01*
X272110Y394341D01*
X272114Y394344D01*
X272121Y394346D01*
X274079Y395157D01*
X277201Y395157D01*
X280085Y393962D01*
X280925Y393122D01*
X280999Y393069D01*
X281069Y393009D01*
X281099Y392997D01*
X281125Y392978D01*
X281212Y392951D01*
X281297Y392917D01*
X281338Y392913D01*
X281360Y392906D01*
X281392Y392907D01*
X281464Y392899D01*
X317392Y392899D01*
X319446Y392048D01*
X321125Y390369D01*
X323452Y388042D01*
X323526Y387989D01*
X323595Y387929D01*
X323625Y387917D01*
X323652Y387898D01*
X323739Y387871D01*
X323824Y387837D01*
X323864Y387833D01*
X323887Y387826D01*
X323919Y387827D01*
X323990Y387819D01*
X359341Y387819D01*
X359386Y387826D01*
X359432Y387824D01*
X359507Y387846D01*
X359584Y387858D01*
X359624Y387880D01*
X359668Y387893D01*
X359732Y387937D01*
X359801Y387974D01*
X359833Y388007D01*
X359870Y388033D01*
X359917Y388096D01*
X359970Y388152D01*
X359990Y388194D01*
X360017Y388230D01*
X360041Y388304D01*
X360074Y388375D01*
X360079Y388420D01*
X360093Y388464D01*
X360093Y388542D01*
X360101Y388619D01*
X360091Y388664D01*
X360091Y388710D01*
X360053Y388842D01*
X360049Y388860D01*
X360046Y388864D01*
X360044Y388871D01*
X359233Y390829D01*
X359233Y393951D01*
X360428Y396835D01*
X362635Y399042D01*
X365519Y400237D01*
X368641Y400237D01*
X371525Y399042D01*
X372365Y398202D01*
X372439Y398149D01*
X372509Y398089D01*
X372539Y398077D01*
X372565Y398058D01*
X372652Y398031D01*
X372737Y397997D01*
X372778Y397993D01*
X372800Y397986D01*
X372832Y397987D01*
X372904Y397979D01*
X532022Y397979D01*
X534076Y397128D01*
X541892Y389312D01*
X541966Y389259D01*
X542035Y389199D01*
X542066Y389187D01*
X542092Y389168D01*
X542179Y389141D01*
X542264Y389107D01*
X542304Y389103D01*
X542327Y389096D01*
X542359Y389097D01*
X542430Y389089D01*
X591780Y389089D01*
X591870Y389103D01*
X591961Y389111D01*
X591991Y389123D01*
X592022Y389128D01*
X592103Y389171D01*
X592187Y389207D01*
X592219Y389233D01*
X592240Y389244D01*
X592247Y389251D01*
X592248Y389252D01*
X592264Y389268D01*
X592318Y389312D01*
X616991Y413985D01*
X617060Y414080D01*
X617129Y414174D01*
X617131Y414180D01*
X617135Y414185D01*
X617169Y414296D01*
X617206Y414408D01*
X617206Y414414D01*
X617207Y414420D01*
X617204Y414537D01*
X617203Y414654D01*
X617201Y414661D01*
X617201Y414666D01*
X617195Y414683D01*
X617157Y414815D01*
X616507Y416382D01*
X616507Y421738D01*
X618557Y426686D01*
X622344Y430473D01*
X623753Y431057D01*
X623814Y431095D01*
X623879Y431124D01*
X623918Y431159D01*
X623962Y431186D01*
X624008Y431242D01*
X624060Y431290D01*
X624085Y431336D01*
X624119Y431376D01*
X624144Y431443D01*
X624179Y431506D01*
X624188Y431557D01*
X624207Y431605D01*
X624210Y431677D01*
X624223Y431748D01*
X624215Y431799D01*
X624217Y431851D01*
X624197Y431920D01*
X624187Y431991D01*
X624163Y432037D01*
X624149Y432087D01*
X624108Y432146D01*
X624075Y432210D01*
X624038Y432247D01*
X624008Y432289D01*
X623951Y432332D01*
X623900Y432382D01*
X623837Y432417D01*
X623811Y432436D01*
X623789Y432443D01*
X623753Y432463D01*
X622344Y433047D01*
X618557Y436834D01*
X616507Y441782D01*
X616507Y447138D01*
X618557Y452086D01*
X622344Y455873D01*
X627292Y457923D01*
X632648Y457923D01*
X634632Y457101D01*
X634676Y457090D01*
X634718Y457071D01*
X634795Y457063D01*
X634871Y457045D01*
X634917Y457049D01*
X634962Y457044D01*
X635039Y457061D01*
X635116Y457068D01*
X635158Y457087D01*
X635203Y457096D01*
X635270Y457136D01*
X635341Y457168D01*
X635375Y457199D01*
X635414Y457223D01*
X635465Y457282D01*
X635522Y457334D01*
X635544Y457375D01*
X635574Y457409D01*
X635603Y457482D01*
X635640Y457550D01*
X635649Y457595D01*
X635666Y457638D01*
X635681Y457774D01*
X635684Y457792D01*
X635683Y457797D01*
X635684Y457804D01*
X635684Y459573D01*
X635681Y459593D01*
X635683Y459612D01*
X635661Y459714D01*
X635645Y459816D01*
X635635Y459833D01*
X635631Y459853D01*
X635578Y459942D01*
X635529Y460033D01*
X635515Y460047D01*
X635505Y460064D01*
X635426Y460131D01*
X635351Y460203D01*
X635333Y460211D01*
X635318Y460224D01*
X635222Y460263D01*
X635128Y460306D01*
X635108Y460308D01*
X635090Y460316D01*
X634923Y460334D01*
X602423Y460334D01*
X598455Y461978D01*
X595418Y465015D01*
X593774Y468983D01*
X593774Y549743D01*
X593773Y549754D01*
X593773Y549760D01*
X593772Y549768D01*
X593773Y549782D01*
X593751Y549884D01*
X593735Y549986D01*
X593725Y550003D01*
X593721Y550023D01*
X593668Y550112D01*
X593619Y550203D01*
X593605Y550217D01*
X593595Y550234D01*
X593516Y550301D01*
X593441Y550373D01*
X593423Y550381D01*
X593408Y550394D01*
X593312Y550433D01*
X593218Y550476D01*
X593198Y550478D01*
X593180Y550486D01*
X593013Y550504D01*
X183282Y550504D01*
X183211Y550493D01*
X183139Y550491D01*
X183091Y550473D01*
X183039Y550465D01*
X182976Y550431D01*
X182908Y550406D01*
X182868Y550374D01*
X182822Y550349D01*
X182772Y550297D01*
X182716Y550253D01*
X182688Y550209D01*
X182652Y550171D01*
X182622Y550106D01*
X182583Y550046D01*
X182571Y549995D01*
X182549Y549948D01*
X182541Y549877D01*
X182523Y549807D01*
X182527Y549755D01*
X182522Y549704D01*
X182537Y549633D01*
X182543Y549562D01*
X182563Y549514D01*
X182574Y549463D01*
X182611Y549402D01*
X182639Y549336D01*
X182684Y549280D01*
X182700Y549252D01*
X182718Y549237D01*
X182719Y549235D01*
X182722Y549230D01*
X182726Y549227D01*
X182744Y549205D01*
X184965Y546984D01*
X184965Y518616D01*
X182584Y516235D01*
X154216Y516235D01*
X151835Y518616D01*
X151835Y546984D01*
X154056Y549205D01*
X154098Y549263D01*
X154148Y549315D01*
X154170Y549362D01*
X154200Y549404D01*
X154221Y549473D01*
X154251Y549538D01*
X154257Y549590D01*
X154272Y549640D01*
X154270Y549711D01*
X154278Y549782D01*
X154267Y549833D01*
X154266Y549885D01*
X154241Y549953D01*
X154226Y550023D01*
X154199Y550068D01*
X154181Y550116D01*
X154137Y550172D01*
X154100Y550234D01*
X154060Y550268D01*
X154028Y550308D01*
X153967Y550347D01*
X153913Y550394D01*
X153865Y550413D01*
X153821Y550441D01*
X153751Y550459D01*
X153685Y550486D01*
X153613Y550494D01*
X153582Y550502D01*
X153559Y550500D01*
X153518Y550504D01*
X113282Y550504D01*
X113211Y550493D01*
X113139Y550491D01*
X113091Y550473D01*
X113039Y550465D01*
X112976Y550431D01*
X112908Y550406D01*
X112868Y550374D01*
X112822Y550349D01*
X112772Y550297D01*
X112716Y550253D01*
X112688Y550209D01*
X112652Y550171D01*
X112622Y550106D01*
X112583Y550046D01*
X112571Y549995D01*
X112549Y549948D01*
X112541Y549877D01*
X112523Y549807D01*
X112527Y549755D01*
X112522Y549704D01*
X112537Y549633D01*
X112543Y549562D01*
X112563Y549514D01*
X112574Y549463D01*
X112611Y549402D01*
X112639Y549336D01*
X112684Y549280D01*
X112700Y549252D01*
X112718Y549237D01*
X112719Y549235D01*
X112722Y549230D01*
X112726Y549227D01*
X112744Y549205D01*
X114965Y546984D01*
X114965Y518616D01*
X112584Y516235D01*
X84216Y516235D01*
X81835Y518616D01*
X81835Y546984D01*
X84056Y549205D01*
X84098Y549263D01*
X84148Y549315D01*
X84170Y549362D01*
X84200Y549404D01*
X84221Y549473D01*
X84251Y549538D01*
X84257Y549590D01*
X84272Y549640D01*
X84270Y549711D01*
X84278Y549782D01*
X84267Y549833D01*
X84266Y549885D01*
X84241Y549953D01*
X84226Y550023D01*
X84199Y550068D01*
X84181Y550116D01*
X84137Y550172D01*
X84100Y550234D01*
X84060Y550268D01*
X84028Y550308D01*
X83967Y550347D01*
X83913Y550394D01*
X83865Y550413D01*
X83821Y550441D01*
X83751Y550459D01*
X83685Y550486D01*
X83613Y550494D01*
X83582Y550502D01*
X83559Y550500D01*
X83518Y550504D01*
X11607Y550504D01*
X11587Y550501D01*
X11568Y550503D01*
X11466Y550481D01*
X11364Y550465D01*
X11347Y550455D01*
X11327Y550451D01*
X11238Y550398D01*
X11147Y550349D01*
X11133Y550335D01*
X11116Y550325D01*
X11049Y550246D01*
X10977Y550171D01*
X10969Y550153D01*
X10956Y550138D01*
X10917Y550042D01*
X10874Y549948D01*
X10872Y549928D01*
X10864Y549910D01*
X10846Y549743D01*
X10846Y481674D01*
X10857Y481603D01*
X10859Y481532D01*
X10877Y481483D01*
X10885Y481431D01*
X10919Y481368D01*
X10944Y481301D01*
X10976Y481260D01*
X11001Y481214D01*
X11053Y481165D01*
X11097Y481109D01*
X11141Y481080D01*
X11179Y481045D01*
X11244Y481014D01*
X11304Y480976D01*
X11355Y480963D01*
X11402Y480941D01*
X11473Y480933D01*
X11543Y480916D01*
X11595Y480920D01*
X11646Y480914D01*
X11717Y480929D01*
X11788Y480935D01*
X11836Y480955D01*
X11887Y480966D01*
X11948Y481003D01*
X12014Y481031D01*
X12070Y481076D01*
X12098Y481092D01*
X12113Y481110D01*
X12145Y481136D01*
X27364Y496354D01*
X29329Y498319D01*
X31756Y499325D01*
X50922Y499325D01*
X50946Y499315D01*
X51029Y499306D01*
X51061Y499299D01*
X51080Y499300D01*
X51113Y499297D01*
X52411Y499297D01*
X55295Y498102D01*
X57502Y495895D01*
X58697Y493011D01*
X58697Y489889D01*
X57502Y487005D01*
X55295Y484798D01*
X52411Y483603D01*
X49289Y483603D01*
X46405Y484798D01*
X45311Y485892D01*
X45237Y485945D01*
X45167Y486005D01*
X45137Y486017D01*
X45111Y486036D01*
X45024Y486063D01*
X44939Y486097D01*
X44898Y486101D01*
X44876Y486108D01*
X44844Y486107D01*
X44772Y486115D01*
X36121Y486115D01*
X36031Y486101D01*
X35940Y486093D01*
X35910Y486081D01*
X35878Y486076D01*
X35798Y486033D01*
X35714Y485997D01*
X35682Y485971D01*
X35661Y485960D01*
X35639Y485937D01*
X35583Y485892D01*
X24658Y474967D01*
X24605Y474893D01*
X24545Y474824D01*
X24533Y474794D01*
X24514Y474767D01*
X24487Y474680D01*
X24453Y474596D01*
X24449Y474555D01*
X24442Y474532D01*
X24443Y474500D01*
X24435Y474429D01*
X24435Y407261D01*
X24445Y407196D01*
X24446Y407130D01*
X24469Y407050D01*
X24474Y407018D01*
X24484Y407001D01*
X24493Y406969D01*
X25677Y404111D01*
X25677Y400989D01*
X24482Y398105D01*
X22275Y395898D01*
X20757Y395269D01*
X20674Y395218D01*
X20588Y395172D01*
X20570Y395154D01*
X20548Y395140D01*
X20486Y395064D01*
X20419Y394994D01*
X20408Y394970D01*
X20391Y394950D01*
X20356Y394859D01*
X20315Y394771D01*
X20313Y394745D01*
X20303Y394721D01*
X20299Y394623D01*
X20288Y394527D01*
X20294Y394501D01*
X20293Y394475D01*
X20320Y394381D01*
X20341Y394286D01*
X20354Y394264D01*
X20361Y394239D01*
X20417Y394159D01*
X20467Y394075D01*
X20487Y394058D01*
X20502Y394037D01*
X20580Y393978D01*
X20654Y393915D01*
X20678Y393905D01*
X20699Y393890D01*
X20791Y393860D01*
X20882Y393823D01*
X20914Y393820D01*
X20933Y393814D01*
X20966Y393814D01*
X21049Y393805D01*
X23374Y393805D01*
X25755Y391424D01*
X25755Y365720D01*
X25758Y365700D01*
X25756Y365681D01*
X25778Y365579D01*
X25794Y365477D01*
X25804Y365460D01*
X25808Y365440D01*
X25861Y365351D01*
X25910Y365260D01*
X25924Y365246D01*
X25934Y365229D01*
X26013Y365162D01*
X26088Y365090D01*
X26106Y365082D01*
X26121Y365069D01*
X26217Y365030D01*
X26311Y364987D01*
X26331Y364985D01*
X26349Y364977D01*
X26516Y364959D01*
X29786Y364959D01*
X29877Y364973D01*
X29967Y364981D01*
X29997Y364993D01*
X30029Y364998D01*
X30110Y365041D01*
X30194Y365077D01*
X30226Y365103D01*
X30247Y365114D01*
X30269Y365137D01*
X30325Y365182D01*
X31165Y366022D01*
X34049Y367217D01*
X37171Y367217D01*
X40055Y366022D01*
X42262Y363815D01*
X43457Y360931D01*
X43457Y357809D01*
X42262Y354925D01*
X41365Y354028D01*
X41323Y353970D01*
X41274Y353918D01*
X41252Y353871D01*
X41222Y353829D01*
X41201Y353760D01*
X41170Y353695D01*
X41165Y353643D01*
X41149Y353593D01*
X41151Y353522D01*
X41143Y353451D01*
X41154Y353400D01*
X41156Y353348D01*
X41180Y353280D01*
X41196Y353210D01*
X41222Y353165D01*
X41240Y353117D01*
X41285Y353061D01*
X41322Y352999D01*
X41361Y352965D01*
X41394Y352925D01*
X41454Y352886D01*
X41509Y352839D01*
X41557Y352820D01*
X41601Y352792D01*
X41670Y352774D01*
X41737Y352747D01*
X41808Y352739D01*
X41839Y352731D01*
X41863Y352733D01*
X41903Y352729D01*
X55302Y352729D01*
X57356Y351878D01*
X70828Y338406D01*
X71679Y336352D01*
X71679Y329942D01*
X71694Y329848D01*
X71703Y329753D01*
X71714Y329727D01*
X71718Y329700D01*
X71763Y329616D01*
X71801Y329528D01*
X71820Y329507D01*
X71834Y329482D01*
X71903Y329417D01*
X71967Y329346D01*
X71992Y329332D01*
X72012Y329313D01*
X72098Y329273D01*
X72182Y329226D01*
X72209Y329221D01*
X72235Y329209D01*
X72330Y329199D01*
X72423Y329181D01*
X72451Y329185D01*
X72479Y329182D01*
X72573Y329202D01*
X72667Y329216D01*
X72699Y329230D01*
X72720Y329234D01*
X72748Y329251D01*
X72821Y329283D01*
X73209Y329508D01*
X73856Y329681D01*
X102667Y329681D01*
X102667Y297902D01*
X102670Y297882D01*
X102668Y297863D01*
X102690Y297761D01*
X102707Y297659D01*
X102716Y297642D01*
X102720Y297622D01*
X102773Y297533D01*
X102822Y297442D01*
X102836Y297428D01*
X102846Y297411D01*
X102925Y297344D01*
X103000Y297273D01*
X103018Y297264D01*
X103033Y297251D01*
X103129Y297212D01*
X103223Y297169D01*
X103243Y297167D01*
X103261Y297159D01*
X103428Y297141D01*
X104191Y297141D01*
X104191Y296378D01*
X104194Y296358D01*
X104192Y296339D01*
X104214Y296237D01*
X104231Y296135D01*
X104240Y296118D01*
X104244Y296098D01*
X104297Y296009D01*
X104346Y295918D01*
X104360Y295904D01*
X104370Y295887D01*
X104449Y295820D01*
X104524Y295749D01*
X104542Y295740D01*
X104557Y295727D01*
X104653Y295688D01*
X104747Y295645D01*
X104767Y295643D01*
X104785Y295635D01*
X104952Y295617D01*
X136731Y295617D01*
X136731Y266806D01*
X136558Y266159D01*
X136223Y265580D01*
X135750Y265107D01*
X135171Y264772D01*
X134524Y264599D01*
X132502Y264599D01*
X132431Y264588D01*
X132360Y264586D01*
X132311Y264568D01*
X132259Y264560D01*
X132196Y264526D01*
X132129Y264501D01*
X132088Y264469D01*
X132042Y264444D01*
X131993Y264392D01*
X131937Y264348D01*
X131909Y264304D01*
X131873Y264266D01*
X131843Y264201D01*
X131804Y264141D01*
X131791Y264090D01*
X131769Y264043D01*
X131761Y263972D01*
X131744Y263902D01*
X131748Y263850D01*
X131742Y263799D01*
X131757Y263728D01*
X131763Y263657D01*
X131783Y263609D01*
X131794Y263558D01*
X131831Y263497D01*
X131859Y263431D01*
X131904Y263375D01*
X131920Y263347D01*
X131938Y263332D01*
X131964Y263300D01*
X133165Y262099D01*
X139408Y255856D01*
X140259Y253802D01*
X140259Y241547D01*
X140274Y241451D01*
X140284Y241354D01*
X140294Y241330D01*
X140298Y241305D01*
X140344Y241219D01*
X140384Y241130D01*
X140401Y241110D01*
X140414Y241087D01*
X140484Y241020D01*
X140550Y240948D01*
X140573Y240936D01*
X140592Y240918D01*
X140680Y240877D01*
X140766Y240830D01*
X140791Y240825D01*
X140815Y240814D01*
X140912Y240803D01*
X141008Y240786D01*
X141034Y240790D01*
X141059Y240787D01*
X141154Y240808D01*
X141251Y240822D01*
X141274Y240834D01*
X141300Y240839D01*
X141384Y240889D01*
X141470Y240933D01*
X141488Y240952D01*
X141511Y240966D01*
X141574Y241040D01*
X141642Y241109D01*
X141658Y241138D01*
X141671Y241152D01*
X141683Y241183D01*
X141723Y241256D01*
X141988Y241895D01*
X144195Y244102D01*
X147079Y245297D01*
X150201Y245297D01*
X153085Y244102D01*
X155292Y241895D01*
X156487Y239011D01*
X156487Y235889D01*
X155292Y233005D01*
X154452Y232165D01*
X154399Y232091D01*
X154339Y232021D01*
X154327Y231991D01*
X154308Y231965D01*
X154281Y231878D01*
X154247Y231793D01*
X154243Y231752D01*
X154236Y231730D01*
X154237Y231698D01*
X154229Y231626D01*
X154229Y229920D01*
X154243Y229830D01*
X154251Y229739D01*
X154263Y229709D01*
X154268Y229678D01*
X154311Y229597D01*
X154347Y229513D01*
X154373Y229481D01*
X154384Y229460D01*
X154407Y229438D01*
X154452Y229382D01*
X169782Y214052D01*
X169856Y213999D01*
X169925Y213939D01*
X169956Y213927D01*
X169982Y213908D01*
X170069Y213881D01*
X170154Y213847D01*
X170194Y213843D01*
X170217Y213836D01*
X170249Y213837D01*
X170320Y213829D01*
X183553Y213829D01*
X183670Y213848D01*
G37*
G36*
X297279Y252159D02*
X297279Y252159D01*
X297370Y252167D01*
X297400Y252179D01*
X297432Y252184D01*
X297512Y252227D01*
X297596Y252263D01*
X297628Y252289D01*
X297649Y252300D01*
X297671Y252323D01*
X297727Y252368D01*
X339932Y294573D01*
X339985Y294647D01*
X340045Y294716D01*
X340057Y294746D01*
X340076Y294773D01*
X340103Y294860D01*
X340137Y294944D01*
X340141Y294985D01*
X340148Y295008D01*
X340147Y295040D01*
X340155Y295111D01*
X340155Y354334D01*
X341161Y356761D01*
X351214Y366814D01*
X352121Y367722D01*
X352163Y367780D01*
X352212Y367832D01*
X352234Y367879D01*
X352265Y367921D01*
X352286Y367990D01*
X352316Y368055D01*
X352322Y368107D01*
X352337Y368157D01*
X352335Y368228D01*
X352343Y368299D01*
X352332Y368350D01*
X352331Y368402D01*
X352306Y368470D01*
X352291Y368540D01*
X352264Y368585D01*
X352246Y368633D01*
X352201Y368689D01*
X352165Y368751D01*
X352125Y368785D01*
X352093Y368825D01*
X352032Y368864D01*
X351978Y368911D01*
X351929Y368930D01*
X351886Y368958D01*
X351816Y368976D01*
X351750Y369003D01*
X351678Y369011D01*
X351647Y369019D01*
X351624Y369017D01*
X351583Y369021D01*
X322103Y369021D01*
X322033Y369010D01*
X321961Y369008D01*
X321912Y368990D01*
X321861Y368982D01*
X321798Y368948D01*
X321730Y368923D01*
X321689Y368891D01*
X321643Y368866D01*
X321594Y368815D01*
X321538Y368770D01*
X321510Y368726D01*
X321474Y368688D01*
X321444Y368623D01*
X321405Y368563D01*
X321392Y368512D01*
X321370Y368465D01*
X321362Y368394D01*
X321345Y368324D01*
X321349Y368272D01*
X321343Y368221D01*
X321359Y368150D01*
X321364Y368079D01*
X321384Y368031D01*
X321396Y367980D01*
X321432Y367919D01*
X321460Y367853D01*
X321505Y367797D01*
X321522Y367769D01*
X321539Y367754D01*
X321565Y367722D01*
X321662Y367625D01*
X322857Y364741D01*
X322857Y361619D01*
X321673Y358761D01*
X321658Y358697D01*
X321633Y358636D01*
X321624Y358553D01*
X321617Y358521D01*
X321618Y358502D01*
X321615Y358469D01*
X321615Y352694D01*
X321630Y352598D01*
X321640Y352501D01*
X321650Y352477D01*
X321654Y352451D01*
X321700Y352365D01*
X321740Y352276D01*
X321757Y352257D01*
X321770Y352234D01*
X321840Y352167D01*
X321906Y352095D01*
X321929Y352083D01*
X321948Y352065D01*
X322036Y352024D01*
X322122Y351977D01*
X322147Y351972D01*
X322171Y351961D01*
X322268Y351950D01*
X322364Y351933D01*
X322390Y351937D01*
X322415Y351934D01*
X322511Y351955D01*
X322607Y351969D01*
X322630Y351981D01*
X322656Y351986D01*
X322739Y352036D01*
X322826Y352080D01*
X322845Y352099D01*
X322867Y352112D01*
X322930Y352186D01*
X322998Y352256D01*
X323014Y352284D01*
X323027Y352299D01*
X323039Y352330D01*
X323079Y352403D01*
X323598Y353655D01*
X325805Y355862D01*
X328689Y357057D01*
X331811Y357057D01*
X334695Y355862D01*
X336902Y353655D01*
X338097Y350771D01*
X338097Y347649D01*
X336902Y344765D01*
X335808Y343671D01*
X335755Y343597D01*
X335695Y343527D01*
X335683Y343497D01*
X335664Y343471D01*
X335637Y343384D01*
X335603Y343299D01*
X335599Y343258D01*
X335592Y343236D01*
X335593Y343204D01*
X335585Y343132D01*
X335585Y304716D01*
X334579Y302289D01*
X310331Y278041D01*
X307904Y277035D01*
X217239Y277035D01*
X217169Y277024D01*
X217097Y277022D01*
X217048Y277004D01*
X216997Y276996D01*
X216933Y276962D01*
X216866Y276937D01*
X216825Y276905D01*
X216779Y276880D01*
X216730Y276828D01*
X216674Y276784D01*
X216646Y276740D01*
X216610Y276702D01*
X216580Y276637D01*
X216541Y276577D01*
X216528Y276526D01*
X216506Y276479D01*
X216498Y276408D01*
X216481Y276338D01*
X216485Y276286D01*
X216479Y276235D01*
X216495Y276164D01*
X216500Y276093D01*
X216520Y276045D01*
X216532Y275994D01*
X216568Y275933D01*
X216596Y275867D01*
X216641Y275811D01*
X216658Y275783D01*
X216675Y275768D01*
X216701Y275736D01*
X217522Y274915D01*
X218717Y272031D01*
X218717Y268909D01*
X217522Y266025D01*
X216155Y264658D01*
X216144Y264642D01*
X216128Y264630D01*
X216072Y264542D01*
X216012Y264459D01*
X216006Y264440D01*
X215995Y264423D01*
X215970Y264322D01*
X215939Y264223D01*
X215940Y264204D01*
X215935Y264184D01*
X215943Y264081D01*
X215946Y263978D01*
X215953Y263959D01*
X215954Y263939D01*
X215994Y263844D01*
X216030Y263747D01*
X216043Y263731D01*
X216050Y263713D01*
X216155Y263582D01*
X217522Y262215D01*
X218717Y259331D01*
X218717Y256209D01*
X217469Y253197D01*
X217459Y253153D01*
X217439Y253111D01*
X217431Y253034D01*
X217413Y252958D01*
X217417Y252912D01*
X217412Y252867D01*
X217429Y252790D01*
X217436Y252713D01*
X217455Y252671D01*
X217464Y252626D01*
X217504Y252559D01*
X217536Y252488D01*
X217567Y252454D01*
X217591Y252415D01*
X217650Y252364D01*
X217702Y252307D01*
X217743Y252285D01*
X217778Y252255D01*
X217850Y252226D01*
X217918Y252189D01*
X217963Y252180D01*
X218006Y252163D01*
X218142Y252148D01*
X218160Y252145D01*
X218165Y252146D01*
X218172Y252145D01*
X297189Y252145D01*
X297279Y252159D01*
G37*
%LPC*%
G36*
X423939Y36563D02*
X423939Y36563D01*
X421081Y37747D01*
X421017Y37762D01*
X420956Y37787D01*
X420873Y37796D01*
X420841Y37803D01*
X420822Y37802D01*
X420789Y37805D01*
X341636Y37805D01*
X339209Y38811D01*
X328911Y49109D01*
X328858Y49147D01*
X328811Y49193D01*
X328738Y49233D01*
X328711Y49252D01*
X328692Y49258D01*
X328664Y49274D01*
X325805Y50458D01*
X323598Y52665D01*
X322403Y55549D01*
X322403Y58671D01*
X323598Y61555D01*
X325805Y63762D01*
X328689Y64957D01*
X331811Y64957D01*
X334695Y63762D01*
X336902Y61555D01*
X338086Y58696D01*
X338121Y58640D01*
X338146Y58580D01*
X338198Y58515D01*
X338216Y58487D01*
X338231Y58475D01*
X338251Y58449D01*
X345463Y51238D01*
X345537Y51185D01*
X345606Y51125D01*
X345636Y51113D01*
X345663Y51094D01*
X345750Y51067D01*
X345834Y51033D01*
X345875Y51029D01*
X345898Y51022D01*
X345930Y51023D01*
X346001Y51015D01*
X372486Y51015D01*
X372582Y51030D01*
X372679Y51040D01*
X372703Y51050D01*
X372729Y51054D01*
X372815Y51100D01*
X372904Y51140D01*
X372923Y51157D01*
X372946Y51170D01*
X373013Y51240D01*
X373085Y51306D01*
X373097Y51329D01*
X373115Y51348D01*
X373156Y51436D01*
X373203Y51522D01*
X373208Y51547D01*
X373219Y51571D01*
X373230Y51668D01*
X373247Y51764D01*
X373243Y51790D01*
X373246Y51815D01*
X373225Y51911D01*
X373211Y52007D01*
X373199Y52030D01*
X373194Y52056D01*
X373144Y52139D01*
X373100Y52226D01*
X373081Y52245D01*
X373068Y52267D01*
X372994Y52330D01*
X372924Y52398D01*
X372896Y52414D01*
X372881Y52427D01*
X372850Y52439D01*
X372777Y52479D01*
X371525Y52998D01*
X369318Y55205D01*
X368986Y56005D01*
X368925Y56105D01*
X368865Y56205D01*
X368860Y56209D01*
X368857Y56214D01*
X368766Y56289D01*
X368678Y56365D01*
X368672Y56367D01*
X368667Y56371D01*
X368559Y56413D01*
X368450Y56457D01*
X368442Y56458D01*
X368438Y56459D01*
X368419Y56460D01*
X368283Y56475D01*
X360436Y56475D01*
X358055Y58856D01*
X358055Y78224D01*
X360436Y80605D01*
X378804Y80605D01*
X381185Y78224D01*
X381185Y65848D01*
X381199Y65757D01*
X381207Y65667D01*
X381219Y65637D01*
X381224Y65605D01*
X381267Y65524D01*
X381303Y65440D01*
X381329Y65408D01*
X381340Y65387D01*
X381363Y65365D01*
X381408Y65309D01*
X382622Y64095D01*
X383817Y61211D01*
X383817Y58089D01*
X382622Y55205D01*
X380415Y52998D01*
X379163Y52479D01*
X379080Y52428D01*
X378994Y52382D01*
X378976Y52364D01*
X378954Y52350D01*
X378891Y52274D01*
X378825Y52204D01*
X378814Y52180D01*
X378797Y52160D01*
X378762Y52069D01*
X378721Y51981D01*
X378718Y51955D01*
X378709Y51931D01*
X378705Y51833D01*
X378694Y51737D01*
X378699Y51711D01*
X378698Y51685D01*
X378725Y51591D01*
X378746Y51496D01*
X378760Y51474D01*
X378767Y51449D01*
X378822Y51369D01*
X378872Y51285D01*
X378892Y51268D01*
X378907Y51247D01*
X378985Y51188D01*
X379059Y51125D01*
X379084Y51115D01*
X379104Y51100D01*
X379197Y51070D01*
X379287Y51033D01*
X379320Y51030D01*
X379338Y51024D01*
X379371Y51024D01*
X379454Y51015D01*
X420789Y51015D01*
X420854Y51025D01*
X420920Y51026D01*
X421000Y51049D01*
X421032Y51054D01*
X421049Y51064D01*
X421081Y51073D01*
X423939Y52257D01*
X427061Y52257D01*
X429945Y51062D01*
X432152Y48855D01*
X433347Y45971D01*
X433347Y42849D01*
X432152Y39965D01*
X429945Y37758D01*
X427061Y36563D01*
X423939Y36563D01*
G37*
%LPD*%
G36*
X303629Y290259D02*
X303629Y290259D01*
X303720Y290267D01*
X303750Y290279D01*
X303782Y290284D01*
X303862Y290327D01*
X303946Y290363D01*
X303978Y290389D01*
X303999Y290400D01*
X304021Y290423D01*
X304077Y290468D01*
X322152Y308543D01*
X322205Y308617D01*
X322265Y308686D01*
X322277Y308716D01*
X322296Y308743D01*
X322323Y308830D01*
X322357Y308914D01*
X322361Y308955D01*
X322368Y308978D01*
X322367Y309010D01*
X322375Y309081D01*
X322375Y320505D01*
X322360Y320601D01*
X322350Y320698D01*
X322340Y320722D01*
X322336Y320748D01*
X322290Y320834D01*
X322250Y320923D01*
X322233Y320942D01*
X322220Y320965D01*
X322150Y321032D01*
X322084Y321104D01*
X322061Y321117D01*
X322042Y321135D01*
X321954Y321176D01*
X321868Y321223D01*
X321843Y321227D01*
X321819Y321238D01*
X321722Y321249D01*
X321626Y321266D01*
X321600Y321263D01*
X321575Y321265D01*
X321479Y321245D01*
X321383Y321231D01*
X321360Y321219D01*
X321334Y321213D01*
X321251Y321163D01*
X321164Y321119D01*
X321145Y321100D01*
X321123Y321087D01*
X321060Y321013D01*
X320992Y320944D01*
X320976Y320915D01*
X320963Y320900D01*
X320951Y320869D01*
X320911Y320797D01*
X320609Y320069D01*
X318644Y318104D01*
X305946Y305406D01*
X303981Y303441D01*
X301554Y302435D01*
X206516Y302435D01*
X206496Y302432D01*
X206477Y302434D01*
X206375Y302412D01*
X206273Y302396D01*
X206256Y302386D01*
X206236Y302382D01*
X206147Y302329D01*
X206056Y302280D01*
X206042Y302266D01*
X206025Y302256D01*
X205958Y302177D01*
X205886Y302102D01*
X205878Y302084D01*
X205865Y302069D01*
X205826Y301973D01*
X205783Y301879D01*
X205781Y301859D01*
X205773Y301841D01*
X205755Y301674D01*
X205755Y291006D01*
X205758Y290986D01*
X205756Y290967D01*
X205778Y290865D01*
X205794Y290763D01*
X205804Y290746D01*
X205808Y290726D01*
X205861Y290637D01*
X205910Y290546D01*
X205924Y290532D01*
X205934Y290515D01*
X206013Y290448D01*
X206088Y290376D01*
X206106Y290368D01*
X206121Y290355D01*
X206217Y290316D01*
X206311Y290273D01*
X206331Y290271D01*
X206349Y290263D01*
X206516Y290245D01*
X303539Y290245D01*
X303629Y290259D01*
G37*
G36*
X284579Y328359D02*
X284579Y328359D01*
X284670Y328367D01*
X284700Y328379D01*
X284732Y328384D01*
X284812Y328427D01*
X284896Y328463D01*
X284928Y328489D01*
X284949Y328500D01*
X284971Y328523D01*
X285027Y328568D01*
X291672Y335213D01*
X291725Y335287D01*
X291785Y335356D01*
X291797Y335386D01*
X291816Y335413D01*
X291843Y335500D01*
X291877Y335584D01*
X291881Y335625D01*
X291888Y335648D01*
X291887Y335680D01*
X291895Y335751D01*
X291895Y369899D01*
X291885Y369964D01*
X291884Y370030D01*
X291861Y370110D01*
X291856Y370142D01*
X291846Y370159D01*
X291837Y370191D01*
X290653Y373049D01*
X290653Y376171D01*
X291848Y379055D01*
X293215Y380422D01*
X293257Y380480D01*
X293306Y380532D01*
X293328Y380579D01*
X293358Y380621D01*
X293379Y380690D01*
X293410Y380755D01*
X293415Y380807D01*
X293431Y380857D01*
X293429Y380928D01*
X293437Y380999D01*
X293426Y381050D01*
X293424Y381102D01*
X293400Y381170D01*
X293384Y381240D01*
X293358Y381285D01*
X293340Y381333D01*
X293295Y381389D01*
X293258Y381451D01*
X293219Y381485D01*
X293186Y381525D01*
X293126Y381564D01*
X293071Y381611D01*
X293023Y381630D01*
X292979Y381658D01*
X292910Y381676D01*
X292843Y381703D01*
X292772Y381711D01*
X292741Y381719D01*
X292717Y381717D01*
X292677Y381721D01*
X281464Y381721D01*
X281373Y381707D01*
X281283Y381699D01*
X281253Y381687D01*
X281221Y381682D01*
X281140Y381639D01*
X281056Y381603D01*
X281024Y381577D01*
X281003Y381566D01*
X280981Y381543D01*
X280925Y381498D01*
X280085Y380658D01*
X277201Y379463D01*
X274079Y379463D01*
X272121Y380274D01*
X272077Y380285D01*
X272035Y380304D01*
X271958Y380313D01*
X271882Y380330D01*
X271836Y380326D01*
X271791Y380331D01*
X271714Y380315D01*
X271637Y380307D01*
X271595Y380289D01*
X271550Y380279D01*
X271483Y380239D01*
X271412Y380207D01*
X271378Y380176D01*
X271339Y380153D01*
X271288Y380094D01*
X271231Y380041D01*
X271209Y380001D01*
X271179Y379966D01*
X271150Y379894D01*
X271113Y379825D01*
X271104Y379780D01*
X271087Y379738D01*
X271072Y379602D01*
X271069Y379583D01*
X271070Y379578D01*
X271069Y379571D01*
X271069Y345558D01*
X270218Y343504D01*
X256358Y329644D01*
X256316Y329586D01*
X256267Y329534D01*
X256245Y329487D01*
X256214Y329445D01*
X256193Y329376D01*
X256163Y329311D01*
X256157Y329259D01*
X256142Y329209D01*
X256144Y329138D01*
X256136Y329067D01*
X256147Y329016D01*
X256148Y328964D01*
X256173Y328896D01*
X256188Y328826D01*
X256215Y328781D01*
X256233Y328733D01*
X256278Y328677D01*
X256314Y328615D01*
X256354Y328581D01*
X256387Y328541D01*
X256447Y328502D01*
X256501Y328455D01*
X256550Y328436D01*
X256593Y328408D01*
X256663Y328390D01*
X256729Y328363D01*
X256801Y328355D01*
X256832Y328347D01*
X256855Y328349D01*
X256896Y328345D01*
X284489Y328345D01*
X284579Y328359D01*
G37*
G36*
X154118Y411720D02*
X154118Y411720D01*
X154215Y411730D01*
X154239Y411740D01*
X154264Y411744D01*
X154350Y411790D01*
X154439Y411830D01*
X154459Y411847D01*
X154482Y411860D01*
X154549Y411930D01*
X154621Y411996D01*
X154633Y412019D01*
X154651Y412038D01*
X154692Y412126D01*
X154739Y412212D01*
X154744Y412237D01*
X154755Y412261D01*
X154766Y412358D01*
X154783Y412454D01*
X154779Y412480D01*
X154782Y412505D01*
X154761Y412601D01*
X154747Y412697D01*
X154735Y412720D01*
X154730Y412746D01*
X154680Y412829D01*
X154636Y412916D01*
X154617Y412935D01*
X154604Y412957D01*
X154530Y413020D01*
X154460Y413088D01*
X154431Y413104D01*
X154417Y413117D01*
X154386Y413129D01*
X154313Y413169D01*
X153085Y413678D01*
X150878Y415885D01*
X149683Y418769D01*
X149683Y421891D01*
X150878Y424775D01*
X150975Y424872D01*
X151017Y424930D01*
X151066Y424982D01*
X151088Y425029D01*
X151118Y425071D01*
X151139Y425140D01*
X151170Y425205D01*
X151175Y425257D01*
X151191Y425306D01*
X151189Y425378D01*
X151197Y425449D01*
X151186Y425500D01*
X151184Y425552D01*
X151160Y425620D01*
X151144Y425690D01*
X151118Y425735D01*
X151100Y425783D01*
X151055Y425839D01*
X151018Y425901D01*
X150979Y425935D01*
X150946Y425975D01*
X150886Y426014D01*
X150831Y426061D01*
X150783Y426080D01*
X150739Y426108D01*
X150670Y426126D01*
X150603Y426153D01*
X150532Y426161D01*
X150501Y426169D01*
X150477Y426167D01*
X150437Y426171D01*
X80150Y426171D01*
X80060Y426157D01*
X79969Y426149D01*
X79939Y426137D01*
X79908Y426132D01*
X79827Y426089D01*
X79743Y426053D01*
X79711Y426027D01*
X79690Y426016D01*
X79668Y425993D01*
X79612Y425948D01*
X66668Y413004D01*
X66626Y412946D01*
X66577Y412894D01*
X66555Y412847D01*
X66524Y412805D01*
X66503Y412736D01*
X66473Y412671D01*
X66467Y412619D01*
X66452Y412569D01*
X66454Y412498D01*
X66446Y412427D01*
X66457Y412376D01*
X66458Y412324D01*
X66483Y412256D01*
X66498Y412186D01*
X66525Y412141D01*
X66543Y412093D01*
X66588Y412037D01*
X66624Y411975D01*
X66664Y411941D01*
X66697Y411901D01*
X66757Y411862D01*
X66811Y411815D01*
X66860Y411796D01*
X66903Y411768D01*
X66973Y411750D01*
X67039Y411723D01*
X67111Y411715D01*
X67142Y411707D01*
X67165Y411709D01*
X67206Y411705D01*
X154022Y411705D01*
X154118Y411720D01*
G37*
%LPC*%
G36*
X531889Y82283D02*
X531889Y82283D01*
X529005Y83478D01*
X526895Y85588D01*
X526821Y85641D01*
X526751Y85701D01*
X526721Y85713D01*
X526695Y85732D01*
X526608Y85759D01*
X526523Y85793D01*
X526482Y85797D01*
X526460Y85804D01*
X526428Y85803D01*
X526356Y85811D01*
X464344Y85811D01*
X464253Y85797D01*
X464163Y85789D01*
X464133Y85777D01*
X464101Y85772D01*
X464020Y85729D01*
X463936Y85693D01*
X463904Y85667D01*
X463883Y85656D01*
X463861Y85633D01*
X463805Y85588D01*
X462965Y84748D01*
X460081Y83553D01*
X456959Y83553D01*
X454075Y84748D01*
X451868Y86955D01*
X450673Y89839D01*
X450673Y92961D01*
X451868Y95845D01*
X454075Y98052D01*
X456959Y99247D01*
X460081Y99247D01*
X462965Y98052D01*
X463805Y97212D01*
X463879Y97159D01*
X463949Y97099D01*
X463979Y97087D01*
X464005Y97068D01*
X464092Y97041D01*
X464177Y97007D01*
X464218Y97003D01*
X464240Y96996D01*
X464272Y96997D01*
X464344Y96989D01*
X529353Y96989D01*
X529417Y96999D01*
X529483Y97000D01*
X529563Y97023D01*
X529595Y97028D01*
X529612Y97038D01*
X529644Y97047D01*
X531889Y97977D01*
X535011Y97977D01*
X537895Y96782D01*
X540102Y94575D01*
X541297Y91691D01*
X541297Y88569D01*
X540102Y85685D01*
X537895Y83478D01*
X535011Y82283D01*
X531889Y82283D01*
G37*
%LPD*%
%LPC*%
G36*
X255029Y145783D02*
X255029Y145783D01*
X252145Y146978D01*
X249938Y149185D01*
X248743Y152069D01*
X248743Y155191D01*
X249938Y158075D01*
X252145Y160282D01*
X255029Y161477D01*
X258151Y161477D01*
X261035Y160282D01*
X261367Y159950D01*
X261441Y159897D01*
X261511Y159837D01*
X261541Y159825D01*
X261567Y159806D01*
X261654Y159779D01*
X261739Y159745D01*
X261780Y159741D01*
X261802Y159734D01*
X261834Y159735D01*
X261906Y159727D01*
X289309Y159727D01*
X289399Y159741D01*
X289490Y159749D01*
X289520Y159761D01*
X289552Y159766D01*
X289633Y159809D01*
X289717Y159845D01*
X289749Y159871D01*
X289769Y159882D01*
X289792Y159905D01*
X289848Y159950D01*
X300590Y170692D01*
X300643Y170766D01*
X300703Y170836D01*
X300715Y170866D01*
X300734Y170892D01*
X300761Y170979D01*
X300795Y171064D01*
X300799Y171105D01*
X300806Y171127D01*
X300805Y171159D01*
X300813Y171231D01*
X300813Y171701D01*
X302008Y174585D01*
X304215Y176792D01*
X307099Y177987D01*
X310221Y177987D01*
X313105Y176792D01*
X315312Y174585D01*
X316507Y171701D01*
X316507Y168579D01*
X315312Y165695D01*
X313105Y163488D01*
X310221Y162293D01*
X309751Y162293D01*
X309661Y162279D01*
X309570Y162271D01*
X309540Y162259D01*
X309508Y162254D01*
X309427Y162211D01*
X309343Y162175D01*
X309311Y162149D01*
X309291Y162138D01*
X309268Y162115D01*
X309212Y162070D01*
X295604Y148461D01*
X293363Y147533D01*
X261906Y147533D01*
X261815Y147519D01*
X261725Y147511D01*
X261695Y147499D01*
X261663Y147494D01*
X261582Y147451D01*
X261498Y147415D01*
X261466Y147389D01*
X261445Y147378D01*
X261423Y147355D01*
X261367Y147310D01*
X261035Y146978D01*
X258151Y145783D01*
X255029Y145783D01*
G37*
%LPD*%
G36*
X156370Y370145D02*
X156370Y370145D01*
X156441Y370151D01*
X156489Y370171D01*
X156540Y370182D01*
X156601Y370219D01*
X156667Y370247D01*
X156723Y370292D01*
X156751Y370308D01*
X156766Y370326D01*
X156798Y370352D01*
X158281Y371835D01*
X163724Y377278D01*
X165778Y378129D01*
X181864Y378129D01*
X181884Y378132D01*
X181903Y378130D01*
X182005Y378152D01*
X182107Y378168D01*
X182124Y378178D01*
X182144Y378182D01*
X182233Y378235D01*
X182324Y378284D01*
X182338Y378298D01*
X182355Y378308D01*
X182422Y378387D01*
X182494Y378462D01*
X182502Y378480D01*
X182515Y378495D01*
X182554Y378591D01*
X182597Y378685D01*
X182599Y378705D01*
X182607Y378723D01*
X182625Y378890D01*
X182625Y391424D01*
X185006Y393805D01*
X187840Y393805D01*
X187860Y393808D01*
X187879Y393806D01*
X187981Y393828D01*
X188083Y393844D01*
X188100Y393854D01*
X188120Y393858D01*
X188209Y393911D01*
X188300Y393960D01*
X188314Y393974D01*
X188331Y393984D01*
X188398Y394063D01*
X188470Y394138D01*
X188478Y394156D01*
X188491Y394171D01*
X188530Y394267D01*
X188573Y394361D01*
X188575Y394381D01*
X188583Y394399D01*
X188601Y394566D01*
X188601Y402630D01*
X188587Y402720D01*
X188579Y402811D01*
X188567Y402841D01*
X188562Y402872D01*
X188519Y402953D01*
X188483Y403037D01*
X188457Y403069D01*
X188446Y403090D01*
X188423Y403112D01*
X188378Y403168D01*
X179568Y411978D01*
X179494Y412031D01*
X179425Y412091D01*
X179394Y412103D01*
X179368Y412122D01*
X179281Y412149D01*
X179196Y412183D01*
X179156Y412187D01*
X179133Y412194D01*
X179101Y412193D01*
X179030Y412201D01*
X168865Y412201D01*
X168794Y412190D01*
X168722Y412188D01*
X168674Y412170D01*
X168622Y412162D01*
X168559Y412128D01*
X168491Y412103D01*
X168451Y412071D01*
X168405Y412046D01*
X168355Y411994D01*
X168299Y411950D01*
X168271Y411906D01*
X168235Y411868D01*
X168205Y411803D01*
X168166Y411743D01*
X168154Y411692D01*
X168132Y411645D01*
X168124Y411574D01*
X168106Y411504D01*
X168110Y411452D01*
X168105Y411401D01*
X168120Y411330D01*
X168126Y411259D01*
X168146Y411211D01*
X168157Y411160D01*
X168194Y411099D01*
X168222Y411033D01*
X168267Y410977D01*
X168283Y410949D01*
X168301Y410934D01*
X168327Y410902D01*
X169905Y409324D01*
X169905Y390956D01*
X167491Y388543D01*
X167447Y388536D01*
X167430Y388526D01*
X167410Y388522D01*
X167321Y388469D01*
X167230Y388420D01*
X167216Y388406D01*
X167199Y388396D01*
X167132Y388317D01*
X167060Y388242D01*
X167052Y388224D01*
X167039Y388209D01*
X167000Y388113D01*
X166957Y388019D01*
X166955Y387999D01*
X166947Y387981D01*
X166929Y387814D01*
X166929Y387468D01*
X166078Y385414D01*
X155722Y375058D01*
X155669Y374984D01*
X155609Y374915D01*
X155597Y374884D01*
X155578Y374858D01*
X155551Y374771D01*
X155517Y374686D01*
X155513Y374646D01*
X155506Y374623D01*
X155507Y374591D01*
X155499Y374520D01*
X155499Y370890D01*
X155510Y370819D01*
X155512Y370748D01*
X155530Y370699D01*
X155538Y370647D01*
X155572Y370584D01*
X155597Y370517D01*
X155629Y370476D01*
X155654Y370430D01*
X155706Y370381D01*
X155750Y370325D01*
X155794Y370297D01*
X155832Y370261D01*
X155897Y370231D01*
X155957Y370192D01*
X156008Y370179D01*
X156055Y370157D01*
X156126Y370149D01*
X156196Y370132D01*
X156248Y370136D01*
X156299Y370130D01*
X156370Y370145D01*
G37*
%LPC*%
G36*
X32776Y453985D02*
X32776Y453985D01*
X30395Y456366D01*
X30395Y475734D01*
X32776Y478115D01*
X44517Y478115D01*
X44581Y478125D01*
X44647Y478126D01*
X44727Y478149D01*
X44759Y478154D01*
X44777Y478164D01*
X44808Y478173D01*
X46749Y478977D01*
X49871Y478977D01*
X52755Y477782D01*
X54962Y475575D01*
X56157Y472691D01*
X56157Y469569D01*
X54962Y466685D01*
X53748Y465471D01*
X53695Y465397D01*
X53635Y465327D01*
X53623Y465297D01*
X53604Y465271D01*
X53577Y465184D01*
X53543Y465099D01*
X53539Y465058D01*
X53532Y465036D01*
X53533Y465004D01*
X53525Y464932D01*
X53525Y456366D01*
X51144Y453985D01*
X32776Y453985D01*
G37*
%LPD*%
G36*
X181954Y240397D02*
X181954Y240397D01*
X182006Y240398D01*
X182074Y240423D01*
X182144Y240438D01*
X182189Y240465D01*
X182237Y240483D01*
X182293Y240528D01*
X182355Y240564D01*
X182389Y240604D01*
X182429Y240637D01*
X182468Y240697D01*
X182515Y240751D01*
X182534Y240800D01*
X182562Y240843D01*
X182580Y240913D01*
X182607Y240979D01*
X182615Y241051D01*
X182623Y241082D01*
X182621Y241105D01*
X182625Y241146D01*
X182625Y352481D01*
X182614Y352551D01*
X182612Y352623D01*
X182594Y352672D01*
X182586Y352723D01*
X182552Y352787D01*
X182527Y352854D01*
X182495Y352895D01*
X182470Y352941D01*
X182418Y352990D01*
X182374Y353046D01*
X182330Y353074D01*
X182292Y353110D01*
X182227Y353140D01*
X182167Y353179D01*
X182116Y353192D01*
X182069Y353214D01*
X181998Y353222D01*
X181928Y353239D01*
X181876Y353235D01*
X181825Y353241D01*
X181754Y353225D01*
X181683Y353220D01*
X181635Y353200D01*
X181584Y353188D01*
X181523Y353152D01*
X181457Y353124D01*
X181401Y353079D01*
X181373Y353062D01*
X181358Y353045D01*
X181326Y353019D01*
X179755Y351448D01*
X178829Y351064D01*
X178729Y351002D01*
X178629Y350943D01*
X178625Y350938D01*
X178620Y350935D01*
X178545Y350844D01*
X178469Y350756D01*
X178467Y350750D01*
X178463Y350745D01*
X178421Y350637D01*
X178377Y350528D01*
X178376Y350520D01*
X178375Y350516D01*
X178374Y350497D01*
X178359Y350361D01*
X178359Y243890D01*
X178373Y243800D01*
X178381Y243709D01*
X178393Y243679D01*
X178398Y243648D01*
X178441Y243567D01*
X178477Y243483D01*
X178503Y243451D01*
X178514Y243430D01*
X178537Y243408D01*
X178582Y243352D01*
X181326Y240608D01*
X181384Y240566D01*
X181436Y240517D01*
X181483Y240495D01*
X181525Y240464D01*
X181594Y240443D01*
X181659Y240413D01*
X181711Y240407D01*
X181761Y240392D01*
X181832Y240394D01*
X181903Y240386D01*
X181954Y240397D01*
G37*
%LPC*%
G36*
X420652Y484925D02*
X420652Y484925D01*
X416386Y486692D01*
X413122Y489956D01*
X411355Y494222D01*
X411355Y498838D01*
X413122Y503104D01*
X416386Y506368D01*
X420652Y508135D01*
X425268Y508135D01*
X429534Y506368D01*
X432798Y503104D01*
X434565Y498838D01*
X434565Y494222D01*
X432798Y489956D01*
X429534Y486692D01*
X425268Y484925D01*
X420652Y484925D01*
G37*
%LPD*%
%LPC*%
G36*
X446052Y484925D02*
X446052Y484925D01*
X441786Y486692D01*
X438522Y489956D01*
X436755Y494222D01*
X436755Y498838D01*
X438522Y503104D01*
X441786Y506368D01*
X446052Y508135D01*
X450668Y508135D01*
X454934Y506368D01*
X458198Y503104D01*
X459965Y498838D01*
X459965Y494222D01*
X458198Y489956D01*
X454934Y486692D01*
X450668Y484925D01*
X446052Y484925D01*
G37*
%LPD*%
G36*
X541442Y355889D02*
X541442Y355889D01*
X541494Y355890D01*
X541562Y355915D01*
X541632Y355930D01*
X541676Y355957D01*
X541725Y355975D01*
X541781Y356020D01*
X541843Y356056D01*
X541877Y356096D01*
X541917Y356129D01*
X541956Y356189D01*
X542003Y356243D01*
X542022Y356292D01*
X542050Y356335D01*
X542068Y356405D01*
X542095Y356471D01*
X542103Y356543D01*
X542111Y356574D01*
X542109Y356597D01*
X542113Y356638D01*
X542113Y358391D01*
X543308Y361275D01*
X545515Y363482D01*
X548399Y364677D01*
X551521Y364677D01*
X554405Y363482D01*
X555245Y362642D01*
X555319Y362589D01*
X555389Y362529D01*
X555419Y362517D01*
X555445Y362498D01*
X555532Y362471D01*
X555617Y362437D01*
X555658Y362433D01*
X555680Y362426D01*
X555712Y362427D01*
X555784Y362419D01*
X601940Y362419D01*
X602030Y362433D01*
X602121Y362441D01*
X602151Y362453D01*
X602182Y362458D01*
X602263Y362501D01*
X602347Y362537D01*
X602379Y362563D01*
X602400Y362574D01*
X602422Y362597D01*
X602478Y362642D01*
X605018Y365182D01*
X605060Y365240D01*
X605109Y365292D01*
X605131Y365339D01*
X605162Y365381D01*
X605183Y365450D01*
X605213Y365515D01*
X605219Y365567D01*
X605234Y365617D01*
X605232Y365688D01*
X605240Y365759D01*
X605229Y365810D01*
X605228Y365862D01*
X605203Y365930D01*
X605188Y366000D01*
X605161Y366045D01*
X605143Y366093D01*
X605098Y366149D01*
X605062Y366211D01*
X605022Y366245D01*
X604989Y366285D01*
X604929Y366324D01*
X604875Y366371D01*
X604826Y366390D01*
X604783Y366418D01*
X604713Y366436D01*
X604647Y366463D01*
X604575Y366471D01*
X604544Y366479D01*
X604521Y366477D01*
X604480Y366481D01*
X538688Y366481D01*
X536634Y367332D01*
X534955Y369011D01*
X527548Y376418D01*
X527474Y376471D01*
X527405Y376531D01*
X527374Y376543D01*
X527348Y376562D01*
X527261Y376589D01*
X527176Y376623D01*
X527136Y376627D01*
X527113Y376634D01*
X527081Y376633D01*
X527010Y376641D01*
X522110Y376641D01*
X522039Y376630D01*
X521968Y376628D01*
X521919Y376610D01*
X521867Y376602D01*
X521804Y376568D01*
X521737Y376543D01*
X521696Y376511D01*
X521650Y376486D01*
X521601Y376435D01*
X521545Y376390D01*
X521517Y376346D01*
X521481Y376308D01*
X521451Y376243D01*
X521412Y376183D01*
X521399Y376132D01*
X521377Y376085D01*
X521369Y376014D01*
X521352Y375944D01*
X521356Y375892D01*
X521350Y375841D01*
X521365Y375770D01*
X521371Y375699D01*
X521391Y375651D01*
X521402Y375600D01*
X521439Y375539D01*
X521467Y375473D01*
X521512Y375417D01*
X521528Y375389D01*
X521546Y375374D01*
X521572Y375342D01*
X540814Y356100D01*
X540872Y356058D01*
X540924Y356009D01*
X540971Y355987D01*
X541013Y355956D01*
X541082Y355935D01*
X541147Y355905D01*
X541199Y355899D01*
X541249Y355884D01*
X541320Y355886D01*
X541391Y355878D01*
X541442Y355889D01*
G37*
G36*
X617319Y348468D02*
X617319Y348468D01*
X617435Y348485D01*
X617441Y348487D01*
X617447Y348488D01*
X617550Y348543D01*
X617655Y348596D01*
X617659Y348601D01*
X617664Y348604D01*
X617744Y348688D01*
X617827Y348772D01*
X617830Y348778D01*
X617834Y348782D01*
X617842Y348799D01*
X617908Y348919D01*
X618557Y350486D01*
X622344Y354273D01*
X623753Y354857D01*
X623814Y354895D01*
X623879Y354924D01*
X623918Y354959D01*
X623962Y354986D01*
X624008Y355042D01*
X624060Y355090D01*
X624085Y355136D01*
X624119Y355176D01*
X624144Y355243D01*
X624179Y355306D01*
X624188Y355357D01*
X624207Y355405D01*
X624210Y355477D01*
X624223Y355548D01*
X624215Y355599D01*
X624217Y355651D01*
X624197Y355720D01*
X624187Y355791D01*
X624163Y355837D01*
X624149Y355887D01*
X624108Y355946D01*
X624075Y356010D01*
X624038Y356047D01*
X624008Y356089D01*
X623951Y356132D01*
X623900Y356182D01*
X623837Y356217D01*
X623811Y356236D01*
X623789Y356243D01*
X623753Y356263D01*
X622344Y356847D01*
X618557Y360634D01*
X618325Y361193D01*
X618301Y361232D01*
X618285Y361275D01*
X618237Y361336D01*
X618196Y361402D01*
X618160Y361431D01*
X618132Y361467D01*
X618066Y361509D01*
X618006Y361559D01*
X617963Y361575D01*
X617925Y361600D01*
X617849Y361619D01*
X617777Y361647D01*
X617731Y361649D01*
X617686Y361660D01*
X617609Y361654D01*
X617531Y361658D01*
X617487Y361645D01*
X617441Y361641D01*
X617369Y361611D01*
X617295Y361589D01*
X617257Y361563D01*
X617215Y361545D01*
X617108Y361459D01*
X617093Y361449D01*
X617090Y361445D01*
X617084Y361440D01*
X607736Y352092D01*
X605682Y351241D01*
X555784Y351241D01*
X555693Y351227D01*
X555603Y351219D01*
X555573Y351207D01*
X555541Y351202D01*
X555460Y351159D01*
X555376Y351123D01*
X555344Y351097D01*
X555323Y351086D01*
X555301Y351063D01*
X555245Y351018D01*
X554405Y350178D01*
X553766Y349913D01*
X553683Y349862D01*
X553597Y349816D01*
X553579Y349797D01*
X553557Y349784D01*
X553495Y349709D01*
X553428Y349638D01*
X553417Y349614D01*
X553400Y349594D01*
X553365Y349503D01*
X553324Y349415D01*
X553321Y349389D01*
X553312Y349365D01*
X553308Y349267D01*
X553297Y349171D01*
X553303Y349145D01*
X553302Y349119D01*
X553329Y349025D01*
X553349Y348930D01*
X553363Y348908D01*
X553370Y348883D01*
X553426Y348803D01*
X553476Y348719D01*
X553495Y348702D01*
X553510Y348681D01*
X553588Y348622D01*
X553662Y348559D01*
X553687Y348549D01*
X553708Y348534D01*
X553800Y348504D01*
X553891Y348467D01*
X553923Y348464D01*
X553942Y348458D01*
X553975Y348458D01*
X554057Y348449D01*
X617204Y348449D01*
X617319Y348468D01*
G37*
G36*
X297279Y315659D02*
X297279Y315659D01*
X297370Y315667D01*
X297400Y315679D01*
X297432Y315684D01*
X297512Y315727D01*
X297596Y315763D01*
X297628Y315789D01*
X297649Y315800D01*
X297671Y315823D01*
X297727Y315868D01*
X308182Y326323D01*
X308235Y326397D01*
X308295Y326466D01*
X308307Y326496D01*
X308326Y326523D01*
X308353Y326609D01*
X308387Y326694D01*
X308391Y326735D01*
X308398Y326758D01*
X308397Y326790D01*
X308405Y326861D01*
X308405Y358469D01*
X308395Y358534D01*
X308394Y358600D01*
X308371Y358680D01*
X308366Y358712D01*
X308356Y358729D01*
X308347Y358761D01*
X307163Y361619D01*
X307163Y364741D01*
X308358Y367625D01*
X308455Y367722D01*
X308497Y367780D01*
X308546Y367832D01*
X308568Y367879D01*
X308598Y367921D01*
X308619Y367990D01*
X308650Y368055D01*
X308655Y368107D01*
X308671Y368156D01*
X308669Y368228D01*
X308677Y368299D01*
X308666Y368350D01*
X308664Y368402D01*
X308640Y368470D01*
X308624Y368540D01*
X308598Y368585D01*
X308580Y368633D01*
X308535Y368689D01*
X308498Y368751D01*
X308459Y368785D01*
X308426Y368825D01*
X308366Y368864D01*
X308311Y368911D01*
X308263Y368930D01*
X308219Y368958D01*
X308150Y368976D01*
X308083Y369003D01*
X308012Y369011D01*
X307981Y369019D01*
X307957Y369017D01*
X307917Y369021D01*
X305866Y369021D01*
X305846Y369018D01*
X305827Y369020D01*
X305725Y368998D01*
X305623Y368982D01*
X305606Y368972D01*
X305586Y368968D01*
X305497Y368915D01*
X305406Y368866D01*
X305392Y368852D01*
X305375Y368842D01*
X305308Y368763D01*
X305236Y368688D01*
X305228Y368670D01*
X305215Y368655D01*
X305176Y368559D01*
X305133Y368465D01*
X305131Y368445D01*
X305123Y368427D01*
X305105Y368260D01*
X305105Y331386D01*
X304099Y328959D01*
X302134Y326994D01*
X292085Y316944D01*
X292043Y316886D01*
X291994Y316834D01*
X291972Y316787D01*
X291941Y316745D01*
X291920Y316676D01*
X291890Y316611D01*
X291884Y316559D01*
X291869Y316509D01*
X291871Y316438D01*
X291863Y316367D01*
X291874Y316316D01*
X291875Y316264D01*
X291900Y316196D01*
X291915Y316126D01*
X291942Y316081D01*
X291960Y316033D01*
X292005Y315977D01*
X292041Y315915D01*
X292081Y315881D01*
X292113Y315841D01*
X292174Y315802D01*
X292228Y315755D01*
X292277Y315736D01*
X292320Y315708D01*
X292390Y315690D01*
X292456Y315663D01*
X292528Y315655D01*
X292559Y315647D01*
X292582Y315649D01*
X292623Y315645D01*
X297189Y315645D01*
X297279Y315659D01*
G37*
%LPC*%
G36*
X550939Y121653D02*
X550939Y121653D01*
X548055Y122848D01*
X545848Y125055D01*
X544653Y127939D01*
X544653Y131061D01*
X545848Y133945D01*
X548055Y136152D01*
X550939Y137347D01*
X554061Y137347D01*
X556945Y136152D01*
X559152Y133945D01*
X560347Y131061D01*
X560347Y127939D01*
X559152Y125055D01*
X556945Y122848D01*
X554061Y121653D01*
X550939Y121653D01*
G37*
%LPD*%
%LPC*%
G36*
X423939Y197853D02*
X423939Y197853D01*
X421055Y199048D01*
X418848Y201255D01*
X417653Y204139D01*
X417653Y207261D01*
X418848Y210145D01*
X421055Y212352D01*
X423939Y213547D01*
X427061Y213547D01*
X429945Y212352D01*
X432152Y210145D01*
X433347Y207261D01*
X433347Y204139D01*
X432152Y201255D01*
X429945Y199048D01*
X427061Y197853D01*
X423939Y197853D01*
G37*
%LPD*%
%LPC*%
G36*
X81039Y147053D02*
X81039Y147053D01*
X78155Y148248D01*
X75948Y150455D01*
X74753Y153339D01*
X74753Y156461D01*
X75948Y159345D01*
X78155Y161552D01*
X81039Y162747D01*
X84161Y162747D01*
X87045Y161552D01*
X89252Y159345D01*
X90447Y156461D01*
X90447Y153339D01*
X89252Y150455D01*
X87045Y148248D01*
X84161Y147053D01*
X81039Y147053D01*
G37*
%LPD*%
%LPC*%
G36*
X550939Y147053D02*
X550939Y147053D01*
X548055Y148248D01*
X545848Y150455D01*
X544653Y153339D01*
X544653Y156461D01*
X545848Y159345D01*
X548055Y161552D01*
X550939Y162747D01*
X554061Y162747D01*
X556945Y161552D01*
X559152Y159345D01*
X560347Y156461D01*
X560347Y153339D01*
X559152Y150455D01*
X556945Y148248D01*
X554061Y147053D01*
X550939Y147053D01*
G37*
%LPD*%
%LPC*%
G36*
X68339Y159753D02*
X68339Y159753D01*
X65455Y160948D01*
X63248Y163155D01*
X62053Y166039D01*
X62053Y169161D01*
X63248Y172045D01*
X65455Y174252D01*
X68339Y175447D01*
X71461Y175447D01*
X74345Y174252D01*
X76552Y172045D01*
X77747Y169161D01*
X77747Y166039D01*
X76552Y163155D01*
X74345Y160948D01*
X71461Y159753D01*
X68339Y159753D01*
G37*
%LPD*%
%LPC*%
G36*
X500139Y172453D02*
X500139Y172453D01*
X497255Y173648D01*
X495048Y175855D01*
X493853Y178739D01*
X493853Y181861D01*
X495048Y184745D01*
X497255Y186952D01*
X500139Y188147D01*
X503261Y188147D01*
X506145Y186952D01*
X508352Y184745D01*
X509547Y181861D01*
X509547Y178739D01*
X508352Y175855D01*
X506145Y173648D01*
X503261Y172453D01*
X500139Y172453D01*
G37*
%LPD*%
%LPC*%
G36*
X462039Y185153D02*
X462039Y185153D01*
X459155Y186348D01*
X456948Y188555D01*
X455753Y191439D01*
X455753Y194561D01*
X456948Y197445D01*
X459155Y199652D01*
X462039Y200847D01*
X465161Y200847D01*
X468045Y199652D01*
X470252Y197445D01*
X471447Y194561D01*
X471447Y191439D01*
X470252Y188555D01*
X468045Y186348D01*
X465161Y185153D01*
X462039Y185153D01*
G37*
%LPD*%
%LPC*%
G36*
X487439Y197853D02*
X487439Y197853D01*
X484555Y199048D01*
X482348Y201255D01*
X481153Y204139D01*
X481153Y207261D01*
X482348Y210145D01*
X484555Y212352D01*
X487439Y213547D01*
X490561Y213547D01*
X493445Y212352D01*
X495652Y210145D01*
X496847Y207261D01*
X496847Y204139D01*
X495652Y201255D01*
X493445Y199048D01*
X490561Y197853D01*
X487439Y197853D01*
G37*
%LPD*%
%LPC*%
G36*
X449339Y210553D02*
X449339Y210553D01*
X446455Y211748D01*
X444248Y213955D01*
X443053Y216839D01*
X443053Y219961D01*
X444248Y222845D01*
X446455Y225052D01*
X449339Y226247D01*
X452461Y226247D01*
X455345Y225052D01*
X457552Y222845D01*
X458747Y219961D01*
X458747Y216839D01*
X457552Y213955D01*
X455345Y211748D01*
X452461Y210553D01*
X449339Y210553D01*
G37*
%LPD*%
%LPC*%
G36*
X411239Y210553D02*
X411239Y210553D01*
X408355Y211748D01*
X406148Y213955D01*
X404953Y216839D01*
X404953Y219961D01*
X406148Y222845D01*
X408355Y225052D01*
X411239Y226247D01*
X414361Y226247D01*
X417245Y225052D01*
X419452Y222845D01*
X420647Y219961D01*
X420647Y216839D01*
X419452Y213955D01*
X417245Y211748D01*
X414361Y210553D01*
X411239Y210553D01*
G37*
%LPD*%
%LPC*%
G36*
X423939Y235953D02*
X423939Y235953D01*
X421055Y237148D01*
X418848Y239355D01*
X417653Y242239D01*
X417653Y245361D01*
X418848Y248245D01*
X421055Y250452D01*
X423939Y251647D01*
X427061Y251647D01*
X429945Y250452D01*
X432152Y248245D01*
X433347Y245361D01*
X433347Y242239D01*
X432152Y239355D01*
X429945Y237148D01*
X427061Y235953D01*
X423939Y235953D01*
G37*
%LPD*%
%LPC*%
G36*
X83359Y464323D02*
X83359Y464323D01*
X83359Y475634D01*
X83532Y476281D01*
X83867Y476860D01*
X84340Y477333D01*
X84919Y477668D01*
X85566Y477841D01*
X96877Y477841D01*
X96877Y464323D01*
X83359Y464323D01*
G37*
%LPD*%
%LPC*%
G36*
X99923Y447759D02*
X99923Y447759D01*
X99923Y461277D01*
X113441Y461277D01*
X113441Y449966D01*
X113268Y449319D01*
X112933Y448740D01*
X112460Y448267D01*
X111881Y447932D01*
X111234Y447759D01*
X99923Y447759D01*
G37*
%LPD*%
%LPC*%
G36*
X85566Y447759D02*
X85566Y447759D01*
X84919Y447932D01*
X84340Y448267D01*
X83867Y448740D01*
X83532Y449319D01*
X83359Y449966D01*
X83359Y461277D01*
X96877Y461277D01*
X96877Y447759D01*
X85566Y447759D01*
G37*
%LPD*%
G36*
X605840Y377673D02*
X605840Y377673D01*
X605931Y377681D01*
X605961Y377693D01*
X605993Y377698D01*
X606073Y377741D01*
X606157Y377777D01*
X606189Y377803D01*
X606210Y377814D01*
X606227Y377832D01*
X606229Y377833D01*
X606236Y377840D01*
X606288Y377882D01*
X616991Y388585D01*
X617037Y388649D01*
X617056Y388669D01*
X617064Y388686D01*
X617129Y388774D01*
X617131Y388780D01*
X617135Y388785D01*
X617169Y388896D01*
X617206Y389008D01*
X617206Y389014D01*
X617207Y389020D01*
X617204Y389136D01*
X617203Y389254D01*
X617201Y389261D01*
X617201Y389266D01*
X617195Y389283D01*
X617157Y389415D01*
X616507Y390982D01*
X616507Y395856D01*
X616496Y395927D01*
X616494Y395998D01*
X616476Y396047D01*
X616468Y396099D01*
X616434Y396162D01*
X616409Y396229D01*
X616377Y396270D01*
X616352Y396316D01*
X616300Y396365D01*
X616256Y396421D01*
X616212Y396449D01*
X616174Y396485D01*
X616109Y396515D01*
X616049Y396554D01*
X615998Y396567D01*
X615951Y396589D01*
X615880Y396597D01*
X615810Y396614D01*
X615758Y396610D01*
X615707Y396616D01*
X615636Y396601D01*
X615565Y396595D01*
X615517Y396575D01*
X615466Y396564D01*
X615405Y396527D01*
X615339Y396499D01*
X615283Y396454D01*
X615255Y396438D01*
X615240Y396420D01*
X615208Y396394D01*
X599255Y380441D01*
X597772Y378958D01*
X597730Y378900D01*
X597681Y378848D01*
X597659Y378801D01*
X597628Y378759D01*
X597607Y378690D01*
X597577Y378625D01*
X597571Y378573D01*
X597556Y378523D01*
X597558Y378452D01*
X597550Y378381D01*
X597561Y378330D01*
X597562Y378278D01*
X597587Y378210D01*
X597602Y378140D01*
X597629Y378095D01*
X597647Y378047D01*
X597692Y377991D01*
X597728Y377929D01*
X597768Y377895D01*
X597801Y377855D01*
X597861Y377816D01*
X597915Y377769D01*
X597964Y377750D01*
X598007Y377722D01*
X598077Y377704D01*
X598143Y377677D01*
X598215Y377669D01*
X598246Y377661D01*
X598269Y377663D01*
X598310Y377659D01*
X605750Y377659D01*
X605840Y377673D01*
G37*
%LPC*%
G36*
X43483Y515833D02*
X43483Y515833D01*
X43483Y524851D01*
X49794Y524851D01*
X50441Y524678D01*
X51020Y524343D01*
X51493Y523870D01*
X51828Y523291D01*
X52001Y522644D01*
X52001Y515833D01*
X43483Y515833D01*
G37*
%LPD*%
%LPC*%
G36*
X371143Y118323D02*
X371143Y118323D01*
X371143Y127341D01*
X377454Y127341D01*
X378101Y127168D01*
X378680Y126833D01*
X379153Y126360D01*
X379488Y125781D01*
X379661Y125134D01*
X379661Y118323D01*
X371143Y118323D01*
G37*
%LPD*%
%LPC*%
G36*
X47293Y81493D02*
X47293Y81493D01*
X47293Y90511D01*
X53604Y90511D01*
X54251Y90338D01*
X54830Y90003D01*
X55303Y89530D01*
X55638Y88951D01*
X55811Y88304D01*
X55811Y81493D01*
X47293Y81493D01*
G37*
%LPD*%
%LPC*%
G36*
X43483Y503769D02*
X43483Y503769D01*
X43483Y512787D01*
X52001Y512787D01*
X52001Y505976D01*
X51828Y505329D01*
X51493Y504750D01*
X51020Y504277D01*
X50441Y503942D01*
X49794Y503769D01*
X43483Y503769D01*
G37*
%LPD*%
%LPC*%
G36*
X371143Y106259D02*
X371143Y106259D01*
X371143Y115277D01*
X379661Y115277D01*
X379661Y108466D01*
X379488Y107819D01*
X379153Y107240D01*
X378680Y106767D01*
X378101Y106432D01*
X377454Y106259D01*
X371143Y106259D01*
G37*
%LPD*%
%LPC*%
G36*
X47293Y69429D02*
X47293Y69429D01*
X47293Y78447D01*
X55811Y78447D01*
X55811Y71636D01*
X55638Y70989D01*
X55303Y70410D01*
X54830Y69937D01*
X54251Y69602D01*
X53604Y69429D01*
X47293Y69429D01*
G37*
%LPD*%
%LPC*%
G36*
X35729Y81493D02*
X35729Y81493D01*
X35729Y88304D01*
X35902Y88951D01*
X36237Y89530D01*
X36710Y90003D01*
X37289Y90338D01*
X37936Y90511D01*
X44247Y90511D01*
X44247Y81493D01*
X35729Y81493D01*
G37*
%LPD*%
%LPC*%
G36*
X31919Y515833D02*
X31919Y515833D01*
X31919Y522644D01*
X32092Y523291D01*
X32427Y523870D01*
X32900Y524343D01*
X33479Y524678D01*
X34126Y524851D01*
X40437Y524851D01*
X40437Y515833D01*
X31919Y515833D01*
G37*
%LPD*%
%LPC*%
G36*
X359579Y118323D02*
X359579Y118323D01*
X359579Y125134D01*
X359752Y125781D01*
X360087Y126360D01*
X360560Y126833D01*
X361139Y127168D01*
X361786Y127341D01*
X368097Y127341D01*
X368097Y118323D01*
X359579Y118323D01*
G37*
%LPD*%
%LPC*%
G36*
X361786Y106259D02*
X361786Y106259D01*
X361139Y106432D01*
X360560Y106767D01*
X360087Y107240D01*
X359752Y107819D01*
X359579Y108466D01*
X359579Y115277D01*
X368097Y115277D01*
X368097Y106259D01*
X361786Y106259D01*
G37*
%LPD*%
%LPC*%
G36*
X34126Y503769D02*
X34126Y503769D01*
X33479Y503942D01*
X32900Y504277D01*
X32427Y504750D01*
X32092Y505329D01*
X31919Y505976D01*
X31919Y512787D01*
X40437Y512787D01*
X40437Y503769D01*
X34126Y503769D01*
G37*
%LPD*%
%LPC*%
G36*
X37936Y69429D02*
X37936Y69429D01*
X37289Y69602D01*
X36710Y69937D01*
X36237Y70410D01*
X35902Y70989D01*
X35729Y71636D01*
X35729Y78447D01*
X44247Y78447D01*
X44247Y69429D01*
X37936Y69429D01*
G37*
%LPD*%
%LPC*%
G36*
X373683Y498053D02*
X373683Y498053D01*
X373683Y506495D01*
X374521Y506363D01*
X376030Y505872D01*
X377443Y505152D01*
X378727Y504219D01*
X379849Y503097D01*
X380782Y501813D01*
X381502Y500400D01*
X381993Y498891D01*
X382125Y498053D01*
X373683Y498053D01*
G37*
%LPD*%
%LPC*%
G36*
X362195Y498053D02*
X362195Y498053D01*
X362327Y498891D01*
X362818Y500400D01*
X363538Y501813D01*
X364471Y503097D01*
X365593Y504219D01*
X366877Y505152D01*
X368290Y505872D01*
X369799Y506363D01*
X370637Y506495D01*
X370637Y498053D01*
X362195Y498053D01*
G37*
%LPD*%
%LPC*%
G36*
X369799Y486697D02*
X369799Y486697D01*
X368290Y487188D01*
X366877Y487908D01*
X365593Y488841D01*
X364471Y489963D01*
X363538Y491247D01*
X362818Y492660D01*
X362327Y494169D01*
X362195Y495007D01*
X370637Y495007D01*
X370637Y486565D01*
X369799Y486697D01*
G37*
%LPD*%
G36*
X238936Y340040D02*
X238936Y340040D01*
X239007Y340042D01*
X239057Y340060D01*
X239109Y340068D01*
X239172Y340101D01*
X239238Y340126D01*
X239280Y340159D01*
X239327Y340184D01*
X239375Y340235D01*
X239431Y340279D01*
X239459Y340323D01*
X239496Y340362D01*
X239526Y340426D01*
X239564Y340485D01*
X239577Y340537D01*
X239600Y340585D01*
X239607Y340655D01*
X239625Y340724D01*
X239621Y340777D01*
X239627Y340829D01*
X239612Y340899D01*
X239606Y340969D01*
X239586Y341018D01*
X239574Y341070D01*
X239538Y341130D01*
X239511Y341196D01*
X239476Y341235D01*
X239448Y341281D01*
X239395Y341327D01*
X239348Y341380D01*
X239286Y341420D01*
X239261Y341441D01*
X239240Y341449D01*
X239207Y341471D01*
X239119Y341498D01*
X239033Y341533D01*
X238994Y341537D01*
X238972Y341544D01*
X238940Y341543D01*
X238866Y341551D01*
X206516Y341551D01*
X206496Y341548D01*
X206477Y341550D01*
X206375Y341528D01*
X206273Y341512D01*
X206256Y341502D01*
X206236Y341498D01*
X206147Y341445D01*
X206056Y341396D01*
X206042Y341382D01*
X206025Y341372D01*
X205958Y341293D01*
X205886Y341218D01*
X205878Y341200D01*
X205865Y341185D01*
X205826Y341089D01*
X205783Y340995D01*
X205781Y340975D01*
X205773Y340957D01*
X205755Y340790D01*
X205758Y340770D01*
X205756Y340751D01*
X205765Y340710D01*
X205778Y340649D01*
X205794Y340547D01*
X205804Y340530D01*
X205808Y340510D01*
X205861Y340421D01*
X205910Y340330D01*
X205924Y340316D01*
X205934Y340299D01*
X206013Y340232D01*
X206088Y340160D01*
X206106Y340152D01*
X206121Y340139D01*
X206217Y340100D01*
X206311Y340057D01*
X206331Y340055D01*
X206349Y340047D01*
X206516Y340029D01*
X238867Y340029D01*
X238936Y340040D01*
G37*
%LPC*%
G36*
X15713Y213099D02*
X15713Y213099D01*
X15713Y218617D01*
X24231Y218617D01*
X24231Y215306D01*
X24058Y214659D01*
X23723Y214080D01*
X23250Y213607D01*
X22671Y213272D01*
X22024Y213099D01*
X15713Y213099D01*
G37*
%LPD*%
%LPC*%
G36*
X39999Y401663D02*
X39999Y401663D01*
X39999Y407974D01*
X40172Y408621D01*
X40507Y409200D01*
X40980Y409673D01*
X41559Y410008D01*
X42206Y410181D01*
X45517Y410181D01*
X45517Y401663D01*
X39999Y401663D01*
G37*
%LPD*%
%LPC*%
G36*
X42206Y390099D02*
X42206Y390099D01*
X41559Y390272D01*
X40980Y390607D01*
X40507Y391080D01*
X40172Y391659D01*
X39999Y392306D01*
X39999Y398617D01*
X45517Y398617D01*
X45517Y390099D01*
X42206Y390099D01*
G37*
%LPD*%
G36*
X215052Y52000D02*
X215052Y52000D01*
X215104Y52001D01*
X215172Y52026D01*
X215242Y52041D01*
X215287Y52068D01*
X215335Y52086D01*
X215391Y52130D01*
X215453Y52167D01*
X215487Y52207D01*
X215527Y52239D01*
X215566Y52300D01*
X215613Y52354D01*
X215632Y52402D01*
X215660Y52446D01*
X215678Y52516D01*
X215705Y52582D01*
X215713Y52654D01*
X215721Y52685D01*
X215719Y52708D01*
X215723Y52749D01*
X215723Y53287D01*
X215709Y53377D01*
X215701Y53468D01*
X215689Y53498D01*
X215684Y53530D01*
X215641Y53610D01*
X215605Y53694D01*
X215579Y53726D01*
X215568Y53747D01*
X215545Y53769D01*
X215500Y53825D01*
X205077Y64248D01*
X204969Y64509D01*
X204918Y64592D01*
X204872Y64678D01*
X204853Y64696D01*
X204840Y64718D01*
X204765Y64780D01*
X204694Y64847D01*
X204670Y64858D01*
X204650Y64875D01*
X204559Y64910D01*
X204471Y64951D01*
X204445Y64954D01*
X204421Y64963D01*
X204323Y64967D01*
X204227Y64978D01*
X204201Y64973D01*
X204175Y64974D01*
X204081Y64947D01*
X203986Y64926D01*
X203964Y64913D01*
X203939Y64905D01*
X203859Y64850D01*
X203775Y64800D01*
X203758Y64780D01*
X203737Y64765D01*
X203678Y64687D01*
X203615Y64613D01*
X203605Y64589D01*
X203590Y64568D01*
X203560Y64475D01*
X203523Y64385D01*
X203520Y64352D01*
X203514Y64334D01*
X203514Y64301D01*
X203505Y64218D01*
X203505Y63445D01*
X203519Y63355D01*
X203527Y63264D01*
X203539Y63234D01*
X203544Y63202D01*
X203587Y63122D01*
X203623Y63038D01*
X203649Y63006D01*
X203660Y62985D01*
X203683Y62963D01*
X203728Y62907D01*
X214424Y52211D01*
X214482Y52169D01*
X214534Y52119D01*
X214581Y52098D01*
X214623Y52067D01*
X214692Y52046D01*
X214757Y52016D01*
X214809Y52010D01*
X214859Y51995D01*
X214930Y51997D01*
X215001Y51989D01*
X215052Y52000D01*
G37*
G36*
X70256Y31332D02*
X70256Y31332D01*
X70353Y31340D01*
X70377Y31350D01*
X70403Y31354D01*
X70490Y31398D01*
X70579Y31436D01*
X70605Y31456D01*
X70622Y31465D01*
X70645Y31489D01*
X70710Y31541D01*
X72122Y32953D01*
X72175Y33027D01*
X72235Y33096D01*
X72247Y33126D01*
X72266Y33153D01*
X72293Y33240D01*
X72327Y33324D01*
X72331Y33365D01*
X72338Y33388D01*
X72337Y33420D01*
X72345Y33491D01*
X72345Y39504D01*
X72342Y39524D01*
X72344Y39543D01*
X72322Y39645D01*
X72306Y39747D01*
X72296Y39764D01*
X72292Y39784D01*
X72239Y39873D01*
X72190Y39964D01*
X72176Y39978D01*
X72166Y39995D01*
X72087Y40062D01*
X72012Y40134D01*
X71994Y40142D01*
X71979Y40155D01*
X71883Y40194D01*
X71789Y40237D01*
X71769Y40239D01*
X71751Y40247D01*
X71584Y40265D01*
X69947Y40265D01*
X69902Y40258D01*
X69856Y40260D01*
X69781Y40238D01*
X69704Y40226D01*
X69664Y40204D01*
X69620Y40191D01*
X69556Y40147D01*
X69487Y40110D01*
X69455Y40077D01*
X69418Y40051D01*
X69371Y39989D01*
X69317Y39932D01*
X69298Y39890D01*
X69271Y39854D01*
X69247Y39780D01*
X69214Y39709D01*
X69209Y39663D01*
X69195Y39620D01*
X69195Y39542D01*
X69187Y39465D01*
X69196Y39420D01*
X69197Y39374D01*
X69235Y39242D01*
X69239Y39224D01*
X69242Y39220D01*
X69244Y39213D01*
X70127Y37081D01*
X70127Y33959D01*
X69469Y32370D01*
X69446Y32276D01*
X69418Y32182D01*
X69418Y32156D01*
X69412Y32131D01*
X69422Y32034D01*
X69424Y31936D01*
X69433Y31912D01*
X69435Y31886D01*
X69475Y31797D01*
X69509Y31705D01*
X69525Y31685D01*
X69535Y31661D01*
X69602Y31589D01*
X69662Y31513D01*
X69684Y31499D01*
X69702Y31480D01*
X69787Y31433D01*
X69869Y31380D01*
X69894Y31374D01*
X69917Y31361D01*
X70013Y31344D01*
X70108Y31320D01*
X70134Y31322D01*
X70159Y31318D01*
X70256Y31332D01*
G37*
G36*
X167704Y361440D02*
X167704Y361440D01*
X167729Y361437D01*
X167824Y361458D01*
X167921Y361472D01*
X167944Y361484D01*
X167970Y361489D01*
X168054Y361539D01*
X168140Y361583D01*
X168158Y361602D01*
X168181Y361616D01*
X168244Y361690D01*
X168312Y361759D01*
X168328Y361788D01*
X168341Y361802D01*
X168353Y361833D01*
X168393Y361906D01*
X168658Y362545D01*
X170865Y364752D01*
X172639Y365487D01*
X172722Y365538D01*
X172807Y365584D01*
X172825Y365603D01*
X172848Y365616D01*
X172910Y365691D01*
X172977Y365762D01*
X172988Y365786D01*
X173005Y365806D01*
X173039Y365897D01*
X173080Y365985D01*
X173083Y366011D01*
X173093Y366035D01*
X173097Y366133D01*
X173108Y366229D01*
X173102Y366255D01*
X173103Y366281D01*
X173076Y366375D01*
X173055Y366470D01*
X173042Y366492D01*
X173035Y366517D01*
X172979Y366597D01*
X172929Y366681D01*
X172909Y366698D01*
X172894Y366719D01*
X172816Y366778D01*
X172742Y366841D01*
X172718Y366851D01*
X172697Y366866D01*
X172604Y366896D01*
X172514Y366933D01*
X172482Y366936D01*
X172463Y366942D01*
X172430Y366942D01*
X172347Y366951D01*
X169520Y366951D01*
X169430Y366937D01*
X169339Y366929D01*
X169309Y366917D01*
X169278Y366912D01*
X169197Y366869D01*
X169113Y366833D01*
X169081Y366807D01*
X169060Y366796D01*
X169038Y366773D01*
X168982Y366728D01*
X167152Y364898D01*
X167099Y364824D01*
X167039Y364755D01*
X167027Y364724D01*
X167008Y364698D01*
X166981Y364611D01*
X166947Y364526D01*
X166943Y364486D01*
X166936Y364463D01*
X166937Y364431D01*
X166929Y364360D01*
X166929Y362197D01*
X166944Y362101D01*
X166954Y362004D01*
X166964Y361980D01*
X166968Y361955D01*
X167014Y361869D01*
X167054Y361780D01*
X167071Y361760D01*
X167084Y361737D01*
X167154Y361670D01*
X167220Y361598D01*
X167243Y361586D01*
X167262Y361568D01*
X167350Y361527D01*
X167436Y361480D01*
X167461Y361475D01*
X167485Y361464D01*
X167582Y361453D01*
X167678Y361436D01*
X167704Y361440D01*
G37*
G36*
X313720Y380210D02*
X313720Y380210D01*
X313790Y380212D01*
X313840Y380230D01*
X313893Y380238D01*
X313955Y380271D01*
X314021Y380296D01*
X314063Y380329D01*
X314110Y380354D01*
X314158Y380405D01*
X314214Y380449D01*
X314243Y380493D01*
X314279Y380532D01*
X314309Y380596D01*
X314347Y380655D01*
X314361Y380707D01*
X314383Y380755D01*
X314391Y380825D01*
X314408Y380894D01*
X314404Y380947D01*
X314410Y380999D01*
X314395Y381069D01*
X314390Y381139D01*
X314369Y381188D01*
X314358Y381240D01*
X314322Y381300D01*
X314294Y381366D01*
X314259Y381405D01*
X314232Y381451D01*
X314178Y381497D01*
X314131Y381550D01*
X314069Y381590D01*
X314045Y381611D01*
X314023Y381619D01*
X313990Y381641D01*
X313902Y381668D01*
X313816Y381703D01*
X313777Y381707D01*
X313755Y381714D01*
X313723Y381713D01*
X313650Y381721D01*
X304323Y381721D01*
X304254Y381710D01*
X304183Y381708D01*
X304133Y381690D01*
X304081Y381682D01*
X304018Y381649D01*
X303952Y381624D01*
X303910Y381591D01*
X303863Y381566D01*
X303815Y381515D01*
X303759Y381471D01*
X303731Y381427D01*
X303694Y381388D01*
X303664Y381324D01*
X303626Y381265D01*
X303613Y381213D01*
X303590Y381165D01*
X303583Y381095D01*
X303565Y381026D01*
X303569Y380973D01*
X303563Y380921D01*
X303578Y380851D01*
X303584Y380781D01*
X303604Y380732D01*
X303616Y380680D01*
X303652Y380620D01*
X303679Y380554D01*
X303714Y380515D01*
X303742Y380469D01*
X303795Y380423D01*
X303842Y380370D01*
X303904Y380330D01*
X303929Y380309D01*
X303950Y380301D01*
X303983Y380279D01*
X304071Y380252D01*
X304157Y380217D01*
X304196Y380213D01*
X304218Y380206D01*
X304250Y380207D01*
X304324Y380199D01*
X313650Y380199D01*
X313720Y380210D01*
G37*
G36*
X181954Y362970D02*
X181954Y362970D01*
X182006Y362972D01*
X182074Y362996D01*
X182144Y363012D01*
X182189Y363038D01*
X182237Y363056D01*
X182293Y363101D01*
X182355Y363138D01*
X182389Y363177D01*
X182429Y363210D01*
X182468Y363270D01*
X182515Y363325D01*
X182534Y363373D01*
X182562Y363417D01*
X182580Y363486D01*
X182607Y363553D01*
X182615Y363624D01*
X182623Y363655D01*
X182621Y363679D01*
X182625Y363719D01*
X182625Y366190D01*
X182622Y366210D01*
X182624Y366229D01*
X182602Y366331D01*
X182586Y366433D01*
X182576Y366450D01*
X182572Y366470D01*
X182519Y366559D01*
X182470Y366650D01*
X182456Y366664D01*
X182446Y366681D01*
X182367Y366748D01*
X182292Y366820D01*
X182274Y366828D01*
X182259Y366841D01*
X182163Y366880D01*
X182069Y366923D01*
X182049Y366925D01*
X182031Y366933D01*
X181864Y366951D01*
X178273Y366951D01*
X178177Y366936D01*
X178080Y366926D01*
X178056Y366916D01*
X178030Y366912D01*
X177944Y366866D01*
X177855Y366826D01*
X177836Y366809D01*
X177813Y366796D01*
X177745Y366726D01*
X177674Y366660D01*
X177661Y366637D01*
X177643Y366618D01*
X177602Y366530D01*
X177555Y366444D01*
X177551Y366419D01*
X177540Y366395D01*
X177529Y366298D01*
X177512Y366202D01*
X177515Y366176D01*
X177512Y366151D01*
X177533Y366055D01*
X177547Y365959D01*
X177559Y365936D01*
X177565Y365910D01*
X177615Y365827D01*
X177659Y365740D01*
X177678Y365721D01*
X177691Y365699D01*
X177765Y365636D01*
X177834Y365568D01*
X177863Y365552D01*
X177878Y365539D01*
X177908Y365527D01*
X177981Y365487D01*
X179755Y364752D01*
X181326Y363181D01*
X181384Y363139D01*
X181436Y363090D01*
X181483Y363068D01*
X181525Y363038D01*
X181594Y363017D01*
X181659Y362986D01*
X181711Y362981D01*
X181761Y362965D01*
X181832Y362967D01*
X181903Y362959D01*
X181954Y362970D01*
G37*
G36*
X14708Y393820D02*
X14708Y393820D01*
X14804Y393830D01*
X14828Y393840D01*
X14854Y393844D01*
X14940Y393890D01*
X15029Y393930D01*
X15048Y393947D01*
X15072Y393960D01*
X15139Y394030D01*
X15210Y394096D01*
X15223Y394119D01*
X15241Y394138D01*
X15282Y394226D01*
X15329Y394312D01*
X15334Y394337D01*
X15345Y394361D01*
X15355Y394458D01*
X15373Y394554D01*
X15369Y394580D01*
X15372Y394605D01*
X15351Y394701D01*
X15337Y394797D01*
X15325Y394820D01*
X15319Y394846D01*
X15269Y394929D01*
X15225Y395016D01*
X15207Y395035D01*
X15193Y395057D01*
X15119Y395120D01*
X15050Y395188D01*
X15021Y395204D01*
X15006Y395217D01*
X14976Y395229D01*
X14903Y395269D01*
X13385Y395898D01*
X12145Y397138D01*
X12087Y397180D01*
X12035Y397229D01*
X11988Y397251D01*
X11946Y397281D01*
X11877Y397302D01*
X11812Y397333D01*
X11760Y397338D01*
X11710Y397354D01*
X11639Y397352D01*
X11568Y397360D01*
X11517Y397349D01*
X11465Y397347D01*
X11397Y397323D01*
X11327Y397307D01*
X11282Y397281D01*
X11234Y397263D01*
X11178Y397218D01*
X11116Y397181D01*
X11082Y397142D01*
X11042Y397109D01*
X11003Y397049D01*
X10956Y396994D01*
X10937Y396946D01*
X10909Y396902D01*
X10891Y396833D01*
X10864Y396766D01*
X10856Y396695D01*
X10848Y396664D01*
X10850Y396640D01*
X10846Y396600D01*
X10846Y394566D01*
X10849Y394546D01*
X10847Y394527D01*
X10869Y394425D01*
X10885Y394323D01*
X10895Y394306D01*
X10899Y394286D01*
X10952Y394197D01*
X11001Y394106D01*
X11015Y394092D01*
X11025Y394075D01*
X11104Y394008D01*
X11179Y393936D01*
X11197Y393928D01*
X11212Y393915D01*
X11308Y393876D01*
X11402Y393833D01*
X11422Y393831D01*
X11440Y393823D01*
X11607Y393805D01*
X14611Y393805D01*
X14708Y393820D01*
G37*
G36*
X635039Y126861D02*
X635039Y126861D01*
X635116Y126868D01*
X635158Y126887D01*
X635203Y126896D01*
X635270Y126936D01*
X635341Y126968D01*
X635375Y126999D01*
X635414Y127023D01*
X635465Y127082D01*
X635522Y127134D01*
X635544Y127174D01*
X635574Y127209D01*
X635603Y127282D01*
X635640Y127350D01*
X635649Y127395D01*
X635666Y127438D01*
X635681Y127573D01*
X635684Y127592D01*
X635683Y127597D01*
X635684Y127604D01*
X635684Y127930D01*
X635672Y128005D01*
X635669Y128081D01*
X635652Y128125D01*
X635645Y128173D01*
X635609Y128240D01*
X635582Y128311D01*
X635552Y128348D01*
X635529Y128390D01*
X635475Y128442D01*
X635427Y128501D01*
X635386Y128527D01*
X635351Y128560D01*
X635282Y128592D01*
X635218Y128632D01*
X635172Y128643D01*
X635128Y128663D01*
X635053Y128672D01*
X634979Y128689D01*
X634931Y128685D01*
X634884Y128690D01*
X634810Y128674D01*
X634734Y128668D01*
X634674Y128645D01*
X634643Y128638D01*
X634621Y128625D01*
X634577Y128608D01*
X634553Y128596D01*
X634266Y128503D01*
X634176Y128456D01*
X634084Y128415D01*
X634067Y128400D01*
X634048Y128390D01*
X633977Y128317D01*
X633903Y128249D01*
X633892Y128229D01*
X633877Y128213D01*
X633833Y128122D01*
X633784Y128033D01*
X633780Y128011D01*
X633771Y127991D01*
X633759Y127891D01*
X633740Y127791D01*
X633744Y127769D01*
X633741Y127747D01*
X633762Y127648D01*
X633776Y127548D01*
X633786Y127528D01*
X633791Y127506D01*
X633842Y127419D01*
X633888Y127329D01*
X633903Y127313D01*
X633915Y127294D01*
X633991Y127227D01*
X634063Y127156D01*
X634087Y127143D01*
X634100Y127132D01*
X634130Y127120D01*
X634210Y127076D01*
X634632Y126901D01*
X634676Y126890D01*
X634718Y126871D01*
X634795Y126863D01*
X634871Y126845D01*
X634917Y126849D01*
X634962Y126844D01*
X635039Y126861D01*
G37*
G36*
X635009Y150640D02*
X635009Y150640D01*
X635057Y150641D01*
X635129Y150666D01*
X635203Y150682D01*
X635244Y150707D01*
X635289Y150723D01*
X635349Y150769D01*
X635414Y150808D01*
X635445Y150845D01*
X635483Y150874D01*
X635525Y150937D01*
X635574Y150995D01*
X635592Y151040D01*
X635618Y151080D01*
X635637Y151153D01*
X635666Y151223D01*
X635673Y151288D01*
X635681Y151318D01*
X635679Y151343D01*
X635684Y151390D01*
X635684Y151716D01*
X635677Y151761D01*
X635679Y151807D01*
X635657Y151882D01*
X635645Y151958D01*
X635623Y151999D01*
X635610Y152043D01*
X635566Y152107D01*
X635529Y152176D01*
X635496Y152207D01*
X635470Y152245D01*
X635408Y152292D01*
X635351Y152345D01*
X635309Y152365D01*
X635273Y152392D01*
X635199Y152416D01*
X635128Y152449D01*
X635082Y152454D01*
X635039Y152468D01*
X634961Y152467D01*
X634884Y152476D01*
X634839Y152466D01*
X634793Y152466D01*
X634661Y152428D01*
X634643Y152424D01*
X634639Y152421D01*
X634632Y152419D01*
X634210Y152244D01*
X634124Y152191D01*
X634035Y152143D01*
X634020Y152126D01*
X634001Y152115D01*
X633937Y152037D01*
X633868Y151963D01*
X633859Y151942D01*
X633844Y151925D01*
X633808Y151831D01*
X633766Y151738D01*
X633764Y151716D01*
X633756Y151696D01*
X633752Y151594D01*
X633742Y151494D01*
X633747Y151472D01*
X633746Y151450D01*
X633774Y151353D01*
X633797Y151254D01*
X633808Y151235D01*
X633814Y151214D01*
X633872Y151131D01*
X633925Y151044D01*
X633942Y151030D01*
X633955Y151012D01*
X634036Y150951D01*
X634114Y150886D01*
X634139Y150875D01*
X634152Y150865D01*
X634183Y150855D01*
X634266Y150817D01*
X634553Y150724D01*
X634577Y150712D01*
X634649Y150689D01*
X634718Y150657D01*
X634766Y150651D01*
X634812Y150637D01*
X634887Y150638D01*
X634962Y150630D01*
X635009Y150640D01*
G37*
G36*
X272494Y43404D02*
X272494Y43404D01*
X272513Y43402D01*
X272615Y43424D01*
X272717Y43440D01*
X272734Y43450D01*
X272754Y43454D01*
X272843Y43507D01*
X272934Y43556D01*
X272948Y43570D01*
X272965Y43580D01*
X273032Y43659D01*
X273104Y43734D01*
X273112Y43752D01*
X273125Y43767D01*
X273164Y43863D01*
X273207Y43957D01*
X273209Y43977D01*
X273217Y43995D01*
X273235Y44162D01*
X273235Y44638D01*
X273232Y44658D01*
X273234Y44677D01*
X273212Y44779D01*
X273196Y44881D01*
X273186Y44898D01*
X273182Y44918D01*
X273129Y45007D01*
X273080Y45098D01*
X273066Y45112D01*
X273056Y45129D01*
X272977Y45196D01*
X272902Y45268D01*
X272884Y45276D01*
X272869Y45289D01*
X272773Y45328D01*
X272679Y45371D01*
X272659Y45373D01*
X272641Y45381D01*
X272474Y45399D01*
X272416Y45399D01*
X272396Y45396D01*
X272377Y45398D01*
X272275Y45376D01*
X272173Y45360D01*
X272156Y45350D01*
X272136Y45346D01*
X272047Y45293D01*
X271956Y45244D01*
X271942Y45230D01*
X271925Y45220D01*
X271858Y45141D01*
X271786Y45066D01*
X271778Y45048D01*
X271765Y45033D01*
X271726Y44937D01*
X271683Y44843D01*
X271681Y44823D01*
X271673Y44805D01*
X271655Y44638D01*
X271655Y44162D01*
X271658Y44142D01*
X271656Y44122D01*
X271678Y44021D01*
X271694Y43919D01*
X271704Y43902D01*
X271708Y43882D01*
X271761Y43793D01*
X271810Y43702D01*
X271824Y43688D01*
X271834Y43671D01*
X271913Y43604D01*
X271988Y43532D01*
X272006Y43524D01*
X272021Y43511D01*
X272117Y43472D01*
X272211Y43429D01*
X272231Y43427D01*
X272249Y43419D01*
X272416Y43401D01*
X272474Y43401D01*
X272494Y43404D01*
G37*
%LPC*%
G36*
X372159Y496529D02*
X372159Y496529D01*
X372159Y496531D01*
X372161Y496531D01*
X372161Y496529D01*
X372159Y496529D01*
G37*
%LPD*%
%LPC*%
G36*
X98399Y462799D02*
X98399Y462799D01*
X98399Y462801D01*
X98401Y462801D01*
X98401Y462799D01*
X98399Y462799D01*
G37*
%LPD*%
%LPC*%
G36*
X369619Y116799D02*
X369619Y116799D01*
X369619Y116801D01*
X369621Y116801D01*
X369621Y116799D01*
X369619Y116799D01*
G37*
%LPD*%
%LPC*%
G36*
X41959Y514309D02*
X41959Y514309D01*
X41959Y514311D01*
X41961Y514311D01*
X41961Y514309D01*
X41959Y514309D01*
G37*
%LPD*%
%LPC*%
G36*
X45769Y79969D02*
X45769Y79969D01*
X45769Y79971D01*
X45771Y79971D01*
X45771Y79969D01*
X45769Y79969D01*
G37*
%LPD*%
D10*
X249800Y17650D03*
X321800Y17650D03*
D11*
X298800Y44400D03*
X292300Y44400D03*
X285800Y44400D03*
X279300Y44400D03*
X272800Y44400D03*
D12*
X310050Y40610D02*
X310050Y52690D01*
X261550Y52690D02*
X261550Y40610D01*
D13*
X397560Y496530D03*
X422960Y496530D03*
X448360Y496530D03*
X372160Y496530D03*
D14*
X629970Y114260D03*
X629970Y139660D03*
X629970Y165060D03*
X629970Y190460D03*
X629970Y215860D03*
X629970Y241260D03*
X629970Y266660D03*
X629970Y292060D03*
X629970Y317460D03*
X629970Y342860D03*
X629970Y368260D03*
X629970Y393660D03*
X629970Y419060D03*
X629970Y444460D03*
D15*
X14190Y220140D03*
X14190Y232840D03*
X14190Y245540D03*
X14190Y258240D03*
X14190Y270940D03*
X14190Y283640D03*
X14190Y296340D03*
X14190Y309040D03*
X14190Y321740D03*
X14190Y334440D03*
X14190Y347140D03*
X14190Y359840D03*
X14190Y372540D03*
X14190Y385240D03*
D16*
X47040Y400140D03*
X59740Y400140D03*
X72440Y400140D03*
X85140Y400140D03*
X97840Y400140D03*
X110540Y400140D03*
X123240Y400140D03*
X135940Y400140D03*
X148640Y400140D03*
X161340Y400140D03*
D15*
X194190Y385240D03*
X194190Y372540D03*
X194190Y359840D03*
X194190Y347140D03*
X194190Y334440D03*
X194190Y321740D03*
X194190Y309040D03*
X194190Y296340D03*
X194190Y283640D03*
X194190Y270940D03*
X194190Y258240D03*
X194190Y245540D03*
X194190Y232840D03*
X194190Y220140D03*
D17*
X104190Y297140D03*
D18*
X45770Y128230D03*
X45770Y79970D03*
X41960Y466050D03*
X41960Y514310D03*
D19*
X168400Y462800D03*
X98400Y462800D03*
X98400Y532800D03*
X168400Y532800D03*
D20*
X49580Y36870D03*
X49580Y46870D03*
D21*
X10830Y23870D03*
X10830Y59870D03*
D18*
X369620Y116800D03*
X369620Y68540D03*
D22*
X223570Y74890D03*
D23*
X235000Y74890D02*
X265480Y74890D01*
X273100Y67270D01*
X273100Y44700D01*
X272800Y44400D01*
D22*
X245160Y105930D03*
D24*
X235000Y74890D02*
X223570Y74890D01*
X235000Y74890D02*
X236270Y74890D01*
X245160Y83780D02*
X245160Y105930D01*
X245160Y83780D02*
X236270Y74890D01*
D22*
X105460Y17740D03*
D25*
X105460Y54570D01*
X100380Y59650D01*
D22*
X100380Y59650D03*
D25*
X94030Y66000D01*
X59740Y66000D02*
X45770Y79970D01*
X59740Y66000D02*
X94030Y66000D01*
X235000Y74890D02*
X235000Y25360D01*
X221030Y11390D01*
X111810Y11390D01*
X105460Y17740D01*
D22*
X539800Y523200D03*
D25*
X561390Y450810D02*
X586790Y450810D01*
X561390Y450810D02*
X539800Y472400D01*
X539800Y523200D01*
D22*
X586790Y450810D03*
D23*
X78790Y514310D02*
X41960Y514310D01*
X98400Y494700D02*
X98400Y462800D01*
X98400Y494700D02*
X78790Y514310D01*
X372160Y496530D02*
X398830Y523200D01*
X539800Y523200D01*
D25*
X14190Y220140D02*
X14190Y96310D01*
X30530Y79970D02*
X45770Y79970D01*
X30530Y79970D02*
X14190Y96310D01*
X245160Y105930D02*
X358750Y105930D01*
X369620Y116800D01*
D22*
X476300Y116800D03*
D25*
X369620Y116800D01*
X476300Y116800D02*
X591870Y116800D01*
X614730Y139660D01*
X629970Y139660D01*
D23*
X47040Y400140D02*
X47040Y413980D01*
X95860Y462800D02*
X98400Y462800D01*
X95860Y462800D02*
X47040Y413980D01*
D22*
X120700Y447000D03*
D23*
X114200Y447000D01*
X98400Y462800D01*
X104190Y297140D02*
X107365Y293965D01*
X119430Y281900D01*
X146100Y281900D01*
X158800Y269200D01*
X158800Y231100D02*
X171500Y218400D01*
X192450Y218400D01*
X194190Y220140D01*
X158800Y231100D02*
X158800Y269200D01*
D25*
X219760Y131330D02*
X245160Y105930D01*
X205320Y220140D02*
X194190Y220140D01*
X219760Y205700D02*
X219760Y131330D01*
X219760Y205700D02*
X205320Y220140D01*
X47040Y380960D02*
X47040Y400140D01*
X101650Y326350D02*
X101650Y286980D01*
X105460Y286980D01*
X107365Y288885D01*
X107365Y293965D01*
X101650Y326350D02*
X47040Y380960D01*
D23*
X298800Y67570D02*
X298800Y44400D01*
X298800Y67570D02*
X306120Y74890D01*
D22*
X306120Y74890D03*
X135940Y22820D03*
D25*
X187154Y74034D01*
X187154Y74890D01*
D22*
X187154Y74890D03*
D25*
X66090Y46870D02*
X49580Y46870D01*
X66090Y46870D02*
X78950Y46870D01*
X78950Y30440D01*
X66250Y17740D01*
D22*
X66250Y17740D03*
X330250Y57110D03*
D25*
X342950Y44410D01*
X425500Y44410D01*
D22*
X425500Y44410D03*
X66090Y53300D03*
D25*
X66090Y46870D01*
D24*
X60930Y36870D02*
X49580Y36870D01*
X60930Y36870D02*
X62280Y35520D01*
D22*
X62280Y35520D03*
X304850Y476210D03*
D25*
X377240Y476210D01*
X397560Y496530D01*
X304850Y476210D02*
X224840Y476210D01*
X190550Y441920D01*
X144830Y441920D01*
D23*
X119430Y493990D02*
X116890Y496530D01*
D22*
X116890Y496530D03*
D25*
X119430Y467320D02*
X144830Y441920D01*
X119430Y467320D02*
X119430Y493990D01*
D22*
X585520Y274280D03*
D25*
X585520Y137120D01*
D22*
X585520Y137120D03*
D25*
X22440Y232840D02*
X14190Y232840D01*
X22440Y232840D02*
X22910Y232370D01*
D22*
X22910Y232370D03*
X17830Y402550D03*
D25*
X17830Y477480D01*
X33070Y492720D01*
X49580Y492720D01*
X50850Y491450D01*
D22*
X50850Y491450D03*
D23*
X43230Y128230D02*
X39420Y124420D01*
X43230Y128230D02*
X44500Y128230D01*
D22*
X39420Y124420D03*
D23*
X44500Y128230D02*
X45770Y128230D01*
X30060Y245540D02*
X14190Y245540D01*
X33070Y139660D02*
X44500Y128230D01*
X33070Y242530D02*
X30060Y245540D01*
X33070Y242530D02*
X33070Y139660D01*
D22*
X48310Y471130D03*
D23*
X43230Y466050D01*
X41960Y466050D01*
X194190Y405260D02*
X194190Y385240D01*
X181660Y417790D02*
X160070Y417790D01*
X157530Y420330D01*
X181660Y417790D02*
X194190Y405260D01*
D22*
X157530Y420330D03*
D25*
X194190Y283640D02*
X306590Y283640D01*
X328980Y347940D02*
X330250Y349210D01*
D22*
X330250Y349210D03*
D25*
X328980Y306030D02*
X306590Y283640D01*
X328980Y306030D02*
X328980Y347940D01*
X300240Y245540D02*
X194190Y245540D01*
X346760Y292060D02*
X346760Y353020D01*
X356920Y363180D01*
X448360Y363180D01*
D22*
X448360Y363180D03*
D25*
X346760Y292060D02*
X300240Y245540D01*
D26*
X285800Y85050D02*
X285800Y44400D01*
D22*
X280720Y92670D03*
D23*
X280720Y88860D01*
X284530Y85050D01*
X285800Y85050D01*
D26*
X292300Y89980D02*
X292300Y44400D01*
X292300Y89980D02*
X292150Y90130D01*
D22*
X292300Y89980D03*
X210870Y257770D03*
D23*
X194660Y257770D01*
X194190Y258240D01*
D22*
X210870Y270470D03*
D23*
X194660Y270470D01*
X194190Y270940D01*
D25*
X26250Y321740D02*
X14190Y321740D01*
X26250Y321740D02*
X26720Y321270D01*
D22*
X26720Y321270D03*
X160070Y466050D03*
D23*
X165150Y466050D01*
X168400Y462800D01*
D22*
X26720Y308570D03*
D23*
X14660Y308570D01*
X14190Y309040D01*
D22*
X576630Y288250D03*
D23*
X580440Y292060D01*
X629970Y292060D01*
X148640Y391120D02*
X148640Y400140D01*
X148640Y391120D02*
X141020Y383500D01*
X141020Y309840D02*
X151180Y299680D01*
D22*
X151180Y299680D03*
D23*
X141020Y309840D02*
X141020Y383500D01*
X166890Y372540D02*
X194190Y372540D01*
X166890Y372540D02*
X161340Y366990D01*
D22*
X161340Y314920D03*
D23*
X161340Y366990D01*
X161340Y388580D02*
X161340Y400140D01*
X161340Y388580D02*
X149910Y377150D01*
X149910Y327620D01*
D22*
X149910Y327620D03*
D23*
X608380Y372070D02*
X629970Y393660D01*
X539800Y372070D02*
X529640Y382230D01*
X539800Y372070D02*
X608380Y372070D01*
X321360Y382230D02*
X316280Y387310D01*
X275640Y387310D01*
D22*
X275640Y387310D03*
D23*
X321360Y382230D02*
X529640Y382230D01*
D22*
X175310Y358100D03*
D23*
X172770Y355560D01*
X172770Y241260D02*
X181660Y232370D01*
X193720Y232370D01*
X194190Y232840D01*
X172770Y241260D02*
X172770Y355560D01*
X514400Y374610D02*
X546150Y342860D01*
D22*
X298500Y374610D03*
D23*
X546150Y342860D02*
X629970Y342860D01*
X514400Y374610D02*
X298500Y374610D01*
D25*
X287540Y321740D02*
X194190Y321740D01*
X287540Y321740D02*
X298500Y332700D01*
X298500Y374610D01*
D23*
X616000Y368260D02*
X629970Y368260D01*
X616000Y368260D02*
X604570Y356830D01*
D22*
X549960Y356830D03*
D23*
X604570Y356830D01*
D22*
X35610Y359370D03*
D23*
X15930Y359370D01*
X15460Y359840D01*
X14190Y359840D01*
X594410Y383500D02*
X629970Y419060D01*
X594410Y383500D02*
X539800Y383500D01*
D22*
X367080Y392390D03*
D23*
X530910Y392390D02*
X539800Y383500D01*
X530910Y392390D02*
X367080Y392390D01*
D25*
X300240Y309040D02*
X194190Y309040D01*
X315010Y323810D02*
X315010Y363180D01*
D22*
X315010Y363180D03*
D25*
X315010Y323810D02*
X300240Y309040D01*
D22*
X223570Y53300D03*
D27*
X209600Y67270D01*
X209600Y138390D01*
D23*
X209600Y198080D01*
X148640Y227290D02*
X148640Y237450D01*
D22*
X148640Y237450D03*
D23*
X199440Y208240D02*
X209600Y198080D01*
X199440Y208240D02*
X167690Y208240D01*
X148640Y227290D01*
D25*
X37680Y296340D02*
X14190Y296340D01*
X37680Y296340D02*
X41960Y292060D01*
D22*
X41960Y292060D03*
X223570Y35520D03*
D27*
X198170Y60920D01*
X198170Y139660D01*
D23*
X198170Y194270D02*
X191820Y200620D01*
X165150Y200620D01*
X134670Y231100D01*
X134670Y252690D01*
X198170Y194270D02*
X198170Y139660D01*
X54190Y347140D02*
X14190Y347140D01*
X128320Y259040D02*
X134670Y252690D01*
X66090Y335240D02*
X54190Y347140D01*
X66090Y335240D02*
X66090Y266660D01*
X73710Y259040D01*
X128320Y259040D01*
D22*
X308660Y170140D03*
D24*
X46570Y258240D02*
X14190Y258240D01*
X128320Y176490D02*
X179120Y176490D01*
D22*
X179120Y176490D03*
X256590Y153630D03*
D24*
X292150Y153630D01*
X308660Y170140D01*
X128320Y176490D02*
X46570Y258240D01*
D22*
X458520Y91400D03*
D23*
X532180Y91400D01*
X533450Y90130D01*
D22*
X533450Y90130D03*
X533450Y219670D03*
D25*
X533450Y335240D01*
X522020Y346670D01*
D22*
X522020Y346670D03*
D23*
X369620Y68540D02*
X375970Y62190D01*
X375970Y59650D01*
D22*
X375970Y59650D03*
D23*
X244690Y347140D02*
X194190Y347140D01*
X244690Y347140D02*
X245160Y346670D01*
D22*
X245160Y346670D03*
X360730Y335240D03*
D23*
X360730Y159980D01*
X386130Y134580D01*
D22*
X386130Y134580D03*
X265480Y412710D03*
D23*
X265480Y346670D01*
X253250Y334440D02*
X194190Y334440D01*
X253250Y334440D02*
X265480Y346670D01*
D22*
X334060Y427950D03*
D23*
X59740Y413980D02*
X59740Y400140D01*
X330250Y431760D02*
X334060Y427950D01*
X330250Y431760D02*
X77520Y431760D01*
X59740Y413980D01*
D22*
X552500Y129500D03*
X552500Y154900D03*
X501700Y180300D03*
X463600Y193000D03*
X450900Y218400D03*
X489000Y205700D03*
X412800Y218400D03*
X425500Y205700D03*
X425500Y243800D03*
X82600Y154900D03*
X69900Y167600D03*
M02*
