G04 EAGLE Gerber RS-274X export*
G75*
%MOMM*%
%FSLAX34Y34*%
%LPD*%
%INSilkscreen Top*%
%IPPOS*%
%AMOC8*
5,1,8,0,0,1.08239X$1,22.5*%
G01*
%ADD10C,0.130000*%
%ADD11C,0.152400*%
%ADD12R,0.320000X0.080000*%
%ADD13R,0.160000X0.080000*%
%ADD14R,0.240000X0.080000*%
%ADD15R,0.080000X0.080000*%
%ADD16R,0.640000X0.080000*%
%ADD17R,0.560000X0.080000*%
%ADD18R,0.400000X0.080000*%
%ADD19R,0.800000X0.080000*%
%ADD20R,0.720000X0.080000*%
%ADD21R,0.480000X0.080000*%
%ADD22R,1.040000X0.080000*%
%ADD23R,0.880000X0.080000*%
%ADD24R,0.960000X0.080000*%
%ADD25R,1.120000X0.080000*%
%ADD26R,2.240000X0.080000*%
%ADD27R,2.320000X0.080000*%
%ADD28R,2.560000X0.080000*%
%ADD29R,2.960000X0.080000*%
%ADD30R,1.360000X0.080000*%
%ADD31R,3.280000X0.080000*%
%ADD32R,3.360000X0.080000*%
%ADD33R,1.520000X0.080000*%
%ADD34R,1.920000X0.080000*%
%ADD35R,1.600000X0.080000*%
%ADD36R,2.000000X0.080000*%
%ADD37R,1.680000X0.080000*%
%ADD38R,1.840000X0.080000*%
%ADD39R,2.080000X0.080000*%
%ADD40R,2.720000X0.080000*%
%ADD41R,1.760000X0.080000*%
%ADD42R,2.160000X0.080000*%
%ADD43R,1.440000X0.080000*%
%ADD44R,2.400000X0.080000*%
%ADD45R,2.480000X0.080000*%
%ADD46R,2.800000X0.080000*%
%ADD47R,1.280000X0.080000*%
%ADD48R,1.200000X0.080000*%
%ADD49R,2.640000X0.080000*%
%ADD50R,3.040000X0.080000*%
%ADD51R,3.200000X0.080000*%
%ADD52R,4.480000X0.080000*%
%ADD53R,4.400000X0.080000*%
%ADD54R,4.320000X0.080000*%
%ADD55R,4.160000X0.080000*%
%ADD56R,4.000000X0.080000*%
%ADD57R,3.600000X0.080000*%
%ADD58R,3.440000X0.080000*%
%ADD59R,3.120000X0.080000*%
%ADD60R,2.880000X0.080000*%
%ADD61R,3.520000X0.080000*%
%ADD62R,3.680000X0.080000*%
%ADD63R,4.560000X0.080000*%
%ADD64R,5.200000X0.080000*%
%ADD65R,5.360000X0.080000*%
%ADD66R,5.840000X0.080000*%
%ADD67R,4.080000X0.080000*%
%ADD68R,4.240000X0.080000*%
%ADD69R,5.280000X0.080000*%
%ADD70R,5.440000X0.080000*%
%ADD71R,5.120000X0.080000*%
%ADD72R,4.720000X0.080000*%
%ADD73R,4.640000X0.080000*%
%ADD74R,3.760000X0.080000*%
%ADD75R,4.960000X0.080000*%
%ADD76R,4.880000X0.080000*%
%ADD77R,3.920000X0.080000*%
%ADD78C,0.127000*%
%ADD79C,0.101600*%
%ADD80R,0.457200X0.762000*%
%ADD81C,0.025400*%
%ADD82C,0.203200*%
%ADD83C,0.650000*%
%ADD84C,0.050800*%
%ADD85C,0.076200*%
%ADD86C,0.200000*%


D10*
X646480Y-40D02*
X699000Y-40D01*
X699000Y561300D02*
X646480Y561300D01*
X679500Y560650D02*
X679500Y610D01*
X676308Y25960D01*
X682692Y25960D01*
X679500Y610D01*
X678200Y25960D01*
X680800Y25960D02*
X679500Y610D01*
X676900Y25960D01*
X682100Y25960D02*
X679500Y610D01*
X676308Y535300D02*
X679500Y560650D01*
X676308Y535300D02*
X682692Y535300D01*
X679500Y560650D01*
X678200Y535300D01*
X680800Y535300D02*
X679500Y560650D01*
X676900Y535300D01*
X682100Y535300D02*
X679500Y560650D01*
D11*
X672993Y254901D02*
X672993Y249482D01*
X672993Y254901D02*
X672991Y255019D01*
X672985Y255137D01*
X672976Y255255D01*
X672962Y255372D01*
X672945Y255489D01*
X672924Y255606D01*
X672899Y255721D01*
X672870Y255836D01*
X672837Y255950D01*
X672801Y256062D01*
X672761Y256173D01*
X672718Y256283D01*
X672671Y256392D01*
X672621Y256499D01*
X672566Y256604D01*
X672509Y256707D01*
X672448Y256808D01*
X672384Y256908D01*
X672317Y257005D01*
X672247Y257100D01*
X672173Y257192D01*
X672097Y257283D01*
X672017Y257370D01*
X671935Y257455D01*
X671850Y257537D01*
X671763Y257617D01*
X671672Y257693D01*
X671580Y257767D01*
X671485Y257837D01*
X671388Y257904D01*
X671288Y257968D01*
X671187Y258029D01*
X671084Y258086D01*
X670979Y258141D01*
X670872Y258191D01*
X670763Y258238D01*
X670653Y258281D01*
X670542Y258321D01*
X670430Y258357D01*
X670316Y258390D01*
X670201Y258419D01*
X670086Y258444D01*
X669969Y258465D01*
X669852Y258482D01*
X669735Y258496D01*
X669617Y258505D01*
X669499Y258511D01*
X669381Y258513D01*
X667574Y258513D01*
X667456Y258511D01*
X667338Y258505D01*
X667220Y258496D01*
X667103Y258482D01*
X666986Y258465D01*
X666869Y258444D01*
X666754Y258419D01*
X666639Y258390D01*
X666525Y258357D01*
X666413Y258321D01*
X666302Y258281D01*
X666192Y258238D01*
X666083Y258191D01*
X665976Y258141D01*
X665871Y258086D01*
X665768Y258029D01*
X665667Y257968D01*
X665567Y257904D01*
X665470Y257837D01*
X665375Y257767D01*
X665283Y257693D01*
X665192Y257617D01*
X665105Y257537D01*
X665020Y257455D01*
X664938Y257370D01*
X664858Y257283D01*
X664782Y257192D01*
X664708Y257100D01*
X664638Y257005D01*
X664571Y256908D01*
X664507Y256808D01*
X664446Y256707D01*
X664389Y256604D01*
X664334Y256499D01*
X664284Y256392D01*
X664237Y256283D01*
X664194Y256173D01*
X664154Y256062D01*
X664118Y255950D01*
X664085Y255836D01*
X664056Y255721D01*
X664031Y255606D01*
X664010Y255489D01*
X663993Y255372D01*
X663979Y255255D01*
X663970Y255137D01*
X663964Y255019D01*
X663962Y254901D01*
X663962Y249482D01*
X656737Y249482D01*
X656737Y258513D01*
X663962Y265113D02*
X663962Y270532D01*
X663964Y270650D01*
X663970Y270768D01*
X663979Y270886D01*
X663993Y271003D01*
X664010Y271120D01*
X664031Y271237D01*
X664056Y271352D01*
X664085Y271467D01*
X664118Y271581D01*
X664154Y271693D01*
X664194Y271804D01*
X664237Y271914D01*
X664284Y272023D01*
X664334Y272130D01*
X664389Y272235D01*
X664446Y272338D01*
X664507Y272439D01*
X664571Y272539D01*
X664638Y272636D01*
X664708Y272731D01*
X664782Y272823D01*
X664858Y272914D01*
X664938Y273001D01*
X665020Y273086D01*
X665105Y273168D01*
X665192Y273248D01*
X665283Y273324D01*
X665375Y273398D01*
X665470Y273468D01*
X665567Y273535D01*
X665667Y273599D01*
X665768Y273660D01*
X665871Y273717D01*
X665976Y273772D01*
X666083Y273822D01*
X666192Y273869D01*
X666302Y273912D01*
X666413Y273952D01*
X666525Y273988D01*
X666639Y274021D01*
X666754Y274050D01*
X666869Y274075D01*
X666986Y274096D01*
X667103Y274113D01*
X667220Y274127D01*
X667338Y274136D01*
X667456Y274142D01*
X667574Y274144D01*
X668477Y274144D01*
X668477Y274145D02*
X668610Y274143D01*
X668742Y274137D01*
X668874Y274127D01*
X669006Y274114D01*
X669138Y274096D01*
X669268Y274075D01*
X669399Y274050D01*
X669528Y274021D01*
X669656Y273988D01*
X669784Y273952D01*
X669910Y273912D01*
X670035Y273868D01*
X670159Y273820D01*
X670281Y273769D01*
X670402Y273714D01*
X670521Y273656D01*
X670639Y273594D01*
X670754Y273529D01*
X670868Y273460D01*
X670979Y273389D01*
X671088Y273313D01*
X671195Y273235D01*
X671300Y273154D01*
X671402Y273069D01*
X671502Y272982D01*
X671599Y272892D01*
X671694Y272799D01*
X671785Y272703D01*
X671874Y272605D01*
X671960Y272504D01*
X672043Y272400D01*
X672123Y272294D01*
X672199Y272186D01*
X672273Y272076D01*
X672343Y271963D01*
X672410Y271849D01*
X672473Y271732D01*
X672533Y271614D01*
X672590Y271494D01*
X672643Y271372D01*
X672692Y271249D01*
X672738Y271125D01*
X672780Y270999D01*
X672818Y270872D01*
X672853Y270744D01*
X672884Y270615D01*
X672911Y270486D01*
X672934Y270355D01*
X672954Y270224D01*
X672969Y270092D01*
X672981Y269960D01*
X672989Y269828D01*
X672993Y269695D01*
X672993Y269563D01*
X672989Y269430D01*
X672981Y269298D01*
X672969Y269166D01*
X672954Y269034D01*
X672934Y268903D01*
X672911Y268772D01*
X672884Y268643D01*
X672853Y268514D01*
X672818Y268386D01*
X672780Y268259D01*
X672738Y268133D01*
X672692Y268009D01*
X672643Y267886D01*
X672590Y267764D01*
X672533Y267644D01*
X672473Y267526D01*
X672410Y267409D01*
X672343Y267295D01*
X672273Y267182D01*
X672199Y267072D01*
X672123Y266964D01*
X672043Y266858D01*
X671960Y266754D01*
X671874Y266653D01*
X671785Y266555D01*
X671694Y266459D01*
X671599Y266366D01*
X671502Y266276D01*
X671402Y266189D01*
X671300Y266104D01*
X671195Y266023D01*
X671088Y265945D01*
X670979Y265869D01*
X670868Y265798D01*
X670754Y265729D01*
X670639Y265664D01*
X670521Y265602D01*
X670402Y265544D01*
X670281Y265489D01*
X670159Y265438D01*
X670035Y265390D01*
X669910Y265346D01*
X669784Y265306D01*
X669656Y265270D01*
X669528Y265237D01*
X669399Y265208D01*
X669268Y265183D01*
X669138Y265162D01*
X669006Y265144D01*
X668874Y265131D01*
X668742Y265121D01*
X668610Y265115D01*
X668477Y265113D01*
X663962Y265113D01*
X663785Y265115D01*
X663607Y265122D01*
X663430Y265133D01*
X663254Y265148D01*
X663078Y265167D01*
X662902Y265191D01*
X662727Y265219D01*
X662552Y265252D01*
X662379Y265289D01*
X662206Y265330D01*
X662035Y265375D01*
X661865Y265424D01*
X661696Y265478D01*
X661528Y265535D01*
X661362Y265597D01*
X661197Y265663D01*
X661034Y265733D01*
X660873Y265807D01*
X660714Y265884D01*
X660556Y265966D01*
X660401Y266052D01*
X660248Y266141D01*
X660097Y266234D01*
X659948Y266331D01*
X659802Y266431D01*
X659658Y266535D01*
X659517Y266642D01*
X659379Y266753D01*
X659243Y266867D01*
X659110Y266985D01*
X658980Y267105D01*
X658853Y267229D01*
X658729Y267356D01*
X658609Y267486D01*
X658491Y267619D01*
X658377Y267754D01*
X658266Y267893D01*
X658159Y268034D01*
X658055Y268178D01*
X657955Y268324D01*
X657858Y268473D01*
X657765Y268624D01*
X657676Y268777D01*
X657590Y268932D01*
X657508Y269090D01*
X657431Y269249D01*
X657357Y269410D01*
X657287Y269573D01*
X657221Y269738D01*
X657159Y269904D01*
X657102Y270072D01*
X657048Y270241D01*
X656999Y270411D01*
X656954Y270582D01*
X656913Y270755D01*
X656876Y270928D01*
X656843Y271103D01*
X656815Y271278D01*
X656791Y271454D01*
X656772Y271630D01*
X656757Y271806D01*
X656746Y271983D01*
X656739Y272161D01*
X656737Y272338D01*
X672090Y280119D02*
X672993Y280119D01*
X672090Y280119D02*
X672090Y281022D01*
X672993Y281022D01*
X672993Y280119D01*
X660349Y286997D02*
X656737Y291512D01*
X672993Y291512D01*
X672993Y286997D02*
X672993Y296028D01*
X672993Y302628D02*
X672993Y307144D01*
X672991Y307277D01*
X672985Y307409D01*
X672975Y307541D01*
X672962Y307673D01*
X672944Y307805D01*
X672923Y307935D01*
X672898Y308066D01*
X672869Y308195D01*
X672836Y308323D01*
X672800Y308451D01*
X672760Y308577D01*
X672716Y308702D01*
X672668Y308826D01*
X672617Y308948D01*
X672562Y309069D01*
X672504Y309188D01*
X672442Y309306D01*
X672377Y309421D01*
X672308Y309535D01*
X672237Y309646D01*
X672161Y309755D01*
X672083Y309862D01*
X672002Y309967D01*
X671917Y310069D01*
X671830Y310169D01*
X671740Y310266D01*
X671647Y310361D01*
X671551Y310452D01*
X671453Y310541D01*
X671352Y310627D01*
X671248Y310710D01*
X671142Y310790D01*
X671034Y310866D01*
X670924Y310940D01*
X670811Y311010D01*
X670697Y311077D01*
X670580Y311140D01*
X670462Y311200D01*
X670342Y311257D01*
X670220Y311310D01*
X670097Y311359D01*
X669973Y311405D01*
X669847Y311447D01*
X669720Y311485D01*
X669592Y311520D01*
X669463Y311551D01*
X669334Y311578D01*
X669203Y311601D01*
X669072Y311621D01*
X668940Y311636D01*
X668808Y311648D01*
X668676Y311656D01*
X668543Y311660D01*
X668411Y311660D01*
X668278Y311656D01*
X668146Y311648D01*
X668014Y311636D01*
X667882Y311621D01*
X667751Y311601D01*
X667620Y311578D01*
X667491Y311551D01*
X667362Y311520D01*
X667234Y311485D01*
X667107Y311447D01*
X666981Y311405D01*
X666857Y311359D01*
X666734Y311310D01*
X666612Y311257D01*
X666492Y311200D01*
X666374Y311140D01*
X666257Y311077D01*
X666143Y311010D01*
X666030Y310940D01*
X665920Y310866D01*
X665812Y310790D01*
X665706Y310710D01*
X665602Y310627D01*
X665501Y310541D01*
X665403Y310452D01*
X665307Y310361D01*
X665214Y310266D01*
X665124Y310169D01*
X665037Y310069D01*
X664952Y309967D01*
X664871Y309862D01*
X664793Y309755D01*
X664717Y309646D01*
X664646Y309535D01*
X664577Y309421D01*
X664512Y309306D01*
X664450Y309188D01*
X664392Y309069D01*
X664337Y308948D01*
X664286Y308826D01*
X664238Y308702D01*
X664194Y308577D01*
X664154Y308451D01*
X664118Y308323D01*
X664085Y308195D01*
X664056Y308066D01*
X664031Y307935D01*
X664010Y307805D01*
X663992Y307673D01*
X663979Y307541D01*
X663969Y307409D01*
X663963Y307277D01*
X663961Y307144D01*
X656737Y308047D02*
X656737Y302628D01*
X656737Y308047D02*
X656739Y308166D01*
X656745Y308286D01*
X656755Y308405D01*
X656769Y308523D01*
X656786Y308642D01*
X656808Y308759D01*
X656833Y308876D01*
X656863Y308991D01*
X656896Y309106D01*
X656933Y309220D01*
X656973Y309332D01*
X657018Y309443D01*
X657066Y309552D01*
X657117Y309660D01*
X657172Y309766D01*
X657231Y309870D01*
X657293Y309972D01*
X657358Y310072D01*
X657427Y310170D01*
X657499Y310266D01*
X657574Y310359D01*
X657651Y310449D01*
X657732Y310537D01*
X657816Y310622D01*
X657903Y310704D01*
X657992Y310784D01*
X658084Y310860D01*
X658178Y310934D01*
X658275Y311004D01*
X658373Y311071D01*
X658474Y311135D01*
X658578Y311195D01*
X658683Y311252D01*
X658790Y311305D01*
X658898Y311355D01*
X659008Y311401D01*
X659120Y311443D01*
X659233Y311482D01*
X659347Y311517D01*
X659462Y311548D01*
X659579Y311576D01*
X659696Y311599D01*
X659813Y311619D01*
X659932Y311635D01*
X660051Y311647D01*
X660170Y311655D01*
X660289Y311659D01*
X660409Y311659D01*
X660528Y311655D01*
X660647Y311647D01*
X660766Y311635D01*
X660885Y311619D01*
X661002Y311599D01*
X661119Y311576D01*
X661236Y311548D01*
X661351Y311517D01*
X661465Y311482D01*
X661578Y311443D01*
X661690Y311401D01*
X661800Y311355D01*
X661908Y311305D01*
X662015Y311252D01*
X662120Y311195D01*
X662224Y311135D01*
X662325Y311071D01*
X662423Y311004D01*
X662520Y310934D01*
X662614Y310860D01*
X662706Y310784D01*
X662795Y310704D01*
X662882Y310622D01*
X662966Y310537D01*
X663047Y310449D01*
X663124Y310359D01*
X663199Y310266D01*
X663271Y310170D01*
X663340Y310072D01*
X663405Y309972D01*
X663467Y309870D01*
X663526Y309766D01*
X663581Y309660D01*
X663632Y309552D01*
X663680Y309443D01*
X663725Y309332D01*
X663765Y309220D01*
X663802Y309106D01*
X663835Y308991D01*
X663865Y308876D01*
X663890Y308759D01*
X663912Y308642D01*
X663929Y308523D01*
X663943Y308405D01*
X663953Y308286D01*
X663959Y308166D01*
X663961Y308047D01*
X663962Y308047D02*
X663962Y304434D01*
D12*
X424400Y148000D03*
X424400Y148800D03*
D13*
X422800Y149600D03*
D14*
X425600Y149600D03*
D13*
X422800Y150400D03*
D14*
X425600Y150400D03*
X326400Y151200D03*
D15*
X334400Y151200D03*
D13*
X343600Y151200D03*
D14*
X348000Y151200D03*
D15*
X353600Y151200D03*
X368000Y151200D03*
D14*
X380000Y151200D03*
X391200Y151200D03*
X401600Y151200D03*
X408000Y151200D03*
D16*
X414800Y151200D03*
D13*
X422800Y151200D03*
X426000Y151200D03*
D17*
X436000Y151200D03*
D16*
X446000Y151200D03*
D14*
X454400Y151200D03*
D12*
X326800Y152000D03*
D14*
X335200Y152000D03*
D12*
X343600Y152000D03*
D14*
X348000Y152000D03*
X353600Y152000D03*
D13*
X359600Y152000D03*
D15*
X368000Y152000D03*
D14*
X375200Y152000D03*
D12*
X380400Y152000D03*
D14*
X391200Y152000D03*
X401600Y152000D03*
D18*
X408000Y152000D03*
D19*
X415600Y152000D03*
D13*
X422800Y152000D03*
X426000Y152000D03*
D20*
X435200Y152000D03*
D16*
X446000Y152000D03*
D14*
X454400Y152000D03*
D12*
X326800Y152800D03*
D14*
X336000Y152800D03*
D18*
X344000Y152800D03*
D14*
X348000Y152800D03*
D12*
X354000Y152800D03*
D14*
X361600Y152800D03*
X368000Y152800D03*
D18*
X374400Y152800D03*
D17*
X380000Y152800D03*
D14*
X392000Y152800D03*
D12*
X402000Y152800D03*
D21*
X407600Y152800D03*
D14*
X412800Y152800D03*
X418400Y152800D03*
D15*
X423200Y152800D03*
D13*
X426800Y152800D03*
D21*
X433200Y152800D03*
D12*
X439600Y152800D03*
X443600Y152800D03*
D14*
X448800Y152800D03*
D12*
X454800Y152800D03*
X326800Y153600D03*
D14*
X336000Y153600D03*
D18*
X344000Y153600D03*
D12*
X348400Y153600D03*
D14*
X354400Y153600D03*
X361600Y153600D03*
X368000Y153600D03*
D18*
X374400Y153600D03*
D12*
X378800Y153600D03*
D14*
X382400Y153600D03*
X392000Y153600D03*
D12*
X402000Y153600D03*
D18*
X407200Y153600D03*
D12*
X412400Y153600D03*
D14*
X419200Y153600D03*
D15*
X423200Y153600D03*
D13*
X426800Y153600D03*
D21*
X433200Y153600D03*
D14*
X440000Y153600D03*
D12*
X443600Y153600D03*
D15*
X449600Y153600D03*
D12*
X454800Y153600D03*
D18*
X327200Y154400D03*
D22*
X340000Y154400D03*
D14*
X348800Y154400D03*
D12*
X354800Y154400D03*
D13*
X362000Y154400D03*
D18*
X368000Y154400D03*
X373600Y154400D03*
D13*
X378000Y154400D03*
D12*
X382800Y154400D03*
D14*
X392800Y154400D03*
D12*
X396400Y154400D03*
D16*
X404400Y154400D03*
D12*
X412400Y154400D03*
D15*
X420000Y154400D03*
D14*
X427200Y154400D03*
D23*
X435200Y154400D03*
D12*
X443600Y154400D03*
D14*
X448000Y154400D03*
X455200Y154400D03*
D17*
X329600Y155200D03*
D24*
X339600Y155200D03*
D22*
X352000Y155200D03*
D13*
X362000Y155200D03*
D18*
X368000Y155200D03*
X373600Y155200D03*
D13*
X378000Y155200D03*
D18*
X383200Y155200D03*
D14*
X392800Y155200D03*
D12*
X397200Y155200D03*
D16*
X404400Y155200D03*
D12*
X412400Y155200D03*
D13*
X420400Y155200D03*
D14*
X427200Y155200D03*
D24*
X435600Y155200D03*
D12*
X443600Y155200D03*
D13*
X448400Y155200D03*
D14*
X455200Y155200D03*
D17*
X329600Y156000D03*
D24*
X339600Y156000D03*
D25*
X352400Y156000D03*
D13*
X362000Y156000D03*
D21*
X368400Y156000D03*
D18*
X373600Y156000D03*
D15*
X377600Y156000D03*
D18*
X383200Y156000D03*
D12*
X393200Y156000D03*
X397200Y156000D03*
X402800Y156000D03*
D14*
X406400Y156000D03*
X412800Y156000D03*
D13*
X420400Y156000D03*
D14*
X427200Y156000D03*
D24*
X435600Y156000D03*
D12*
X443600Y156000D03*
D13*
X448400Y156000D03*
D12*
X455600Y156000D03*
D16*
X330000Y156800D03*
D13*
X338000Y156800D03*
D12*
X342800Y156800D03*
D22*
X352800Y156800D03*
D13*
X363600Y156800D03*
D12*
X366800Y156800D03*
D17*
X372800Y156800D03*
D12*
X383600Y156800D03*
X393200Y156800D03*
X398000Y156800D03*
D14*
X403200Y156800D03*
X408000Y156800D03*
X412800Y156800D03*
D13*
X420400Y156800D03*
D14*
X428000Y156800D03*
D18*
X433600Y156800D03*
D15*
X438400Y156800D03*
D14*
X444000Y156800D03*
D13*
X449200Y156800D03*
D14*
X456000Y156800D03*
X328800Y157600D03*
X338400Y157600D03*
D18*
X342400Y157600D03*
D12*
X350000Y157600D03*
X355600Y157600D03*
D17*
X365600Y157600D03*
X372800Y157600D03*
D12*
X383600Y157600D03*
X393200Y157600D03*
X398000Y157600D03*
D14*
X403200Y157600D03*
X408800Y157600D03*
X412800Y157600D03*
X420000Y157600D03*
X428000Y157600D03*
X434400Y157600D03*
D13*
X438800Y157600D03*
D12*
X444400Y157600D03*
D15*
X449600Y157600D03*
D14*
X456000Y157600D03*
D12*
X329200Y158400D03*
D13*
X338800Y158400D03*
D18*
X342400Y158400D03*
D14*
X350400Y158400D03*
D12*
X356400Y158400D03*
D17*
X365600Y158400D03*
D21*
X372400Y158400D03*
D12*
X383600Y158400D03*
D14*
X393600Y158400D03*
D18*
X398400Y158400D03*
D14*
X403200Y158400D03*
X408800Y158400D03*
D13*
X413200Y158400D03*
D12*
X419600Y158400D03*
X428400Y158400D03*
X434800Y158400D03*
D14*
X440000Y158400D03*
D12*
X445200Y158400D03*
D14*
X450400Y158400D03*
X456800Y158400D03*
D12*
X329200Y159200D03*
D13*
X338800Y159200D03*
D18*
X342400Y159200D03*
D14*
X350400Y159200D03*
D12*
X356400Y159200D03*
D17*
X365600Y159200D03*
D21*
X372400Y159200D03*
D12*
X383600Y159200D03*
D14*
X393600Y159200D03*
D18*
X398400Y159200D03*
D14*
X404000Y159200D03*
X408800Y159200D03*
D12*
X414000Y159200D03*
X419600Y159200D03*
X428400Y159200D03*
X434800Y159200D03*
D14*
X440000Y159200D03*
D12*
X445200Y159200D03*
D14*
X450400Y159200D03*
X456800Y159200D03*
X329600Y160000D03*
D21*
X340400Y160000D03*
D14*
X350400Y160000D03*
X356800Y160000D03*
D17*
X365600Y160000D03*
D18*
X372800Y160000D03*
X384000Y160000D03*
D20*
X396000Y160000D03*
D14*
X404000Y160000D03*
X408000Y160000D03*
D18*
X415200Y160000D03*
D13*
X420400Y160000D03*
D12*
X424400Y160000D03*
X428400Y160000D03*
D14*
X436000Y160000D03*
X440000Y160000D03*
D12*
X446000Y160000D03*
D24*
X454000Y160000D03*
D12*
X329200Y160800D03*
D21*
X340400Y160800D03*
D12*
X350800Y160800D03*
D14*
X356800Y160800D03*
D21*
X366000Y160800D03*
D18*
X372800Y160800D03*
D12*
X384400Y160800D03*
D20*
X396000Y160800D03*
D18*
X403200Y160800D03*
D12*
X407600Y160800D03*
X415600Y160800D03*
D15*
X420000Y160800D03*
D20*
X426400Y160800D03*
D12*
X436400Y160800D03*
D14*
X440000Y160800D03*
D12*
X446800Y160800D03*
D22*
X454400Y160800D03*
D16*
X330000Y161600D03*
D14*
X340800Y161600D03*
D12*
X350800Y161600D03*
D14*
X356800Y161600D03*
X366400Y161600D03*
D12*
X373200Y161600D03*
D19*
X382000Y161600D03*
D16*
X394800Y161600D03*
D12*
X405200Y161600D03*
D14*
X418400Y161600D03*
D16*
X426800Y161600D03*
D18*
X438400Y161600D03*
D14*
X448800Y161600D03*
D21*
X456400Y161600D03*
D18*
X330400Y162400D03*
D12*
X340400Y162400D03*
D14*
X351200Y162400D03*
D13*
X357200Y162400D03*
D14*
X366400Y162400D03*
D13*
X374000Y162400D03*
D16*
X382000Y162400D03*
D19*
X371600Y167200D03*
D26*
X393200Y167200D03*
D23*
X371200Y168000D03*
D27*
X393600Y168000D03*
D22*
X370400Y168800D03*
D28*
X395600Y168800D03*
D25*
X370000Y169600D03*
D29*
X398400Y169600D03*
D30*
X369600Y170400D03*
D31*
X400000Y170400D03*
D30*
X369600Y171200D03*
D32*
X400400Y171200D03*
D30*
X369600Y172000D03*
D33*
X391200Y172000D03*
D34*
X410000Y172000D03*
D33*
X368800Y172800D03*
X391200Y172800D03*
D34*
X411600Y172800D03*
D35*
X368400Y173600D03*
X392400Y173600D03*
D36*
X416000Y173600D03*
D37*
X368800Y174400D03*
X392800Y174400D03*
D34*
X418800Y174400D03*
D38*
X368000Y175200D03*
D37*
X393600Y175200D03*
D39*
X419600Y175200D03*
D34*
X367600Y176000D03*
D37*
X393600Y176000D03*
D40*
X421200Y176000D03*
D39*
X366800Y176800D03*
D41*
X394000Y176800D03*
D29*
X421600Y176800D03*
D42*
X366400Y177600D03*
D38*
X394400Y177600D03*
D32*
X424400Y177600D03*
D42*
X366400Y178400D03*
D38*
X394400Y178400D03*
D43*
X414800Y178400D03*
D34*
X433200Y178400D03*
D44*
X366000Y179200D03*
D38*
X394400Y179200D03*
D30*
X414400Y179200D03*
D42*
X434400Y179200D03*
D44*
X366000Y180000D03*
D38*
X394400Y180000D03*
D30*
X414400Y180000D03*
D26*
X434800Y180000D03*
D45*
X365600Y180800D03*
D34*
X394800Y180800D03*
D30*
X414400Y180800D03*
D28*
X436400Y180800D03*
D40*
X365200Y181600D03*
D38*
X395200Y181600D03*
D30*
X414400Y181600D03*
D40*
X438000Y181600D03*
X365200Y182400D03*
D38*
X395200Y182400D03*
D30*
X414400Y182400D03*
D40*
X438800Y182400D03*
D46*
X364800Y183200D03*
D38*
X395200Y183200D03*
D30*
X414400Y183200D03*
D46*
X439200Y183200D03*
D43*
X356400Y184000D03*
D47*
X372400Y184000D03*
D38*
X395200Y184000D03*
D47*
X414000Y184000D03*
X432400Y184000D03*
D48*
X448000Y184000D03*
D30*
X356000Y184800D03*
X372000Y184800D03*
D38*
X395200Y184800D03*
D47*
X414000Y184800D03*
X432400Y184800D03*
D23*
X451200Y184800D03*
D33*
X355200Y185600D03*
D35*
X372400Y185600D03*
D41*
X395600Y185600D03*
D47*
X414000Y185600D03*
X433200Y185600D03*
D16*
X452400Y185600D03*
D30*
X353600Y186400D03*
D41*
X371600Y186400D03*
D38*
X396000Y186400D03*
D48*
X414400Y186400D03*
D30*
X433600Y186400D03*
D17*
X452800Y186400D03*
D43*
X353200Y187200D03*
D41*
X371600Y187200D03*
X396400Y187200D03*
D48*
X414400Y187200D03*
D30*
X433600Y187200D03*
D14*
X448000Y187200D03*
D17*
X452800Y187200D03*
D43*
X353200Y188000D03*
D41*
X371600Y188000D03*
X396400Y188000D03*
D48*
X414400Y188000D03*
D30*
X433600Y188000D03*
D25*
X450800Y188000D03*
D33*
X352800Y188800D03*
D38*
X372000Y188800D03*
D41*
X396400Y188800D03*
D48*
X414400Y188800D03*
D30*
X433600Y188800D03*
D25*
X450800Y188800D03*
D33*
X349600Y189600D03*
D38*
X372000Y189600D03*
D41*
X397200Y189600D03*
D22*
X414400Y189600D03*
D15*
X425600Y189600D03*
D48*
X434400Y189600D03*
D25*
X450800Y189600D03*
D43*
X349200Y190400D03*
D38*
X372000Y190400D03*
D41*
X397200Y190400D03*
D22*
X414400Y190400D03*
D15*
X425600Y190400D03*
D48*
X434400Y190400D03*
D25*
X450800Y190400D03*
D43*
X348400Y191200D03*
D38*
X372000Y191200D03*
X397600Y191200D03*
D24*
X414800Y191200D03*
D15*
X425600Y191200D03*
D48*
X434400Y191200D03*
D25*
X450800Y191200D03*
D43*
X348400Y192000D03*
D38*
X372000Y192000D03*
X397600Y192000D03*
D24*
X414800Y192000D03*
D13*
X426000Y192000D03*
D47*
X434800Y192000D03*
D25*
X450800Y192000D03*
D43*
X346800Y192800D03*
D34*
X372400Y192800D03*
D38*
X397600Y192800D03*
D24*
X414800Y192800D03*
D14*
X425600Y192800D03*
D25*
X435600Y192800D03*
D48*
X451200Y192800D03*
D30*
X346400Y193600D03*
D34*
X372400Y193600D03*
X398000Y193600D03*
D24*
X414800Y193600D03*
D14*
X425600Y193600D03*
D25*
X435600Y193600D03*
D48*
X451200Y193600D03*
D33*
X345600Y194400D03*
D13*
X355600Y194400D03*
D34*
X372400Y194400D03*
X398000Y194400D03*
D23*
X415200Y194400D03*
D14*
X425600Y194400D03*
D25*
X435600Y194400D03*
D48*
X451200Y194400D03*
D34*
X347600Y195200D03*
X372400Y195200D03*
D38*
X398400Y195200D03*
D23*
X415200Y195200D03*
D14*
X425600Y195200D03*
D22*
X436000Y195200D03*
D47*
X451600Y195200D03*
D39*
X347600Y196000D03*
D34*
X372400Y196000D03*
D38*
X398400Y196000D03*
D23*
X415200Y196000D03*
D12*
X425200Y196000D03*
D22*
X436000Y196000D03*
D47*
X451600Y196000D03*
D27*
X346400Y196800D03*
D36*
X372800Y196800D03*
D38*
X398400Y196800D03*
D23*
X415200Y196800D03*
D21*
X426000Y196800D03*
D22*
X436000Y196800D03*
D47*
X451600Y196800D03*
D27*
X346400Y197600D03*
D34*
X373200Y197600D03*
D38*
X398400Y197600D03*
D19*
X414800Y197600D03*
D21*
X426000Y197600D03*
D22*
X436000Y197600D03*
D30*
X452000Y197600D03*
D44*
X346000Y198400D03*
D38*
X373600Y198400D03*
D41*
X398800Y198400D03*
D20*
X415200Y198400D03*
D17*
X426400Y198400D03*
D24*
X436400Y198400D03*
D30*
X452000Y198400D03*
D44*
X346000Y199200D03*
D38*
X373600Y199200D03*
D41*
X398800Y199200D03*
D20*
X415200Y199200D03*
D17*
X426400Y199200D03*
D24*
X436400Y199200D03*
D30*
X452000Y199200D03*
D28*
X346000Y200000D03*
D38*
X374400Y200000D03*
D41*
X398800Y200000D03*
D16*
X414800Y200000D03*
X426800Y200000D03*
D19*
X437200Y200000D03*
D30*
X452000Y200000D03*
D49*
X345600Y200800D03*
D38*
X374400Y200800D03*
D41*
X398800Y200800D03*
D16*
X414800Y200800D03*
X426800Y200800D03*
D19*
X437200Y200800D03*
D47*
X452400Y200800D03*
D29*
X345600Y201600D03*
D38*
X374400Y201600D03*
D41*
X399600Y201600D03*
D16*
X414800Y201600D03*
D20*
X427200Y201600D03*
D19*
X438000Y201600D03*
D30*
X452800Y201600D03*
D29*
X345600Y202400D03*
D34*
X374800Y202400D03*
D41*
X399600Y202400D03*
D16*
X414800Y202400D03*
D20*
X427200Y202400D03*
D19*
X438000Y202400D03*
D47*
X453200Y202400D03*
D50*
X345200Y203200D03*
D34*
X374800Y203200D03*
D41*
X399600Y203200D03*
D17*
X414400Y203200D03*
D20*
X427200Y203200D03*
X438400Y203200D03*
D47*
X453200Y203200D03*
D51*
X344400Y204000D03*
D34*
X375600Y204000D03*
D41*
X400400Y204000D03*
D21*
X414800Y204000D03*
D20*
X427200Y204000D03*
X438400Y204000D03*
D47*
X453200Y204000D03*
D31*
X344000Y204800D03*
D34*
X375600Y204800D03*
D41*
X400400Y204800D03*
D21*
X414800Y204800D03*
D23*
X427200Y204800D03*
D16*
X438800Y204800D03*
D47*
X453200Y204800D03*
D31*
X344000Y205600D03*
D38*
X376000Y205600D03*
D41*
X400400Y205600D03*
D21*
X414800Y205600D03*
D23*
X427200Y205600D03*
D16*
X438800Y205600D03*
D30*
X453600Y205600D03*
D47*
X331600Y206400D03*
D39*
X350800Y206400D03*
D38*
X376000Y206400D03*
X400800Y206400D03*
D18*
X415200Y206400D03*
D22*
X428000Y206400D03*
D17*
X439200Y206400D03*
D30*
X453600Y206400D03*
D47*
X331600Y207200D03*
D39*
X350800Y207200D03*
D38*
X376000Y207200D03*
X400800Y207200D03*
D18*
X415200Y207200D03*
D22*
X428000Y207200D03*
D17*
X439200Y207200D03*
D30*
X453600Y207200D03*
D43*
X330000Y208000D03*
D27*
X349600Y208000D03*
D41*
X376400Y208000D03*
D38*
X401600Y208000D03*
D18*
X415200Y208000D03*
D25*
X428400Y208000D03*
D17*
X439200Y208000D03*
D30*
X453600Y208000D03*
X329600Y208800D03*
D27*
X349600Y208800D03*
D41*
X376400Y208800D03*
D38*
X401600Y208800D03*
D18*
X415200Y208800D03*
D48*
X428800Y208800D03*
D17*
X439200Y208800D03*
D43*
X454000Y208800D03*
D30*
X328800Y209600D03*
D27*
X349600Y209600D03*
D41*
X376400Y209600D03*
D38*
X401600Y209600D03*
D12*
X415600Y209600D03*
D48*
X428800Y209600D03*
D21*
X439600Y209600D03*
D43*
X454000Y209600D03*
D47*
X328400Y210400D03*
D27*
X349600Y210400D03*
D41*
X376400Y210400D03*
D38*
X401600Y210400D03*
D12*
X415600Y210400D03*
D48*
X428800Y210400D03*
D18*
X440000Y210400D03*
D43*
X454000Y210400D03*
X327600Y211200D03*
D28*
X350000Y211200D03*
D38*
X376800Y211200D03*
X401600Y211200D03*
D12*
X415600Y211200D03*
D30*
X428800Y211200D03*
D21*
X440400Y211200D03*
D33*
X454400Y211200D03*
D30*
X326400Y212000D03*
D28*
X350000Y212000D03*
D41*
X377200Y212000D03*
D34*
X402000Y212000D03*
D12*
X415600Y212000D03*
D30*
X428800Y212000D03*
D21*
X440400Y212000D03*
D43*
X454800Y212000D03*
D47*
X326000Y212800D03*
D28*
X350000Y212800D03*
D41*
X377200Y212800D03*
D34*
X402000Y212800D03*
D14*
X415200Y212800D03*
D43*
X428400Y212800D03*
D18*
X440800Y212800D03*
D43*
X454800Y212800D03*
D48*
X325600Y213600D03*
D28*
X350000Y213600D03*
D41*
X377200Y213600D03*
D34*
X402000Y213600D03*
D14*
X415200Y213600D03*
D33*
X428800Y213600D03*
D18*
X440800Y213600D03*
D43*
X454800Y213600D03*
D47*
X325200Y214400D03*
D28*
X350000Y214400D03*
D41*
X377200Y214400D03*
D34*
X402000Y214400D03*
D14*
X415200Y214400D03*
D33*
X428800Y214400D03*
D18*
X440800Y214400D03*
D43*
X454800Y214400D03*
D25*
X324400Y215200D03*
D28*
X350000Y215200D03*
D41*
X378000Y215200D03*
X402800Y215200D03*
D15*
X416000Y215200D03*
D33*
X428800Y215200D03*
D12*
X441200Y215200D03*
D33*
X455200Y215200D03*
D24*
X323600Y216000D03*
D28*
X350000Y216000D03*
D41*
X378000Y216000D03*
X402800Y216000D03*
D15*
X416000Y216000D03*
D35*
X429200Y216000D03*
D12*
X441200Y216000D03*
D33*
X455200Y216000D03*
D24*
X323600Y216800D03*
D28*
X350000Y216800D03*
D38*
X378400Y216800D03*
D41*
X402800Y216800D03*
D15*
X416000Y216800D03*
D37*
X429600Y216800D03*
D14*
X441600Y216800D03*
D33*
X455200Y216800D03*
D47*
X325200Y217600D03*
D28*
X350800Y217600D03*
D41*
X378800Y217600D03*
D38*
X403200Y217600D03*
D37*
X429600Y217600D03*
D13*
X442000Y217600D03*
D43*
X455600Y217600D03*
D47*
X325200Y218400D03*
D45*
X350400Y218400D03*
D38*
X379200Y218400D03*
D41*
X403600Y218400D03*
D38*
X429600Y218400D03*
D14*
X442400Y218400D03*
D43*
X455600Y218400D03*
D30*
X325600Y219200D03*
D27*
X349600Y219200D03*
D38*
X379200Y219200D03*
X404000Y219200D03*
X429600Y219200D03*
D13*
X442800Y219200D03*
D43*
X455600Y219200D03*
D30*
X325600Y220000D03*
D26*
X349200Y220000D03*
D38*
X379200Y220000D03*
X404000Y220000D03*
X429600Y220000D03*
D13*
X442800Y220000D03*
D33*
X456000Y220000D03*
D43*
X326000Y220800D03*
D26*
X349200Y220800D03*
D38*
X379200Y220800D03*
X404000Y220800D03*
D34*
X430000Y220800D03*
D13*
X442800Y220800D03*
D33*
X456000Y220800D03*
D43*
X326000Y221600D03*
D26*
X349200Y221600D03*
D15*
X364800Y221600D03*
D41*
X379600Y221600D03*
D38*
X404000Y221600D03*
D34*
X430000Y221600D03*
D13*
X442800Y221600D03*
D33*
X456000Y221600D03*
D43*
X326000Y222400D03*
D42*
X348800Y222400D03*
D14*
X364000Y222400D03*
D41*
X379600Y222400D03*
D38*
X404000Y222400D03*
D34*
X430000Y222400D03*
D13*
X442800Y222400D03*
D33*
X456800Y222400D03*
D43*
X326800Y223200D03*
D41*
X348400Y223200D03*
D21*
X363600Y223200D03*
D37*
X380000Y223200D03*
D38*
X404800Y223200D03*
D36*
X430400Y223200D03*
D13*
X443600Y223200D03*
D33*
X456800Y223200D03*
D43*
X326800Y224000D03*
D37*
X348000Y224000D03*
D17*
X363200Y224000D03*
D41*
X380400Y224000D03*
D38*
X404800Y224000D03*
D39*
X430800Y224000D03*
D15*
X444000Y224000D03*
D33*
X456800Y224000D03*
X327200Y224800D03*
D37*
X348000Y224800D03*
D16*
X363600Y224800D03*
D41*
X380400Y224800D03*
D38*
X404800Y224800D03*
D39*
X430800Y224800D03*
D15*
X444000Y224800D03*
D33*
X456800Y224800D03*
X327200Y225600D03*
D35*
X347600Y225600D03*
D16*
X363600Y225600D03*
D41*
X380400Y225600D03*
D38*
X404800Y225600D03*
D42*
X430400Y225600D03*
D15*
X444000Y225600D03*
D33*
X456800Y225600D03*
D43*
X327600Y226400D03*
D30*
X347200Y226400D03*
D23*
X362400Y226400D03*
D37*
X380800Y226400D03*
D41*
X405200Y226400D03*
D26*
X430800Y226400D03*
D35*
X457200Y226400D03*
D43*
X327600Y227200D03*
D47*
X346800Y227200D03*
D25*
X362000Y227200D03*
D37*
X380800Y227200D03*
D41*
X405200Y227200D03*
D26*
X430800Y227200D03*
D35*
X457200Y227200D03*
D43*
X327600Y228000D03*
D47*
X346800Y228000D03*
D25*
X362000Y228000D03*
D41*
X381200Y228000D03*
D35*
X406000Y228000D03*
D26*
X430800Y228000D03*
D35*
X457200Y228000D03*
D43*
X327600Y228800D03*
D48*
X346400Y228800D03*
X361600Y228800D03*
D41*
X381200Y228800D03*
X406800Y228800D03*
D26*
X430800Y228800D03*
D35*
X457200Y228800D03*
D43*
X327600Y229600D03*
D22*
X346400Y229600D03*
D48*
X361600Y229600D03*
D41*
X381200Y229600D03*
X406800Y229600D03*
D27*
X431200Y229600D03*
D35*
X457200Y229600D03*
D30*
X328000Y230400D03*
D23*
X345600Y230400D03*
D30*
X360800Y230400D03*
D41*
X382000Y230400D03*
D38*
X407200Y230400D03*
D27*
X431200Y230400D03*
D35*
X457200Y230400D03*
D43*
X328400Y231200D03*
D19*
X345200Y231200D03*
D33*
X360800Y231200D03*
D41*
X382000Y231200D03*
D38*
X407200Y231200D03*
D44*
X431600Y231200D03*
D37*
X457600Y231200D03*
D43*
X329200Y232000D03*
D19*
X345200Y232000D03*
D35*
X360400Y232000D03*
D37*
X382400Y232000D03*
D38*
X407200Y232000D03*
D45*
X432000Y232000D03*
D37*
X457600Y232000D03*
D43*
X329200Y232800D03*
D17*
X344800Y232800D03*
D37*
X360000Y232800D03*
X382400Y232800D03*
D41*
X407600Y232800D03*
D45*
X432000Y232800D03*
D37*
X457600Y232800D03*
D43*
X329200Y233600D03*
D21*
X344400Y233600D03*
D41*
X359600Y233600D03*
D37*
X382400Y233600D03*
D38*
X408000Y233600D03*
D28*
X431600Y233600D03*
D41*
X458000Y233600D03*
D43*
X330000Y234400D03*
D12*
X343600Y234400D03*
D36*
X359200Y234400D03*
D47*
X384400Y234400D03*
D52*
X422800Y234400D03*
D41*
X458000Y234400D03*
D43*
X330000Y235200D03*
D14*
X343200Y235200D03*
D36*
X359200Y235200D03*
D30*
X384000Y235200D03*
D53*
X423200Y235200D03*
D38*
X458400Y235200D03*
D43*
X330000Y236000D03*
D14*
X343200Y236000D03*
D39*
X358800Y236000D03*
D47*
X383600Y236000D03*
D54*
X423600Y236000D03*
D41*
X458800Y236000D03*
D43*
X330000Y236800D03*
D42*
X358400Y236800D03*
D30*
X383200Y236800D03*
D55*
X424400Y236800D03*
D41*
X458800Y236800D03*
D33*
X330400Y237600D03*
D27*
X358400Y237600D03*
D30*
X382400Y237600D03*
D56*
X426800Y237600D03*
D41*
X458800Y237600D03*
D33*
X330400Y238400D03*
D28*
X357200Y238400D03*
D43*
X381200Y238400D03*
D57*
X428800Y238400D03*
D41*
X458800Y238400D03*
D43*
X330800Y239200D03*
D28*
X357200Y239200D03*
D33*
X380800Y239200D03*
D58*
X429600Y239200D03*
D34*
X459600Y239200D03*
D43*
X330800Y240000D03*
D28*
X357200Y240000D03*
D33*
X380800Y240000D03*
D58*
X429600Y240000D03*
D34*
X459600Y240000D03*
D43*
X330800Y240800D03*
D45*
X356800Y240800D03*
D35*
X379600Y240800D03*
D59*
X432000Y240800D03*
D34*
X459600Y240800D03*
D43*
X331600Y241600D03*
D45*
X356800Y241600D03*
D33*
X378400Y241600D03*
D60*
X434000Y241600D03*
D34*
X459600Y241600D03*
D43*
X331600Y242400D03*
D44*
X356400Y242400D03*
D33*
X377600Y242400D03*
D46*
X435200Y242400D03*
D36*
X460000Y242400D03*
D33*
X332000Y243200D03*
D26*
X356400Y243200D03*
D35*
X377200Y243200D03*
D19*
X398800Y243200D03*
D27*
X437600Y243200D03*
D36*
X460000Y243200D03*
D33*
X332000Y244000D03*
D26*
X356400Y244000D03*
D35*
X376400Y244000D03*
D25*
X398800Y244000D03*
D26*
X438000Y244000D03*
D36*
X460000Y244000D03*
D43*
X332400Y244800D03*
D42*
X356000Y244800D03*
D35*
X375600Y244800D03*
D33*
X400000Y244800D03*
D56*
X450000Y244800D03*
D33*
X332800Y245600D03*
D57*
X364000Y245600D03*
D39*
X401200Y245600D03*
D61*
X452400Y245600D03*
D33*
X332800Y246400D03*
D61*
X363600Y246400D03*
D44*
X402000Y246400D03*
D32*
X453200Y246400D03*
D33*
X332800Y247200D03*
D58*
X364000Y247200D03*
D40*
X402800Y247200D03*
D51*
X454000Y247200D03*
D35*
X333200Y248000D03*
D51*
X362800Y248000D03*
X404400Y248000D03*
D46*
X456800Y248000D03*
D35*
X333200Y248800D03*
D59*
X362400Y248800D03*
D32*
X404400Y248800D03*
D49*
X457600Y248800D03*
D43*
X334000Y249600D03*
D50*
X362000Y249600D03*
D62*
X405200Y249600D03*
D44*
X458800Y249600D03*
D43*
X334000Y250400D03*
D50*
X362000Y250400D03*
D56*
X406000Y250400D03*
D26*
X459600Y250400D03*
D33*
X334400Y251200D03*
D46*
X361600Y251200D03*
D63*
X408000Y251200D03*
D38*
X462400Y251200D03*
D33*
X334400Y252000D03*
D46*
X361600Y252000D03*
D63*
X408000Y252000D03*
D41*
X462800Y252000D03*
D43*
X334800Y252800D03*
D49*
X360800Y252800D03*
D64*
X409600Y252800D03*
D33*
X464000Y252800D03*
D43*
X334800Y253600D03*
D28*
X361200Y253600D03*
D65*
X409600Y253600D03*
D30*
X465600Y253600D03*
D43*
X334800Y254400D03*
D27*
X360800Y254400D03*
D66*
X411200Y254400D03*
D23*
X467200Y254400D03*
D30*
X335200Y255200D03*
D26*
X360400Y255200D03*
D34*
X390800Y255200D03*
D67*
X423200Y255200D03*
D21*
X468400Y255200D03*
D30*
X335200Y256000D03*
D26*
X360400Y256000D03*
D34*
X390800Y256000D03*
D56*
X424400Y256000D03*
D18*
X468000Y256000D03*
D43*
X335600Y256800D03*
D14*
X350400Y256800D03*
D37*
X361600Y256800D03*
D28*
X391600Y256800D03*
D68*
X428800Y256800D03*
D43*
X335600Y257600D03*
D14*
X350400Y257600D03*
D37*
X361600Y257600D03*
D49*
X391200Y257600D03*
D55*
X429200Y257600D03*
D35*
X336400Y258400D03*
D15*
X350400Y258400D03*
D35*
X361200Y258400D03*
D46*
X391200Y258400D03*
D67*
X431200Y258400D03*
D35*
X336400Y259200D03*
X360400Y259200D03*
D60*
X391600Y259200D03*
D55*
X432400Y259200D03*
D35*
X336400Y260000D03*
D37*
X358400Y260000D03*
D29*
X390400Y260000D03*
D67*
X440000Y260000D03*
D35*
X336400Y260800D03*
D37*
X357600Y260800D03*
D50*
X389200Y260800D03*
D55*
X442000Y260800D03*
D33*
X336800Y261600D03*
D35*
X357200Y261600D03*
D50*
X389200Y261600D03*
D67*
X443200Y261600D03*
D33*
X336800Y262400D03*
D35*
X357200Y262400D03*
D50*
X389200Y262400D03*
D67*
X444000Y262400D03*
D43*
X337200Y263200D03*
D35*
X354800Y263200D03*
D59*
X388000Y263200D03*
D18*
X421600Y263200D03*
D56*
X446800Y263200D03*
D43*
X337200Y264000D03*
D35*
X354800Y264000D03*
D59*
X387200Y264000D03*
D19*
X422000Y264000D03*
D62*
X448400Y264000D03*
D47*
X336400Y264800D03*
D33*
X353600Y264800D03*
D59*
X386400Y264800D03*
D25*
X422800Y264800D03*
D62*
X449200Y264800D03*
D25*
X336400Y265600D03*
D35*
X352400Y265600D03*
D50*
X385200Y265600D03*
D69*
X440400Y265600D03*
D25*
X336400Y266400D03*
D35*
X352400Y266400D03*
D59*
X384800Y266400D03*
D69*
X440400Y266400D03*
D22*
X336000Y267200D03*
D41*
X351600Y267200D03*
D59*
X384000Y267200D03*
D69*
X439600Y267200D03*
D22*
X336000Y268000D03*
D35*
X350000Y268000D03*
D59*
X383200Y268000D03*
D65*
X438400Y268000D03*
D49*
X344000Y268800D03*
D59*
X382400Y268800D03*
D65*
X437600Y268800D03*
D28*
X343600Y269600D03*
D51*
X382000Y269600D03*
D69*
X437200Y269600D03*
D28*
X343600Y270400D03*
D50*
X380400Y270400D03*
D69*
X436400Y270400D03*
D45*
X343200Y271200D03*
D50*
X380400Y271200D03*
D65*
X436000Y271200D03*
D26*
X342800Y272000D03*
D59*
X378400Y272000D03*
D69*
X434000Y272000D03*
D42*
X342400Y272800D03*
D29*
X377600Y272800D03*
D69*
X434000Y272800D03*
D42*
X342400Y273600D03*
D29*
X377600Y273600D03*
D64*
X433600Y273600D03*
D36*
X341600Y274400D03*
D59*
X376000Y274400D03*
D65*
X432000Y274400D03*
D34*
X342000Y275200D03*
D59*
X376000Y275200D03*
D65*
X431200Y275200D03*
D41*
X341200Y276000D03*
D59*
X373600Y276000D03*
D69*
X430000Y276000D03*
D37*
X340800Y276800D03*
D59*
X373600Y276800D03*
D65*
X429600Y276800D03*
D33*
X340800Y277600D03*
D51*
X372400Y277600D03*
D65*
X428800Y277600D03*
D33*
X340800Y278400D03*
D51*
X372400Y278400D03*
D70*
X428400Y278400D03*
D30*
X340000Y279200D03*
D59*
X371200Y279200D03*
D65*
X427200Y279200D03*
D48*
X340000Y280000D03*
D50*
X370000Y280000D03*
D71*
X427600Y280000D03*
D25*
X339600Y280800D03*
D59*
X369600Y280800D03*
D72*
X428000Y280800D03*
D22*
X339200Y281600D03*
D51*
X369200Y281600D03*
D73*
X428400Y281600D03*
D22*
X339200Y282400D03*
D50*
X368400Y282400D03*
D14*
X399200Y282400D03*
D68*
X428800Y282400D03*
D20*
X338400Y283200D03*
D50*
X366800Y283200D03*
D19*
X399600Y283200D03*
D74*
X430400Y283200D03*
D16*
X338000Y284000D03*
D59*
X365600Y284000D03*
D48*
X400800Y284000D03*
D47*
X422000Y284000D03*
D38*
X440000Y284000D03*
D17*
X337600Y284800D03*
D59*
X364800Y284800D03*
D35*
X402000Y284800D03*
D20*
X423200Y284800D03*
D41*
X438800Y284800D03*
D17*
X337600Y285600D03*
D59*
X364800Y285600D03*
D37*
X401600Y285600D03*
D20*
X423200Y285600D03*
D41*
X438800Y285600D03*
D21*
X337200Y286400D03*
D59*
X364800Y286400D03*
D34*
X402000Y286400D03*
D18*
X423200Y286400D03*
D37*
X438400Y286400D03*
D13*
X337200Y287200D03*
D50*
X362800Y287200D03*
D26*
X402800Y287200D03*
D37*
X436800Y287200D03*
D50*
X361200Y288000D03*
X405200Y288000D03*
D41*
X435600Y288000D03*
D50*
X361200Y288800D03*
D59*
X405600Y288800D03*
D37*
X435200Y288800D03*
D50*
X359600Y289600D03*
D61*
X406000Y289600D03*
D33*
X434400Y289600D03*
D50*
X359600Y290400D03*
D61*
X406000Y290400D03*
D33*
X434400Y290400D03*
D41*
X351600Y291200D03*
D47*
X367600Y291200D03*
D61*
X406000Y291200D03*
D33*
X433600Y291200D03*
D38*
X351200Y292000D03*
D22*
X368000Y292000D03*
D57*
X405600Y292000D03*
D33*
X433600Y292000D03*
D39*
X352400Y292800D03*
D65*
X412800Y292800D03*
D27*
X353600Y293600D03*
D65*
X412000Y293600D03*
D49*
X355200Y294400D03*
D69*
X411600Y294400D03*
D29*
X359200Y295200D03*
D69*
X410000Y295200D03*
D29*
X359200Y296000D03*
D69*
X410000Y296000D03*
D50*
X362000Y296800D03*
D75*
X410800Y296800D03*
D50*
X362800Y297600D03*
D76*
X411200Y297600D03*
D50*
X366800Y298400D03*
D54*
X412400Y298400D03*
D59*
X368000Y299200D03*
D55*
X412400Y299200D03*
D59*
X372000Y300000D03*
D57*
X413600Y300000D03*
D59*
X373600Y300800D03*
D31*
X414400Y300800D03*
D59*
X376000Y301600D03*
D30*
X407200Y301600D03*
X424000Y301600D03*
D50*
X379600Y302400D03*
D23*
X408800Y302400D03*
D47*
X423600Y302400D03*
D50*
X382800Y303200D03*
D48*
X422400Y303200D03*
D50*
X384400Y304000D03*
D48*
X421600Y304000D03*
D50*
X389200Y304800D03*
D47*
X420400Y304800D03*
D29*
X389600Y305600D03*
D47*
X420400Y305600D03*
D29*
X393600Y306400D03*
D48*
X419200Y306400D03*
D60*
X396400Y307200D03*
D25*
X418000Y307200D03*
D40*
X397200Y308000D03*
D25*
X418000Y308000D03*
D77*
X404000Y308800D03*
D32*
X405200Y309600D03*
D49*
X407200Y310400D03*
X407200Y311200D03*
D44*
X407600Y312000D03*
X407600Y312800D03*
D47*
X410800Y313600D03*
X410800Y314400D03*
D16*
X410800Y315200D03*
D78*
X7410Y556585D02*
X6235Y556585D01*
X7410Y556585D02*
X7477Y556583D01*
X7544Y556577D01*
X7610Y556568D01*
X7676Y556554D01*
X7741Y556537D01*
X7805Y556517D01*
X7867Y556492D01*
X7928Y556464D01*
X7988Y556433D01*
X8045Y556398D01*
X8101Y556361D01*
X8154Y556320D01*
X8205Y556276D01*
X8253Y556229D01*
X8298Y556179D01*
X8340Y556128D01*
X8380Y556073D01*
X8416Y556017D01*
X8449Y555958D01*
X8479Y555898D01*
X8505Y555836D01*
X8527Y555773D01*
X8546Y555709D01*
X8562Y555643D01*
X8573Y555577D01*
X8581Y555511D01*
X8585Y555444D01*
X8585Y555376D01*
X8581Y555309D01*
X8573Y555243D01*
X8562Y555177D01*
X8546Y555111D01*
X8527Y555047D01*
X8505Y554984D01*
X8479Y554922D01*
X8449Y554862D01*
X8416Y554803D01*
X8380Y554747D01*
X8340Y554692D01*
X8298Y554641D01*
X8253Y554591D01*
X8205Y554544D01*
X8154Y554500D01*
X8101Y554459D01*
X8045Y554422D01*
X7988Y554387D01*
X7928Y554356D01*
X7867Y554328D01*
X7805Y554303D01*
X7741Y554283D01*
X7676Y554266D01*
X7610Y554252D01*
X7544Y554243D01*
X7477Y554237D01*
X7410Y554235D01*
X6235Y554235D01*
X6235Y558465D01*
X7410Y558465D01*
X7470Y558463D01*
X7530Y558457D01*
X7590Y558448D01*
X7648Y558434D01*
X7706Y558417D01*
X7763Y558396D01*
X7818Y558372D01*
X7871Y558344D01*
X7923Y558313D01*
X7972Y558278D01*
X8019Y558241D01*
X8064Y558200D01*
X8106Y558157D01*
X8145Y558111D01*
X8181Y558063D01*
X8214Y558012D01*
X8243Y557960D01*
X8270Y557905D01*
X8292Y557850D01*
X8311Y557792D01*
X8326Y557734D01*
X8338Y557675D01*
X8346Y557615D01*
X8350Y557555D01*
X8350Y557495D01*
X8346Y557435D01*
X8338Y557375D01*
X8326Y557316D01*
X8311Y557258D01*
X8292Y557200D01*
X8270Y557145D01*
X8243Y557090D01*
X8214Y557038D01*
X8181Y556987D01*
X8145Y556939D01*
X8106Y556893D01*
X8064Y556850D01*
X8019Y556809D01*
X7972Y556772D01*
X7923Y556737D01*
X7871Y556706D01*
X7818Y556678D01*
X7763Y556654D01*
X7706Y556633D01*
X7648Y556616D01*
X7590Y556602D01*
X7530Y556593D01*
X7470Y556587D01*
X7410Y556585D01*
X10618Y552825D02*
X11088Y552825D01*
X12498Y557055D01*
X10618Y557055D02*
X11558Y554235D01*
X17215Y554588D02*
X17215Y554823D01*
X17450Y554823D01*
X17450Y554588D01*
X17215Y554588D01*
X17215Y556468D02*
X17215Y556703D01*
X17450Y556703D01*
X17450Y556468D01*
X17215Y556468D01*
X23340Y554235D02*
X24280Y554235D01*
X23340Y554235D02*
X23281Y554237D01*
X23222Y554242D01*
X23164Y554252D01*
X23106Y554265D01*
X23050Y554281D01*
X22994Y554301D01*
X22940Y554324D01*
X22887Y554351D01*
X22836Y554381D01*
X22787Y554415D01*
X22741Y554451D01*
X22697Y554490D01*
X22655Y554532D01*
X22616Y554576D01*
X22580Y554622D01*
X22546Y554671D01*
X22516Y554722D01*
X22489Y554775D01*
X22466Y554829D01*
X22446Y554885D01*
X22430Y554941D01*
X22417Y554999D01*
X22407Y555057D01*
X22402Y555116D01*
X22400Y555175D01*
X22400Y557525D01*
X22402Y557584D01*
X22407Y557643D01*
X22417Y557701D01*
X22430Y557759D01*
X22446Y557815D01*
X22466Y557871D01*
X22489Y557925D01*
X22516Y557978D01*
X22546Y558029D01*
X22580Y558078D01*
X22616Y558124D01*
X22655Y558168D01*
X22697Y558210D01*
X22741Y558249D01*
X22787Y558285D01*
X22836Y558319D01*
X22887Y558349D01*
X22940Y558376D01*
X22994Y558399D01*
X23050Y558419D01*
X23106Y558435D01*
X23164Y558448D01*
X23222Y558458D01*
X23281Y558463D01*
X23340Y558465D01*
X24280Y558465D01*
X27230Y555880D02*
X28288Y555880D01*
X27230Y555881D02*
X27174Y555879D01*
X27118Y555873D01*
X27063Y555864D01*
X27008Y555850D01*
X26954Y555833D01*
X26902Y555813D01*
X26851Y555789D01*
X26802Y555761D01*
X26755Y555730D01*
X26711Y555696D01*
X26668Y555659D01*
X26629Y555620D01*
X26592Y555577D01*
X26558Y555533D01*
X26527Y555486D01*
X26499Y555437D01*
X26475Y555386D01*
X26455Y555334D01*
X26438Y555280D01*
X26424Y555225D01*
X26415Y555170D01*
X26409Y555114D01*
X26407Y555058D01*
X26409Y555002D01*
X26415Y554946D01*
X26424Y554891D01*
X26438Y554836D01*
X26455Y554782D01*
X26475Y554730D01*
X26499Y554679D01*
X26527Y554630D01*
X26558Y554583D01*
X26592Y554539D01*
X26629Y554496D01*
X26668Y554457D01*
X26711Y554420D01*
X26755Y554386D01*
X26802Y554355D01*
X26851Y554327D01*
X26902Y554303D01*
X26954Y554283D01*
X27008Y554266D01*
X27063Y554252D01*
X27118Y554243D01*
X27174Y554237D01*
X27230Y554235D01*
X28288Y554235D01*
X28288Y556350D01*
X28286Y556400D01*
X28281Y556450D01*
X28272Y556500D01*
X28259Y556549D01*
X28244Y556596D01*
X28224Y556643D01*
X28202Y556688D01*
X28176Y556731D01*
X28147Y556772D01*
X28116Y556812D01*
X28082Y556849D01*
X28045Y556883D01*
X28005Y556914D01*
X27964Y556943D01*
X27921Y556969D01*
X27876Y556991D01*
X27829Y557011D01*
X27782Y557026D01*
X27733Y557039D01*
X27683Y557048D01*
X27633Y557053D01*
X27583Y557055D01*
X26643Y557055D01*
X31077Y558465D02*
X31077Y554235D01*
X31077Y557055D02*
X32252Y557055D01*
X32302Y557053D01*
X32352Y557048D01*
X32402Y557039D01*
X32451Y557026D01*
X32498Y557011D01*
X32545Y556991D01*
X32590Y556969D01*
X32633Y556943D01*
X32674Y556914D01*
X32714Y556883D01*
X32751Y556849D01*
X32785Y556812D01*
X32816Y556772D01*
X32845Y556731D01*
X32871Y556688D01*
X32893Y556643D01*
X32913Y556596D01*
X32928Y556549D01*
X32941Y556500D01*
X32950Y556450D01*
X32955Y556400D01*
X32957Y556350D01*
X32957Y554235D01*
X35367Y552825D02*
X35837Y552825D01*
X37247Y557055D01*
X35367Y557055D02*
X36307Y554235D01*
X39492Y555175D02*
X39492Y556115D01*
X39494Y556175D01*
X39500Y556235D01*
X39509Y556295D01*
X39523Y556353D01*
X39540Y556411D01*
X39561Y556468D01*
X39585Y556523D01*
X39613Y556576D01*
X39644Y556628D01*
X39679Y556677D01*
X39716Y556724D01*
X39757Y556769D01*
X39800Y556811D01*
X39846Y556850D01*
X39894Y556886D01*
X39945Y556919D01*
X39997Y556948D01*
X40052Y556975D01*
X40107Y556997D01*
X40165Y557016D01*
X40223Y557031D01*
X40282Y557043D01*
X40342Y557051D01*
X40402Y557055D01*
X40462Y557055D01*
X40522Y557051D01*
X40582Y557043D01*
X40641Y557031D01*
X40699Y557016D01*
X40757Y556997D01*
X40812Y556975D01*
X40867Y556948D01*
X40919Y556919D01*
X40970Y556886D01*
X41018Y556850D01*
X41064Y556811D01*
X41107Y556769D01*
X41148Y556724D01*
X41185Y556677D01*
X41220Y556628D01*
X41251Y556576D01*
X41279Y556523D01*
X41303Y556468D01*
X41324Y556411D01*
X41341Y556353D01*
X41355Y556295D01*
X41364Y556235D01*
X41370Y556175D01*
X41372Y556115D01*
X41372Y555175D01*
X41370Y555115D01*
X41364Y555055D01*
X41355Y554995D01*
X41341Y554937D01*
X41324Y554879D01*
X41303Y554822D01*
X41279Y554767D01*
X41251Y554714D01*
X41220Y554662D01*
X41185Y554613D01*
X41148Y554566D01*
X41107Y554521D01*
X41064Y554479D01*
X41018Y554440D01*
X40970Y554404D01*
X40919Y554371D01*
X40867Y554342D01*
X40812Y554315D01*
X40757Y554293D01*
X40699Y554274D01*
X40641Y554259D01*
X40582Y554247D01*
X40522Y554239D01*
X40462Y554235D01*
X40402Y554235D01*
X40342Y554239D01*
X40282Y554247D01*
X40223Y554259D01*
X40165Y554274D01*
X40107Y554293D01*
X40052Y554315D01*
X39997Y554342D01*
X39945Y554371D01*
X39894Y554404D01*
X39846Y554440D01*
X39800Y554479D01*
X39757Y554521D01*
X39716Y554566D01*
X39679Y554613D01*
X39644Y554662D01*
X39613Y554714D01*
X39585Y554767D01*
X39561Y554822D01*
X39540Y554879D01*
X39523Y554937D01*
X39509Y554995D01*
X39500Y555055D01*
X39494Y555115D01*
X39492Y555175D01*
X46744Y554235D02*
X46744Y558465D01*
X47919Y558465D01*
X47986Y558463D01*
X48053Y558457D01*
X48119Y558448D01*
X48185Y558434D01*
X48250Y558417D01*
X48314Y558397D01*
X48376Y558372D01*
X48437Y558344D01*
X48497Y558313D01*
X48554Y558278D01*
X48610Y558241D01*
X48663Y558200D01*
X48714Y558156D01*
X48762Y558109D01*
X48807Y558059D01*
X48849Y558008D01*
X48889Y557953D01*
X48925Y557897D01*
X48958Y557838D01*
X48988Y557778D01*
X49014Y557716D01*
X49036Y557653D01*
X49055Y557589D01*
X49071Y557523D01*
X49082Y557457D01*
X49090Y557391D01*
X49094Y557324D01*
X49094Y557256D01*
X49090Y557189D01*
X49082Y557123D01*
X49071Y557057D01*
X49055Y556991D01*
X49036Y556927D01*
X49014Y556864D01*
X48988Y556802D01*
X48958Y556742D01*
X48925Y556683D01*
X48889Y556627D01*
X48849Y556572D01*
X48807Y556521D01*
X48762Y556471D01*
X48714Y556424D01*
X48663Y556380D01*
X48610Y556339D01*
X48554Y556302D01*
X48497Y556267D01*
X48437Y556236D01*
X48376Y556208D01*
X48314Y556183D01*
X48250Y556163D01*
X48185Y556146D01*
X48119Y556132D01*
X48053Y556123D01*
X47986Y556117D01*
X47919Y556115D01*
X46744Y556115D01*
X48154Y556115D02*
X49094Y554235D01*
X52310Y555880D02*
X53368Y555880D01*
X52310Y555881D02*
X52254Y555879D01*
X52198Y555873D01*
X52143Y555864D01*
X52088Y555850D01*
X52034Y555833D01*
X51982Y555813D01*
X51931Y555789D01*
X51882Y555761D01*
X51835Y555730D01*
X51791Y555696D01*
X51748Y555659D01*
X51709Y555620D01*
X51672Y555577D01*
X51638Y555533D01*
X51607Y555486D01*
X51579Y555437D01*
X51555Y555386D01*
X51535Y555334D01*
X51518Y555280D01*
X51504Y555225D01*
X51495Y555170D01*
X51489Y555114D01*
X51487Y555058D01*
X51489Y555002D01*
X51495Y554946D01*
X51504Y554891D01*
X51518Y554836D01*
X51535Y554782D01*
X51555Y554730D01*
X51579Y554679D01*
X51607Y554630D01*
X51638Y554583D01*
X51672Y554539D01*
X51709Y554496D01*
X51748Y554457D01*
X51791Y554420D01*
X51835Y554386D01*
X51882Y554355D01*
X51931Y554327D01*
X51982Y554303D01*
X52034Y554283D01*
X52088Y554266D01*
X52143Y554252D01*
X52198Y554243D01*
X52254Y554237D01*
X52310Y554235D01*
X53368Y554235D01*
X53368Y556350D01*
X53366Y556400D01*
X53361Y556450D01*
X53352Y556500D01*
X53339Y556549D01*
X53324Y556596D01*
X53304Y556643D01*
X53282Y556688D01*
X53256Y556731D01*
X53227Y556772D01*
X53196Y556812D01*
X53162Y556849D01*
X53125Y556883D01*
X53085Y556914D01*
X53044Y556943D01*
X53001Y556969D01*
X52956Y556991D01*
X52909Y557011D01*
X52862Y557026D01*
X52813Y557039D01*
X52763Y557048D01*
X52713Y557053D01*
X52663Y557055D01*
X51723Y557055D01*
X56347Y557055D02*
X56347Y554235D01*
X56347Y557055D02*
X58462Y557055D01*
X58512Y557053D01*
X58562Y557048D01*
X58612Y557039D01*
X58661Y557026D01*
X58708Y557011D01*
X58755Y556991D01*
X58800Y556969D01*
X58843Y556943D01*
X58884Y556914D01*
X58924Y556883D01*
X58961Y556849D01*
X58995Y556812D01*
X59026Y556772D01*
X59055Y556731D01*
X59081Y556688D01*
X59103Y556643D01*
X59123Y556596D01*
X59138Y556549D01*
X59151Y556500D01*
X59160Y556450D01*
X59165Y556400D01*
X59167Y556350D01*
X59167Y554235D01*
X57757Y554235D02*
X57757Y557055D01*
X62705Y555880D02*
X63763Y555880D01*
X62705Y555881D02*
X62649Y555879D01*
X62593Y555873D01*
X62538Y555864D01*
X62483Y555850D01*
X62429Y555833D01*
X62377Y555813D01*
X62326Y555789D01*
X62277Y555761D01*
X62230Y555730D01*
X62186Y555696D01*
X62143Y555659D01*
X62104Y555620D01*
X62067Y555577D01*
X62033Y555533D01*
X62002Y555486D01*
X61974Y555437D01*
X61950Y555386D01*
X61930Y555334D01*
X61913Y555280D01*
X61899Y555225D01*
X61890Y555170D01*
X61884Y555114D01*
X61882Y555058D01*
X61884Y555002D01*
X61890Y554946D01*
X61899Y554891D01*
X61913Y554836D01*
X61930Y554782D01*
X61950Y554730D01*
X61974Y554679D01*
X62002Y554630D01*
X62033Y554583D01*
X62067Y554539D01*
X62104Y554496D01*
X62143Y554457D01*
X62186Y554420D01*
X62230Y554386D01*
X62277Y554355D01*
X62326Y554327D01*
X62377Y554303D01*
X62429Y554283D01*
X62483Y554266D01*
X62538Y554252D01*
X62593Y554243D01*
X62649Y554237D01*
X62705Y554235D01*
X63763Y554235D01*
X63763Y556350D01*
X63761Y556400D01*
X63756Y556450D01*
X63747Y556500D01*
X63734Y556549D01*
X63719Y556596D01*
X63699Y556643D01*
X63677Y556688D01*
X63651Y556731D01*
X63622Y556772D01*
X63591Y556812D01*
X63557Y556849D01*
X63520Y556883D01*
X63480Y556914D01*
X63439Y556943D01*
X63396Y556969D01*
X63351Y556991D01*
X63304Y557011D01*
X63257Y557026D01*
X63208Y557039D01*
X63158Y557048D01*
X63108Y557053D01*
X63058Y557055D01*
X62118Y557055D01*
D10*
X646430Y561340D02*
X646426Y632320D01*
X46Y632280D02*
X50Y561300D01*
X697Y612780D02*
X645777Y612820D01*
X620427Y616011D01*
X620427Y609626D01*
X645777Y612820D01*
X620427Y614118D01*
X620427Y611518D02*
X645777Y612820D01*
X620427Y615418D01*
X620427Y610218D02*
X645777Y612820D01*
X26047Y615974D02*
X697Y612780D01*
X26047Y615974D02*
X26047Y609589D01*
X697Y612780D01*
X26047Y614082D01*
X26047Y611482D02*
X697Y612780D01*
X26047Y615382D01*
X26047Y610182D02*
X697Y612780D01*
D79*
X298261Y625500D02*
X302664Y625500D01*
X302771Y625498D01*
X302878Y625492D01*
X302985Y625482D01*
X303091Y625469D01*
X303197Y625451D01*
X303302Y625430D01*
X303406Y625405D01*
X303510Y625376D01*
X303612Y625343D01*
X303712Y625306D01*
X303812Y625266D01*
X303910Y625222D01*
X304006Y625175D01*
X304100Y625124D01*
X304193Y625070D01*
X304283Y625013D01*
X304372Y624952D01*
X304458Y624888D01*
X304541Y624821D01*
X304623Y624751D01*
X304701Y624678D01*
X304777Y624602D01*
X304850Y624524D01*
X304920Y624442D01*
X304987Y624359D01*
X305051Y624273D01*
X305112Y624184D01*
X305169Y624094D01*
X305223Y624001D01*
X305274Y623907D01*
X305321Y623811D01*
X305365Y623713D01*
X305405Y623613D01*
X305442Y623513D01*
X305475Y623411D01*
X305504Y623307D01*
X305529Y623203D01*
X305550Y623098D01*
X305568Y622992D01*
X305581Y622886D01*
X305591Y622779D01*
X305597Y622672D01*
X305599Y622565D01*
X305599Y621831D01*
X305597Y621711D01*
X305591Y621591D01*
X305581Y621471D01*
X305568Y621352D01*
X305550Y621233D01*
X305529Y621115D01*
X305503Y620998D01*
X305474Y620881D01*
X305441Y620766D01*
X305404Y620652D01*
X305364Y620539D01*
X305320Y620427D01*
X305272Y620317D01*
X305221Y620208D01*
X305166Y620101D01*
X305107Y619997D01*
X305046Y619894D01*
X304981Y619793D01*
X304912Y619694D01*
X304841Y619597D01*
X304766Y619503D01*
X304689Y619412D01*
X304608Y619323D01*
X304524Y619237D01*
X304438Y619153D01*
X304349Y619072D01*
X304258Y618995D01*
X304164Y618920D01*
X304067Y618849D01*
X303968Y618780D01*
X303867Y618715D01*
X303765Y618654D01*
X303660Y618595D01*
X303553Y618540D01*
X303444Y618489D01*
X303334Y618441D01*
X303222Y618397D01*
X303109Y618357D01*
X302995Y618320D01*
X302880Y618287D01*
X302763Y618258D01*
X302646Y618232D01*
X302528Y618211D01*
X302409Y618193D01*
X302290Y618180D01*
X302170Y618170D01*
X302050Y618164D01*
X301930Y618162D01*
X301810Y618164D01*
X301690Y618170D01*
X301570Y618180D01*
X301451Y618193D01*
X301332Y618211D01*
X301214Y618232D01*
X301097Y618258D01*
X300980Y618287D01*
X300865Y618320D01*
X300751Y618357D01*
X300638Y618397D01*
X300526Y618441D01*
X300416Y618489D01*
X300307Y618540D01*
X300200Y618595D01*
X300096Y618654D01*
X299993Y618715D01*
X299892Y618780D01*
X299793Y618849D01*
X299696Y618920D01*
X299602Y618995D01*
X299511Y619072D01*
X299422Y619153D01*
X299336Y619237D01*
X299252Y619323D01*
X299171Y619412D01*
X299094Y619503D01*
X299019Y619597D01*
X298948Y619694D01*
X298879Y619793D01*
X298814Y619894D01*
X298753Y619997D01*
X298694Y620101D01*
X298639Y620208D01*
X298588Y620317D01*
X298540Y620427D01*
X298496Y620539D01*
X298456Y620652D01*
X298419Y620766D01*
X298386Y620881D01*
X298357Y620998D01*
X298331Y621115D01*
X298310Y621233D01*
X298292Y621352D01*
X298279Y621471D01*
X298269Y621591D01*
X298263Y621711D01*
X298261Y621831D01*
X298261Y625500D01*
X298263Y625651D01*
X298269Y625802D01*
X298279Y625953D01*
X298292Y626104D01*
X298310Y626254D01*
X298331Y626403D01*
X298356Y626552D01*
X298385Y626701D01*
X298418Y626848D01*
X298455Y626995D01*
X298495Y627141D01*
X298539Y627285D01*
X298587Y627429D01*
X298638Y627571D01*
X298693Y627711D01*
X298752Y627851D01*
X298815Y627988D01*
X298880Y628124D01*
X298950Y628259D01*
X299022Y628391D01*
X299099Y628522D01*
X299178Y628650D01*
X299261Y628777D01*
X299347Y628901D01*
X299436Y629023D01*
X299528Y629143D01*
X299624Y629260D01*
X299722Y629375D01*
X299823Y629487D01*
X299927Y629597D01*
X300034Y629704D01*
X300144Y629808D01*
X300256Y629909D01*
X300371Y630007D01*
X300488Y630103D01*
X300608Y630195D01*
X300730Y630284D01*
X300854Y630370D01*
X300981Y630453D01*
X301109Y630532D01*
X301240Y630609D01*
X301372Y630681D01*
X301507Y630751D01*
X301643Y630816D01*
X301780Y630879D01*
X301920Y630938D01*
X302060Y630993D01*
X302202Y631044D01*
X302346Y631092D01*
X302490Y631136D01*
X302636Y631176D01*
X302783Y631213D01*
X302930Y631246D01*
X303079Y631275D01*
X303228Y631300D01*
X303377Y631321D01*
X303527Y631339D01*
X303678Y631352D01*
X303829Y631362D01*
X303980Y631368D01*
X304131Y631370D01*
X313998Y631370D02*
X311063Y621097D01*
X318401Y621097D01*
X316199Y618162D02*
X316199Y624033D01*
X323326Y618896D02*
X323326Y618162D01*
X323326Y618896D02*
X324060Y618896D01*
X324060Y618162D01*
X323326Y618162D01*
X328985Y625500D02*
X333388Y625500D01*
X333495Y625498D01*
X333602Y625492D01*
X333709Y625482D01*
X333815Y625469D01*
X333921Y625451D01*
X334026Y625430D01*
X334130Y625405D01*
X334234Y625376D01*
X334336Y625343D01*
X334436Y625306D01*
X334536Y625266D01*
X334634Y625222D01*
X334730Y625175D01*
X334824Y625124D01*
X334917Y625070D01*
X335007Y625013D01*
X335096Y624952D01*
X335182Y624888D01*
X335265Y624821D01*
X335347Y624751D01*
X335425Y624678D01*
X335501Y624602D01*
X335574Y624524D01*
X335644Y624442D01*
X335711Y624359D01*
X335775Y624273D01*
X335836Y624184D01*
X335893Y624094D01*
X335947Y624001D01*
X335998Y623907D01*
X336045Y623811D01*
X336089Y623713D01*
X336129Y623613D01*
X336166Y623513D01*
X336199Y623411D01*
X336228Y623307D01*
X336253Y623203D01*
X336274Y623098D01*
X336292Y622992D01*
X336305Y622886D01*
X336315Y622779D01*
X336321Y622672D01*
X336323Y622565D01*
X336323Y621831D01*
X336321Y621711D01*
X336315Y621591D01*
X336305Y621471D01*
X336292Y621352D01*
X336274Y621233D01*
X336253Y621115D01*
X336227Y620998D01*
X336198Y620881D01*
X336165Y620766D01*
X336128Y620652D01*
X336088Y620539D01*
X336044Y620427D01*
X335996Y620317D01*
X335945Y620208D01*
X335890Y620101D01*
X335831Y619997D01*
X335770Y619894D01*
X335705Y619793D01*
X335636Y619694D01*
X335565Y619597D01*
X335490Y619503D01*
X335413Y619412D01*
X335332Y619323D01*
X335248Y619237D01*
X335162Y619153D01*
X335073Y619072D01*
X334982Y618995D01*
X334888Y618920D01*
X334791Y618849D01*
X334692Y618780D01*
X334591Y618715D01*
X334489Y618654D01*
X334384Y618595D01*
X334277Y618540D01*
X334168Y618489D01*
X334058Y618441D01*
X333946Y618397D01*
X333833Y618357D01*
X333719Y618320D01*
X333604Y618287D01*
X333487Y618258D01*
X333370Y618232D01*
X333252Y618211D01*
X333133Y618193D01*
X333014Y618180D01*
X332894Y618170D01*
X332774Y618164D01*
X332654Y618162D01*
X332534Y618164D01*
X332414Y618170D01*
X332294Y618180D01*
X332175Y618193D01*
X332056Y618211D01*
X331938Y618232D01*
X331821Y618258D01*
X331704Y618287D01*
X331589Y618320D01*
X331475Y618357D01*
X331362Y618397D01*
X331250Y618441D01*
X331140Y618489D01*
X331031Y618540D01*
X330924Y618595D01*
X330820Y618654D01*
X330717Y618715D01*
X330616Y618780D01*
X330517Y618849D01*
X330420Y618920D01*
X330326Y618995D01*
X330235Y619072D01*
X330146Y619153D01*
X330060Y619237D01*
X329976Y619323D01*
X329895Y619412D01*
X329818Y619503D01*
X329743Y619597D01*
X329672Y619694D01*
X329603Y619793D01*
X329538Y619894D01*
X329477Y619997D01*
X329418Y620101D01*
X329363Y620208D01*
X329312Y620317D01*
X329264Y620427D01*
X329220Y620539D01*
X329180Y620652D01*
X329143Y620766D01*
X329110Y620881D01*
X329081Y620998D01*
X329055Y621115D01*
X329034Y621233D01*
X329016Y621352D01*
X329003Y621471D01*
X328993Y621591D01*
X328987Y621711D01*
X328985Y621831D01*
X328985Y625500D01*
X328987Y625651D01*
X328993Y625802D01*
X329003Y625953D01*
X329016Y626104D01*
X329034Y626254D01*
X329055Y626403D01*
X329080Y626552D01*
X329109Y626701D01*
X329142Y626848D01*
X329179Y626995D01*
X329219Y627141D01*
X329263Y627285D01*
X329311Y627429D01*
X329362Y627571D01*
X329417Y627711D01*
X329476Y627851D01*
X329539Y627988D01*
X329604Y628124D01*
X329674Y628259D01*
X329746Y628391D01*
X329823Y628522D01*
X329902Y628650D01*
X329985Y628777D01*
X330071Y628901D01*
X330160Y629023D01*
X330252Y629143D01*
X330348Y629260D01*
X330446Y629375D01*
X330547Y629487D01*
X330651Y629597D01*
X330758Y629704D01*
X330868Y629808D01*
X330980Y629909D01*
X331095Y630007D01*
X331212Y630103D01*
X331332Y630195D01*
X331454Y630284D01*
X331578Y630370D01*
X331705Y630453D01*
X331833Y630532D01*
X331964Y630609D01*
X332096Y630681D01*
X332231Y630751D01*
X332367Y630816D01*
X332504Y630879D01*
X332644Y630938D01*
X332784Y630993D01*
X332926Y631044D01*
X333070Y631092D01*
X333214Y631136D01*
X333360Y631176D01*
X333507Y631213D01*
X333654Y631246D01*
X333803Y631275D01*
X333952Y631300D01*
X334101Y631321D01*
X334251Y631339D01*
X334402Y631352D01*
X334553Y631362D01*
X334704Y631368D01*
X334855Y631370D01*
X344722Y631370D02*
X341787Y621097D01*
X349124Y621097D01*
X346923Y618162D02*
X346923Y624033D01*
D78*
X87454Y33615D02*
X86382Y33615D01*
X86317Y33617D01*
X86253Y33623D01*
X86189Y33633D01*
X86125Y33646D01*
X86063Y33664D01*
X86002Y33685D01*
X85942Y33709D01*
X85884Y33738D01*
X85827Y33770D01*
X85773Y33805D01*
X85721Y33843D01*
X85671Y33885D01*
X85624Y33929D01*
X85580Y33976D01*
X85538Y34026D01*
X85500Y34078D01*
X85465Y34132D01*
X85433Y34189D01*
X85404Y34247D01*
X85380Y34307D01*
X85359Y34368D01*
X85341Y34430D01*
X85328Y34494D01*
X85318Y34558D01*
X85312Y34622D01*
X85310Y34687D01*
X85309Y34687D02*
X85309Y37369D01*
X85310Y37369D02*
X85312Y37434D01*
X85318Y37498D01*
X85328Y37562D01*
X85341Y37626D01*
X85359Y37688D01*
X85380Y37749D01*
X85404Y37809D01*
X85433Y37867D01*
X85465Y37924D01*
X85500Y37978D01*
X85538Y38030D01*
X85580Y38080D01*
X85624Y38127D01*
X85671Y38171D01*
X85721Y38213D01*
X85773Y38251D01*
X85827Y38286D01*
X85884Y38318D01*
X85942Y38347D01*
X86002Y38371D01*
X86063Y38392D01*
X86125Y38410D01*
X86189Y38423D01*
X86253Y38433D01*
X86317Y38439D01*
X86382Y38441D01*
X87454Y38441D01*
X89910Y37369D02*
X91250Y38441D01*
X91250Y33615D01*
X89910Y33615D02*
X92591Y33615D01*
X205762Y83145D02*
X206834Y83145D01*
X205762Y83145D02*
X205697Y83147D01*
X205633Y83153D01*
X205569Y83163D01*
X205505Y83176D01*
X205443Y83194D01*
X205382Y83215D01*
X205322Y83239D01*
X205264Y83268D01*
X205207Y83300D01*
X205153Y83335D01*
X205101Y83373D01*
X205051Y83415D01*
X205004Y83459D01*
X204960Y83506D01*
X204918Y83556D01*
X204880Y83608D01*
X204845Y83662D01*
X204813Y83719D01*
X204784Y83777D01*
X204760Y83837D01*
X204739Y83898D01*
X204721Y83960D01*
X204708Y84024D01*
X204698Y84088D01*
X204692Y84152D01*
X204690Y84217D01*
X204689Y84217D02*
X204689Y86899D01*
X204690Y86899D02*
X204692Y86964D01*
X204698Y87028D01*
X204708Y87092D01*
X204721Y87156D01*
X204739Y87218D01*
X204760Y87279D01*
X204784Y87339D01*
X204813Y87397D01*
X204845Y87454D01*
X204880Y87508D01*
X204918Y87560D01*
X204960Y87610D01*
X205004Y87657D01*
X205051Y87701D01*
X205101Y87743D01*
X205153Y87781D01*
X205207Y87816D01*
X205264Y87848D01*
X205322Y87877D01*
X205382Y87901D01*
X205443Y87922D01*
X205505Y87940D01*
X205569Y87953D01*
X205633Y87963D01*
X205697Y87969D01*
X205762Y87971D01*
X206834Y87971D01*
X210764Y87971D02*
X210832Y87969D01*
X210899Y87963D01*
X210966Y87954D01*
X211033Y87941D01*
X211098Y87924D01*
X211163Y87903D01*
X211226Y87879D01*
X211288Y87851D01*
X211348Y87820D01*
X211406Y87786D01*
X211462Y87748D01*
X211517Y87708D01*
X211568Y87664D01*
X211617Y87617D01*
X211664Y87568D01*
X211708Y87517D01*
X211748Y87462D01*
X211786Y87406D01*
X211820Y87348D01*
X211851Y87288D01*
X211879Y87226D01*
X211903Y87163D01*
X211924Y87098D01*
X211941Y87033D01*
X211954Y86966D01*
X211963Y86899D01*
X211969Y86832D01*
X211971Y86764D01*
X210764Y87971D02*
X210686Y87969D01*
X210608Y87963D01*
X210531Y87953D01*
X210454Y87940D01*
X210378Y87922D01*
X210303Y87901D01*
X210229Y87876D01*
X210157Y87847D01*
X210086Y87815D01*
X210017Y87779D01*
X209949Y87740D01*
X209884Y87697D01*
X209821Y87651D01*
X209760Y87602D01*
X209702Y87550D01*
X209647Y87495D01*
X209594Y87438D01*
X209545Y87378D01*
X209498Y87315D01*
X209455Y87251D01*
X209415Y87184D01*
X209378Y87115D01*
X209345Y87044D01*
X209315Y86972D01*
X209289Y86899D01*
X211569Y85826D02*
X211618Y85875D01*
X211665Y85927D01*
X211708Y85982D01*
X211749Y86039D01*
X211787Y86098D01*
X211821Y86159D01*
X211852Y86222D01*
X211880Y86286D01*
X211904Y86352D01*
X211924Y86418D01*
X211941Y86486D01*
X211954Y86555D01*
X211963Y86624D01*
X211969Y86694D01*
X211971Y86764D01*
X211569Y85826D02*
X209290Y83145D01*
X211971Y83145D01*
X100154Y74509D02*
X99082Y74509D01*
X99017Y74511D01*
X98953Y74517D01*
X98889Y74527D01*
X98825Y74540D01*
X98763Y74558D01*
X98702Y74579D01*
X98642Y74603D01*
X98584Y74632D01*
X98527Y74664D01*
X98473Y74699D01*
X98421Y74737D01*
X98371Y74779D01*
X98324Y74823D01*
X98280Y74870D01*
X98238Y74920D01*
X98200Y74972D01*
X98165Y75026D01*
X98133Y75083D01*
X98104Y75141D01*
X98080Y75201D01*
X98059Y75262D01*
X98041Y75324D01*
X98028Y75388D01*
X98018Y75452D01*
X98012Y75516D01*
X98010Y75581D01*
X98009Y75581D02*
X98009Y78263D01*
X98010Y78263D02*
X98012Y78328D01*
X98018Y78392D01*
X98028Y78456D01*
X98041Y78520D01*
X98059Y78582D01*
X98080Y78643D01*
X98104Y78703D01*
X98133Y78761D01*
X98165Y78818D01*
X98200Y78872D01*
X98238Y78924D01*
X98280Y78974D01*
X98324Y79021D01*
X98371Y79065D01*
X98421Y79107D01*
X98473Y79145D01*
X98527Y79180D01*
X98584Y79212D01*
X98642Y79241D01*
X98702Y79265D01*
X98763Y79286D01*
X98825Y79304D01*
X98889Y79317D01*
X98953Y79327D01*
X99017Y79333D01*
X99082Y79335D01*
X100154Y79335D01*
X102610Y74509D02*
X103950Y74509D01*
X104021Y74511D01*
X104093Y74517D01*
X104163Y74526D01*
X104233Y74539D01*
X104303Y74556D01*
X104371Y74577D01*
X104438Y74601D01*
X104504Y74629D01*
X104568Y74660D01*
X104631Y74695D01*
X104691Y74733D01*
X104750Y74774D01*
X104806Y74818D01*
X104860Y74865D01*
X104911Y74914D01*
X104959Y74967D01*
X105005Y75022D01*
X105047Y75079D01*
X105087Y75139D01*
X105123Y75200D01*
X105156Y75264D01*
X105185Y75329D01*
X105211Y75395D01*
X105234Y75463D01*
X105253Y75532D01*
X105268Y75602D01*
X105279Y75672D01*
X105287Y75743D01*
X105291Y75814D01*
X105291Y75886D01*
X105287Y75957D01*
X105279Y76028D01*
X105268Y76098D01*
X105253Y76168D01*
X105234Y76237D01*
X105211Y76305D01*
X105185Y76371D01*
X105156Y76436D01*
X105123Y76500D01*
X105087Y76561D01*
X105047Y76621D01*
X105005Y76678D01*
X104959Y76733D01*
X104911Y76786D01*
X104860Y76835D01*
X104806Y76882D01*
X104750Y76926D01*
X104691Y76967D01*
X104631Y77005D01*
X104568Y77040D01*
X104504Y77071D01*
X104438Y77099D01*
X104371Y77123D01*
X104303Y77144D01*
X104233Y77161D01*
X104163Y77174D01*
X104093Y77183D01*
X104021Y77189D01*
X103950Y77191D01*
X104218Y79335D02*
X102610Y79335D01*
X104218Y79335D02*
X104283Y79333D01*
X104347Y79327D01*
X104411Y79317D01*
X104475Y79304D01*
X104537Y79286D01*
X104598Y79265D01*
X104658Y79241D01*
X104716Y79212D01*
X104773Y79180D01*
X104827Y79145D01*
X104879Y79107D01*
X104929Y79065D01*
X104976Y79021D01*
X105020Y78974D01*
X105062Y78924D01*
X105100Y78872D01*
X105135Y78818D01*
X105167Y78761D01*
X105196Y78703D01*
X105220Y78643D01*
X105241Y78582D01*
X105259Y78520D01*
X105272Y78456D01*
X105282Y78392D01*
X105288Y78328D01*
X105290Y78263D01*
X105288Y78198D01*
X105282Y78134D01*
X105272Y78070D01*
X105259Y78006D01*
X105241Y77944D01*
X105220Y77883D01*
X105196Y77823D01*
X105167Y77765D01*
X105135Y77708D01*
X105100Y77654D01*
X105062Y77602D01*
X105020Y77552D01*
X104976Y77505D01*
X104929Y77461D01*
X104879Y77419D01*
X104827Y77381D01*
X104773Y77346D01*
X104716Y77314D01*
X104658Y77285D01*
X104598Y77261D01*
X104537Y77240D01*
X104475Y77222D01*
X104411Y77209D01*
X104347Y77199D01*
X104283Y77193D01*
X104218Y77191D01*
X104218Y77190D02*
X103146Y77190D01*
X101015Y46708D02*
X105841Y46708D01*
X101015Y46708D02*
X101015Y48049D01*
X101017Y48120D01*
X101023Y48192D01*
X101032Y48262D01*
X101045Y48332D01*
X101062Y48402D01*
X101083Y48470D01*
X101107Y48537D01*
X101135Y48603D01*
X101166Y48667D01*
X101201Y48730D01*
X101239Y48790D01*
X101280Y48849D01*
X101324Y48905D01*
X101371Y48959D01*
X101420Y49010D01*
X101473Y49058D01*
X101528Y49104D01*
X101585Y49146D01*
X101645Y49186D01*
X101706Y49222D01*
X101770Y49255D01*
X101835Y49284D01*
X101901Y49310D01*
X101969Y49333D01*
X102038Y49352D01*
X102108Y49367D01*
X102178Y49378D01*
X102249Y49386D01*
X102320Y49390D01*
X102392Y49390D01*
X102463Y49386D01*
X102534Y49378D01*
X102604Y49367D01*
X102674Y49352D01*
X102743Y49333D01*
X102811Y49310D01*
X102877Y49284D01*
X102942Y49255D01*
X103006Y49222D01*
X103067Y49186D01*
X103127Y49146D01*
X103184Y49104D01*
X103239Y49058D01*
X103292Y49010D01*
X103341Y48959D01*
X103388Y48905D01*
X103432Y48849D01*
X103473Y48790D01*
X103511Y48730D01*
X103546Y48667D01*
X103577Y48603D01*
X103605Y48537D01*
X103629Y48470D01*
X103650Y48402D01*
X103667Y48332D01*
X103680Y48262D01*
X103689Y48192D01*
X103695Y48120D01*
X103697Y48049D01*
X103696Y48049D02*
X103696Y46708D01*
X103696Y48317D02*
X105841Y49389D01*
X105841Y52131D02*
X105841Y53471D01*
X105839Y53542D01*
X105833Y53614D01*
X105824Y53684D01*
X105811Y53754D01*
X105794Y53824D01*
X105773Y53892D01*
X105749Y53959D01*
X105721Y54025D01*
X105690Y54089D01*
X105655Y54152D01*
X105617Y54212D01*
X105576Y54271D01*
X105532Y54327D01*
X105485Y54381D01*
X105436Y54432D01*
X105383Y54480D01*
X105328Y54526D01*
X105271Y54568D01*
X105211Y54608D01*
X105150Y54644D01*
X105086Y54677D01*
X105021Y54706D01*
X104955Y54732D01*
X104887Y54755D01*
X104818Y54774D01*
X104748Y54789D01*
X104678Y54800D01*
X104607Y54808D01*
X104536Y54812D01*
X104464Y54812D01*
X104393Y54808D01*
X104322Y54800D01*
X104252Y54789D01*
X104182Y54774D01*
X104113Y54755D01*
X104045Y54732D01*
X103979Y54706D01*
X103914Y54677D01*
X103850Y54644D01*
X103789Y54608D01*
X103729Y54568D01*
X103672Y54526D01*
X103617Y54480D01*
X103564Y54432D01*
X103515Y54381D01*
X103468Y54327D01*
X103424Y54271D01*
X103383Y54212D01*
X103345Y54152D01*
X103310Y54089D01*
X103279Y54025D01*
X103251Y53959D01*
X103227Y53892D01*
X103206Y53824D01*
X103189Y53754D01*
X103176Y53684D01*
X103167Y53614D01*
X103161Y53542D01*
X103159Y53471D01*
X101015Y53739D02*
X101015Y52131D01*
X101015Y53739D02*
X101017Y53804D01*
X101023Y53868D01*
X101033Y53932D01*
X101046Y53996D01*
X101064Y54058D01*
X101085Y54119D01*
X101109Y54179D01*
X101138Y54237D01*
X101170Y54294D01*
X101205Y54348D01*
X101243Y54400D01*
X101285Y54450D01*
X101329Y54497D01*
X101376Y54541D01*
X101426Y54583D01*
X101478Y54621D01*
X101532Y54656D01*
X101589Y54688D01*
X101647Y54717D01*
X101707Y54741D01*
X101768Y54762D01*
X101830Y54780D01*
X101894Y54793D01*
X101958Y54803D01*
X102022Y54809D01*
X102087Y54811D01*
X102152Y54809D01*
X102216Y54803D01*
X102280Y54793D01*
X102344Y54780D01*
X102406Y54762D01*
X102467Y54741D01*
X102527Y54717D01*
X102585Y54688D01*
X102642Y54656D01*
X102696Y54621D01*
X102748Y54583D01*
X102798Y54541D01*
X102845Y54497D01*
X102889Y54450D01*
X102931Y54400D01*
X102969Y54348D01*
X103004Y54294D01*
X103036Y54237D01*
X103065Y54179D01*
X103089Y54119D01*
X103110Y54058D01*
X103128Y53996D01*
X103141Y53932D01*
X103151Y53868D01*
X103157Y53804D01*
X103159Y53739D01*
X103160Y53739D02*
X103160Y52667D01*
D80*
X95300Y109180D03*
D81*
X98310Y101433D02*
X98310Y97623D01*
X98310Y101433D02*
X99368Y101433D01*
X99432Y101431D01*
X99496Y101425D01*
X99559Y101416D01*
X99621Y101402D01*
X99683Y101385D01*
X99743Y101364D01*
X99802Y101340D01*
X99860Y101312D01*
X99915Y101280D01*
X99969Y101246D01*
X100020Y101208D01*
X100070Y101167D01*
X100116Y101123D01*
X100160Y101077D01*
X100201Y101027D01*
X100239Y100976D01*
X100273Y100922D01*
X100305Y100867D01*
X100333Y100809D01*
X100357Y100750D01*
X100378Y100690D01*
X100395Y100628D01*
X100409Y100566D01*
X100418Y100503D01*
X100424Y100439D01*
X100426Y100375D01*
X100424Y100311D01*
X100418Y100247D01*
X100409Y100184D01*
X100395Y100122D01*
X100378Y100060D01*
X100357Y100000D01*
X100333Y99941D01*
X100305Y99883D01*
X100273Y99828D01*
X100239Y99774D01*
X100201Y99723D01*
X100160Y99673D01*
X100116Y99627D01*
X100070Y99583D01*
X100020Y99542D01*
X99969Y99504D01*
X99915Y99470D01*
X99860Y99438D01*
X99802Y99410D01*
X99743Y99386D01*
X99683Y99365D01*
X99621Y99348D01*
X99559Y99334D01*
X99496Y99325D01*
X99432Y99319D01*
X99368Y99317D01*
X99368Y99316D02*
X98310Y99316D01*
X99580Y99316D02*
X100426Y97623D01*
X101946Y97623D02*
X103216Y97623D01*
X103271Y97625D01*
X103327Y97630D01*
X103381Y97639D01*
X103435Y97652D01*
X103488Y97668D01*
X103540Y97687D01*
X103591Y97710D01*
X103640Y97736D01*
X103687Y97766D01*
X103732Y97798D01*
X103774Y97833D01*
X103815Y97871D01*
X103853Y97912D01*
X103888Y97954D01*
X103920Y97999D01*
X103950Y98047D01*
X103976Y98095D01*
X103999Y98146D01*
X104018Y98198D01*
X104034Y98251D01*
X104047Y98305D01*
X104056Y98359D01*
X104061Y98415D01*
X104063Y98470D01*
X104063Y98893D01*
X104061Y98948D01*
X104056Y99004D01*
X104047Y99058D01*
X104034Y99112D01*
X104018Y99165D01*
X103999Y99217D01*
X103976Y99268D01*
X103950Y99317D01*
X103920Y99364D01*
X103888Y99409D01*
X103853Y99451D01*
X103815Y99492D01*
X103774Y99530D01*
X103732Y99565D01*
X103687Y99597D01*
X103640Y99627D01*
X103591Y99653D01*
X103540Y99676D01*
X103488Y99695D01*
X103435Y99711D01*
X103381Y99724D01*
X103327Y99733D01*
X103271Y99738D01*
X103216Y99740D01*
X101946Y99740D01*
X101946Y101433D01*
X104063Y101433D01*
D78*
X168718Y130389D02*
X168718Y135215D01*
X170059Y135215D01*
X170130Y135213D01*
X170202Y135207D01*
X170272Y135198D01*
X170342Y135185D01*
X170412Y135168D01*
X170480Y135147D01*
X170547Y135123D01*
X170613Y135095D01*
X170677Y135064D01*
X170740Y135029D01*
X170800Y134991D01*
X170859Y134950D01*
X170915Y134906D01*
X170969Y134859D01*
X171020Y134810D01*
X171068Y134757D01*
X171114Y134702D01*
X171156Y134645D01*
X171196Y134585D01*
X171232Y134524D01*
X171265Y134460D01*
X171294Y134395D01*
X171320Y134329D01*
X171343Y134261D01*
X171362Y134192D01*
X171377Y134122D01*
X171388Y134052D01*
X171396Y133981D01*
X171400Y133910D01*
X171400Y133838D01*
X171396Y133767D01*
X171388Y133696D01*
X171377Y133626D01*
X171362Y133556D01*
X171343Y133487D01*
X171320Y133419D01*
X171294Y133353D01*
X171265Y133288D01*
X171232Y133224D01*
X171196Y133163D01*
X171156Y133103D01*
X171114Y133046D01*
X171068Y132991D01*
X171020Y132938D01*
X170969Y132889D01*
X170915Y132842D01*
X170859Y132798D01*
X170800Y132757D01*
X170740Y132719D01*
X170677Y132684D01*
X170613Y132653D01*
X170547Y132625D01*
X170480Y132601D01*
X170412Y132580D01*
X170342Y132563D01*
X170272Y132550D01*
X170202Y132541D01*
X170130Y132535D01*
X170059Y132533D01*
X170059Y132534D02*
X168718Y132534D01*
X170327Y132534D02*
X171399Y130389D01*
X174141Y133070D02*
X175749Y133070D01*
X175814Y133068D01*
X175878Y133062D01*
X175942Y133052D01*
X176006Y133039D01*
X176068Y133021D01*
X176129Y133000D01*
X176189Y132976D01*
X176247Y132947D01*
X176304Y132915D01*
X176358Y132880D01*
X176410Y132842D01*
X176460Y132800D01*
X176507Y132756D01*
X176551Y132709D01*
X176593Y132659D01*
X176631Y132607D01*
X176666Y132553D01*
X176698Y132496D01*
X176727Y132438D01*
X176751Y132378D01*
X176772Y132317D01*
X176790Y132255D01*
X176803Y132191D01*
X176813Y132127D01*
X176819Y132063D01*
X176821Y131998D01*
X176822Y131998D02*
X176822Y131730D01*
X176820Y131659D01*
X176814Y131587D01*
X176805Y131517D01*
X176792Y131447D01*
X176775Y131377D01*
X176754Y131309D01*
X176730Y131242D01*
X176702Y131176D01*
X176671Y131112D01*
X176636Y131049D01*
X176598Y130989D01*
X176557Y130930D01*
X176513Y130874D01*
X176466Y130820D01*
X176417Y130769D01*
X176364Y130721D01*
X176309Y130675D01*
X176252Y130633D01*
X176192Y130593D01*
X176131Y130557D01*
X176067Y130524D01*
X176002Y130495D01*
X175936Y130469D01*
X175868Y130446D01*
X175799Y130427D01*
X175729Y130412D01*
X175659Y130401D01*
X175588Y130393D01*
X175517Y130389D01*
X175445Y130389D01*
X175374Y130393D01*
X175303Y130401D01*
X175233Y130412D01*
X175163Y130427D01*
X175094Y130446D01*
X175026Y130469D01*
X174960Y130495D01*
X174895Y130524D01*
X174831Y130557D01*
X174770Y130593D01*
X174710Y130633D01*
X174653Y130675D01*
X174598Y130721D01*
X174545Y130769D01*
X174496Y130820D01*
X174449Y130874D01*
X174405Y130930D01*
X174364Y130989D01*
X174326Y131049D01*
X174291Y131112D01*
X174260Y131176D01*
X174232Y131242D01*
X174208Y131309D01*
X174187Y131377D01*
X174170Y131447D01*
X174157Y131517D01*
X174148Y131587D01*
X174142Y131659D01*
X174140Y131730D01*
X174141Y131730D02*
X174141Y133070D01*
X174143Y133161D01*
X174149Y133252D01*
X174158Y133342D01*
X174172Y133433D01*
X174189Y133522D01*
X174210Y133610D01*
X174235Y133698D01*
X174264Y133785D01*
X174296Y133870D01*
X174331Y133954D01*
X174371Y134036D01*
X174413Y134116D01*
X174459Y134195D01*
X174509Y134271D01*
X174561Y134345D01*
X174617Y134418D01*
X174676Y134487D01*
X174737Y134554D01*
X174802Y134619D01*
X174869Y134680D01*
X174938Y134739D01*
X175010Y134795D01*
X175085Y134847D01*
X175161Y134897D01*
X175240Y134943D01*
X175320Y134985D01*
X175402Y135025D01*
X175486Y135060D01*
X175571Y135092D01*
X175658Y135121D01*
X175745Y135146D01*
X175834Y135167D01*
X175923Y135184D01*
X176014Y135198D01*
X176104Y135207D01*
X176195Y135213D01*
X176286Y135215D01*
D11*
X168480Y22440D02*
X132420Y22440D01*
X132420Y69680D02*
X168480Y69680D01*
D82*
X139108Y64094D02*
X139110Y64169D01*
X139116Y64244D01*
X139126Y64319D01*
X139139Y64393D01*
X139157Y64466D01*
X139178Y64538D01*
X139203Y64609D01*
X139232Y64678D01*
X139265Y64746D01*
X139300Y64812D01*
X139340Y64876D01*
X139382Y64938D01*
X139428Y64998D01*
X139477Y65055D01*
X139529Y65109D01*
X139583Y65161D01*
X139640Y65210D01*
X139700Y65256D01*
X139762Y65298D01*
X139826Y65338D01*
X139892Y65373D01*
X139960Y65406D01*
X140029Y65435D01*
X140100Y65460D01*
X140172Y65481D01*
X140245Y65499D01*
X140319Y65512D01*
X140394Y65522D01*
X140469Y65528D01*
X140544Y65530D01*
X140619Y65528D01*
X140694Y65522D01*
X140769Y65512D01*
X140843Y65499D01*
X140916Y65481D01*
X140988Y65460D01*
X141059Y65435D01*
X141128Y65406D01*
X141196Y65373D01*
X141262Y65338D01*
X141326Y65298D01*
X141388Y65256D01*
X141448Y65210D01*
X141505Y65161D01*
X141559Y65109D01*
X141611Y65055D01*
X141660Y64998D01*
X141706Y64938D01*
X141748Y64876D01*
X141788Y64812D01*
X141823Y64746D01*
X141856Y64678D01*
X141885Y64609D01*
X141910Y64538D01*
X141931Y64466D01*
X141949Y64393D01*
X141962Y64319D01*
X141972Y64244D01*
X141978Y64169D01*
X141980Y64094D01*
X141978Y64019D01*
X141972Y63944D01*
X141962Y63869D01*
X141949Y63795D01*
X141931Y63722D01*
X141910Y63650D01*
X141885Y63579D01*
X141856Y63510D01*
X141823Y63442D01*
X141788Y63376D01*
X141748Y63312D01*
X141706Y63250D01*
X141660Y63190D01*
X141611Y63133D01*
X141559Y63079D01*
X141505Y63027D01*
X141448Y62978D01*
X141388Y62932D01*
X141326Y62890D01*
X141262Y62850D01*
X141196Y62815D01*
X141128Y62782D01*
X141059Y62753D01*
X140988Y62728D01*
X140916Y62707D01*
X140843Y62689D01*
X140769Y62676D01*
X140694Y62666D01*
X140619Y62660D01*
X140544Y62658D01*
X140469Y62660D01*
X140394Y62666D01*
X140319Y62676D01*
X140245Y62689D01*
X140172Y62707D01*
X140100Y62728D01*
X140029Y62753D01*
X139960Y62782D01*
X139892Y62815D01*
X139826Y62850D01*
X139762Y62890D01*
X139700Y62932D01*
X139640Y62978D01*
X139583Y63027D01*
X139529Y63079D01*
X139477Y63133D01*
X139428Y63190D01*
X139382Y63250D01*
X139340Y63312D01*
X139300Y63376D01*
X139265Y63442D01*
X139232Y63510D01*
X139203Y63579D01*
X139178Y63650D01*
X139157Y63722D01*
X139139Y63795D01*
X139126Y63869D01*
X139116Y63944D01*
X139110Y64019D01*
X139108Y64094D01*
D81*
X150577Y49567D02*
X153329Y49567D01*
X153393Y49569D01*
X153457Y49575D01*
X153520Y49584D01*
X153582Y49598D01*
X153644Y49615D01*
X153704Y49636D01*
X153763Y49660D01*
X153821Y49688D01*
X153876Y49720D01*
X153930Y49754D01*
X153981Y49792D01*
X154031Y49833D01*
X154077Y49877D01*
X154121Y49923D01*
X154162Y49973D01*
X154200Y50024D01*
X154234Y50078D01*
X154266Y50133D01*
X154294Y50191D01*
X154318Y50250D01*
X154339Y50310D01*
X154356Y50372D01*
X154370Y50434D01*
X154379Y50497D01*
X154385Y50561D01*
X154387Y50625D01*
X154385Y50689D01*
X154379Y50753D01*
X154370Y50816D01*
X154356Y50878D01*
X154339Y50940D01*
X154318Y51000D01*
X154294Y51059D01*
X154266Y51117D01*
X154234Y51172D01*
X154200Y51226D01*
X154162Y51277D01*
X154121Y51327D01*
X154077Y51373D01*
X154031Y51417D01*
X153981Y51458D01*
X153930Y51496D01*
X153876Y51530D01*
X153821Y51562D01*
X153763Y51590D01*
X153704Y51614D01*
X153644Y51635D01*
X153582Y51652D01*
X153520Y51666D01*
X153457Y51675D01*
X153393Y51681D01*
X153329Y51683D01*
X153329Y51684D02*
X150577Y51684D01*
X150577Y54161D02*
X154387Y54161D01*
X152482Y54161D02*
X152165Y53632D01*
X152164Y53632D02*
X152137Y53591D01*
X152107Y53552D01*
X152074Y53515D01*
X152038Y53481D01*
X151999Y53450D01*
X151959Y53422D01*
X151916Y53398D01*
X151871Y53376D01*
X151825Y53359D01*
X151778Y53345D01*
X151730Y53334D01*
X151681Y53328D01*
X151632Y53325D01*
X151582Y53326D01*
X151533Y53331D01*
X151485Y53340D01*
X151437Y53353D01*
X151390Y53369D01*
X151345Y53389D01*
X151302Y53412D01*
X151260Y53439D01*
X151221Y53469D01*
X151184Y53501D01*
X151150Y53537D01*
X151119Y53575D01*
X151090Y53615D01*
X151065Y53658D01*
X151044Y53702D01*
X151026Y53748D01*
X151011Y53795D01*
X151000Y53843D01*
X151000Y53844D02*
X150988Y53923D01*
X150979Y54003D01*
X150974Y54084D01*
X150973Y54164D01*
X150976Y54245D01*
X150983Y54325D01*
X150993Y54405D01*
X151008Y54485D01*
X151026Y54563D01*
X151048Y54641D01*
X151074Y54717D01*
X151103Y54792D01*
X151136Y54866D01*
X151172Y54938D01*
X151212Y55008D01*
X152482Y54161D02*
X152800Y54690D01*
X152827Y54731D01*
X152857Y54770D01*
X152890Y54807D01*
X152926Y54841D01*
X152965Y54872D01*
X153005Y54900D01*
X153048Y54924D01*
X153093Y54946D01*
X153139Y54963D01*
X153186Y54977D01*
X153234Y54988D01*
X153283Y54994D01*
X153332Y54997D01*
X153382Y54996D01*
X153431Y54991D01*
X153479Y54982D01*
X153527Y54969D01*
X153574Y54953D01*
X153619Y54933D01*
X153662Y54910D01*
X153704Y54883D01*
X153743Y54853D01*
X153780Y54821D01*
X153814Y54785D01*
X153845Y54747D01*
X153874Y54707D01*
X153899Y54664D01*
X153920Y54620D01*
X153938Y54574D01*
X153953Y54527D01*
X153964Y54479D01*
X153964Y54478D02*
X153976Y54399D01*
X153985Y54319D01*
X153990Y54238D01*
X153991Y54158D01*
X153988Y54077D01*
X153981Y53997D01*
X153971Y53917D01*
X153956Y53837D01*
X153938Y53759D01*
X153916Y53681D01*
X153890Y53605D01*
X153861Y53530D01*
X153828Y53456D01*
X153792Y53384D01*
X153752Y53314D01*
X151424Y56516D02*
X150577Y57575D01*
X154387Y57575D01*
X154387Y58633D02*
X154387Y56516D01*
D11*
X147850Y123400D02*
X131650Y123400D01*
X131650Y94960D02*
X147850Y94960D01*
X147850Y103960D02*
X147850Y104900D01*
X147850Y113460D02*
X147850Y114400D01*
X147850Y95900D02*
X147850Y94960D01*
X147850Y122460D02*
X147850Y123400D01*
X131650Y123400D02*
X131650Y122460D01*
X131650Y95900D02*
X131650Y94960D01*
X131650Y113460D02*
X131650Y114400D01*
X131650Y104900D02*
X131650Y103960D01*
X143250Y99180D02*
X143252Y99243D01*
X143258Y99305D01*
X143268Y99367D01*
X143281Y99429D01*
X143299Y99489D01*
X143320Y99548D01*
X143345Y99606D01*
X143374Y99662D01*
X143406Y99716D01*
X143441Y99768D01*
X143479Y99817D01*
X143521Y99865D01*
X143565Y99909D01*
X143613Y99951D01*
X143662Y99989D01*
X143714Y100024D01*
X143768Y100056D01*
X143824Y100085D01*
X143882Y100110D01*
X143941Y100131D01*
X144001Y100149D01*
X144063Y100162D01*
X144125Y100172D01*
X144187Y100178D01*
X144250Y100180D01*
X144313Y100178D01*
X144375Y100172D01*
X144437Y100162D01*
X144499Y100149D01*
X144559Y100131D01*
X144618Y100110D01*
X144676Y100085D01*
X144732Y100056D01*
X144786Y100024D01*
X144838Y99989D01*
X144887Y99951D01*
X144935Y99909D01*
X144979Y99865D01*
X145021Y99817D01*
X145059Y99768D01*
X145094Y99716D01*
X145126Y99662D01*
X145155Y99606D01*
X145180Y99548D01*
X145201Y99489D01*
X145219Y99429D01*
X145232Y99367D01*
X145242Y99305D01*
X145248Y99243D01*
X145250Y99180D01*
X145248Y99117D01*
X145242Y99055D01*
X145232Y98993D01*
X145219Y98931D01*
X145201Y98871D01*
X145180Y98812D01*
X145155Y98754D01*
X145126Y98698D01*
X145094Y98644D01*
X145059Y98592D01*
X145021Y98543D01*
X144979Y98495D01*
X144935Y98451D01*
X144887Y98409D01*
X144838Y98371D01*
X144786Y98336D01*
X144732Y98304D01*
X144676Y98275D01*
X144618Y98250D01*
X144559Y98229D01*
X144499Y98211D01*
X144437Y98198D01*
X144375Y98188D01*
X144313Y98182D01*
X144250Y98180D01*
X144187Y98182D01*
X144125Y98188D01*
X144063Y98198D01*
X144001Y98211D01*
X143941Y98229D01*
X143882Y98250D01*
X143824Y98275D01*
X143768Y98304D01*
X143714Y98336D01*
X143662Y98371D01*
X143613Y98409D01*
X143565Y98451D01*
X143521Y98495D01*
X143479Y98543D01*
X143441Y98592D01*
X143406Y98644D01*
X143374Y98698D01*
X143345Y98754D01*
X143320Y98812D01*
X143299Y98871D01*
X143281Y98931D01*
X143268Y98993D01*
X143258Y99055D01*
X143252Y99117D01*
X143250Y99180D01*
D81*
X143179Y105497D02*
X145197Y105497D01*
X145252Y105499D01*
X145307Y105505D01*
X145362Y105515D01*
X145416Y105528D01*
X145468Y105546D01*
X145519Y105567D01*
X145569Y105592D01*
X145617Y105620D01*
X145662Y105652D01*
X145705Y105687D01*
X145746Y105724D01*
X145783Y105765D01*
X145818Y105808D01*
X145850Y105853D01*
X145878Y105901D01*
X145903Y105951D01*
X145924Y106002D01*
X145942Y106054D01*
X145955Y106108D01*
X145965Y106163D01*
X145971Y106218D01*
X145973Y106273D01*
X145971Y106328D01*
X145965Y106383D01*
X145955Y106438D01*
X145942Y106492D01*
X145924Y106544D01*
X145903Y106595D01*
X145878Y106645D01*
X145850Y106693D01*
X145818Y106738D01*
X145783Y106781D01*
X145746Y106822D01*
X145705Y106859D01*
X145662Y106894D01*
X145617Y106926D01*
X145569Y106954D01*
X145519Y106979D01*
X145468Y107000D01*
X145416Y107018D01*
X145362Y107031D01*
X145307Y107041D01*
X145252Y107047D01*
X145197Y107049D01*
X143179Y107049D01*
X143179Y108925D02*
X145973Y108925D01*
X144576Y108925D02*
X144343Y108537D01*
X144344Y108536D02*
X144321Y108502D01*
X144295Y108469D01*
X144266Y108439D01*
X144235Y108412D01*
X144201Y108387D01*
X144165Y108366D01*
X144128Y108348D01*
X144089Y108334D01*
X144049Y108323D01*
X144008Y108315D01*
X143967Y108311D01*
X143925Y108311D01*
X143884Y108315D01*
X143843Y108323D01*
X143803Y108334D01*
X143764Y108348D01*
X143726Y108366D01*
X143690Y108388D01*
X143657Y108412D01*
X143625Y108439D01*
X143597Y108470D01*
X143571Y108502D01*
X143548Y108537D01*
X143528Y108573D01*
X143512Y108612D01*
X143499Y108651D01*
X143490Y108692D01*
X143489Y108692D02*
X143479Y108759D01*
X143472Y108827D01*
X143469Y108895D01*
X143470Y108964D01*
X143475Y109032D01*
X143483Y109099D01*
X143495Y109167D01*
X143511Y109233D01*
X143531Y109298D01*
X143554Y109362D01*
X143581Y109425D01*
X143611Y109486D01*
X143644Y109546D01*
X144576Y108925D02*
X144809Y109313D01*
X144808Y109313D02*
X144831Y109347D01*
X144857Y109380D01*
X144886Y109410D01*
X144917Y109437D01*
X144951Y109462D01*
X144987Y109483D01*
X145024Y109501D01*
X145063Y109515D01*
X145103Y109526D01*
X145144Y109534D01*
X145185Y109538D01*
X145227Y109538D01*
X145268Y109534D01*
X145309Y109526D01*
X145349Y109515D01*
X145388Y109501D01*
X145426Y109483D01*
X145462Y109461D01*
X145495Y109437D01*
X145527Y109410D01*
X145555Y109379D01*
X145581Y109347D01*
X145604Y109312D01*
X145624Y109276D01*
X145640Y109237D01*
X145653Y109198D01*
X145662Y109157D01*
X145663Y109158D02*
X145673Y109091D01*
X145680Y109023D01*
X145683Y108955D01*
X145682Y108886D01*
X145677Y108818D01*
X145669Y108751D01*
X145657Y108684D01*
X145641Y108617D01*
X145621Y108552D01*
X145598Y108488D01*
X145571Y108425D01*
X145541Y108364D01*
X145508Y108304D01*
X145973Y110709D02*
X145973Y111485D01*
X145971Y111540D01*
X145965Y111595D01*
X145955Y111650D01*
X145942Y111704D01*
X145924Y111756D01*
X145903Y111807D01*
X145878Y111857D01*
X145850Y111905D01*
X145818Y111950D01*
X145783Y111993D01*
X145746Y112034D01*
X145705Y112071D01*
X145662Y112106D01*
X145617Y112138D01*
X145569Y112166D01*
X145519Y112191D01*
X145468Y112212D01*
X145416Y112230D01*
X145362Y112243D01*
X145307Y112253D01*
X145252Y112259D01*
X145197Y112261D01*
X145142Y112259D01*
X145087Y112253D01*
X145032Y112243D01*
X144978Y112230D01*
X144926Y112212D01*
X144875Y112191D01*
X144825Y112166D01*
X144777Y112138D01*
X144732Y112106D01*
X144689Y112071D01*
X144648Y112034D01*
X144611Y111993D01*
X144576Y111950D01*
X144544Y111905D01*
X144516Y111857D01*
X144491Y111807D01*
X144470Y111756D01*
X144452Y111704D01*
X144439Y111650D01*
X144429Y111595D01*
X144423Y111540D01*
X144421Y111485D01*
X143179Y111640D02*
X143179Y110709D01*
X143179Y111640D02*
X143181Y111689D01*
X143187Y111737D01*
X143196Y111785D01*
X143209Y111832D01*
X143226Y111878D01*
X143247Y111922D01*
X143271Y111964D01*
X143298Y112005D01*
X143328Y112043D01*
X143361Y112079D01*
X143397Y112112D01*
X143435Y112142D01*
X143476Y112169D01*
X143518Y112193D01*
X143562Y112214D01*
X143608Y112231D01*
X143655Y112244D01*
X143703Y112253D01*
X143751Y112259D01*
X143800Y112261D01*
X143849Y112259D01*
X143897Y112253D01*
X143945Y112244D01*
X143992Y112231D01*
X144038Y112214D01*
X144082Y112193D01*
X144124Y112169D01*
X144165Y112142D01*
X144203Y112112D01*
X144239Y112079D01*
X144272Y112043D01*
X144302Y112005D01*
X144329Y111964D01*
X144353Y111922D01*
X144374Y111878D01*
X144391Y111832D01*
X144404Y111785D01*
X144413Y111737D01*
X144419Y111689D01*
X144421Y111640D01*
X144421Y111020D01*
D82*
X183020Y95180D02*
X226020Y95180D01*
X226020Y123180D01*
X183020Y123180D01*
X183020Y95180D01*
D83*
X188270Y115680D03*
D84*
X195844Y117076D02*
X195844Y121112D01*
X195844Y117076D02*
X195846Y116999D01*
X195852Y116921D01*
X195861Y116845D01*
X195875Y116768D01*
X195892Y116693D01*
X195913Y116619D01*
X195938Y116545D01*
X195966Y116473D01*
X195998Y116403D01*
X196033Y116334D01*
X196072Y116267D01*
X196114Y116202D01*
X196159Y116139D01*
X196207Y116078D01*
X196258Y116020D01*
X196312Y115965D01*
X196369Y115912D01*
X196428Y115863D01*
X196490Y115816D01*
X196554Y115772D01*
X196620Y115732D01*
X196688Y115695D01*
X196758Y115661D01*
X196829Y115631D01*
X196902Y115605D01*
X196976Y115582D01*
X197051Y115563D01*
X197126Y115548D01*
X197203Y115536D01*
X197280Y115528D01*
X197357Y115524D01*
X197435Y115524D01*
X197512Y115528D01*
X197589Y115536D01*
X197666Y115548D01*
X197741Y115563D01*
X197816Y115582D01*
X197890Y115605D01*
X197963Y115631D01*
X198034Y115661D01*
X198104Y115695D01*
X198172Y115732D01*
X198238Y115772D01*
X198302Y115816D01*
X198364Y115863D01*
X198423Y115912D01*
X198480Y115965D01*
X198534Y116020D01*
X198585Y116078D01*
X198633Y116139D01*
X198678Y116202D01*
X198720Y116267D01*
X198759Y116334D01*
X198794Y116403D01*
X198826Y116473D01*
X198854Y116545D01*
X198879Y116619D01*
X198900Y116693D01*
X198917Y116768D01*
X198931Y116845D01*
X198940Y116921D01*
X198946Y116999D01*
X198948Y117076D01*
X198948Y121112D01*
X202700Y121112D02*
X202700Y115524D01*
X202700Y118318D02*
X201924Y118784D01*
X201873Y118817D01*
X201824Y118853D01*
X201778Y118892D01*
X201735Y118935D01*
X201694Y118979D01*
X201656Y119027D01*
X201622Y119077D01*
X201591Y119129D01*
X201563Y119183D01*
X201539Y119238D01*
X201518Y119296D01*
X201502Y119354D01*
X201489Y119413D01*
X201480Y119473D01*
X201475Y119533D01*
X201474Y119594D01*
X201477Y119655D01*
X201484Y119715D01*
X201495Y119775D01*
X201510Y119833D01*
X201528Y119891D01*
X201550Y119948D01*
X201576Y120002D01*
X201606Y120055D01*
X201639Y120106D01*
X201675Y120155D01*
X201714Y120201D01*
X201756Y120245D01*
X201801Y120286D01*
X201848Y120323D01*
X201898Y120358D01*
X201950Y120389D01*
X202004Y120417D01*
X202060Y120441D01*
X202117Y120461D01*
X202175Y120478D01*
X202234Y120491D01*
X202331Y120507D01*
X202429Y120519D01*
X202527Y120526D01*
X202626Y120530D01*
X202724Y120531D01*
X202823Y120527D01*
X202921Y120519D01*
X203019Y120507D01*
X203116Y120491D01*
X203212Y120472D01*
X203308Y120448D01*
X203403Y120421D01*
X203496Y120390D01*
X203588Y120355D01*
X203679Y120317D01*
X203768Y120275D01*
X203856Y120230D01*
X203941Y120181D01*
X202700Y118318D02*
X203476Y117852D01*
X203527Y117819D01*
X203576Y117783D01*
X203622Y117744D01*
X203665Y117701D01*
X203706Y117657D01*
X203744Y117609D01*
X203778Y117559D01*
X203809Y117507D01*
X203837Y117453D01*
X203861Y117398D01*
X203882Y117340D01*
X203898Y117282D01*
X203911Y117223D01*
X203920Y117163D01*
X203925Y117103D01*
X203926Y117042D01*
X203923Y116981D01*
X203916Y116921D01*
X203905Y116861D01*
X203890Y116803D01*
X203872Y116745D01*
X203850Y116688D01*
X203824Y116634D01*
X203794Y116581D01*
X203761Y116530D01*
X203725Y116481D01*
X203686Y116435D01*
X203644Y116391D01*
X203599Y116350D01*
X203552Y116313D01*
X203502Y116278D01*
X203450Y116247D01*
X203396Y116219D01*
X203340Y116195D01*
X203283Y116175D01*
X203225Y116158D01*
X203166Y116145D01*
X203165Y116145D02*
X203068Y116129D01*
X202970Y116117D01*
X202872Y116110D01*
X202773Y116106D01*
X202675Y116105D01*
X202576Y116109D01*
X202478Y116117D01*
X202380Y116129D01*
X202283Y116145D01*
X202187Y116164D01*
X202091Y116188D01*
X201996Y116215D01*
X201903Y116246D01*
X201811Y116281D01*
X201720Y116319D01*
X201631Y116361D01*
X201543Y116406D01*
X201458Y116455D01*
X206268Y116766D02*
X207510Y121112D01*
X206268Y116766D02*
X209373Y116766D01*
X208441Y118008D02*
X208441Y115524D01*
D82*
X617270Y260310D02*
X617270Y273010D01*
X623620Y279360D01*
X636320Y279360D02*
X642670Y273010D01*
X617270Y234910D02*
X623620Y228560D01*
X617270Y234910D02*
X617270Y247610D01*
X623620Y253960D01*
X636320Y253960D02*
X642670Y247610D01*
X642670Y234910D01*
X636320Y228560D01*
X623620Y253960D02*
X617270Y260310D01*
X636320Y253960D02*
X642670Y260310D01*
X642670Y273010D01*
X617270Y196810D02*
X617270Y184110D01*
X617270Y196810D02*
X623620Y203160D01*
X636320Y203160D02*
X642670Y196810D01*
X623620Y203160D02*
X617270Y209510D01*
X617270Y222210D01*
X623620Y228560D01*
X636320Y228560D02*
X642670Y222210D01*
X642670Y209510D01*
X636320Y203160D01*
X617270Y158710D02*
X623620Y152360D01*
X617270Y158710D02*
X617270Y171410D01*
X623620Y177760D01*
X636320Y177760D02*
X642670Y171410D01*
X642670Y158710D01*
X636320Y152360D01*
X623620Y177760D02*
X617270Y184110D01*
X636320Y177760D02*
X642670Y184110D01*
X642670Y196810D01*
X617270Y120610D02*
X617270Y107910D01*
X617270Y120610D02*
X623620Y126960D01*
X636320Y126960D02*
X642670Y120610D01*
X623620Y126960D02*
X617270Y133310D01*
X617270Y146010D01*
X623620Y152360D01*
X636320Y152360D02*
X642670Y146010D01*
X642670Y133310D01*
X636320Y126960D01*
X636320Y101560D02*
X623620Y101560D01*
X617270Y107910D01*
X636320Y101560D02*
X642670Y107910D01*
X642670Y120610D01*
X617270Y438110D02*
X617270Y450810D01*
X623620Y457160D01*
X636320Y457160D02*
X642670Y450810D01*
X617270Y412710D02*
X623620Y406360D01*
X617270Y412710D02*
X617270Y425410D01*
X623620Y431760D01*
X636320Y431760D02*
X642670Y425410D01*
X642670Y412710D01*
X636320Y406360D01*
X623620Y431760D02*
X617270Y438110D01*
X636320Y431760D02*
X642670Y438110D01*
X642670Y450810D01*
X617270Y374610D02*
X617270Y361910D01*
X617270Y374610D02*
X623620Y380960D01*
X636320Y380960D02*
X642670Y374610D01*
X623620Y380960D02*
X617270Y387310D01*
X617270Y400010D01*
X623620Y406360D01*
X636320Y406360D02*
X642670Y400010D01*
X642670Y387310D01*
X636320Y380960D01*
X617270Y336510D02*
X623620Y330160D01*
X617270Y336510D02*
X617270Y349210D01*
X623620Y355560D01*
X636320Y355560D02*
X642670Y349210D01*
X642670Y336510D01*
X636320Y330160D01*
X623620Y355560D02*
X617270Y361910D01*
X636320Y355560D02*
X642670Y361910D01*
X642670Y374610D01*
X617270Y298410D02*
X617270Y285710D01*
X617270Y298410D02*
X623620Y304760D01*
X636320Y304760D02*
X642670Y298410D01*
X623620Y304760D02*
X617270Y311110D01*
X617270Y323810D01*
X623620Y330160D01*
X636320Y330160D02*
X642670Y323810D01*
X642670Y311110D01*
X636320Y304760D01*
X617270Y285710D02*
X623620Y279360D01*
X636320Y279360D02*
X642670Y285710D01*
X642670Y298410D01*
X636320Y457160D02*
X623620Y457160D01*
D78*
X614293Y103804D02*
X610539Y103804D01*
X614293Y103803D02*
X614358Y103801D01*
X614422Y103795D01*
X614486Y103785D01*
X614550Y103772D01*
X614612Y103754D01*
X614673Y103733D01*
X614733Y103709D01*
X614791Y103680D01*
X614848Y103648D01*
X614902Y103613D01*
X614954Y103575D01*
X615004Y103533D01*
X615051Y103489D01*
X615095Y103442D01*
X615137Y103392D01*
X615175Y103340D01*
X615210Y103286D01*
X615242Y103229D01*
X615271Y103171D01*
X615295Y103111D01*
X615316Y103050D01*
X615334Y102988D01*
X615347Y102924D01*
X615357Y102860D01*
X615363Y102796D01*
X615365Y102731D01*
X615365Y102195D01*
X611611Y106752D02*
X610539Y108092D01*
X615365Y108092D01*
X615365Y106752D02*
X615365Y109433D01*
X27748Y95845D02*
X27748Y91019D01*
X27748Y95845D02*
X29089Y95845D01*
X29160Y95843D01*
X29232Y95837D01*
X29302Y95828D01*
X29372Y95815D01*
X29442Y95798D01*
X29510Y95777D01*
X29577Y95753D01*
X29643Y95725D01*
X29707Y95694D01*
X29770Y95659D01*
X29830Y95621D01*
X29889Y95580D01*
X29945Y95536D01*
X29999Y95489D01*
X30050Y95440D01*
X30098Y95387D01*
X30144Y95332D01*
X30186Y95275D01*
X30226Y95215D01*
X30262Y95154D01*
X30295Y95090D01*
X30324Y95025D01*
X30350Y94959D01*
X30373Y94891D01*
X30392Y94822D01*
X30407Y94752D01*
X30418Y94682D01*
X30426Y94611D01*
X30430Y94540D01*
X30430Y94468D01*
X30426Y94397D01*
X30418Y94326D01*
X30407Y94256D01*
X30392Y94186D01*
X30373Y94117D01*
X30350Y94049D01*
X30324Y93983D01*
X30295Y93918D01*
X30262Y93854D01*
X30226Y93793D01*
X30186Y93733D01*
X30144Y93676D01*
X30098Y93621D01*
X30050Y93568D01*
X29999Y93519D01*
X29945Y93472D01*
X29889Y93428D01*
X29830Y93387D01*
X29770Y93349D01*
X29707Y93314D01*
X29643Y93283D01*
X29577Y93255D01*
X29510Y93231D01*
X29442Y93210D01*
X29372Y93193D01*
X29302Y93180D01*
X29232Y93171D01*
X29160Y93165D01*
X29089Y93163D01*
X29089Y93164D02*
X27748Y93164D01*
X29357Y93164D02*
X30429Y91019D01*
X33171Y94773D02*
X34511Y95845D01*
X34511Y91019D01*
X33171Y91019D02*
X35852Y91019D01*
X56819Y484858D02*
X61645Y484858D01*
X56819Y484858D02*
X56819Y486199D01*
X56821Y486270D01*
X56827Y486342D01*
X56836Y486412D01*
X56849Y486482D01*
X56866Y486552D01*
X56887Y486620D01*
X56911Y486687D01*
X56939Y486753D01*
X56970Y486817D01*
X57005Y486880D01*
X57043Y486940D01*
X57084Y486999D01*
X57128Y487055D01*
X57175Y487109D01*
X57224Y487160D01*
X57277Y487208D01*
X57332Y487254D01*
X57389Y487296D01*
X57449Y487336D01*
X57510Y487372D01*
X57574Y487405D01*
X57639Y487434D01*
X57705Y487460D01*
X57773Y487483D01*
X57842Y487502D01*
X57912Y487517D01*
X57982Y487528D01*
X58053Y487536D01*
X58124Y487540D01*
X58196Y487540D01*
X58267Y487536D01*
X58338Y487528D01*
X58408Y487517D01*
X58478Y487502D01*
X58547Y487483D01*
X58615Y487460D01*
X58681Y487434D01*
X58746Y487405D01*
X58810Y487372D01*
X58871Y487336D01*
X58931Y487296D01*
X58988Y487254D01*
X59043Y487208D01*
X59096Y487160D01*
X59145Y487109D01*
X59192Y487055D01*
X59236Y486999D01*
X59277Y486940D01*
X59315Y486880D01*
X59350Y486817D01*
X59381Y486753D01*
X59409Y486687D01*
X59433Y486620D01*
X59454Y486552D01*
X59471Y486482D01*
X59484Y486412D01*
X59493Y486342D01*
X59499Y486270D01*
X59501Y486199D01*
X59500Y486199D02*
X59500Y484858D01*
X59500Y486467D02*
X61645Y487539D01*
X56819Y491755D02*
X56821Y491823D01*
X56827Y491890D01*
X56836Y491957D01*
X56849Y492024D01*
X56866Y492089D01*
X56887Y492154D01*
X56911Y492217D01*
X56939Y492279D01*
X56970Y492339D01*
X57004Y492397D01*
X57042Y492453D01*
X57082Y492508D01*
X57126Y492559D01*
X57173Y492608D01*
X57222Y492655D01*
X57273Y492699D01*
X57328Y492739D01*
X57384Y492777D01*
X57442Y492811D01*
X57502Y492842D01*
X57564Y492870D01*
X57627Y492894D01*
X57692Y492915D01*
X57757Y492932D01*
X57824Y492945D01*
X57891Y492954D01*
X57958Y492960D01*
X58026Y492962D01*
X56819Y491755D02*
X56821Y491677D01*
X56827Y491599D01*
X56837Y491522D01*
X56850Y491445D01*
X56868Y491369D01*
X56889Y491294D01*
X56914Y491220D01*
X56943Y491148D01*
X56975Y491077D01*
X57011Y491008D01*
X57050Y490940D01*
X57093Y490875D01*
X57139Y490812D01*
X57188Y490751D01*
X57240Y490693D01*
X57295Y490638D01*
X57352Y490585D01*
X57412Y490536D01*
X57475Y490489D01*
X57540Y490446D01*
X57606Y490406D01*
X57675Y490369D01*
X57746Y490336D01*
X57818Y490306D01*
X57892Y490280D01*
X58964Y492560D02*
X58915Y492609D01*
X58863Y492656D01*
X58808Y492699D01*
X58751Y492740D01*
X58692Y492778D01*
X58631Y492812D01*
X58568Y492843D01*
X58504Y492871D01*
X58438Y492895D01*
X58372Y492915D01*
X58304Y492932D01*
X58235Y492945D01*
X58166Y492954D01*
X58096Y492960D01*
X58026Y492962D01*
X58964Y492560D02*
X61645Y490281D01*
X61645Y492962D01*
X253808Y248245D02*
X253808Y243419D01*
X253808Y248245D02*
X255149Y248245D01*
X255220Y248243D01*
X255292Y248237D01*
X255362Y248228D01*
X255432Y248215D01*
X255502Y248198D01*
X255570Y248177D01*
X255637Y248153D01*
X255703Y248125D01*
X255767Y248094D01*
X255830Y248059D01*
X255890Y248021D01*
X255949Y247980D01*
X256005Y247936D01*
X256059Y247889D01*
X256110Y247840D01*
X256158Y247787D01*
X256204Y247732D01*
X256246Y247675D01*
X256286Y247615D01*
X256322Y247554D01*
X256355Y247490D01*
X256384Y247425D01*
X256410Y247359D01*
X256433Y247291D01*
X256452Y247222D01*
X256467Y247152D01*
X256478Y247082D01*
X256486Y247011D01*
X256490Y246940D01*
X256490Y246868D01*
X256486Y246797D01*
X256478Y246726D01*
X256467Y246656D01*
X256452Y246586D01*
X256433Y246517D01*
X256410Y246449D01*
X256384Y246383D01*
X256355Y246318D01*
X256322Y246254D01*
X256286Y246193D01*
X256246Y246133D01*
X256204Y246076D01*
X256158Y246021D01*
X256110Y245968D01*
X256059Y245919D01*
X256005Y245872D01*
X255949Y245828D01*
X255890Y245787D01*
X255830Y245749D01*
X255767Y245714D01*
X255703Y245683D01*
X255637Y245655D01*
X255570Y245631D01*
X255502Y245610D01*
X255432Y245593D01*
X255362Y245580D01*
X255292Y245571D01*
X255220Y245565D01*
X255149Y245563D01*
X255149Y245564D02*
X253808Y245564D01*
X255417Y245564D02*
X256489Y243419D01*
X259231Y244491D02*
X260303Y248245D01*
X259231Y244491D02*
X261912Y244491D01*
X261108Y245564D02*
X261108Y243419D01*
X261428Y261199D02*
X261428Y266025D01*
X262769Y266025D01*
X262840Y266023D01*
X262912Y266017D01*
X262982Y266008D01*
X263052Y265995D01*
X263122Y265978D01*
X263190Y265957D01*
X263257Y265933D01*
X263323Y265905D01*
X263387Y265874D01*
X263450Y265839D01*
X263510Y265801D01*
X263569Y265760D01*
X263625Y265716D01*
X263679Y265669D01*
X263730Y265620D01*
X263778Y265567D01*
X263824Y265512D01*
X263866Y265455D01*
X263906Y265395D01*
X263942Y265334D01*
X263975Y265270D01*
X264004Y265205D01*
X264030Y265139D01*
X264053Y265071D01*
X264072Y265002D01*
X264087Y264932D01*
X264098Y264862D01*
X264106Y264791D01*
X264110Y264720D01*
X264110Y264648D01*
X264106Y264577D01*
X264098Y264506D01*
X264087Y264436D01*
X264072Y264366D01*
X264053Y264297D01*
X264030Y264229D01*
X264004Y264163D01*
X263975Y264098D01*
X263942Y264034D01*
X263906Y263973D01*
X263866Y263913D01*
X263824Y263856D01*
X263778Y263801D01*
X263730Y263748D01*
X263679Y263699D01*
X263625Y263652D01*
X263569Y263608D01*
X263510Y263567D01*
X263450Y263529D01*
X263387Y263494D01*
X263323Y263463D01*
X263257Y263435D01*
X263190Y263411D01*
X263122Y263390D01*
X263052Y263373D01*
X262982Y263360D01*
X262912Y263351D01*
X262840Y263345D01*
X262769Y263343D01*
X262769Y263344D02*
X261428Y263344D01*
X263037Y263344D02*
X264109Y261199D01*
X266851Y265489D02*
X266851Y266025D01*
X269532Y266025D01*
X268191Y261199D01*
D82*
X147400Y478100D02*
X141400Y478100D01*
X147400Y478100D02*
X147400Y486100D01*
X125400Y478100D02*
X119400Y478100D01*
X119400Y486100D01*
D78*
X151886Y481213D02*
X154030Y481213D01*
X151886Y481213D02*
X151815Y481215D01*
X151743Y481221D01*
X151673Y481230D01*
X151603Y481243D01*
X151533Y481260D01*
X151465Y481281D01*
X151398Y481305D01*
X151332Y481333D01*
X151268Y481364D01*
X151205Y481399D01*
X151145Y481437D01*
X151086Y481478D01*
X151030Y481522D01*
X150976Y481569D01*
X150925Y481618D01*
X150877Y481671D01*
X150831Y481726D01*
X150789Y481783D01*
X150749Y481843D01*
X150713Y481904D01*
X150680Y481968D01*
X150651Y482033D01*
X150625Y482099D01*
X150602Y482167D01*
X150583Y482236D01*
X150568Y482306D01*
X150557Y482376D01*
X150549Y482447D01*
X150545Y482518D01*
X150545Y482590D01*
X150549Y482661D01*
X150557Y482732D01*
X150568Y482802D01*
X150583Y482872D01*
X150602Y482941D01*
X150625Y483009D01*
X150651Y483075D01*
X150680Y483140D01*
X150713Y483204D01*
X150749Y483265D01*
X150789Y483325D01*
X150831Y483382D01*
X150877Y483437D01*
X150925Y483490D01*
X150976Y483539D01*
X151030Y483586D01*
X151086Y483630D01*
X151145Y483671D01*
X151205Y483709D01*
X151268Y483744D01*
X151332Y483775D01*
X151398Y483803D01*
X151465Y483827D01*
X151533Y483848D01*
X151603Y483865D01*
X151673Y483878D01*
X151743Y483887D01*
X151815Y483893D01*
X151886Y483895D01*
X151886Y483894D02*
X154030Y483894D01*
X154030Y483895D02*
X154101Y483893D01*
X154173Y483887D01*
X154243Y483878D01*
X154313Y483865D01*
X154383Y483848D01*
X154451Y483827D01*
X154518Y483803D01*
X154584Y483775D01*
X154648Y483744D01*
X154711Y483709D01*
X154771Y483671D01*
X154830Y483630D01*
X154886Y483586D01*
X154940Y483539D01*
X154991Y483490D01*
X155039Y483437D01*
X155085Y483382D01*
X155127Y483325D01*
X155167Y483265D01*
X155203Y483204D01*
X155236Y483140D01*
X155265Y483075D01*
X155291Y483009D01*
X155314Y482941D01*
X155333Y482872D01*
X155348Y482802D01*
X155359Y482732D01*
X155367Y482661D01*
X155371Y482590D01*
X155371Y482518D01*
X155367Y482447D01*
X155359Y482376D01*
X155348Y482306D01*
X155333Y482236D01*
X155314Y482167D01*
X155291Y482099D01*
X155265Y482033D01*
X155236Y481968D01*
X155203Y481904D01*
X155167Y481843D01*
X155127Y481783D01*
X155085Y481726D01*
X155039Y481671D01*
X154991Y481618D01*
X154940Y481569D01*
X154886Y481522D01*
X154830Y481478D01*
X154771Y481437D01*
X154711Y481399D01*
X154648Y481364D01*
X154584Y481333D01*
X154518Y481305D01*
X154451Y481281D01*
X154383Y481260D01*
X154313Y481243D01*
X154243Y481230D01*
X154173Y481221D01*
X154101Y481215D01*
X154030Y481213D01*
X154299Y483358D02*
X155371Y484431D01*
X151617Y486306D02*
X150545Y487646D01*
X155371Y487646D01*
X155371Y486306D02*
X155371Y488987D01*
X128078Y523835D02*
X128078Y528661D01*
X129419Y528661D01*
X129490Y528659D01*
X129562Y528653D01*
X129632Y528644D01*
X129702Y528631D01*
X129772Y528614D01*
X129840Y528593D01*
X129907Y528569D01*
X129973Y528541D01*
X130037Y528510D01*
X130100Y528475D01*
X130160Y528437D01*
X130219Y528396D01*
X130275Y528352D01*
X130329Y528305D01*
X130380Y528256D01*
X130428Y528203D01*
X130474Y528148D01*
X130516Y528091D01*
X130556Y528031D01*
X130592Y527970D01*
X130625Y527906D01*
X130654Y527841D01*
X130680Y527775D01*
X130703Y527707D01*
X130722Y527638D01*
X130737Y527568D01*
X130748Y527498D01*
X130756Y527427D01*
X130760Y527356D01*
X130760Y527284D01*
X130756Y527213D01*
X130748Y527142D01*
X130737Y527072D01*
X130722Y527002D01*
X130703Y526933D01*
X130680Y526865D01*
X130654Y526799D01*
X130625Y526734D01*
X130592Y526670D01*
X130556Y526609D01*
X130516Y526549D01*
X130474Y526492D01*
X130428Y526437D01*
X130380Y526384D01*
X130329Y526335D01*
X130275Y526288D01*
X130219Y526244D01*
X130160Y526203D01*
X130100Y526165D01*
X130037Y526130D01*
X129973Y526099D01*
X129907Y526071D01*
X129840Y526047D01*
X129772Y526026D01*
X129702Y526009D01*
X129632Y525996D01*
X129562Y525987D01*
X129490Y525981D01*
X129419Y525979D01*
X129419Y525980D02*
X128078Y525980D01*
X129687Y525980D02*
X130759Y523835D01*
X133500Y525176D02*
X133502Y525247D01*
X133508Y525319D01*
X133517Y525389D01*
X133530Y525459D01*
X133547Y525529D01*
X133568Y525597D01*
X133592Y525664D01*
X133620Y525730D01*
X133651Y525794D01*
X133686Y525857D01*
X133724Y525917D01*
X133765Y525976D01*
X133809Y526032D01*
X133856Y526086D01*
X133905Y526137D01*
X133958Y526185D01*
X134013Y526231D01*
X134070Y526273D01*
X134130Y526313D01*
X134191Y526349D01*
X134255Y526382D01*
X134320Y526411D01*
X134386Y526437D01*
X134454Y526460D01*
X134523Y526479D01*
X134593Y526494D01*
X134663Y526505D01*
X134734Y526513D01*
X134805Y526517D01*
X134877Y526517D01*
X134948Y526513D01*
X135019Y526505D01*
X135089Y526494D01*
X135159Y526479D01*
X135228Y526460D01*
X135296Y526437D01*
X135362Y526411D01*
X135427Y526382D01*
X135491Y526349D01*
X135552Y526313D01*
X135612Y526273D01*
X135669Y526231D01*
X135724Y526185D01*
X135777Y526137D01*
X135826Y526086D01*
X135873Y526032D01*
X135917Y525976D01*
X135958Y525917D01*
X135996Y525857D01*
X136031Y525794D01*
X136062Y525730D01*
X136090Y525664D01*
X136114Y525597D01*
X136135Y525529D01*
X136152Y525459D01*
X136165Y525389D01*
X136174Y525319D01*
X136180Y525247D01*
X136182Y525176D01*
X136180Y525105D01*
X136174Y525033D01*
X136165Y524963D01*
X136152Y524893D01*
X136135Y524823D01*
X136114Y524755D01*
X136090Y524688D01*
X136062Y524622D01*
X136031Y524558D01*
X135996Y524495D01*
X135958Y524435D01*
X135917Y524376D01*
X135873Y524320D01*
X135826Y524266D01*
X135777Y524215D01*
X135724Y524167D01*
X135669Y524121D01*
X135612Y524079D01*
X135552Y524039D01*
X135491Y524003D01*
X135427Y523970D01*
X135362Y523941D01*
X135296Y523915D01*
X135228Y523892D01*
X135159Y523873D01*
X135089Y523858D01*
X135019Y523847D01*
X134948Y523839D01*
X134877Y523835D01*
X134805Y523835D01*
X134734Y523839D01*
X134663Y523847D01*
X134593Y523858D01*
X134523Y523873D01*
X134454Y523892D01*
X134386Y523915D01*
X134320Y523941D01*
X134255Y523970D01*
X134191Y524003D01*
X134130Y524039D01*
X134070Y524079D01*
X134013Y524121D01*
X133958Y524167D01*
X133905Y524215D01*
X133856Y524266D01*
X133809Y524320D01*
X133765Y524376D01*
X133724Y524435D01*
X133686Y524495D01*
X133651Y524558D01*
X133620Y524622D01*
X133592Y524688D01*
X133568Y524755D01*
X133547Y524823D01*
X133530Y524893D01*
X133517Y524963D01*
X133508Y525033D01*
X133502Y525105D01*
X133500Y525176D01*
X133769Y527589D02*
X133771Y527654D01*
X133777Y527718D01*
X133787Y527782D01*
X133800Y527846D01*
X133818Y527908D01*
X133839Y527969D01*
X133863Y528029D01*
X133892Y528087D01*
X133924Y528144D01*
X133959Y528198D01*
X133997Y528250D01*
X134039Y528300D01*
X134083Y528347D01*
X134130Y528391D01*
X134180Y528433D01*
X134232Y528471D01*
X134286Y528506D01*
X134343Y528538D01*
X134401Y528567D01*
X134461Y528591D01*
X134522Y528612D01*
X134584Y528630D01*
X134648Y528643D01*
X134712Y528653D01*
X134776Y528659D01*
X134841Y528661D01*
X134906Y528659D01*
X134970Y528653D01*
X135034Y528643D01*
X135098Y528630D01*
X135160Y528612D01*
X135221Y528591D01*
X135281Y528567D01*
X135339Y528538D01*
X135396Y528506D01*
X135450Y528471D01*
X135502Y528433D01*
X135552Y528391D01*
X135599Y528347D01*
X135643Y528300D01*
X135685Y528250D01*
X135723Y528198D01*
X135758Y528144D01*
X135790Y528087D01*
X135819Y528029D01*
X135843Y527969D01*
X135864Y527908D01*
X135882Y527846D01*
X135895Y527782D01*
X135905Y527718D01*
X135911Y527654D01*
X135913Y527589D01*
X135911Y527524D01*
X135905Y527460D01*
X135895Y527396D01*
X135882Y527332D01*
X135864Y527270D01*
X135843Y527209D01*
X135819Y527149D01*
X135790Y527091D01*
X135758Y527034D01*
X135723Y526980D01*
X135685Y526928D01*
X135643Y526878D01*
X135599Y526831D01*
X135552Y526787D01*
X135502Y526745D01*
X135450Y526707D01*
X135396Y526672D01*
X135339Y526640D01*
X135281Y526611D01*
X135221Y526587D01*
X135160Y526566D01*
X135098Y526548D01*
X135034Y526535D01*
X134970Y526525D01*
X134906Y526519D01*
X134841Y526517D01*
X134776Y526519D01*
X134712Y526525D01*
X134648Y526535D01*
X134584Y526548D01*
X134522Y526566D01*
X134461Y526587D01*
X134401Y526611D01*
X134343Y526640D01*
X134286Y526672D01*
X134232Y526707D01*
X134180Y526745D01*
X134130Y526787D01*
X134083Y526831D01*
X134039Y526878D01*
X133997Y526928D01*
X133959Y526980D01*
X133924Y527034D01*
X133892Y527091D01*
X133863Y527149D01*
X133839Y527209D01*
X133818Y527270D01*
X133800Y527332D01*
X133787Y527396D01*
X133777Y527460D01*
X133771Y527524D01*
X133769Y527589D01*
D82*
X572200Y308600D02*
X572200Y302600D01*
X572200Y308600D02*
X564200Y308600D01*
X572200Y286600D02*
X572200Y280600D01*
X564200Y280600D01*
D78*
X561313Y313086D02*
X561313Y315230D01*
X561315Y315301D01*
X561321Y315373D01*
X561330Y315443D01*
X561343Y315513D01*
X561360Y315583D01*
X561381Y315651D01*
X561405Y315718D01*
X561433Y315784D01*
X561464Y315848D01*
X561499Y315911D01*
X561537Y315971D01*
X561578Y316030D01*
X561622Y316086D01*
X561669Y316140D01*
X561718Y316191D01*
X561771Y316239D01*
X561826Y316285D01*
X561883Y316327D01*
X561943Y316367D01*
X562004Y316403D01*
X562068Y316436D01*
X562133Y316465D01*
X562199Y316491D01*
X562267Y316514D01*
X562336Y316533D01*
X562406Y316548D01*
X562476Y316559D01*
X562547Y316567D01*
X562618Y316571D01*
X562690Y316571D01*
X562761Y316567D01*
X562832Y316559D01*
X562902Y316548D01*
X562972Y316533D01*
X563041Y316514D01*
X563109Y316491D01*
X563175Y316465D01*
X563240Y316436D01*
X563304Y316403D01*
X563365Y316367D01*
X563425Y316327D01*
X563482Y316285D01*
X563537Y316239D01*
X563590Y316191D01*
X563639Y316140D01*
X563686Y316086D01*
X563730Y316030D01*
X563771Y315971D01*
X563809Y315911D01*
X563844Y315848D01*
X563875Y315784D01*
X563903Y315718D01*
X563927Y315651D01*
X563948Y315583D01*
X563965Y315513D01*
X563978Y315443D01*
X563987Y315373D01*
X563993Y315301D01*
X563995Y315230D01*
X563994Y315230D02*
X563994Y313086D01*
X563995Y313086D02*
X563993Y313015D01*
X563987Y312943D01*
X563978Y312873D01*
X563965Y312803D01*
X563948Y312733D01*
X563927Y312665D01*
X563903Y312598D01*
X563875Y312532D01*
X563844Y312468D01*
X563809Y312405D01*
X563771Y312345D01*
X563730Y312286D01*
X563686Y312230D01*
X563639Y312176D01*
X563590Y312125D01*
X563537Y312077D01*
X563482Y312031D01*
X563425Y311989D01*
X563365Y311949D01*
X563304Y311913D01*
X563240Y311880D01*
X563175Y311851D01*
X563109Y311825D01*
X563041Y311802D01*
X562972Y311783D01*
X562902Y311768D01*
X562832Y311757D01*
X562761Y311749D01*
X562690Y311745D01*
X562618Y311745D01*
X562547Y311749D01*
X562476Y311757D01*
X562406Y311768D01*
X562336Y311783D01*
X562267Y311802D01*
X562199Y311825D01*
X562133Y311851D01*
X562068Y311880D01*
X562004Y311913D01*
X561943Y311949D01*
X561883Y311989D01*
X561826Y312031D01*
X561771Y312077D01*
X561718Y312125D01*
X561669Y312176D01*
X561622Y312230D01*
X561578Y312286D01*
X561537Y312345D01*
X561499Y312405D01*
X561464Y312468D01*
X561433Y312532D01*
X561405Y312598D01*
X561381Y312665D01*
X561360Y312733D01*
X561343Y312803D01*
X561330Y312873D01*
X561321Y312943D01*
X561315Y313015D01*
X561313Y313086D01*
X563458Y312817D02*
X564531Y311745D01*
X569087Y315364D02*
X569085Y315432D01*
X569079Y315499D01*
X569070Y315566D01*
X569057Y315633D01*
X569040Y315698D01*
X569019Y315763D01*
X568995Y315826D01*
X568967Y315888D01*
X568936Y315948D01*
X568902Y316006D01*
X568864Y316062D01*
X568824Y316117D01*
X568780Y316168D01*
X568733Y316217D01*
X568684Y316264D01*
X568633Y316308D01*
X568578Y316348D01*
X568522Y316386D01*
X568464Y316420D01*
X568404Y316451D01*
X568342Y316479D01*
X568279Y316503D01*
X568214Y316524D01*
X568149Y316541D01*
X568082Y316554D01*
X568015Y316563D01*
X567948Y316569D01*
X567880Y316571D01*
X567802Y316569D01*
X567724Y316563D01*
X567647Y316553D01*
X567570Y316540D01*
X567494Y316522D01*
X567419Y316501D01*
X567345Y316476D01*
X567273Y316447D01*
X567202Y316415D01*
X567133Y316379D01*
X567065Y316340D01*
X567000Y316297D01*
X566937Y316251D01*
X566876Y316202D01*
X566818Y316150D01*
X566763Y316095D01*
X566710Y316038D01*
X566661Y315978D01*
X566614Y315915D01*
X566571Y315851D01*
X566531Y315784D01*
X566494Y315715D01*
X566461Y315644D01*
X566431Y315572D01*
X566405Y315499D01*
X568685Y314426D02*
X568734Y314475D01*
X568781Y314527D01*
X568824Y314582D01*
X568865Y314639D01*
X568903Y314698D01*
X568937Y314759D01*
X568968Y314822D01*
X568996Y314886D01*
X569020Y314952D01*
X569040Y315018D01*
X569057Y315086D01*
X569070Y315155D01*
X569079Y315224D01*
X569085Y315294D01*
X569087Y315364D01*
X568685Y314426D02*
X566406Y311745D01*
X569087Y311745D01*
X529005Y290548D02*
X524179Y290548D01*
X524179Y291889D01*
X524181Y291960D01*
X524187Y292032D01*
X524196Y292102D01*
X524209Y292172D01*
X524226Y292242D01*
X524247Y292310D01*
X524271Y292377D01*
X524299Y292443D01*
X524330Y292507D01*
X524365Y292570D01*
X524403Y292630D01*
X524444Y292689D01*
X524488Y292745D01*
X524535Y292799D01*
X524584Y292850D01*
X524637Y292898D01*
X524692Y292944D01*
X524749Y292986D01*
X524809Y293026D01*
X524870Y293062D01*
X524934Y293095D01*
X524999Y293124D01*
X525065Y293150D01*
X525133Y293173D01*
X525202Y293192D01*
X525272Y293207D01*
X525342Y293218D01*
X525413Y293226D01*
X525484Y293230D01*
X525556Y293230D01*
X525627Y293226D01*
X525698Y293218D01*
X525768Y293207D01*
X525838Y293192D01*
X525907Y293173D01*
X525975Y293150D01*
X526041Y293124D01*
X526106Y293095D01*
X526170Y293062D01*
X526231Y293026D01*
X526291Y292986D01*
X526348Y292944D01*
X526403Y292898D01*
X526456Y292850D01*
X526505Y292799D01*
X526552Y292745D01*
X526596Y292689D01*
X526637Y292630D01*
X526675Y292570D01*
X526710Y292507D01*
X526741Y292443D01*
X526769Y292377D01*
X526793Y292310D01*
X526814Y292242D01*
X526831Y292172D01*
X526844Y292102D01*
X526853Y292032D01*
X526859Y291960D01*
X526861Y291889D01*
X526860Y291889D02*
X526860Y290548D01*
X526860Y292157D02*
X529005Y293229D01*
X526860Y297043D02*
X526860Y298652D01*
X526860Y297043D02*
X526858Y296978D01*
X526852Y296914D01*
X526842Y296850D01*
X526829Y296786D01*
X526811Y296724D01*
X526790Y296663D01*
X526766Y296603D01*
X526737Y296545D01*
X526705Y296488D01*
X526670Y296434D01*
X526632Y296382D01*
X526590Y296332D01*
X526546Y296285D01*
X526499Y296241D01*
X526449Y296199D01*
X526397Y296161D01*
X526343Y296126D01*
X526286Y296094D01*
X526228Y296065D01*
X526168Y296041D01*
X526107Y296020D01*
X526045Y296002D01*
X525981Y295989D01*
X525917Y295979D01*
X525853Y295973D01*
X525788Y295971D01*
X525520Y295971D01*
X525520Y295970D02*
X525449Y295972D01*
X525377Y295978D01*
X525307Y295987D01*
X525237Y296000D01*
X525167Y296017D01*
X525099Y296038D01*
X525032Y296062D01*
X524966Y296090D01*
X524902Y296121D01*
X524839Y296156D01*
X524779Y296194D01*
X524720Y296235D01*
X524664Y296279D01*
X524610Y296326D01*
X524559Y296375D01*
X524511Y296428D01*
X524465Y296483D01*
X524423Y296540D01*
X524383Y296600D01*
X524347Y296661D01*
X524314Y296725D01*
X524285Y296790D01*
X524259Y296856D01*
X524236Y296924D01*
X524217Y296993D01*
X524202Y297063D01*
X524191Y297133D01*
X524183Y297204D01*
X524179Y297275D01*
X524179Y297347D01*
X524183Y297418D01*
X524191Y297489D01*
X524202Y297559D01*
X524217Y297629D01*
X524236Y297698D01*
X524259Y297766D01*
X524285Y297832D01*
X524314Y297897D01*
X524347Y297961D01*
X524383Y298022D01*
X524423Y298082D01*
X524465Y298139D01*
X524511Y298194D01*
X524559Y298247D01*
X524610Y298296D01*
X524664Y298343D01*
X524720Y298387D01*
X524779Y298428D01*
X524839Y298466D01*
X524902Y298501D01*
X524966Y298532D01*
X525032Y298560D01*
X525099Y298584D01*
X525167Y298605D01*
X525237Y298622D01*
X525307Y298635D01*
X525377Y298644D01*
X525449Y298650D01*
X525520Y298652D01*
X526860Y298652D01*
X526951Y298650D01*
X527042Y298644D01*
X527132Y298635D01*
X527223Y298621D01*
X527312Y298604D01*
X527400Y298583D01*
X527488Y298558D01*
X527575Y298529D01*
X527660Y298497D01*
X527744Y298462D01*
X527826Y298422D01*
X527906Y298380D01*
X527985Y298334D01*
X528061Y298284D01*
X528135Y298232D01*
X528208Y298176D01*
X528277Y298117D01*
X528344Y298056D01*
X528409Y297991D01*
X528470Y297924D01*
X528529Y297855D01*
X528585Y297782D01*
X528637Y297708D01*
X528687Y297632D01*
X528733Y297553D01*
X528775Y297473D01*
X528815Y297391D01*
X528850Y297307D01*
X528882Y297222D01*
X528911Y297135D01*
X528936Y297047D01*
X528957Y296959D01*
X528974Y296870D01*
X528988Y296779D01*
X528997Y296689D01*
X529003Y296598D01*
X529005Y296507D01*
X202805Y62571D02*
X202805Y57745D01*
X202805Y62571D02*
X204146Y62571D01*
X204217Y62569D01*
X204289Y62563D01*
X204359Y62554D01*
X204429Y62541D01*
X204499Y62524D01*
X204567Y62503D01*
X204634Y62479D01*
X204700Y62451D01*
X204764Y62420D01*
X204827Y62385D01*
X204887Y62347D01*
X204946Y62306D01*
X205002Y62262D01*
X205056Y62215D01*
X205107Y62166D01*
X205155Y62113D01*
X205201Y62058D01*
X205243Y62001D01*
X205283Y61941D01*
X205319Y61880D01*
X205352Y61816D01*
X205381Y61751D01*
X205407Y61685D01*
X205430Y61617D01*
X205449Y61548D01*
X205464Y61478D01*
X205475Y61408D01*
X205483Y61337D01*
X205487Y61266D01*
X205487Y61194D01*
X205483Y61123D01*
X205475Y61052D01*
X205464Y60982D01*
X205449Y60912D01*
X205430Y60843D01*
X205407Y60775D01*
X205381Y60709D01*
X205352Y60644D01*
X205319Y60580D01*
X205283Y60519D01*
X205243Y60459D01*
X205201Y60402D01*
X205155Y60347D01*
X205107Y60294D01*
X205056Y60245D01*
X205002Y60198D01*
X204946Y60154D01*
X204887Y60113D01*
X204827Y60075D01*
X204764Y60040D01*
X204700Y60009D01*
X204634Y59981D01*
X204567Y59957D01*
X204499Y59936D01*
X204429Y59919D01*
X204359Y59906D01*
X204289Y59897D01*
X204217Y59891D01*
X204146Y59889D01*
X204146Y59890D02*
X202805Y59890D01*
X204414Y59890D02*
X205486Y57745D01*
X208228Y61499D02*
X209568Y62571D01*
X209568Y57745D01*
X208228Y57745D02*
X210909Y57745D01*
X213714Y61499D02*
X215055Y62571D01*
X215055Y57745D01*
X216395Y57745D02*
X213714Y57745D01*
X202805Y44791D02*
X202805Y39965D01*
X202805Y44791D02*
X204146Y44791D01*
X204217Y44789D01*
X204289Y44783D01*
X204359Y44774D01*
X204429Y44761D01*
X204499Y44744D01*
X204567Y44723D01*
X204634Y44699D01*
X204700Y44671D01*
X204764Y44640D01*
X204827Y44605D01*
X204887Y44567D01*
X204946Y44526D01*
X205002Y44482D01*
X205056Y44435D01*
X205107Y44386D01*
X205155Y44333D01*
X205201Y44278D01*
X205243Y44221D01*
X205283Y44161D01*
X205319Y44100D01*
X205352Y44036D01*
X205381Y43971D01*
X205407Y43905D01*
X205430Y43837D01*
X205449Y43768D01*
X205464Y43698D01*
X205475Y43628D01*
X205483Y43557D01*
X205487Y43486D01*
X205487Y43414D01*
X205483Y43343D01*
X205475Y43272D01*
X205464Y43202D01*
X205449Y43132D01*
X205430Y43063D01*
X205407Y42995D01*
X205381Y42929D01*
X205352Y42864D01*
X205319Y42800D01*
X205283Y42739D01*
X205243Y42679D01*
X205201Y42622D01*
X205155Y42567D01*
X205107Y42514D01*
X205056Y42465D01*
X205002Y42418D01*
X204946Y42374D01*
X204887Y42333D01*
X204827Y42295D01*
X204764Y42260D01*
X204700Y42229D01*
X204634Y42201D01*
X204567Y42177D01*
X204499Y42156D01*
X204429Y42139D01*
X204359Y42126D01*
X204289Y42117D01*
X204217Y42111D01*
X204146Y42109D01*
X204146Y42110D02*
X202805Y42110D01*
X204414Y42110D02*
X205486Y39965D01*
X208228Y43719D02*
X209568Y44791D01*
X209568Y39965D01*
X208228Y39965D02*
X210909Y39965D01*
X215189Y44791D02*
X215257Y44789D01*
X215324Y44783D01*
X215391Y44774D01*
X215458Y44761D01*
X215523Y44744D01*
X215588Y44723D01*
X215651Y44699D01*
X215713Y44671D01*
X215773Y44640D01*
X215831Y44606D01*
X215887Y44568D01*
X215942Y44528D01*
X215993Y44484D01*
X216042Y44437D01*
X216089Y44388D01*
X216133Y44337D01*
X216173Y44282D01*
X216211Y44226D01*
X216245Y44168D01*
X216276Y44108D01*
X216304Y44046D01*
X216328Y43983D01*
X216349Y43918D01*
X216366Y43853D01*
X216379Y43786D01*
X216388Y43719D01*
X216394Y43652D01*
X216396Y43584D01*
X215189Y44791D02*
X215111Y44789D01*
X215033Y44783D01*
X214956Y44773D01*
X214879Y44760D01*
X214803Y44742D01*
X214728Y44721D01*
X214654Y44696D01*
X214582Y44667D01*
X214511Y44635D01*
X214442Y44599D01*
X214374Y44560D01*
X214309Y44517D01*
X214246Y44471D01*
X214185Y44422D01*
X214127Y44370D01*
X214072Y44315D01*
X214019Y44258D01*
X213970Y44198D01*
X213923Y44135D01*
X213880Y44071D01*
X213840Y44004D01*
X213803Y43935D01*
X213770Y43864D01*
X213740Y43792D01*
X213714Y43719D01*
X215993Y42646D02*
X216042Y42695D01*
X216089Y42747D01*
X216132Y42802D01*
X216173Y42859D01*
X216211Y42918D01*
X216245Y42979D01*
X216276Y43042D01*
X216304Y43106D01*
X216328Y43172D01*
X216348Y43238D01*
X216365Y43306D01*
X216378Y43375D01*
X216387Y43444D01*
X216393Y43514D01*
X216395Y43584D01*
X215993Y42646D02*
X213714Y39965D01*
X216395Y39965D01*
D82*
X532434Y417790D02*
X532434Y450810D01*
X597966Y450810D01*
X597966Y417790D01*
X532434Y417790D01*
D81*
X589662Y424436D02*
X589662Y427188D01*
X589662Y424436D02*
X589664Y424372D01*
X589670Y424308D01*
X589679Y424245D01*
X589693Y424183D01*
X589710Y424121D01*
X589731Y424061D01*
X589755Y424002D01*
X589783Y423944D01*
X589815Y423889D01*
X589849Y423835D01*
X589887Y423784D01*
X589928Y423734D01*
X589972Y423688D01*
X590018Y423644D01*
X590068Y423603D01*
X590119Y423565D01*
X590173Y423531D01*
X590228Y423499D01*
X590286Y423471D01*
X590345Y423447D01*
X590405Y423426D01*
X590467Y423409D01*
X590529Y423395D01*
X590592Y423386D01*
X590656Y423380D01*
X590720Y423378D01*
X590784Y423380D01*
X590848Y423386D01*
X590911Y423395D01*
X590973Y423409D01*
X591035Y423426D01*
X591095Y423447D01*
X591154Y423471D01*
X591212Y423499D01*
X591267Y423531D01*
X591321Y423565D01*
X591372Y423603D01*
X591422Y423644D01*
X591468Y423688D01*
X591512Y423734D01*
X591553Y423784D01*
X591591Y423835D01*
X591625Y423889D01*
X591657Y423944D01*
X591685Y424002D01*
X591709Y424061D01*
X591730Y424121D01*
X591747Y424183D01*
X591761Y424245D01*
X591770Y424308D01*
X591776Y424372D01*
X591778Y424436D01*
X591779Y424436D02*
X591779Y427188D01*
X594256Y427188D02*
X594256Y423378D01*
X594256Y425283D02*
X593727Y425601D01*
X593686Y425628D01*
X593646Y425658D01*
X593610Y425691D01*
X593576Y425727D01*
X593545Y425766D01*
X593517Y425806D01*
X593493Y425849D01*
X593471Y425894D01*
X593454Y425940D01*
X593440Y425987D01*
X593429Y426035D01*
X593423Y426084D01*
X593420Y426133D01*
X593421Y426183D01*
X593426Y426232D01*
X593435Y426280D01*
X593448Y426328D01*
X593464Y426375D01*
X593484Y426420D01*
X593507Y426463D01*
X593534Y426505D01*
X593564Y426544D01*
X593596Y426581D01*
X593632Y426615D01*
X593670Y426646D01*
X593710Y426675D01*
X593753Y426700D01*
X593797Y426721D01*
X593843Y426739D01*
X593890Y426754D01*
X593938Y426765D01*
X593939Y426765D02*
X594018Y426777D01*
X594098Y426786D01*
X594179Y426791D01*
X594259Y426792D01*
X594340Y426789D01*
X594420Y426782D01*
X594500Y426772D01*
X594580Y426757D01*
X594658Y426739D01*
X594736Y426717D01*
X594812Y426691D01*
X594887Y426662D01*
X594961Y426629D01*
X595033Y426593D01*
X595103Y426553D01*
X594256Y425283D02*
X594785Y424966D01*
X594785Y424965D02*
X594826Y424938D01*
X594865Y424908D01*
X594902Y424875D01*
X594936Y424839D01*
X594967Y424800D01*
X594995Y424760D01*
X595019Y424717D01*
X595041Y424672D01*
X595058Y424626D01*
X595072Y424579D01*
X595083Y424531D01*
X595089Y424482D01*
X595092Y424433D01*
X595091Y424383D01*
X595086Y424334D01*
X595077Y424286D01*
X595064Y424238D01*
X595048Y424191D01*
X595028Y424146D01*
X595005Y424103D01*
X594978Y424061D01*
X594948Y424022D01*
X594916Y423985D01*
X594880Y423951D01*
X594842Y423920D01*
X594802Y423891D01*
X594759Y423866D01*
X594715Y423845D01*
X594669Y423827D01*
X594622Y423812D01*
X594574Y423801D01*
X594573Y423801D02*
X594494Y423789D01*
X594414Y423780D01*
X594333Y423775D01*
X594253Y423774D01*
X594172Y423777D01*
X594092Y423784D01*
X594012Y423794D01*
X593932Y423809D01*
X593854Y423827D01*
X593776Y423849D01*
X593700Y423875D01*
X593625Y423904D01*
X593551Y423937D01*
X593479Y423973D01*
X593409Y424013D01*
X596611Y426765D02*
X596611Y427188D01*
X598728Y427188D01*
X597670Y423378D01*
D78*
X548448Y316825D02*
X548448Y311999D01*
X548448Y316825D02*
X549789Y316825D01*
X549860Y316823D01*
X549932Y316817D01*
X550002Y316808D01*
X550072Y316795D01*
X550142Y316778D01*
X550210Y316757D01*
X550277Y316733D01*
X550343Y316705D01*
X550407Y316674D01*
X550470Y316639D01*
X550530Y316601D01*
X550589Y316560D01*
X550645Y316516D01*
X550699Y316469D01*
X550750Y316420D01*
X550798Y316367D01*
X550844Y316312D01*
X550886Y316255D01*
X550926Y316195D01*
X550962Y316134D01*
X550995Y316070D01*
X551024Y316005D01*
X551050Y315939D01*
X551073Y315871D01*
X551092Y315802D01*
X551107Y315732D01*
X551118Y315662D01*
X551126Y315591D01*
X551130Y315520D01*
X551130Y315448D01*
X551126Y315377D01*
X551118Y315306D01*
X551107Y315236D01*
X551092Y315166D01*
X551073Y315097D01*
X551050Y315029D01*
X551024Y314963D01*
X550995Y314898D01*
X550962Y314834D01*
X550926Y314773D01*
X550886Y314713D01*
X550844Y314656D01*
X550798Y314601D01*
X550750Y314548D01*
X550699Y314499D01*
X550645Y314452D01*
X550589Y314408D01*
X550530Y314367D01*
X550470Y314329D01*
X550407Y314294D01*
X550343Y314263D01*
X550277Y314235D01*
X550210Y314211D01*
X550142Y314190D01*
X550072Y314173D01*
X550002Y314160D01*
X549932Y314151D01*
X549860Y314145D01*
X549789Y314143D01*
X549789Y314144D02*
X548448Y314144D01*
X550057Y314144D02*
X551129Y311999D01*
X553871Y314412D02*
X553873Y314532D01*
X553878Y314652D01*
X553887Y314772D01*
X553900Y314892D01*
X553916Y315011D01*
X553936Y315130D01*
X553960Y315248D01*
X553987Y315365D01*
X554017Y315481D01*
X554051Y315596D01*
X554089Y315711D01*
X554130Y315824D01*
X554174Y315935D01*
X554222Y316046D01*
X554273Y316155D01*
X554294Y316212D01*
X554320Y316268D01*
X554348Y316323D01*
X554380Y316375D01*
X554416Y316426D01*
X554454Y316474D01*
X554495Y316520D01*
X554539Y316563D01*
X554585Y316603D01*
X554634Y316640D01*
X554686Y316674D01*
X554739Y316705D01*
X554794Y316733D01*
X554850Y316757D01*
X554908Y316778D01*
X554967Y316795D01*
X555027Y316808D01*
X555088Y316817D01*
X555150Y316823D01*
X555211Y316825D01*
X555272Y316823D01*
X555334Y316817D01*
X555395Y316808D01*
X555455Y316795D01*
X555514Y316778D01*
X555572Y316757D01*
X555628Y316733D01*
X555683Y316705D01*
X555736Y316674D01*
X555788Y316640D01*
X555837Y316603D01*
X555883Y316563D01*
X555927Y316520D01*
X555968Y316474D01*
X556006Y316426D01*
X556042Y316375D01*
X556074Y316323D01*
X556102Y316268D01*
X556128Y316212D01*
X556149Y316155D01*
X556150Y316155D02*
X556201Y316046D01*
X556249Y315935D01*
X556293Y315824D01*
X556334Y315711D01*
X556372Y315596D01*
X556406Y315481D01*
X556436Y315365D01*
X556463Y315248D01*
X556487Y315130D01*
X556507Y315011D01*
X556523Y314892D01*
X556536Y314772D01*
X556545Y314652D01*
X556550Y314532D01*
X556552Y314412D01*
X553871Y314412D02*
X553873Y314292D01*
X553878Y314172D01*
X553887Y314052D01*
X553900Y313932D01*
X553916Y313813D01*
X553936Y313694D01*
X553960Y313576D01*
X553987Y313459D01*
X554017Y313343D01*
X554051Y313228D01*
X554089Y313113D01*
X554130Y313000D01*
X554174Y312889D01*
X554222Y312778D01*
X554273Y312669D01*
X554294Y312612D01*
X554320Y312556D01*
X554348Y312501D01*
X554380Y312449D01*
X554416Y312398D01*
X554454Y312350D01*
X554495Y312304D01*
X554539Y312261D01*
X554585Y312221D01*
X554634Y312184D01*
X554686Y312150D01*
X554739Y312119D01*
X554794Y312091D01*
X554850Y312067D01*
X554908Y312046D01*
X554967Y312029D01*
X555027Y312016D01*
X555088Y312007D01*
X555150Y312001D01*
X555211Y311999D01*
X556150Y312669D02*
X556201Y312778D01*
X556249Y312889D01*
X556293Y313000D01*
X556334Y313113D01*
X556372Y313228D01*
X556406Y313343D01*
X556436Y313459D01*
X556463Y313576D01*
X556487Y313694D01*
X556507Y313813D01*
X556523Y313932D01*
X556536Y314052D01*
X556545Y314172D01*
X556550Y314292D01*
X556552Y314412D01*
X556149Y312669D02*
X556128Y312612D01*
X556102Y312556D01*
X556074Y312501D01*
X556042Y312449D01*
X556006Y312398D01*
X555968Y312350D01*
X555927Y312304D01*
X555883Y312261D01*
X555836Y312221D01*
X555788Y312184D01*
X555736Y312150D01*
X555683Y312119D01*
X555628Y312091D01*
X555572Y312067D01*
X555514Y312046D01*
X555455Y312029D01*
X555395Y312016D01*
X555334Y312007D01*
X555272Y312001D01*
X555211Y311999D01*
X554139Y313071D02*
X556284Y315753D01*
D82*
X499570Y465040D02*
X473600Y465040D01*
D78*
X509701Y488882D02*
X509701Y489954D01*
X509701Y488882D02*
X509699Y488817D01*
X509693Y488753D01*
X509683Y488689D01*
X509670Y488625D01*
X509652Y488563D01*
X509631Y488502D01*
X509607Y488442D01*
X509578Y488384D01*
X509546Y488327D01*
X509511Y488273D01*
X509473Y488221D01*
X509431Y488171D01*
X509387Y488124D01*
X509340Y488080D01*
X509290Y488038D01*
X509238Y488000D01*
X509184Y487965D01*
X509127Y487933D01*
X509069Y487904D01*
X509009Y487880D01*
X508948Y487859D01*
X508886Y487841D01*
X508822Y487828D01*
X508758Y487818D01*
X508694Y487812D01*
X508629Y487810D01*
X508629Y487809D02*
X505947Y487809D01*
X505882Y487811D01*
X505818Y487817D01*
X505754Y487827D01*
X505690Y487840D01*
X505628Y487858D01*
X505567Y487879D01*
X505507Y487904D01*
X505448Y487932D01*
X505392Y487964D01*
X505337Y487999D01*
X505285Y488037D01*
X505235Y488079D01*
X505188Y488123D01*
X505144Y488170D01*
X505102Y488220D01*
X505064Y488272D01*
X505029Y488327D01*
X504997Y488383D01*
X504969Y488442D01*
X504944Y488501D01*
X504923Y488563D01*
X504905Y488625D01*
X504892Y488689D01*
X504882Y488753D01*
X504876Y488817D01*
X504874Y488882D01*
X504875Y488882D02*
X504875Y489954D01*
X504875Y493482D02*
X508629Y492410D01*
X508629Y495091D01*
X507556Y494287D02*
X509701Y494287D01*
D84*
X511746Y489380D02*
X511746Y488082D01*
X511744Y488012D01*
X511738Y487942D01*
X511729Y487872D01*
X511716Y487803D01*
X511699Y487735D01*
X511678Y487668D01*
X511654Y487602D01*
X511626Y487537D01*
X511595Y487474D01*
X511560Y487413D01*
X511522Y487354D01*
X511481Y487296D01*
X511437Y487242D01*
X511390Y487189D01*
X511341Y487140D01*
X511288Y487093D01*
X511234Y487049D01*
X511176Y487008D01*
X511117Y486970D01*
X511056Y486935D01*
X510993Y486904D01*
X510928Y486876D01*
X510862Y486852D01*
X510795Y486831D01*
X510727Y486814D01*
X510658Y486801D01*
X510588Y486792D01*
X510518Y486786D01*
X510448Y486784D01*
X507202Y486784D01*
X507132Y486786D01*
X507062Y486792D01*
X506992Y486801D01*
X506923Y486814D01*
X506855Y486831D01*
X506788Y486852D01*
X506722Y486876D01*
X506657Y486904D01*
X506594Y486935D01*
X506533Y486970D01*
X506474Y487008D01*
X506416Y487049D01*
X506362Y487093D01*
X506309Y487140D01*
X506260Y487189D01*
X506213Y487242D01*
X506169Y487296D01*
X506128Y487354D01*
X506090Y487413D01*
X506055Y487474D01*
X506024Y487537D01*
X505996Y487602D01*
X505972Y487668D01*
X505951Y487735D01*
X505934Y487803D01*
X505921Y487872D01*
X505912Y487942D01*
X505906Y488012D01*
X505904Y488082D01*
X505904Y489380D01*
X508500Y491563D02*
X508500Y493510D01*
X508501Y493510D02*
X508503Y493580D01*
X508509Y493650D01*
X508518Y493720D01*
X508531Y493789D01*
X508548Y493857D01*
X508569Y493924D01*
X508593Y493990D01*
X508621Y494055D01*
X508652Y494118D01*
X508687Y494179D01*
X508725Y494238D01*
X508766Y494296D01*
X508810Y494350D01*
X508857Y494403D01*
X508906Y494452D01*
X508959Y494499D01*
X509013Y494543D01*
X509071Y494584D01*
X509130Y494622D01*
X509191Y494657D01*
X509254Y494688D01*
X509319Y494716D01*
X509385Y494740D01*
X509452Y494761D01*
X509520Y494778D01*
X509589Y494791D01*
X509659Y494800D01*
X509729Y494806D01*
X509799Y494808D01*
X509799Y494809D02*
X510123Y494809D01*
X510203Y494807D01*
X510282Y494801D01*
X510361Y494791D01*
X510440Y494778D01*
X510517Y494760D01*
X510594Y494739D01*
X510670Y494714D01*
X510744Y494685D01*
X510817Y494653D01*
X510888Y494617D01*
X510957Y494578D01*
X511025Y494535D01*
X511090Y494490D01*
X511153Y494441D01*
X511213Y494389D01*
X511271Y494334D01*
X511326Y494276D01*
X511378Y494216D01*
X511427Y494153D01*
X511472Y494088D01*
X511515Y494020D01*
X511554Y493951D01*
X511590Y493880D01*
X511622Y493807D01*
X511651Y493733D01*
X511676Y493657D01*
X511697Y493580D01*
X511715Y493503D01*
X511728Y493424D01*
X511738Y493345D01*
X511744Y493266D01*
X511746Y493186D01*
X511744Y493106D01*
X511738Y493027D01*
X511728Y492948D01*
X511715Y492869D01*
X511697Y492792D01*
X511676Y492715D01*
X511651Y492639D01*
X511622Y492565D01*
X511590Y492492D01*
X511554Y492421D01*
X511515Y492352D01*
X511472Y492284D01*
X511427Y492219D01*
X511378Y492156D01*
X511326Y492096D01*
X511271Y492038D01*
X511213Y491983D01*
X511153Y491931D01*
X511090Y491882D01*
X511025Y491837D01*
X510957Y491794D01*
X510888Y491755D01*
X510817Y491719D01*
X510744Y491687D01*
X510670Y491658D01*
X510594Y491633D01*
X510517Y491612D01*
X510440Y491594D01*
X510361Y491581D01*
X510282Y491571D01*
X510203Y491565D01*
X510123Y491563D01*
X508500Y491563D01*
X508401Y491565D01*
X508301Y491571D01*
X508202Y491580D01*
X508104Y491593D01*
X508006Y491611D01*
X507908Y491631D01*
X507812Y491656D01*
X507716Y491684D01*
X507622Y491716D01*
X507529Y491751D01*
X507438Y491790D01*
X507348Y491833D01*
X507259Y491878D01*
X507173Y491928D01*
X507088Y491980D01*
X507006Y492036D01*
X506926Y492095D01*
X506848Y492156D01*
X506772Y492221D01*
X506699Y492289D01*
X506629Y492359D01*
X506561Y492432D01*
X506496Y492508D01*
X506435Y492586D01*
X506376Y492666D01*
X506320Y492748D01*
X506268Y492833D01*
X506219Y492919D01*
X506173Y493008D01*
X506130Y493098D01*
X506091Y493189D01*
X506056Y493282D01*
X506024Y493376D01*
X505996Y493472D01*
X505971Y493568D01*
X505951Y493666D01*
X505933Y493764D01*
X505920Y493862D01*
X505911Y493961D01*
X505905Y494060D01*
X505903Y494160D01*
X539696Y534380D02*
X539696Y535678D01*
X539696Y534380D02*
X539694Y534310D01*
X539688Y534240D01*
X539679Y534170D01*
X539666Y534101D01*
X539649Y534033D01*
X539628Y533966D01*
X539604Y533900D01*
X539576Y533835D01*
X539545Y533772D01*
X539510Y533711D01*
X539472Y533652D01*
X539431Y533594D01*
X539387Y533540D01*
X539340Y533487D01*
X539291Y533438D01*
X539238Y533391D01*
X539184Y533347D01*
X539126Y533306D01*
X539067Y533268D01*
X539006Y533233D01*
X538943Y533202D01*
X538878Y533174D01*
X538812Y533150D01*
X538745Y533129D01*
X538677Y533112D01*
X538608Y533099D01*
X538538Y533090D01*
X538468Y533084D01*
X538398Y533082D01*
X538398Y533081D02*
X535152Y533081D01*
X535152Y533082D02*
X535082Y533084D01*
X535012Y533090D01*
X534942Y533099D01*
X534873Y533112D01*
X534805Y533129D01*
X534738Y533150D01*
X534672Y533174D01*
X534607Y533202D01*
X534544Y533233D01*
X534483Y533268D01*
X534424Y533306D01*
X534366Y533347D01*
X534312Y533391D01*
X534259Y533438D01*
X534210Y533487D01*
X534163Y533540D01*
X534119Y533594D01*
X534078Y533652D01*
X534040Y533711D01*
X534005Y533772D01*
X533974Y533835D01*
X533946Y533900D01*
X533922Y533966D01*
X533901Y534033D01*
X533884Y534101D01*
X533871Y534170D01*
X533862Y534240D01*
X533856Y534310D01*
X533854Y534380D01*
X533854Y535678D01*
X539696Y537860D02*
X539696Y539808D01*
X539694Y539878D01*
X539688Y539948D01*
X539679Y540018D01*
X539666Y540087D01*
X539649Y540155D01*
X539628Y540222D01*
X539604Y540288D01*
X539576Y540353D01*
X539545Y540416D01*
X539510Y540477D01*
X539472Y540536D01*
X539431Y540594D01*
X539387Y540648D01*
X539340Y540701D01*
X539291Y540750D01*
X539238Y540797D01*
X539184Y540841D01*
X539126Y540882D01*
X539067Y540920D01*
X539006Y540955D01*
X538943Y540986D01*
X538878Y541014D01*
X538812Y541038D01*
X538745Y541059D01*
X538677Y541076D01*
X538608Y541089D01*
X538538Y541098D01*
X538468Y541104D01*
X538398Y541106D01*
X537749Y541106D01*
X537679Y541104D01*
X537609Y541098D01*
X537539Y541089D01*
X537470Y541076D01*
X537402Y541059D01*
X537335Y541038D01*
X537269Y541014D01*
X537204Y540986D01*
X537141Y540955D01*
X537080Y540920D01*
X537021Y540882D01*
X536963Y540841D01*
X536909Y540797D01*
X536856Y540750D01*
X536807Y540701D01*
X536760Y540648D01*
X536716Y540594D01*
X536675Y540536D01*
X536637Y540477D01*
X536602Y540416D01*
X536571Y540353D01*
X536543Y540288D01*
X536519Y540222D01*
X536498Y540155D01*
X536481Y540087D01*
X536468Y540018D01*
X536459Y539948D01*
X536453Y539878D01*
X536451Y539808D01*
X536450Y539808D02*
X536450Y537860D01*
X533854Y537860D01*
X533854Y541106D01*
D85*
X521789Y534829D02*
X521789Y532741D01*
X521787Y532652D01*
X521781Y532564D01*
X521772Y532476D01*
X521759Y532388D01*
X521742Y532301D01*
X521722Y532215D01*
X521697Y532130D01*
X521670Y532045D01*
X521638Y531962D01*
X521604Y531881D01*
X521565Y531801D01*
X521524Y531723D01*
X521479Y531646D01*
X521431Y531572D01*
X521380Y531499D01*
X521326Y531429D01*
X521268Y531362D01*
X521208Y531296D01*
X521146Y531234D01*
X521080Y531174D01*
X521013Y531116D01*
X520943Y531062D01*
X520870Y531011D01*
X520796Y530963D01*
X520719Y530918D01*
X520641Y530877D01*
X520561Y530838D01*
X520480Y530804D01*
X520397Y530772D01*
X520312Y530745D01*
X520227Y530720D01*
X520141Y530700D01*
X520054Y530683D01*
X519966Y530670D01*
X519878Y530661D01*
X519790Y530655D01*
X519701Y530653D01*
X519701Y530652D02*
X514479Y530652D01*
X514388Y530654D01*
X514297Y530660D01*
X514206Y530670D01*
X514116Y530684D01*
X514027Y530702D01*
X513938Y530723D01*
X513851Y530749D01*
X513765Y530778D01*
X513680Y530811D01*
X513596Y530848D01*
X513514Y530888D01*
X513435Y530932D01*
X513357Y530979D01*
X513281Y531030D01*
X513207Y531084D01*
X513136Y531141D01*
X513068Y531201D01*
X513002Y531264D01*
X512939Y531330D01*
X512879Y531398D01*
X512822Y531469D01*
X512768Y531543D01*
X512717Y531619D01*
X512670Y531696D01*
X512626Y531776D01*
X512586Y531858D01*
X512549Y531942D01*
X512516Y532026D01*
X512487Y532113D01*
X512461Y532200D01*
X512440Y532289D01*
X512422Y532378D01*
X512408Y532468D01*
X512398Y532559D01*
X512392Y532650D01*
X512390Y532741D01*
X512391Y532741D02*
X512391Y534829D01*
X512391Y538298D02*
X513435Y538298D01*
X512391Y538298D02*
X512391Y543519D01*
X521789Y540908D01*
X497659Y534829D02*
X497659Y532741D01*
X497657Y532652D01*
X497651Y532564D01*
X497642Y532476D01*
X497629Y532388D01*
X497612Y532301D01*
X497592Y532215D01*
X497567Y532130D01*
X497540Y532045D01*
X497508Y531962D01*
X497474Y531881D01*
X497435Y531801D01*
X497394Y531723D01*
X497349Y531646D01*
X497301Y531572D01*
X497250Y531499D01*
X497196Y531429D01*
X497138Y531362D01*
X497078Y531296D01*
X497016Y531234D01*
X496950Y531174D01*
X496883Y531116D01*
X496813Y531062D01*
X496740Y531011D01*
X496666Y530963D01*
X496589Y530918D01*
X496511Y530877D01*
X496431Y530838D01*
X496350Y530804D01*
X496267Y530772D01*
X496182Y530745D01*
X496097Y530720D01*
X496011Y530700D01*
X495924Y530683D01*
X495836Y530670D01*
X495748Y530661D01*
X495660Y530655D01*
X495571Y530653D01*
X495571Y530652D02*
X490349Y530652D01*
X490258Y530654D01*
X490167Y530660D01*
X490076Y530670D01*
X489986Y530684D01*
X489897Y530702D01*
X489808Y530723D01*
X489721Y530749D01*
X489635Y530778D01*
X489550Y530811D01*
X489466Y530848D01*
X489384Y530888D01*
X489305Y530932D01*
X489227Y530979D01*
X489151Y531030D01*
X489077Y531084D01*
X489006Y531141D01*
X488938Y531201D01*
X488872Y531264D01*
X488809Y531330D01*
X488749Y531398D01*
X488692Y531469D01*
X488638Y531543D01*
X488587Y531619D01*
X488540Y531696D01*
X488496Y531776D01*
X488456Y531858D01*
X488419Y531942D01*
X488386Y532026D01*
X488357Y532113D01*
X488331Y532200D01*
X488310Y532289D01*
X488292Y532378D01*
X488278Y532468D01*
X488268Y532559D01*
X488262Y532650D01*
X488260Y532741D01*
X488261Y532741D02*
X488261Y534829D01*
X495048Y538297D02*
X494947Y538299D01*
X494846Y538305D01*
X494745Y538315D01*
X494645Y538328D01*
X494545Y538346D01*
X494446Y538367D01*
X494348Y538393D01*
X494251Y538422D01*
X494155Y538454D01*
X494061Y538491D01*
X493968Y538531D01*
X493876Y538575D01*
X493787Y538622D01*
X493699Y538673D01*
X493613Y538727D01*
X493530Y538784D01*
X493448Y538844D01*
X493370Y538908D01*
X493293Y538974D01*
X493220Y539044D01*
X493149Y539116D01*
X493081Y539191D01*
X493016Y539269D01*
X492954Y539349D01*
X492895Y539431D01*
X492839Y539516D01*
X492787Y539603D01*
X492738Y539691D01*
X492692Y539782D01*
X492651Y539874D01*
X492612Y539968D01*
X492578Y540063D01*
X492547Y540159D01*
X492520Y540257D01*
X492496Y540355D01*
X492477Y540455D01*
X492461Y540555D01*
X492449Y540655D01*
X492441Y540756D01*
X492437Y540857D01*
X492437Y540959D01*
X492441Y541060D01*
X492449Y541161D01*
X492461Y541261D01*
X492477Y541361D01*
X492496Y541461D01*
X492520Y541559D01*
X492547Y541657D01*
X492578Y541753D01*
X492612Y541848D01*
X492651Y541942D01*
X492692Y542034D01*
X492738Y542125D01*
X492787Y542214D01*
X492839Y542300D01*
X492895Y542385D01*
X492954Y542467D01*
X493016Y542547D01*
X493081Y542625D01*
X493149Y542700D01*
X493220Y542772D01*
X493293Y542842D01*
X493370Y542908D01*
X493448Y542972D01*
X493530Y543032D01*
X493613Y543089D01*
X493699Y543143D01*
X493787Y543194D01*
X493876Y543241D01*
X493968Y543285D01*
X494061Y543325D01*
X494155Y543362D01*
X494251Y543394D01*
X494348Y543423D01*
X494446Y543449D01*
X494545Y543470D01*
X494645Y543488D01*
X494745Y543501D01*
X494846Y543511D01*
X494947Y543517D01*
X495048Y543519D01*
X495149Y543517D01*
X495250Y543511D01*
X495351Y543501D01*
X495451Y543488D01*
X495551Y543470D01*
X495650Y543449D01*
X495748Y543423D01*
X495845Y543394D01*
X495941Y543362D01*
X496035Y543325D01*
X496128Y543285D01*
X496220Y543241D01*
X496309Y543194D01*
X496397Y543143D01*
X496483Y543089D01*
X496566Y543032D01*
X496648Y542972D01*
X496726Y542908D01*
X496803Y542842D01*
X496876Y542772D01*
X496947Y542700D01*
X497015Y542625D01*
X497080Y542547D01*
X497142Y542467D01*
X497201Y542385D01*
X497257Y542300D01*
X497309Y542214D01*
X497358Y542125D01*
X497404Y542034D01*
X497445Y541942D01*
X497484Y541848D01*
X497518Y541753D01*
X497549Y541657D01*
X497576Y541559D01*
X497600Y541461D01*
X497619Y541361D01*
X497635Y541261D01*
X497647Y541161D01*
X497655Y541060D01*
X497659Y540959D01*
X497659Y540857D01*
X497655Y540756D01*
X497647Y540655D01*
X497635Y540555D01*
X497619Y540455D01*
X497600Y540355D01*
X497576Y540257D01*
X497549Y540159D01*
X497518Y540063D01*
X497484Y539968D01*
X497445Y539874D01*
X497404Y539782D01*
X497358Y539691D01*
X497309Y539603D01*
X497257Y539516D01*
X497201Y539431D01*
X497142Y539349D01*
X497080Y539269D01*
X497015Y539191D01*
X496947Y539116D01*
X496876Y539044D01*
X496803Y538974D01*
X496726Y538908D01*
X496648Y538844D01*
X496566Y538784D01*
X496483Y538727D01*
X496397Y538673D01*
X496309Y538622D01*
X496220Y538575D01*
X496128Y538531D01*
X496035Y538491D01*
X495941Y538454D01*
X495845Y538422D01*
X495748Y538393D01*
X495650Y538367D01*
X495551Y538346D01*
X495451Y538328D01*
X495351Y538315D01*
X495250Y538305D01*
X495149Y538299D01*
X495048Y538297D01*
X490349Y538820D02*
X490259Y538822D01*
X490170Y538828D01*
X490080Y538837D01*
X489991Y538851D01*
X489903Y538868D01*
X489816Y538889D01*
X489729Y538914D01*
X489644Y538943D01*
X489560Y538975D01*
X489478Y539010D01*
X489397Y539050D01*
X489318Y539092D01*
X489241Y539138D01*
X489166Y539188D01*
X489093Y539240D01*
X489022Y539296D01*
X488954Y539354D01*
X488889Y539416D01*
X488826Y539480D01*
X488766Y539547D01*
X488709Y539616D01*
X488655Y539688D01*
X488604Y539762D01*
X488556Y539838D01*
X488512Y539916D01*
X488471Y539996D01*
X488433Y540078D01*
X488399Y540161D01*
X488369Y540246D01*
X488342Y540332D01*
X488319Y540418D01*
X488300Y540506D01*
X488285Y540595D01*
X488273Y540684D01*
X488265Y540773D01*
X488261Y540863D01*
X488261Y540953D01*
X488265Y541043D01*
X488273Y541132D01*
X488285Y541221D01*
X488300Y541310D01*
X488319Y541398D01*
X488342Y541484D01*
X488369Y541570D01*
X488399Y541655D01*
X488433Y541738D01*
X488471Y541820D01*
X488512Y541900D01*
X488556Y541978D01*
X488604Y542054D01*
X488655Y542128D01*
X488709Y542200D01*
X488766Y542269D01*
X488826Y542336D01*
X488889Y542400D01*
X488954Y542462D01*
X489022Y542520D01*
X489093Y542576D01*
X489166Y542628D01*
X489241Y542678D01*
X489318Y542724D01*
X489397Y542766D01*
X489478Y542806D01*
X489560Y542841D01*
X489644Y542873D01*
X489729Y542902D01*
X489816Y542927D01*
X489903Y542948D01*
X489991Y542965D01*
X490080Y542979D01*
X490170Y542988D01*
X490259Y542994D01*
X490349Y542996D01*
X490439Y542994D01*
X490528Y542988D01*
X490618Y542979D01*
X490707Y542965D01*
X490795Y542948D01*
X490882Y542927D01*
X490969Y542902D01*
X491054Y542873D01*
X491138Y542841D01*
X491220Y542806D01*
X491301Y542766D01*
X491380Y542724D01*
X491457Y542678D01*
X491532Y542628D01*
X491605Y542576D01*
X491676Y542520D01*
X491744Y542462D01*
X491809Y542400D01*
X491872Y542336D01*
X491932Y542269D01*
X491989Y542200D01*
X492043Y542128D01*
X492094Y542054D01*
X492142Y541978D01*
X492186Y541900D01*
X492227Y541820D01*
X492265Y541738D01*
X492299Y541655D01*
X492329Y541570D01*
X492356Y541484D01*
X492379Y541398D01*
X492398Y541310D01*
X492413Y541221D01*
X492425Y541132D01*
X492433Y541043D01*
X492437Y540953D01*
X492437Y540863D01*
X492433Y540773D01*
X492425Y540684D01*
X492413Y540595D01*
X492398Y540506D01*
X492379Y540418D01*
X492356Y540332D01*
X492329Y540246D01*
X492299Y540161D01*
X492265Y540078D01*
X492227Y539996D01*
X492186Y539916D01*
X492142Y539838D01*
X492094Y539762D01*
X492043Y539688D01*
X491989Y539616D01*
X491932Y539547D01*
X491872Y539480D01*
X491809Y539416D01*
X491744Y539354D01*
X491676Y539296D01*
X491605Y539240D01*
X491532Y539188D01*
X491457Y539138D01*
X491380Y539092D01*
X491301Y539050D01*
X491220Y539010D01*
X491138Y538975D01*
X491054Y538943D01*
X490969Y538914D01*
X490882Y538889D01*
X490795Y538868D01*
X490707Y538851D01*
X490618Y538837D01*
X490528Y538828D01*
X490439Y538822D01*
X490349Y538820D01*
D78*
X479665Y115911D02*
X479665Y111085D01*
X479665Y115911D02*
X481006Y115911D01*
X481077Y115909D01*
X481149Y115903D01*
X481219Y115894D01*
X481289Y115881D01*
X481359Y115864D01*
X481427Y115843D01*
X481494Y115819D01*
X481560Y115791D01*
X481624Y115760D01*
X481687Y115725D01*
X481747Y115687D01*
X481806Y115646D01*
X481862Y115602D01*
X481916Y115555D01*
X481967Y115506D01*
X482015Y115453D01*
X482061Y115398D01*
X482103Y115341D01*
X482143Y115281D01*
X482179Y115220D01*
X482212Y115156D01*
X482241Y115091D01*
X482267Y115025D01*
X482290Y114957D01*
X482309Y114888D01*
X482324Y114818D01*
X482335Y114748D01*
X482343Y114677D01*
X482347Y114606D01*
X482347Y114534D01*
X482343Y114463D01*
X482335Y114392D01*
X482324Y114322D01*
X482309Y114252D01*
X482290Y114183D01*
X482267Y114115D01*
X482241Y114049D01*
X482212Y113984D01*
X482179Y113920D01*
X482143Y113859D01*
X482103Y113799D01*
X482061Y113742D01*
X482015Y113687D01*
X481967Y113634D01*
X481916Y113585D01*
X481862Y113538D01*
X481806Y113494D01*
X481747Y113453D01*
X481687Y113415D01*
X481624Y113380D01*
X481560Y113349D01*
X481494Y113321D01*
X481427Y113297D01*
X481359Y113276D01*
X481289Y113259D01*
X481219Y113246D01*
X481149Y113237D01*
X481077Y113231D01*
X481006Y113229D01*
X481006Y113230D02*
X479665Y113230D01*
X481274Y113230D02*
X482346Y111085D01*
X485088Y114839D02*
X486428Y115911D01*
X486428Y111085D01*
X485088Y111085D02*
X487769Y111085D01*
X490574Y113498D02*
X490576Y113618D01*
X490581Y113738D01*
X490590Y113858D01*
X490603Y113978D01*
X490619Y114097D01*
X490639Y114216D01*
X490663Y114334D01*
X490690Y114451D01*
X490720Y114567D01*
X490754Y114682D01*
X490792Y114797D01*
X490833Y114910D01*
X490877Y115021D01*
X490925Y115132D01*
X490976Y115241D01*
X490977Y115241D02*
X490998Y115298D01*
X491024Y115354D01*
X491052Y115409D01*
X491084Y115461D01*
X491120Y115512D01*
X491158Y115560D01*
X491199Y115606D01*
X491243Y115649D01*
X491289Y115689D01*
X491338Y115726D01*
X491390Y115760D01*
X491443Y115791D01*
X491498Y115819D01*
X491554Y115843D01*
X491612Y115864D01*
X491671Y115881D01*
X491731Y115894D01*
X491792Y115903D01*
X491854Y115909D01*
X491915Y115911D01*
X491976Y115909D01*
X492038Y115903D01*
X492099Y115894D01*
X492159Y115881D01*
X492218Y115864D01*
X492276Y115843D01*
X492332Y115819D01*
X492387Y115791D01*
X492440Y115760D01*
X492492Y115726D01*
X492541Y115689D01*
X492587Y115649D01*
X492631Y115606D01*
X492672Y115560D01*
X492710Y115512D01*
X492746Y115461D01*
X492778Y115409D01*
X492806Y115354D01*
X492832Y115298D01*
X492853Y115241D01*
X492904Y115132D01*
X492952Y115021D01*
X492996Y114910D01*
X493037Y114797D01*
X493075Y114682D01*
X493109Y114567D01*
X493139Y114451D01*
X493166Y114334D01*
X493190Y114216D01*
X493210Y114097D01*
X493226Y113978D01*
X493239Y113858D01*
X493248Y113738D01*
X493253Y113618D01*
X493255Y113498D01*
X490574Y113498D02*
X490576Y113378D01*
X490581Y113258D01*
X490590Y113138D01*
X490603Y113018D01*
X490619Y112899D01*
X490639Y112780D01*
X490663Y112662D01*
X490690Y112545D01*
X490720Y112429D01*
X490754Y112314D01*
X490792Y112199D01*
X490833Y112086D01*
X490877Y111975D01*
X490925Y111864D01*
X490976Y111755D01*
X490977Y111755D02*
X490998Y111698D01*
X491024Y111642D01*
X491052Y111587D01*
X491084Y111535D01*
X491120Y111484D01*
X491158Y111436D01*
X491199Y111390D01*
X491243Y111347D01*
X491289Y111307D01*
X491338Y111270D01*
X491390Y111236D01*
X491443Y111205D01*
X491498Y111177D01*
X491554Y111153D01*
X491612Y111132D01*
X491671Y111115D01*
X491731Y111102D01*
X491792Y111093D01*
X491854Y111087D01*
X491915Y111085D01*
X492853Y111755D02*
X492904Y111864D01*
X492952Y111975D01*
X492996Y112086D01*
X493037Y112199D01*
X493075Y112314D01*
X493109Y112429D01*
X493139Y112545D01*
X493166Y112662D01*
X493190Y112780D01*
X493210Y112899D01*
X493226Y113018D01*
X493239Y113138D01*
X493248Y113258D01*
X493253Y113378D01*
X493255Y113498D01*
X492853Y111755D02*
X492832Y111698D01*
X492806Y111642D01*
X492778Y111587D01*
X492746Y111535D01*
X492710Y111484D01*
X492672Y111436D01*
X492631Y111390D01*
X492587Y111347D01*
X492540Y111307D01*
X492492Y111270D01*
X492440Y111236D01*
X492387Y111205D01*
X492332Y111177D01*
X492276Y111153D01*
X492218Y111132D01*
X492159Y111115D01*
X492099Y111102D01*
X492038Y111093D01*
X491976Y111087D01*
X491915Y111085D01*
X490842Y112157D02*
X492987Y114839D01*
X517765Y94575D02*
X517765Y89749D01*
X517765Y94575D02*
X519105Y94575D01*
X519176Y94573D01*
X519248Y94567D01*
X519318Y94558D01*
X519388Y94545D01*
X519458Y94528D01*
X519526Y94507D01*
X519593Y94483D01*
X519659Y94455D01*
X519723Y94424D01*
X519786Y94389D01*
X519846Y94351D01*
X519905Y94310D01*
X519961Y94266D01*
X520015Y94219D01*
X520066Y94170D01*
X520114Y94117D01*
X520160Y94062D01*
X520202Y94005D01*
X520242Y93945D01*
X520278Y93884D01*
X520311Y93820D01*
X520340Y93755D01*
X520366Y93689D01*
X520389Y93621D01*
X520408Y93552D01*
X520423Y93482D01*
X520434Y93412D01*
X520442Y93341D01*
X520446Y93270D01*
X520446Y93198D01*
X520442Y93127D01*
X520434Y93056D01*
X520423Y92986D01*
X520408Y92916D01*
X520389Y92847D01*
X520366Y92779D01*
X520340Y92713D01*
X520311Y92648D01*
X520278Y92584D01*
X520242Y92523D01*
X520202Y92463D01*
X520160Y92406D01*
X520114Y92351D01*
X520066Y92298D01*
X520015Y92249D01*
X519961Y92202D01*
X519905Y92158D01*
X519846Y92117D01*
X519786Y92079D01*
X519723Y92044D01*
X519659Y92013D01*
X519593Y91985D01*
X519526Y91961D01*
X519458Y91940D01*
X519388Y91923D01*
X519318Y91910D01*
X519248Y91901D01*
X519176Y91895D01*
X519105Y91893D01*
X519105Y91894D02*
X517765Y91894D01*
X519374Y91894D02*
X520446Y89749D01*
X523188Y93503D02*
X524528Y94575D01*
X524528Y89749D01*
X523188Y89749D02*
X525869Y89749D01*
X528674Y89749D02*
X530014Y89749D01*
X530085Y89751D01*
X530157Y89757D01*
X530227Y89766D01*
X530297Y89779D01*
X530367Y89796D01*
X530435Y89817D01*
X530502Y89841D01*
X530568Y89869D01*
X530632Y89900D01*
X530695Y89935D01*
X530755Y89973D01*
X530814Y90014D01*
X530870Y90058D01*
X530924Y90105D01*
X530975Y90154D01*
X531023Y90207D01*
X531069Y90262D01*
X531111Y90319D01*
X531151Y90379D01*
X531187Y90440D01*
X531220Y90504D01*
X531249Y90569D01*
X531275Y90635D01*
X531298Y90703D01*
X531317Y90772D01*
X531332Y90842D01*
X531343Y90912D01*
X531351Y90983D01*
X531355Y91054D01*
X531355Y91126D01*
X531351Y91197D01*
X531343Y91268D01*
X531332Y91338D01*
X531317Y91408D01*
X531298Y91477D01*
X531275Y91545D01*
X531249Y91611D01*
X531220Y91676D01*
X531187Y91740D01*
X531151Y91801D01*
X531111Y91861D01*
X531069Y91918D01*
X531023Y91973D01*
X530975Y92026D01*
X530924Y92075D01*
X530870Y92122D01*
X530814Y92166D01*
X530755Y92207D01*
X530695Y92245D01*
X530632Y92280D01*
X530568Y92311D01*
X530502Y92339D01*
X530435Y92363D01*
X530367Y92384D01*
X530297Y92401D01*
X530227Y92414D01*
X530157Y92423D01*
X530085Y92429D01*
X530014Y92431D01*
X530283Y94575D02*
X528674Y94575D01*
X530283Y94575D02*
X530348Y94573D01*
X530412Y94567D01*
X530476Y94557D01*
X530540Y94544D01*
X530602Y94526D01*
X530663Y94505D01*
X530723Y94481D01*
X530781Y94452D01*
X530838Y94420D01*
X530892Y94385D01*
X530944Y94347D01*
X530994Y94305D01*
X531041Y94261D01*
X531085Y94214D01*
X531127Y94164D01*
X531165Y94112D01*
X531200Y94058D01*
X531232Y94001D01*
X531261Y93943D01*
X531285Y93883D01*
X531306Y93822D01*
X531324Y93760D01*
X531337Y93696D01*
X531347Y93632D01*
X531353Y93568D01*
X531355Y93503D01*
X531353Y93438D01*
X531347Y93374D01*
X531337Y93310D01*
X531324Y93246D01*
X531306Y93184D01*
X531285Y93123D01*
X531261Y93063D01*
X531232Y93005D01*
X531200Y92948D01*
X531165Y92894D01*
X531127Y92842D01*
X531085Y92792D01*
X531041Y92745D01*
X530994Y92701D01*
X530944Y92659D01*
X530892Y92621D01*
X530838Y92586D01*
X530781Y92554D01*
X530723Y92525D01*
X530663Y92501D01*
X530602Y92480D01*
X530540Y92462D01*
X530476Y92449D01*
X530412Y92439D01*
X530348Y92433D01*
X530283Y92431D01*
X530283Y92430D02*
X529210Y92430D01*
X534400Y69410D02*
X494400Y69410D01*
X494400Y19410D02*
X534400Y19410D01*
D86*
X470400Y64410D02*
X470402Y64473D01*
X470408Y64535D01*
X470418Y64597D01*
X470431Y64659D01*
X470449Y64719D01*
X470470Y64778D01*
X470495Y64836D01*
X470524Y64892D01*
X470556Y64946D01*
X470591Y64998D01*
X470629Y65047D01*
X470671Y65095D01*
X470715Y65139D01*
X470763Y65181D01*
X470812Y65219D01*
X470864Y65254D01*
X470918Y65286D01*
X470974Y65315D01*
X471032Y65340D01*
X471091Y65361D01*
X471151Y65379D01*
X471213Y65392D01*
X471275Y65402D01*
X471337Y65408D01*
X471400Y65410D01*
X471463Y65408D01*
X471525Y65402D01*
X471587Y65392D01*
X471649Y65379D01*
X471709Y65361D01*
X471768Y65340D01*
X471826Y65315D01*
X471882Y65286D01*
X471936Y65254D01*
X471988Y65219D01*
X472037Y65181D01*
X472085Y65139D01*
X472129Y65095D01*
X472171Y65047D01*
X472209Y64998D01*
X472244Y64946D01*
X472276Y64892D01*
X472305Y64836D01*
X472330Y64778D01*
X472351Y64719D01*
X472369Y64659D01*
X472382Y64597D01*
X472392Y64535D01*
X472398Y64473D01*
X472400Y64410D01*
X472398Y64347D01*
X472392Y64285D01*
X472382Y64223D01*
X472369Y64161D01*
X472351Y64101D01*
X472330Y64042D01*
X472305Y63984D01*
X472276Y63928D01*
X472244Y63874D01*
X472209Y63822D01*
X472171Y63773D01*
X472129Y63725D01*
X472085Y63681D01*
X472037Y63639D01*
X471988Y63601D01*
X471936Y63566D01*
X471882Y63534D01*
X471826Y63505D01*
X471768Y63480D01*
X471709Y63459D01*
X471649Y63441D01*
X471587Y63428D01*
X471525Y63418D01*
X471463Y63412D01*
X471400Y63410D01*
X471337Y63412D01*
X471275Y63418D01*
X471213Y63428D01*
X471151Y63441D01*
X471091Y63459D01*
X471032Y63480D01*
X470974Y63505D01*
X470918Y63534D01*
X470864Y63566D01*
X470812Y63601D01*
X470763Y63639D01*
X470715Y63681D01*
X470671Y63725D01*
X470629Y63773D01*
X470591Y63822D01*
X470556Y63874D01*
X470524Y63928D01*
X470495Y63984D01*
X470470Y64042D01*
X470449Y64101D01*
X470431Y64161D01*
X470418Y64223D01*
X470408Y64285D01*
X470402Y64347D01*
X470400Y64410D01*
D84*
X476554Y84316D02*
X476554Y86800D01*
X476556Y86877D01*
X476562Y86955D01*
X476571Y87031D01*
X476585Y87108D01*
X476602Y87183D01*
X476623Y87257D01*
X476648Y87331D01*
X476676Y87403D01*
X476708Y87473D01*
X476743Y87542D01*
X476782Y87609D01*
X476824Y87674D01*
X476869Y87737D01*
X476917Y87798D01*
X476968Y87856D01*
X477022Y87911D01*
X477079Y87964D01*
X477138Y88013D01*
X477200Y88060D01*
X477264Y88104D01*
X477330Y88144D01*
X477398Y88181D01*
X477468Y88215D01*
X477539Y88245D01*
X477612Y88271D01*
X477686Y88294D01*
X477761Y88313D01*
X477836Y88328D01*
X477913Y88340D01*
X477990Y88348D01*
X478067Y88352D01*
X478145Y88352D01*
X478222Y88348D01*
X478299Y88340D01*
X478376Y88328D01*
X478451Y88313D01*
X478526Y88294D01*
X478600Y88271D01*
X478673Y88245D01*
X478744Y88215D01*
X478814Y88181D01*
X478882Y88144D01*
X478948Y88104D01*
X479012Y88060D01*
X479074Y88013D01*
X479133Y87964D01*
X479190Y87911D01*
X479244Y87856D01*
X479295Y87798D01*
X479343Y87737D01*
X479388Y87674D01*
X479430Y87609D01*
X479469Y87542D01*
X479504Y87473D01*
X479536Y87403D01*
X479564Y87331D01*
X479589Y87257D01*
X479610Y87183D01*
X479627Y87108D01*
X479641Y87031D01*
X479650Y86955D01*
X479656Y86877D01*
X479658Y86800D01*
X479658Y84316D01*
X479656Y84239D01*
X479650Y84161D01*
X479641Y84085D01*
X479627Y84008D01*
X479610Y83933D01*
X479589Y83859D01*
X479564Y83785D01*
X479536Y83713D01*
X479504Y83643D01*
X479469Y83574D01*
X479430Y83507D01*
X479388Y83442D01*
X479343Y83379D01*
X479295Y83318D01*
X479244Y83260D01*
X479190Y83205D01*
X479133Y83152D01*
X479074Y83103D01*
X479012Y83056D01*
X478948Y83012D01*
X478882Y82972D01*
X478814Y82935D01*
X478744Y82901D01*
X478673Y82871D01*
X478600Y82845D01*
X478526Y82822D01*
X478451Y82803D01*
X478376Y82788D01*
X478299Y82776D01*
X478222Y82768D01*
X478145Y82764D01*
X478067Y82764D01*
X477990Y82768D01*
X477913Y82776D01*
X477836Y82788D01*
X477761Y82803D01*
X477686Y82822D01*
X477612Y82845D01*
X477539Y82871D01*
X477468Y82901D01*
X477398Y82935D01*
X477330Y82972D01*
X477264Y83012D01*
X477200Y83056D01*
X477138Y83103D01*
X477079Y83152D01*
X477022Y83205D01*
X476968Y83260D01*
X476917Y83318D01*
X476869Y83379D01*
X476824Y83442D01*
X476782Y83507D01*
X476743Y83574D01*
X476708Y83643D01*
X476676Y83713D01*
X476648Y83785D01*
X476623Y83859D01*
X476602Y83933D01*
X476585Y84008D01*
X476571Y84085D01*
X476562Y84161D01*
X476556Y84239D01*
X476554Y84316D01*
X479038Y84006D02*
X480279Y82764D01*
X481896Y82764D02*
X483449Y82764D01*
X483526Y82766D01*
X483604Y82772D01*
X483680Y82781D01*
X483757Y82795D01*
X483832Y82812D01*
X483906Y82833D01*
X483980Y82858D01*
X484052Y82886D01*
X484122Y82918D01*
X484191Y82953D01*
X484258Y82992D01*
X484323Y83034D01*
X484386Y83079D01*
X484447Y83127D01*
X484505Y83178D01*
X484560Y83232D01*
X484613Y83289D01*
X484662Y83348D01*
X484709Y83410D01*
X484753Y83474D01*
X484793Y83540D01*
X484830Y83608D01*
X484864Y83678D01*
X484894Y83749D01*
X484920Y83822D01*
X484943Y83896D01*
X484962Y83971D01*
X484977Y84046D01*
X484989Y84123D01*
X484997Y84200D01*
X485001Y84277D01*
X485001Y84355D01*
X484997Y84432D01*
X484989Y84509D01*
X484977Y84586D01*
X484962Y84661D01*
X484943Y84736D01*
X484920Y84810D01*
X484894Y84883D01*
X484864Y84954D01*
X484830Y85024D01*
X484793Y85092D01*
X484753Y85158D01*
X484709Y85222D01*
X484662Y85284D01*
X484613Y85343D01*
X484560Y85400D01*
X484505Y85454D01*
X484447Y85505D01*
X484386Y85553D01*
X484323Y85598D01*
X484258Y85640D01*
X484191Y85679D01*
X484122Y85714D01*
X484052Y85746D01*
X483980Y85774D01*
X483906Y85799D01*
X483832Y85820D01*
X483757Y85837D01*
X483680Y85851D01*
X483604Y85860D01*
X483526Y85866D01*
X483449Y85868D01*
X483759Y88352D02*
X481896Y88352D01*
X483759Y88352D02*
X483829Y88350D01*
X483898Y88344D01*
X483967Y88334D01*
X484035Y88321D01*
X484103Y88303D01*
X484169Y88282D01*
X484234Y88257D01*
X484298Y88229D01*
X484360Y88197D01*
X484420Y88162D01*
X484478Y88123D01*
X484533Y88081D01*
X484587Y88036D01*
X484637Y87988D01*
X484685Y87938D01*
X484730Y87884D01*
X484772Y87829D01*
X484811Y87771D01*
X484846Y87711D01*
X484878Y87649D01*
X484906Y87585D01*
X484931Y87520D01*
X484952Y87454D01*
X484970Y87386D01*
X484983Y87318D01*
X484993Y87249D01*
X484999Y87180D01*
X485001Y87110D01*
X484999Y87040D01*
X484993Y86971D01*
X484983Y86902D01*
X484970Y86834D01*
X484952Y86766D01*
X484931Y86700D01*
X484906Y86635D01*
X484878Y86571D01*
X484846Y86509D01*
X484811Y86449D01*
X484772Y86391D01*
X484730Y86336D01*
X484685Y86282D01*
X484637Y86232D01*
X484587Y86184D01*
X484533Y86139D01*
X484478Y86097D01*
X484420Y86058D01*
X484360Y86023D01*
X484298Y85991D01*
X484234Y85963D01*
X484169Y85938D01*
X484103Y85917D01*
X484035Y85899D01*
X483967Y85886D01*
X483898Y85876D01*
X483829Y85870D01*
X483759Y85868D01*
X482517Y85868D01*
X473402Y27897D02*
X473402Y26655D01*
X473400Y26585D01*
X473394Y26516D01*
X473384Y26447D01*
X473371Y26379D01*
X473353Y26311D01*
X473332Y26245D01*
X473307Y26180D01*
X473279Y26116D01*
X473247Y26054D01*
X473212Y25994D01*
X473173Y25936D01*
X473131Y25881D01*
X473086Y25827D01*
X473038Y25777D01*
X472988Y25729D01*
X472934Y25684D01*
X472879Y25642D01*
X472821Y25603D01*
X472761Y25568D01*
X472699Y25536D01*
X472635Y25508D01*
X472570Y25483D01*
X472504Y25462D01*
X472436Y25444D01*
X472368Y25431D01*
X472299Y25421D01*
X472230Y25415D01*
X472160Y25413D01*
X469056Y25413D01*
X468986Y25415D01*
X468917Y25421D01*
X468848Y25431D01*
X468780Y25444D01*
X468712Y25462D01*
X468646Y25483D01*
X468581Y25508D01*
X468517Y25536D01*
X468455Y25568D01*
X468395Y25603D01*
X468337Y25642D01*
X468282Y25684D01*
X468228Y25729D01*
X468178Y25777D01*
X468130Y25827D01*
X468085Y25881D01*
X468043Y25936D01*
X468004Y25994D01*
X467969Y26054D01*
X467937Y26116D01*
X467909Y26180D01*
X467884Y26245D01*
X467863Y26311D01*
X467845Y26379D01*
X467832Y26447D01*
X467822Y26516D01*
X467816Y26585D01*
X467814Y26655D01*
X467814Y27897D01*
X470918Y31243D02*
X470918Y33106D01*
X470919Y31243D02*
X470917Y31173D01*
X470911Y31104D01*
X470901Y31035D01*
X470888Y30967D01*
X470870Y30899D01*
X470849Y30833D01*
X470824Y30768D01*
X470796Y30704D01*
X470764Y30642D01*
X470729Y30582D01*
X470690Y30524D01*
X470648Y30469D01*
X470603Y30415D01*
X470555Y30365D01*
X470505Y30317D01*
X470451Y30272D01*
X470396Y30230D01*
X470338Y30191D01*
X470278Y30156D01*
X470216Y30124D01*
X470152Y30096D01*
X470087Y30071D01*
X470021Y30050D01*
X469953Y30032D01*
X469885Y30019D01*
X469816Y30009D01*
X469747Y30003D01*
X469677Y30001D01*
X469677Y30002D02*
X469366Y30002D01*
X469289Y30004D01*
X469211Y30010D01*
X469135Y30019D01*
X469058Y30033D01*
X468983Y30050D01*
X468909Y30071D01*
X468835Y30096D01*
X468763Y30124D01*
X468693Y30156D01*
X468624Y30191D01*
X468557Y30230D01*
X468492Y30272D01*
X468429Y30317D01*
X468368Y30365D01*
X468310Y30416D01*
X468255Y30470D01*
X468202Y30527D01*
X468153Y30586D01*
X468106Y30648D01*
X468062Y30712D01*
X468022Y30778D01*
X467985Y30846D01*
X467951Y30916D01*
X467921Y30987D01*
X467895Y31060D01*
X467872Y31134D01*
X467853Y31209D01*
X467838Y31284D01*
X467826Y31361D01*
X467818Y31438D01*
X467814Y31515D01*
X467814Y31593D01*
X467818Y31670D01*
X467826Y31747D01*
X467838Y31824D01*
X467853Y31899D01*
X467872Y31974D01*
X467895Y32048D01*
X467921Y32121D01*
X467951Y32192D01*
X467985Y32262D01*
X468022Y32330D01*
X468062Y32396D01*
X468106Y32460D01*
X468153Y32522D01*
X468202Y32581D01*
X468255Y32638D01*
X468310Y32692D01*
X468368Y32743D01*
X468429Y32791D01*
X468492Y32836D01*
X468557Y32878D01*
X468624Y32917D01*
X468693Y32952D01*
X468763Y32984D01*
X468835Y33012D01*
X468909Y33037D01*
X468983Y33058D01*
X469058Y33075D01*
X469135Y33089D01*
X469211Y33098D01*
X469289Y33104D01*
X469366Y33106D01*
X470918Y33106D01*
X471016Y33104D01*
X471113Y33098D01*
X471210Y33089D01*
X471307Y33075D01*
X471403Y33058D01*
X471498Y33037D01*
X471592Y33013D01*
X471686Y32984D01*
X471778Y32952D01*
X471869Y32917D01*
X471958Y32878D01*
X472046Y32835D01*
X472132Y32789D01*
X472216Y32740D01*
X472298Y32687D01*
X472378Y32632D01*
X472456Y32573D01*
X472531Y32511D01*
X472604Y32446D01*
X472674Y32378D01*
X472742Y32308D01*
X472807Y32235D01*
X472869Y32160D01*
X472928Y32082D01*
X472983Y32002D01*
X473036Y31920D01*
X473085Y31836D01*
X473131Y31750D01*
X473174Y31662D01*
X473213Y31573D01*
X473248Y31482D01*
X473280Y31390D01*
X473309Y31296D01*
X473333Y31202D01*
X473354Y31107D01*
X473371Y31011D01*
X473385Y30914D01*
X473394Y30817D01*
X473400Y30719D01*
X473402Y30622D01*
D78*
X451281Y18565D02*
X446455Y18565D01*
X446455Y19905D01*
X446457Y19976D01*
X446463Y20048D01*
X446472Y20118D01*
X446485Y20188D01*
X446502Y20258D01*
X446523Y20326D01*
X446547Y20393D01*
X446575Y20459D01*
X446606Y20523D01*
X446641Y20586D01*
X446679Y20646D01*
X446720Y20705D01*
X446764Y20761D01*
X446811Y20815D01*
X446860Y20866D01*
X446913Y20914D01*
X446968Y20960D01*
X447025Y21002D01*
X447085Y21042D01*
X447146Y21078D01*
X447210Y21111D01*
X447275Y21140D01*
X447341Y21166D01*
X447409Y21189D01*
X447478Y21208D01*
X447548Y21223D01*
X447618Y21234D01*
X447689Y21242D01*
X447760Y21246D01*
X447832Y21246D01*
X447903Y21242D01*
X447974Y21234D01*
X448044Y21223D01*
X448114Y21208D01*
X448183Y21189D01*
X448251Y21166D01*
X448317Y21140D01*
X448382Y21111D01*
X448446Y21078D01*
X448507Y21042D01*
X448567Y21002D01*
X448624Y20960D01*
X448679Y20914D01*
X448732Y20866D01*
X448781Y20815D01*
X448828Y20761D01*
X448872Y20705D01*
X448913Y20646D01*
X448951Y20586D01*
X448986Y20523D01*
X449017Y20459D01*
X449045Y20393D01*
X449069Y20326D01*
X449090Y20258D01*
X449107Y20188D01*
X449120Y20118D01*
X449129Y20048D01*
X449135Y19976D01*
X449137Y19905D01*
X449136Y19905D02*
X449136Y18565D01*
X449136Y20174D02*
X451281Y21246D01*
X447527Y23988D02*
X446455Y25328D01*
X451281Y25328D01*
X451281Y23988D02*
X451281Y26669D01*
X450209Y29474D02*
X446455Y30546D01*
X450209Y29474D02*
X450209Y32155D01*
X449136Y31351D02*
X451281Y31351D01*
D84*
X402458Y21954D02*
X401216Y21954D01*
X401146Y21956D01*
X401077Y21962D01*
X401008Y21972D01*
X400940Y21985D01*
X400872Y22003D01*
X400806Y22024D01*
X400741Y22049D01*
X400677Y22077D01*
X400615Y22109D01*
X400555Y22144D01*
X400497Y22183D01*
X400442Y22225D01*
X400388Y22270D01*
X400338Y22318D01*
X400290Y22368D01*
X400245Y22422D01*
X400203Y22477D01*
X400164Y22535D01*
X400129Y22595D01*
X400097Y22657D01*
X400069Y22721D01*
X400044Y22786D01*
X400023Y22852D01*
X400005Y22920D01*
X399992Y22988D01*
X399982Y23057D01*
X399976Y23126D01*
X399974Y23196D01*
X399974Y26300D01*
X399976Y26370D01*
X399982Y26439D01*
X399992Y26508D01*
X400005Y26576D01*
X400023Y26644D01*
X400044Y26710D01*
X400069Y26775D01*
X400097Y26839D01*
X400129Y26901D01*
X400164Y26961D01*
X400203Y27019D01*
X400245Y27074D01*
X400290Y27128D01*
X400338Y27178D01*
X400388Y27226D01*
X400442Y27271D01*
X400497Y27313D01*
X400555Y27352D01*
X400615Y27387D01*
X400677Y27419D01*
X400741Y27447D01*
X400806Y27472D01*
X400872Y27493D01*
X400940Y27511D01*
X401008Y27524D01*
X401077Y27534D01*
X401146Y27540D01*
X401216Y27542D01*
X402458Y27542D01*
X404562Y26300D02*
X406114Y27542D01*
X406114Y21954D01*
X404562Y21954D02*
X407667Y21954D01*
X410049Y24748D02*
X410051Y24879D01*
X410056Y25009D01*
X410066Y25139D01*
X410079Y25269D01*
X410095Y25399D01*
X410115Y25528D01*
X410139Y25656D01*
X410167Y25783D01*
X410198Y25910D01*
X410233Y26036D01*
X410271Y26161D01*
X410313Y26285D01*
X410358Y26407D01*
X410407Y26528D01*
X410459Y26648D01*
X410515Y26766D01*
X410514Y26766D02*
X410537Y26826D01*
X410563Y26886D01*
X410592Y26943D01*
X410625Y26999D01*
X410661Y27053D01*
X410699Y27105D01*
X410741Y27155D01*
X410785Y27202D01*
X410832Y27247D01*
X410882Y27289D01*
X410933Y27328D01*
X410987Y27364D01*
X411043Y27397D01*
X411100Y27427D01*
X411159Y27454D01*
X411220Y27477D01*
X411281Y27497D01*
X411344Y27513D01*
X411408Y27526D01*
X411472Y27535D01*
X411536Y27540D01*
X411601Y27542D01*
X411666Y27540D01*
X411730Y27535D01*
X411794Y27526D01*
X411858Y27513D01*
X411921Y27497D01*
X411982Y27477D01*
X412043Y27454D01*
X412102Y27427D01*
X412159Y27397D01*
X412215Y27364D01*
X412269Y27328D01*
X412320Y27289D01*
X412370Y27247D01*
X412417Y27202D01*
X412461Y27155D01*
X412503Y27105D01*
X412541Y27053D01*
X412577Y26999D01*
X412610Y26943D01*
X412639Y26886D01*
X412665Y26826D01*
X412688Y26766D01*
X412687Y26766D02*
X412743Y26648D01*
X412795Y26528D01*
X412844Y26407D01*
X412889Y26285D01*
X412931Y26161D01*
X412969Y26036D01*
X413004Y25910D01*
X413035Y25784D01*
X413063Y25656D01*
X413087Y25528D01*
X413107Y25399D01*
X413123Y25269D01*
X413136Y25139D01*
X413146Y25009D01*
X413151Y24879D01*
X413153Y24748D01*
X410049Y24748D02*
X410051Y24617D01*
X410056Y24487D01*
X410066Y24357D01*
X410079Y24227D01*
X410095Y24097D01*
X410115Y23968D01*
X410139Y23840D01*
X410167Y23713D01*
X410198Y23586D01*
X410233Y23460D01*
X410271Y23335D01*
X410313Y23211D01*
X410358Y23089D01*
X410407Y22968D01*
X410459Y22848D01*
X410515Y22730D01*
X410514Y22730D02*
X410537Y22670D01*
X410563Y22610D01*
X410592Y22553D01*
X410625Y22497D01*
X410661Y22443D01*
X410699Y22391D01*
X410741Y22341D01*
X410785Y22294D01*
X410832Y22249D01*
X410882Y22207D01*
X410933Y22168D01*
X410987Y22132D01*
X411043Y22099D01*
X411100Y22069D01*
X411159Y22042D01*
X411220Y22019D01*
X411281Y21999D01*
X411344Y21983D01*
X411408Y21970D01*
X411472Y21961D01*
X411536Y21956D01*
X411601Y21954D01*
X412687Y22730D02*
X412743Y22848D01*
X412795Y22968D01*
X412844Y23089D01*
X412889Y23211D01*
X412931Y23335D01*
X412969Y23460D01*
X413004Y23586D01*
X413035Y23712D01*
X413063Y23840D01*
X413087Y23968D01*
X413107Y24097D01*
X413123Y24227D01*
X413136Y24357D01*
X413146Y24487D01*
X413151Y24617D01*
X413153Y24748D01*
X412688Y22730D02*
X412665Y22670D01*
X412639Y22610D01*
X412610Y22553D01*
X412577Y22497D01*
X412541Y22443D01*
X412503Y22391D01*
X412461Y22341D01*
X412417Y22294D01*
X412370Y22249D01*
X412320Y22207D01*
X412269Y22168D01*
X412215Y22132D01*
X412159Y22099D01*
X412102Y22069D01*
X412043Y22042D01*
X411982Y22019D01*
X411921Y21999D01*
X411858Y21983D01*
X411794Y21970D01*
X411730Y21961D01*
X411666Y21956D01*
X411601Y21954D01*
X410359Y23196D02*
X412843Y26300D01*
D78*
X400925Y25995D02*
X400925Y21169D01*
X400925Y25995D02*
X402265Y25995D01*
X402336Y25993D01*
X402408Y25987D01*
X402478Y25978D01*
X402548Y25965D01*
X402618Y25948D01*
X402686Y25927D01*
X402753Y25903D01*
X402819Y25875D01*
X402883Y25844D01*
X402946Y25809D01*
X403006Y25771D01*
X403065Y25730D01*
X403121Y25686D01*
X403175Y25639D01*
X403226Y25590D01*
X403274Y25537D01*
X403320Y25482D01*
X403362Y25425D01*
X403402Y25365D01*
X403438Y25304D01*
X403471Y25240D01*
X403500Y25175D01*
X403526Y25109D01*
X403549Y25041D01*
X403568Y24972D01*
X403583Y24902D01*
X403594Y24832D01*
X403602Y24761D01*
X403606Y24690D01*
X403606Y24618D01*
X403602Y24547D01*
X403594Y24476D01*
X403583Y24406D01*
X403568Y24336D01*
X403549Y24267D01*
X403526Y24199D01*
X403500Y24133D01*
X403471Y24068D01*
X403438Y24004D01*
X403402Y23943D01*
X403362Y23883D01*
X403320Y23826D01*
X403274Y23771D01*
X403226Y23718D01*
X403175Y23669D01*
X403121Y23622D01*
X403065Y23578D01*
X403006Y23537D01*
X402946Y23499D01*
X402883Y23464D01*
X402819Y23433D01*
X402753Y23405D01*
X402686Y23381D01*
X402618Y23360D01*
X402548Y23343D01*
X402478Y23330D01*
X402408Y23321D01*
X402336Y23315D01*
X402265Y23313D01*
X402265Y23314D02*
X400925Y23314D01*
X402534Y23314D02*
X403606Y21169D01*
X406348Y24923D02*
X407688Y25995D01*
X407688Y21169D01*
X406348Y21169D02*
X409029Y21169D01*
X411834Y21169D02*
X413443Y21169D01*
X413508Y21171D01*
X413572Y21177D01*
X413636Y21187D01*
X413700Y21200D01*
X413762Y21218D01*
X413823Y21239D01*
X413883Y21263D01*
X413941Y21292D01*
X413998Y21324D01*
X414052Y21359D01*
X414104Y21397D01*
X414154Y21439D01*
X414201Y21483D01*
X414245Y21530D01*
X414287Y21580D01*
X414325Y21632D01*
X414360Y21686D01*
X414392Y21743D01*
X414421Y21801D01*
X414445Y21861D01*
X414466Y21922D01*
X414484Y21984D01*
X414497Y22048D01*
X414507Y22112D01*
X414513Y22176D01*
X414515Y22241D01*
X414515Y22778D01*
X414513Y22843D01*
X414507Y22907D01*
X414497Y22971D01*
X414484Y23035D01*
X414466Y23097D01*
X414445Y23158D01*
X414421Y23218D01*
X414392Y23276D01*
X414360Y23333D01*
X414325Y23387D01*
X414287Y23439D01*
X414245Y23489D01*
X414201Y23536D01*
X414154Y23580D01*
X414104Y23622D01*
X414052Y23660D01*
X413998Y23695D01*
X413941Y23727D01*
X413883Y23756D01*
X413823Y23780D01*
X413762Y23801D01*
X413700Y23819D01*
X413636Y23832D01*
X413572Y23842D01*
X413508Y23848D01*
X413443Y23850D01*
X411834Y23850D01*
X411834Y25995D01*
X414515Y25995D01*
D84*
X470862Y64349D02*
X470862Y65591D01*
X470862Y64349D02*
X470860Y64279D01*
X470854Y64210D01*
X470844Y64141D01*
X470831Y64073D01*
X470813Y64005D01*
X470792Y63939D01*
X470767Y63874D01*
X470739Y63810D01*
X470707Y63748D01*
X470672Y63688D01*
X470633Y63630D01*
X470591Y63575D01*
X470546Y63521D01*
X470498Y63471D01*
X470448Y63423D01*
X470394Y63378D01*
X470339Y63336D01*
X470281Y63297D01*
X470221Y63262D01*
X470159Y63230D01*
X470095Y63202D01*
X470030Y63177D01*
X469964Y63156D01*
X469896Y63138D01*
X469828Y63125D01*
X469759Y63115D01*
X469690Y63109D01*
X469620Y63107D01*
X466516Y63107D01*
X466446Y63109D01*
X466377Y63115D01*
X466308Y63125D01*
X466240Y63138D01*
X466172Y63156D01*
X466106Y63177D01*
X466041Y63202D01*
X465977Y63230D01*
X465915Y63262D01*
X465855Y63297D01*
X465797Y63336D01*
X465742Y63378D01*
X465688Y63423D01*
X465638Y63471D01*
X465590Y63521D01*
X465545Y63575D01*
X465503Y63630D01*
X465464Y63688D01*
X465429Y63748D01*
X465397Y63810D01*
X465369Y63874D01*
X465344Y63939D01*
X465323Y64005D01*
X465305Y64073D01*
X465292Y64141D01*
X465282Y64210D01*
X465276Y64279D01*
X465274Y64349D01*
X465274Y65591D01*
X466516Y67695D02*
X465274Y69247D01*
X470862Y69247D01*
X470862Y67695D02*
X470862Y70800D01*
X466516Y73182D02*
X465274Y74734D01*
X470862Y74734D01*
X470862Y73182D02*
X470862Y76286D01*
D78*
X441565Y89749D02*
X441565Y94575D01*
X442905Y94575D01*
X442976Y94573D01*
X443048Y94567D01*
X443118Y94558D01*
X443188Y94545D01*
X443258Y94528D01*
X443326Y94507D01*
X443393Y94483D01*
X443459Y94455D01*
X443523Y94424D01*
X443586Y94389D01*
X443646Y94351D01*
X443705Y94310D01*
X443761Y94266D01*
X443815Y94219D01*
X443866Y94170D01*
X443914Y94117D01*
X443960Y94062D01*
X444002Y94005D01*
X444042Y93945D01*
X444078Y93884D01*
X444111Y93820D01*
X444140Y93755D01*
X444166Y93689D01*
X444189Y93621D01*
X444208Y93552D01*
X444223Y93482D01*
X444234Y93412D01*
X444242Y93341D01*
X444246Y93270D01*
X444246Y93198D01*
X444242Y93127D01*
X444234Y93056D01*
X444223Y92986D01*
X444208Y92916D01*
X444189Y92847D01*
X444166Y92779D01*
X444140Y92713D01*
X444111Y92648D01*
X444078Y92584D01*
X444042Y92523D01*
X444002Y92463D01*
X443960Y92406D01*
X443914Y92351D01*
X443866Y92298D01*
X443815Y92249D01*
X443761Y92202D01*
X443705Y92158D01*
X443646Y92117D01*
X443586Y92079D01*
X443523Y92044D01*
X443459Y92013D01*
X443393Y91985D01*
X443326Y91961D01*
X443258Y91940D01*
X443188Y91923D01*
X443118Y91910D01*
X443048Y91901D01*
X442976Y91895D01*
X442905Y91893D01*
X442905Y91894D02*
X441565Y91894D01*
X443174Y91894D02*
X444246Y89749D01*
X446988Y93503D02*
X448328Y94575D01*
X448328Y89749D01*
X446988Y89749D02*
X449669Y89749D01*
X452474Y92430D02*
X454083Y92430D01*
X454148Y92428D01*
X454212Y92422D01*
X454276Y92412D01*
X454340Y92399D01*
X454402Y92381D01*
X454463Y92360D01*
X454523Y92336D01*
X454581Y92307D01*
X454638Y92275D01*
X454692Y92240D01*
X454744Y92202D01*
X454794Y92160D01*
X454841Y92116D01*
X454885Y92069D01*
X454927Y92019D01*
X454965Y91967D01*
X455000Y91913D01*
X455032Y91856D01*
X455061Y91798D01*
X455085Y91738D01*
X455106Y91677D01*
X455124Y91615D01*
X455137Y91551D01*
X455147Y91487D01*
X455153Y91423D01*
X455155Y91358D01*
X455155Y91090D01*
X455153Y91019D01*
X455147Y90947D01*
X455138Y90877D01*
X455125Y90807D01*
X455108Y90737D01*
X455087Y90669D01*
X455063Y90602D01*
X455035Y90536D01*
X455004Y90472D01*
X454969Y90409D01*
X454931Y90349D01*
X454890Y90290D01*
X454846Y90234D01*
X454799Y90180D01*
X454750Y90129D01*
X454697Y90081D01*
X454642Y90035D01*
X454585Y89993D01*
X454525Y89953D01*
X454464Y89917D01*
X454400Y89884D01*
X454335Y89855D01*
X454269Y89829D01*
X454201Y89806D01*
X454132Y89787D01*
X454062Y89772D01*
X453992Y89761D01*
X453921Y89753D01*
X453850Y89749D01*
X453778Y89749D01*
X453707Y89753D01*
X453636Y89761D01*
X453566Y89772D01*
X453496Y89787D01*
X453427Y89806D01*
X453359Y89829D01*
X453293Y89855D01*
X453228Y89884D01*
X453164Y89917D01*
X453103Y89953D01*
X453043Y89993D01*
X452986Y90035D01*
X452931Y90081D01*
X452878Y90129D01*
X452829Y90180D01*
X452782Y90234D01*
X452738Y90290D01*
X452697Y90349D01*
X452659Y90409D01*
X452624Y90472D01*
X452593Y90536D01*
X452565Y90602D01*
X452541Y90669D01*
X452520Y90737D01*
X452503Y90807D01*
X452490Y90877D01*
X452481Y90947D01*
X452475Y91019D01*
X452473Y91090D01*
X452474Y91090D02*
X452474Y92430D01*
X452476Y92521D01*
X452482Y92612D01*
X452491Y92702D01*
X452505Y92793D01*
X452522Y92882D01*
X452543Y92970D01*
X452568Y93058D01*
X452597Y93145D01*
X452629Y93230D01*
X452664Y93314D01*
X452704Y93396D01*
X452746Y93476D01*
X452792Y93555D01*
X452842Y93631D01*
X452894Y93705D01*
X452950Y93778D01*
X453009Y93847D01*
X453070Y93914D01*
X453135Y93979D01*
X453202Y94040D01*
X453271Y94099D01*
X453343Y94155D01*
X453418Y94207D01*
X453494Y94257D01*
X453573Y94303D01*
X453653Y94345D01*
X453735Y94385D01*
X453819Y94420D01*
X453904Y94452D01*
X453991Y94481D01*
X454078Y94506D01*
X454167Y94527D01*
X454256Y94544D01*
X454347Y94558D01*
X454437Y94567D01*
X454528Y94573D01*
X454619Y94575D01*
X431215Y63015D02*
X426389Y63015D01*
X426389Y64356D01*
X426391Y64427D01*
X426397Y64499D01*
X426406Y64569D01*
X426419Y64639D01*
X426436Y64709D01*
X426457Y64777D01*
X426481Y64844D01*
X426509Y64910D01*
X426540Y64974D01*
X426575Y65037D01*
X426613Y65097D01*
X426654Y65156D01*
X426698Y65212D01*
X426745Y65266D01*
X426794Y65317D01*
X426847Y65365D01*
X426902Y65411D01*
X426959Y65453D01*
X427019Y65493D01*
X427080Y65529D01*
X427144Y65562D01*
X427209Y65591D01*
X427275Y65617D01*
X427343Y65640D01*
X427412Y65659D01*
X427482Y65674D01*
X427552Y65685D01*
X427623Y65693D01*
X427694Y65697D01*
X427766Y65697D01*
X427837Y65693D01*
X427908Y65685D01*
X427978Y65674D01*
X428048Y65659D01*
X428117Y65640D01*
X428185Y65617D01*
X428251Y65591D01*
X428316Y65562D01*
X428380Y65529D01*
X428441Y65493D01*
X428501Y65453D01*
X428558Y65411D01*
X428613Y65365D01*
X428666Y65317D01*
X428715Y65266D01*
X428762Y65212D01*
X428806Y65156D01*
X428847Y65097D01*
X428885Y65037D01*
X428920Y64974D01*
X428951Y64910D01*
X428979Y64844D01*
X429003Y64777D01*
X429024Y64709D01*
X429041Y64639D01*
X429054Y64569D01*
X429063Y64499D01*
X429069Y64427D01*
X429071Y64356D01*
X429070Y64356D02*
X429070Y63015D01*
X429070Y64624D02*
X431215Y65696D01*
X427461Y68438D02*
X426389Y69778D01*
X431215Y69778D01*
X431215Y68438D02*
X431215Y71119D01*
X426925Y73924D02*
X426389Y73924D01*
X426389Y76605D01*
X431215Y75265D01*
D82*
X391330Y59190D02*
X391330Y53190D01*
X391330Y59190D02*
X391330Y71190D01*
X406330Y59190D02*
X406330Y53190D01*
X406330Y59190D02*
X406330Y71190D01*
X406330Y59190D02*
X391330Y59190D01*
D85*
X388289Y56364D02*
X380923Y56364D01*
X380923Y58410D01*
X380925Y58499D01*
X380931Y58588D01*
X380941Y58677D01*
X380954Y58765D01*
X380971Y58853D01*
X380993Y58940D01*
X381018Y59025D01*
X381046Y59110D01*
X381079Y59193D01*
X381115Y59275D01*
X381154Y59355D01*
X381197Y59433D01*
X381243Y59509D01*
X381293Y59584D01*
X381346Y59656D01*
X381402Y59725D01*
X381461Y59792D01*
X381522Y59857D01*
X381587Y59918D01*
X381654Y59977D01*
X381723Y60033D01*
X381795Y60086D01*
X381870Y60136D01*
X381946Y60182D01*
X382024Y60225D01*
X382104Y60264D01*
X382186Y60300D01*
X382269Y60333D01*
X382354Y60361D01*
X382439Y60386D01*
X382526Y60408D01*
X382614Y60425D01*
X382702Y60438D01*
X382791Y60448D01*
X382880Y60454D01*
X382969Y60456D01*
X382969Y60457D02*
X386243Y60457D01*
X386332Y60455D01*
X386421Y60449D01*
X386510Y60439D01*
X386598Y60426D01*
X386686Y60409D01*
X386773Y60387D01*
X386858Y60362D01*
X386943Y60334D01*
X387026Y60301D01*
X387108Y60265D01*
X387188Y60226D01*
X387266Y60183D01*
X387342Y60137D01*
X387417Y60087D01*
X387489Y60034D01*
X387558Y59978D01*
X387625Y59919D01*
X387690Y59858D01*
X387751Y59793D01*
X387810Y59726D01*
X387866Y59657D01*
X387919Y59585D01*
X387969Y59510D01*
X388015Y59434D01*
X388058Y59356D01*
X388097Y59276D01*
X388133Y59194D01*
X388166Y59111D01*
X388194Y59026D01*
X388219Y58941D01*
X388241Y58854D01*
X388258Y58766D01*
X388271Y58678D01*
X388281Y58589D01*
X388287Y58500D01*
X388289Y58411D01*
X388289Y58410D02*
X388289Y56364D01*
X382560Y63923D02*
X380923Y65970D01*
X388289Y65970D01*
X388289Y68016D02*
X388289Y63923D01*
D78*
X403529Y63015D02*
X408355Y63015D01*
X403529Y63015D02*
X403529Y64356D01*
X403531Y64427D01*
X403537Y64499D01*
X403546Y64569D01*
X403559Y64639D01*
X403576Y64709D01*
X403597Y64777D01*
X403621Y64844D01*
X403649Y64910D01*
X403680Y64974D01*
X403715Y65037D01*
X403753Y65097D01*
X403794Y65156D01*
X403838Y65212D01*
X403885Y65266D01*
X403934Y65317D01*
X403987Y65365D01*
X404042Y65411D01*
X404099Y65453D01*
X404159Y65493D01*
X404220Y65529D01*
X404284Y65562D01*
X404349Y65591D01*
X404415Y65617D01*
X404483Y65640D01*
X404552Y65659D01*
X404622Y65674D01*
X404692Y65685D01*
X404763Y65693D01*
X404834Y65697D01*
X404906Y65697D01*
X404977Y65693D01*
X405048Y65685D01*
X405118Y65674D01*
X405188Y65659D01*
X405257Y65640D01*
X405325Y65617D01*
X405391Y65591D01*
X405456Y65562D01*
X405520Y65529D01*
X405581Y65493D01*
X405641Y65453D01*
X405698Y65411D01*
X405753Y65365D01*
X405806Y65317D01*
X405855Y65266D01*
X405902Y65212D01*
X405946Y65156D01*
X405987Y65097D01*
X406025Y65037D01*
X406060Y64974D01*
X406091Y64910D01*
X406119Y64844D01*
X406143Y64777D01*
X406164Y64709D01*
X406181Y64639D01*
X406194Y64569D01*
X406203Y64499D01*
X406209Y64427D01*
X406211Y64356D01*
X406210Y64356D02*
X406210Y63015D01*
X406210Y64624D02*
X408355Y65696D01*
X404601Y68438D02*
X403529Y69778D01*
X408355Y69778D01*
X408355Y68438D02*
X408355Y71119D01*
X407014Y73924D02*
X406943Y73926D01*
X406871Y73932D01*
X406801Y73941D01*
X406731Y73954D01*
X406661Y73971D01*
X406593Y73992D01*
X406526Y74016D01*
X406460Y74044D01*
X406396Y74075D01*
X406333Y74110D01*
X406273Y74148D01*
X406214Y74189D01*
X406158Y74233D01*
X406104Y74280D01*
X406053Y74329D01*
X406005Y74382D01*
X405959Y74437D01*
X405917Y74494D01*
X405877Y74554D01*
X405841Y74615D01*
X405808Y74679D01*
X405779Y74744D01*
X405753Y74810D01*
X405730Y74878D01*
X405711Y74947D01*
X405696Y75017D01*
X405685Y75087D01*
X405677Y75158D01*
X405673Y75229D01*
X405673Y75301D01*
X405677Y75372D01*
X405685Y75443D01*
X405696Y75513D01*
X405711Y75583D01*
X405730Y75652D01*
X405753Y75720D01*
X405779Y75786D01*
X405808Y75851D01*
X405841Y75915D01*
X405877Y75976D01*
X405917Y76036D01*
X405959Y76093D01*
X406005Y76148D01*
X406053Y76201D01*
X406104Y76250D01*
X406158Y76297D01*
X406214Y76341D01*
X406273Y76382D01*
X406333Y76420D01*
X406396Y76455D01*
X406460Y76486D01*
X406526Y76514D01*
X406593Y76538D01*
X406661Y76559D01*
X406731Y76576D01*
X406801Y76589D01*
X406871Y76598D01*
X406943Y76604D01*
X407014Y76606D01*
X407085Y76604D01*
X407157Y76598D01*
X407227Y76589D01*
X407297Y76576D01*
X407367Y76559D01*
X407435Y76538D01*
X407502Y76514D01*
X407568Y76486D01*
X407632Y76455D01*
X407695Y76420D01*
X407755Y76382D01*
X407814Y76341D01*
X407870Y76297D01*
X407924Y76250D01*
X407975Y76201D01*
X408023Y76148D01*
X408069Y76093D01*
X408111Y76036D01*
X408151Y75976D01*
X408187Y75915D01*
X408220Y75851D01*
X408249Y75786D01*
X408275Y75720D01*
X408298Y75652D01*
X408317Y75583D01*
X408332Y75513D01*
X408343Y75443D01*
X408351Y75372D01*
X408355Y75301D01*
X408355Y75229D01*
X408351Y75158D01*
X408343Y75087D01*
X408332Y75017D01*
X408317Y74947D01*
X408298Y74878D01*
X408275Y74810D01*
X408249Y74744D01*
X408220Y74679D01*
X408187Y74615D01*
X408151Y74554D01*
X408111Y74494D01*
X408069Y74437D01*
X408023Y74382D01*
X407975Y74329D01*
X407924Y74280D01*
X407870Y74233D01*
X407814Y74189D01*
X407755Y74148D01*
X407695Y74110D01*
X407632Y74075D01*
X407568Y74044D01*
X407502Y74016D01*
X407435Y73992D01*
X407367Y73971D01*
X407297Y73954D01*
X407227Y73941D01*
X407157Y73932D01*
X407085Y73926D01*
X407014Y73924D01*
X404601Y74193D02*
X404536Y74195D01*
X404472Y74201D01*
X404408Y74211D01*
X404344Y74224D01*
X404282Y74242D01*
X404221Y74263D01*
X404161Y74287D01*
X404103Y74316D01*
X404046Y74348D01*
X403992Y74383D01*
X403940Y74421D01*
X403890Y74463D01*
X403843Y74507D01*
X403799Y74554D01*
X403757Y74604D01*
X403719Y74656D01*
X403684Y74710D01*
X403652Y74767D01*
X403623Y74825D01*
X403599Y74885D01*
X403578Y74946D01*
X403560Y75008D01*
X403547Y75072D01*
X403537Y75136D01*
X403531Y75200D01*
X403529Y75265D01*
X403531Y75330D01*
X403537Y75394D01*
X403547Y75458D01*
X403560Y75522D01*
X403578Y75584D01*
X403599Y75645D01*
X403623Y75705D01*
X403652Y75763D01*
X403684Y75820D01*
X403719Y75874D01*
X403757Y75926D01*
X403799Y75976D01*
X403843Y76023D01*
X403890Y76067D01*
X403940Y76109D01*
X403992Y76147D01*
X404046Y76182D01*
X404103Y76214D01*
X404161Y76243D01*
X404221Y76267D01*
X404282Y76288D01*
X404344Y76306D01*
X404408Y76319D01*
X404472Y76329D01*
X404536Y76335D01*
X404601Y76337D01*
X404666Y76335D01*
X404730Y76329D01*
X404794Y76319D01*
X404858Y76306D01*
X404920Y76288D01*
X404981Y76267D01*
X405041Y76243D01*
X405099Y76214D01*
X405156Y76182D01*
X405210Y76147D01*
X405262Y76109D01*
X405312Y76067D01*
X405359Y76023D01*
X405403Y75976D01*
X405445Y75926D01*
X405483Y75874D01*
X405518Y75820D01*
X405550Y75763D01*
X405579Y75705D01*
X405603Y75645D01*
X405624Y75584D01*
X405642Y75522D01*
X405655Y75458D01*
X405665Y75394D01*
X405671Y75330D01*
X405673Y75265D01*
X405671Y75200D01*
X405665Y75136D01*
X405655Y75072D01*
X405642Y75008D01*
X405624Y74946D01*
X405603Y74885D01*
X405579Y74825D01*
X405550Y74767D01*
X405518Y74710D01*
X405483Y74656D01*
X405445Y74604D01*
X405403Y74554D01*
X405359Y74507D01*
X405312Y74463D01*
X405262Y74421D01*
X405210Y74383D01*
X405156Y74348D01*
X405099Y74316D01*
X405041Y74287D01*
X404981Y74263D01*
X404920Y74242D01*
X404858Y74224D01*
X404794Y74211D01*
X404730Y74201D01*
X404666Y74195D01*
X404601Y74193D01*
X350570Y403820D02*
X203070Y403820D01*
X350570Y403820D02*
X350570Y548820D01*
X203070Y548820D02*
X203070Y403820D01*
X203070Y548820D02*
X350570Y548820D01*
D79*
X321854Y365412D02*
X321854Y356974D01*
X321853Y356974D02*
X321855Y356861D01*
X321861Y356748D01*
X321871Y356635D01*
X321885Y356522D01*
X321902Y356410D01*
X321924Y356299D01*
X321949Y356189D01*
X321979Y356079D01*
X322012Y355971D01*
X322049Y355864D01*
X322089Y355758D01*
X322134Y355654D01*
X322182Y355551D01*
X322233Y355450D01*
X322288Y355351D01*
X322346Y355254D01*
X322408Y355159D01*
X322473Y355066D01*
X322541Y354976D01*
X322612Y354888D01*
X322687Y354802D01*
X322764Y354719D01*
X322844Y354639D01*
X322927Y354562D01*
X323013Y354487D01*
X323101Y354416D01*
X323191Y354348D01*
X323284Y354283D01*
X323379Y354221D01*
X323476Y354163D01*
X323575Y354108D01*
X323676Y354057D01*
X323779Y354009D01*
X323883Y353964D01*
X323989Y353924D01*
X324096Y353887D01*
X324204Y353854D01*
X324314Y353824D01*
X324424Y353799D01*
X324535Y353777D01*
X324647Y353760D01*
X324760Y353746D01*
X324873Y353736D01*
X324986Y353730D01*
X325099Y353728D01*
X325212Y353730D01*
X325325Y353736D01*
X325438Y353746D01*
X325551Y353760D01*
X325663Y353777D01*
X325774Y353799D01*
X325884Y353824D01*
X325994Y353854D01*
X326102Y353887D01*
X326209Y353924D01*
X326315Y353964D01*
X326419Y354009D01*
X326522Y354057D01*
X326623Y354108D01*
X326722Y354163D01*
X326819Y354221D01*
X326914Y354283D01*
X327007Y354348D01*
X327097Y354416D01*
X327185Y354487D01*
X327271Y354562D01*
X327354Y354639D01*
X327434Y354719D01*
X327511Y354802D01*
X327586Y354888D01*
X327657Y354976D01*
X327725Y355066D01*
X327790Y355159D01*
X327852Y355254D01*
X327910Y355351D01*
X327965Y355450D01*
X328016Y355551D01*
X328064Y355654D01*
X328109Y355758D01*
X328149Y355864D01*
X328186Y355971D01*
X328219Y356079D01*
X328249Y356189D01*
X328274Y356299D01*
X328296Y356410D01*
X328313Y356522D01*
X328327Y356635D01*
X328337Y356748D01*
X328343Y356861D01*
X328345Y356974D01*
X328345Y365412D01*
X336148Y365412D02*
X336148Y353728D01*
X336148Y359570D02*
X334526Y360544D01*
X334525Y360543D02*
X334452Y360590D01*
X334381Y360639D01*
X334311Y360692D01*
X334245Y360748D01*
X334181Y360807D01*
X334119Y360868D01*
X334061Y360932D01*
X334005Y360999D01*
X333953Y361068D01*
X333903Y361140D01*
X333857Y361214D01*
X333814Y361289D01*
X333775Y361367D01*
X333739Y361446D01*
X333707Y361527D01*
X333678Y361609D01*
X333653Y361692D01*
X333632Y361776D01*
X333615Y361861D01*
X333601Y361947D01*
X333592Y362033D01*
X333586Y362120D01*
X333584Y362207D01*
X333586Y362294D01*
X333592Y362381D01*
X333602Y362467D01*
X333615Y362553D01*
X333633Y362638D01*
X333654Y362722D01*
X333679Y362805D01*
X333708Y362888D01*
X333740Y362968D01*
X333776Y363047D01*
X333815Y363125D01*
X333858Y363200D01*
X333905Y363274D01*
X333954Y363345D01*
X334007Y363415D01*
X334062Y363481D01*
X334121Y363545D01*
X334182Y363607D01*
X334247Y363666D01*
X334313Y363721D01*
X334382Y363774D01*
X334454Y363824D01*
X334527Y363870D01*
X334603Y363913D01*
X334680Y363952D01*
X334759Y363988D01*
X334840Y364021D01*
X334922Y364049D01*
X335005Y364075D01*
X335089Y364096D01*
X335175Y364113D01*
X335175Y364114D02*
X335315Y364138D01*
X335457Y364158D01*
X335598Y364174D01*
X335740Y364185D01*
X335883Y364193D01*
X336025Y364197D01*
X336168Y364198D01*
X336311Y364194D01*
X336453Y364186D01*
X336595Y364174D01*
X336737Y364158D01*
X336878Y364139D01*
X337019Y364115D01*
X337159Y364088D01*
X337298Y364056D01*
X337436Y364021D01*
X337574Y363982D01*
X337710Y363939D01*
X337844Y363893D01*
X337978Y363842D01*
X338110Y363789D01*
X338240Y363731D01*
X338369Y363670D01*
X338496Y363605D01*
X338622Y363537D01*
X338745Y363465D01*
X336148Y359570D02*
X337771Y358596D01*
X337772Y358597D02*
X337845Y358550D01*
X337916Y358501D01*
X337986Y358448D01*
X338052Y358392D01*
X338116Y358333D01*
X338178Y358272D01*
X338236Y358208D01*
X338292Y358141D01*
X338344Y358072D01*
X338394Y358000D01*
X338440Y357926D01*
X338483Y357851D01*
X338522Y357773D01*
X338558Y357694D01*
X338590Y357613D01*
X338619Y357531D01*
X338644Y357448D01*
X338665Y357364D01*
X338682Y357279D01*
X338696Y357193D01*
X338705Y357107D01*
X338711Y357020D01*
X338713Y356933D01*
X338711Y356846D01*
X338705Y356759D01*
X338695Y356673D01*
X338682Y356587D01*
X338664Y356502D01*
X338643Y356418D01*
X338618Y356335D01*
X338589Y356252D01*
X338557Y356172D01*
X338521Y356093D01*
X338482Y356015D01*
X338439Y355940D01*
X338392Y355866D01*
X338343Y355795D01*
X338290Y355725D01*
X338235Y355659D01*
X338176Y355595D01*
X338115Y355533D01*
X338050Y355474D01*
X337984Y355419D01*
X337915Y355366D01*
X337843Y355316D01*
X337770Y355270D01*
X337694Y355227D01*
X337617Y355188D01*
X337538Y355152D01*
X337457Y355119D01*
X337375Y355091D01*
X337292Y355065D01*
X337208Y355044D01*
X337123Y355027D01*
X337122Y355026D02*
X336982Y355002D01*
X336840Y354982D01*
X336699Y354966D01*
X336557Y354955D01*
X336414Y354947D01*
X336272Y354943D01*
X336129Y354942D01*
X335986Y354946D01*
X335844Y354954D01*
X335702Y354966D01*
X335560Y354982D01*
X335419Y355001D01*
X335278Y355025D01*
X335138Y355052D01*
X334999Y355084D01*
X334861Y355119D01*
X334723Y355158D01*
X334587Y355201D01*
X334453Y355247D01*
X334319Y355298D01*
X334187Y355351D01*
X334057Y355409D01*
X333928Y355470D01*
X333801Y355535D01*
X333675Y355603D01*
X333552Y355675D01*
X346167Y358921D02*
X350062Y358921D01*
X346167Y358921D02*
X346068Y358923D01*
X345968Y358929D01*
X345869Y358938D01*
X345771Y358951D01*
X345673Y358968D01*
X345575Y358989D01*
X345479Y359014D01*
X345384Y359042D01*
X345290Y359074D01*
X345197Y359109D01*
X345105Y359148D01*
X345015Y359191D01*
X344927Y359236D01*
X344840Y359286D01*
X344756Y359338D01*
X344673Y359394D01*
X344593Y359452D01*
X344515Y359514D01*
X344440Y359579D01*
X344367Y359647D01*
X344297Y359717D01*
X344229Y359790D01*
X344164Y359865D01*
X344102Y359943D01*
X344044Y360023D01*
X343988Y360106D01*
X343936Y360190D01*
X343886Y360277D01*
X343841Y360365D01*
X343798Y360455D01*
X343759Y360547D01*
X343724Y360640D01*
X343692Y360734D01*
X343664Y360829D01*
X343639Y360925D01*
X343618Y361023D01*
X343601Y361121D01*
X343588Y361219D01*
X343579Y361318D01*
X343573Y361418D01*
X343571Y361517D01*
X343571Y362166D01*
X343570Y362166D02*
X343572Y362279D01*
X343578Y362392D01*
X343588Y362505D01*
X343602Y362618D01*
X343619Y362730D01*
X343641Y362841D01*
X343666Y362951D01*
X343696Y363061D01*
X343729Y363169D01*
X343766Y363276D01*
X343806Y363382D01*
X343851Y363486D01*
X343899Y363589D01*
X343950Y363690D01*
X344005Y363789D01*
X344063Y363886D01*
X344125Y363981D01*
X344190Y364074D01*
X344258Y364164D01*
X344329Y364252D01*
X344404Y364338D01*
X344481Y364421D01*
X344561Y364501D01*
X344644Y364578D01*
X344730Y364653D01*
X344818Y364724D01*
X344908Y364792D01*
X345001Y364857D01*
X345096Y364919D01*
X345193Y364977D01*
X345292Y365032D01*
X345393Y365083D01*
X345496Y365131D01*
X345600Y365176D01*
X345706Y365216D01*
X345813Y365253D01*
X345921Y365286D01*
X346031Y365316D01*
X346141Y365341D01*
X346252Y365363D01*
X346364Y365380D01*
X346477Y365394D01*
X346590Y365404D01*
X346703Y365410D01*
X346816Y365412D01*
X346929Y365410D01*
X347042Y365404D01*
X347155Y365394D01*
X347268Y365380D01*
X347380Y365363D01*
X347491Y365341D01*
X347601Y365316D01*
X347711Y365286D01*
X347819Y365253D01*
X347926Y365216D01*
X348032Y365176D01*
X348136Y365131D01*
X348239Y365083D01*
X348340Y365032D01*
X348439Y364977D01*
X348536Y364919D01*
X348631Y364857D01*
X348724Y364792D01*
X348814Y364724D01*
X348902Y364653D01*
X348988Y364578D01*
X349071Y364501D01*
X349151Y364421D01*
X349228Y364338D01*
X349303Y364252D01*
X349374Y364164D01*
X349442Y364074D01*
X349507Y363981D01*
X349569Y363886D01*
X349627Y363789D01*
X349682Y363690D01*
X349733Y363589D01*
X349781Y363486D01*
X349826Y363382D01*
X349866Y363276D01*
X349903Y363169D01*
X349936Y363061D01*
X349966Y362951D01*
X349991Y362841D01*
X350013Y362730D01*
X350030Y362618D01*
X350044Y362505D01*
X350054Y362392D01*
X350060Y362279D01*
X350062Y362166D01*
X350062Y358921D01*
X350060Y358778D01*
X350054Y358635D01*
X350044Y358492D01*
X350030Y358350D01*
X350013Y358208D01*
X349991Y358066D01*
X349966Y357925D01*
X349936Y357785D01*
X349903Y357646D01*
X349866Y357508D01*
X349825Y357371D01*
X349781Y357235D01*
X349732Y357100D01*
X349680Y356967D01*
X349625Y356835D01*
X349565Y356705D01*
X349502Y356576D01*
X349436Y356449D01*
X349366Y356324D01*
X349293Y356202D01*
X349216Y356081D01*
X349136Y355962D01*
X349053Y355846D01*
X348967Y355731D01*
X348878Y355620D01*
X348785Y355510D01*
X348690Y355404D01*
X348591Y355300D01*
X348490Y355199D01*
X348386Y355100D01*
X348280Y355005D01*
X348170Y354912D01*
X348059Y354823D01*
X347944Y354737D01*
X347828Y354654D01*
X347709Y354574D01*
X347588Y354497D01*
X347466Y354424D01*
X347341Y354354D01*
X347214Y354288D01*
X347085Y354225D01*
X346955Y354165D01*
X346823Y354110D01*
X346690Y354058D01*
X346555Y354009D01*
X346419Y353965D01*
X346282Y353924D01*
X346144Y353887D01*
X346005Y353854D01*
X345865Y353824D01*
X345724Y353799D01*
X345582Y353777D01*
X345440Y353760D01*
X345298Y353746D01*
X345155Y353736D01*
X345012Y353730D01*
X344869Y353728D01*
M02*
