G04 EAGLE Gerber RS-274X export*
G75*
%MOMM*%
%FSLAX34Y34*%
%LPD*%
%INSilkscreen Bottom*%
%IPPOS*%
%AMOC8*
5,1,8,0,0,1.08239X$1,22.5*%
G01*
%ADD10C,0.203200*%
%ADD11C,0.101600*%
%ADD12C,0.381000*%
%ADD13C,0.254000*%
%ADD14R,0.200000X0.100000*%
%ADD15R,0.300000X0.100000*%
%ADD16R,1.200000X0.100000*%
%ADD17R,1.400000X0.100000*%
%ADD18R,1.300000X0.100000*%
%ADD19R,0.400000X0.100000*%
%ADD20R,1.600000X0.100000*%
%ADD21R,1.500000X0.100000*%
%ADD22R,1.700000X0.100000*%
%ADD23R,0.700000X0.100000*%
%ADD24R,0.600000X0.100000*%
%ADD25R,2.600000X0.100000*%
%ADD26R,1.100000X0.100000*%
%ADD27R,0.500000X0.100000*%
%ADD28R,0.900000X0.100000*%
%ADD29R,1.900000X0.100000*%
%ADD30R,2.100000X0.100000*%
%ADD31R,2.300000X0.100000*%
%ADD32R,1.800000X0.100000*%
%ADD33R,2.000000X0.100000*%
%ADD34R,2.200000X0.100000*%
%ADD35R,2.500000X0.100000*%
%ADD36R,5.800000X0.100000*%
%ADD37R,5.700000X0.100000*%
%ADD38R,2.700000X0.100000*%
%ADD39R,0.800000X0.100000*%
%ADD40R,1.000000X0.100000*%
%ADD41R,4.900000X0.100000*%
%ADD42R,4.800000X0.100000*%
%ADD43R,4.600000X0.100000*%
%ADD44R,4.400000X0.100000*%
%ADD45C,0.152400*%
%ADD46C,0.050800*%
%ADD47C,0.127000*%
%ADD48R,7.620000X7.620000*%
%ADD49R,2.540000X3.810000*%
%ADD50R,1.270000X2.540000*%
%ADD51R,1.270000X1.270000*%
%ADD52R,3.810000X1.270000*%
%ADD53C,0.076200*%
%ADD54R,2.540000X0.635000*%


D10*
X390956Y45426D02*
X397052Y45426D01*
X397052Y47119D01*
X397050Y47200D01*
X397044Y47280D01*
X397035Y47360D01*
X397021Y47439D01*
X397004Y47518D01*
X396983Y47596D01*
X396959Y47673D01*
X396931Y47748D01*
X396899Y47822D01*
X396864Y47895D01*
X396825Y47966D01*
X396783Y48034D01*
X396738Y48101D01*
X396690Y48166D01*
X396638Y48228D01*
X396584Y48287D01*
X396527Y48344D01*
X396468Y48398D01*
X396406Y48450D01*
X396341Y48498D01*
X396274Y48543D01*
X396206Y48585D01*
X396135Y48624D01*
X396062Y48659D01*
X395988Y48691D01*
X395913Y48719D01*
X395836Y48743D01*
X395758Y48764D01*
X395679Y48781D01*
X395600Y48795D01*
X395520Y48804D01*
X395440Y48810D01*
X395359Y48812D01*
X395278Y48810D01*
X395198Y48804D01*
X395118Y48795D01*
X395039Y48781D01*
X394960Y48764D01*
X394882Y48743D01*
X394805Y48719D01*
X394730Y48691D01*
X394656Y48659D01*
X394583Y48624D01*
X394513Y48585D01*
X394444Y48543D01*
X394377Y48498D01*
X394312Y48450D01*
X394250Y48398D01*
X394191Y48344D01*
X394134Y48287D01*
X394080Y48228D01*
X394028Y48166D01*
X393980Y48101D01*
X393935Y48034D01*
X393893Y47966D01*
X393854Y47895D01*
X393819Y47822D01*
X393787Y47748D01*
X393759Y47673D01*
X393735Y47596D01*
X393714Y47518D01*
X393697Y47439D01*
X393683Y47360D01*
X393674Y47280D01*
X393668Y47200D01*
X393666Y47119D01*
X393665Y47119D02*
X393665Y45426D01*
X392649Y52274D02*
X395359Y52274D01*
X395440Y52276D01*
X395520Y52282D01*
X395600Y52291D01*
X395679Y52305D01*
X395758Y52322D01*
X395836Y52343D01*
X395913Y52367D01*
X395988Y52395D01*
X396062Y52427D01*
X396135Y52462D01*
X396206Y52501D01*
X396274Y52543D01*
X396341Y52588D01*
X396406Y52636D01*
X396468Y52688D01*
X396527Y52742D01*
X396584Y52799D01*
X396638Y52858D01*
X396690Y52920D01*
X396738Y52985D01*
X396783Y53052D01*
X396825Y53121D01*
X396864Y53191D01*
X396899Y53264D01*
X396931Y53338D01*
X396959Y53413D01*
X396983Y53490D01*
X397004Y53568D01*
X397021Y53647D01*
X397035Y53726D01*
X397044Y53806D01*
X397050Y53886D01*
X397052Y53967D01*
X397050Y54048D01*
X397044Y54128D01*
X397035Y54208D01*
X397021Y54287D01*
X397004Y54366D01*
X396983Y54444D01*
X396959Y54521D01*
X396931Y54596D01*
X396899Y54670D01*
X396864Y54743D01*
X396825Y54814D01*
X396783Y54882D01*
X396738Y54949D01*
X396690Y55014D01*
X396638Y55076D01*
X396584Y55135D01*
X396527Y55192D01*
X396468Y55246D01*
X396406Y55298D01*
X396341Y55346D01*
X396274Y55391D01*
X396206Y55433D01*
X396135Y55472D01*
X396062Y55507D01*
X395988Y55539D01*
X395913Y55567D01*
X395836Y55591D01*
X395758Y55612D01*
X395679Y55629D01*
X395600Y55643D01*
X395520Y55652D01*
X395440Y55658D01*
X395359Y55660D01*
X395359Y55661D02*
X392649Y55661D01*
X392649Y55660D02*
X392568Y55658D01*
X392488Y55652D01*
X392408Y55643D01*
X392329Y55629D01*
X392250Y55612D01*
X392172Y55591D01*
X392095Y55567D01*
X392020Y55539D01*
X391946Y55507D01*
X391873Y55472D01*
X391803Y55433D01*
X391734Y55391D01*
X391667Y55346D01*
X391602Y55298D01*
X391540Y55246D01*
X391481Y55192D01*
X391424Y55135D01*
X391370Y55076D01*
X391318Y55014D01*
X391270Y54949D01*
X391225Y54882D01*
X391183Y54814D01*
X391144Y54743D01*
X391109Y54670D01*
X391077Y54596D01*
X391049Y54521D01*
X391025Y54444D01*
X391004Y54366D01*
X390987Y54287D01*
X390973Y54208D01*
X390964Y54128D01*
X390958Y54048D01*
X390956Y53967D01*
X390958Y53886D01*
X390964Y53806D01*
X390973Y53726D01*
X390987Y53647D01*
X391004Y53568D01*
X391025Y53490D01*
X391049Y53413D01*
X391077Y53338D01*
X391109Y53264D01*
X391144Y53191D01*
X391183Y53121D01*
X391225Y53052D01*
X391270Y52985D01*
X391318Y52920D01*
X391370Y52858D01*
X391424Y52799D01*
X391481Y52742D01*
X391540Y52688D01*
X391602Y52636D01*
X391667Y52588D01*
X391734Y52543D01*
X391803Y52501D01*
X391873Y52462D01*
X391946Y52427D01*
X392020Y52395D01*
X392095Y52367D01*
X392172Y52343D01*
X392250Y52322D01*
X392329Y52305D01*
X392408Y52291D01*
X392488Y52282D01*
X392568Y52276D01*
X392649Y52274D01*
X397052Y59548D02*
X390956Y60903D01*
X395020Y62258D01*
X390956Y63612D01*
X397052Y64967D01*
X390956Y69129D02*
X390956Y71838D01*
X390956Y69129D02*
X397052Y69129D01*
X397052Y71838D01*
X394343Y71161D02*
X394343Y69129D01*
X397052Y75536D02*
X390956Y75536D01*
X397052Y75536D02*
X397052Y77229D01*
X397050Y77310D01*
X397044Y77390D01*
X397035Y77470D01*
X397021Y77549D01*
X397004Y77628D01*
X396983Y77706D01*
X396959Y77783D01*
X396931Y77858D01*
X396899Y77932D01*
X396864Y78005D01*
X396825Y78076D01*
X396783Y78144D01*
X396738Y78211D01*
X396690Y78276D01*
X396638Y78338D01*
X396584Y78397D01*
X396527Y78454D01*
X396468Y78508D01*
X396406Y78560D01*
X396341Y78608D01*
X396274Y78653D01*
X396206Y78695D01*
X396135Y78734D01*
X396062Y78769D01*
X395988Y78801D01*
X395913Y78829D01*
X395836Y78853D01*
X395758Y78874D01*
X395679Y78891D01*
X395600Y78905D01*
X395520Y78914D01*
X395440Y78920D01*
X395359Y78922D01*
X395278Y78920D01*
X395198Y78914D01*
X395118Y78905D01*
X395039Y78891D01*
X394960Y78874D01*
X394882Y78853D01*
X394805Y78829D01*
X394730Y78801D01*
X394656Y78769D01*
X394583Y78734D01*
X394513Y78695D01*
X394444Y78653D01*
X394377Y78608D01*
X394312Y78560D01*
X394250Y78508D01*
X394191Y78454D01*
X394134Y78397D01*
X394080Y78338D01*
X394028Y78276D01*
X393980Y78211D01*
X393935Y78144D01*
X393893Y78076D01*
X393854Y78005D01*
X393819Y77932D01*
X393787Y77858D01*
X393759Y77783D01*
X393735Y77706D01*
X393714Y77628D01*
X393697Y77549D01*
X393683Y77470D01*
X393674Y77390D01*
X393668Y77310D01*
X393666Y77229D01*
X393665Y77229D02*
X393665Y75536D01*
X393665Y77568D02*
X390956Y78922D01*
X390956Y88443D02*
X390958Y88516D01*
X390964Y88590D01*
X390974Y88662D01*
X390988Y88734D01*
X391005Y88806D01*
X391027Y88876D01*
X391052Y88945D01*
X391081Y89012D01*
X391114Y89078D01*
X391150Y89142D01*
X391189Y89203D01*
X391232Y89263D01*
X391278Y89320D01*
X391327Y89375D01*
X391379Y89427D01*
X391434Y89476D01*
X391491Y89522D01*
X391551Y89565D01*
X391612Y89604D01*
X391676Y89640D01*
X391742Y89673D01*
X391809Y89702D01*
X391878Y89727D01*
X391949Y89749D01*
X392020Y89766D01*
X392092Y89780D01*
X392165Y89790D01*
X392238Y89796D01*
X392311Y89798D01*
X390956Y88443D02*
X390958Y88340D01*
X390963Y88238D01*
X390973Y88135D01*
X390985Y88034D01*
X391002Y87932D01*
X391022Y87831D01*
X391046Y87732D01*
X391073Y87633D01*
X391104Y87535D01*
X391138Y87438D01*
X391176Y87342D01*
X391217Y87248D01*
X391262Y87156D01*
X391310Y87065D01*
X391361Y86976D01*
X391415Y86888D01*
X391472Y86803D01*
X391533Y86720D01*
X391596Y86639D01*
X391662Y86561D01*
X391731Y86484D01*
X391803Y86411D01*
X395697Y86580D02*
X395768Y86582D01*
X395839Y86587D01*
X395909Y86597D01*
X395979Y86610D01*
X396048Y86626D01*
X396116Y86646D01*
X396183Y86670D01*
X396248Y86697D01*
X396312Y86728D01*
X396375Y86762D01*
X396435Y86799D01*
X396493Y86839D01*
X396550Y86882D01*
X396604Y86928D01*
X396655Y86977D01*
X396704Y87028D01*
X396750Y87082D01*
X396793Y87139D01*
X396833Y87197D01*
X396870Y87258D01*
X396904Y87320D01*
X396935Y87384D01*
X396962Y87449D01*
X396986Y87516D01*
X397006Y87584D01*
X397022Y87653D01*
X397035Y87723D01*
X397045Y87793D01*
X397050Y87864D01*
X397052Y87935D01*
X397050Y88031D01*
X397045Y88127D01*
X397036Y88223D01*
X397023Y88318D01*
X397007Y88413D01*
X396987Y88507D01*
X396963Y88600D01*
X396936Y88692D01*
X396906Y88784D01*
X396872Y88874D01*
X396835Y88962D01*
X396794Y89049D01*
X396751Y89135D01*
X396704Y89219D01*
X396653Y89301D01*
X396600Y89381D01*
X396544Y89459D01*
X394512Y87258D02*
X394549Y87198D01*
X394590Y87139D01*
X394634Y87083D01*
X394681Y87029D01*
X394731Y86978D01*
X394783Y86929D01*
X394837Y86883D01*
X394894Y86840D01*
X394953Y86799D01*
X395014Y86762D01*
X395077Y86728D01*
X395142Y86698D01*
X395208Y86671D01*
X395275Y86647D01*
X395344Y86627D01*
X395413Y86611D01*
X395484Y86598D01*
X395554Y86588D01*
X395626Y86583D01*
X395697Y86581D01*
X393496Y89121D02*
X393459Y89181D01*
X393418Y89240D01*
X393374Y89296D01*
X393327Y89350D01*
X393277Y89401D01*
X393225Y89450D01*
X393171Y89496D01*
X393114Y89540D01*
X393055Y89580D01*
X392994Y89617D01*
X392931Y89651D01*
X392866Y89681D01*
X392800Y89708D01*
X392733Y89732D01*
X392664Y89752D01*
X392595Y89768D01*
X392524Y89781D01*
X392454Y89791D01*
X392382Y89796D01*
X392311Y89798D01*
X393496Y89121D02*
X394512Y87258D01*
X397052Y93442D02*
X390956Y94797D01*
X395020Y96151D01*
X390956Y97506D01*
X397052Y98861D01*
X397052Y102979D02*
X390956Y102979D01*
X390956Y102302D02*
X390956Y103656D01*
X397052Y103656D02*
X397052Y102302D01*
X397052Y108343D02*
X390956Y108343D01*
X397052Y106650D02*
X397052Y110037D01*
X390956Y114788D02*
X390956Y116143D01*
X390956Y114788D02*
X390958Y114717D01*
X390963Y114646D01*
X390973Y114576D01*
X390986Y114506D01*
X391002Y114437D01*
X391022Y114369D01*
X391046Y114302D01*
X391073Y114237D01*
X391104Y114173D01*
X391138Y114111D01*
X391175Y114050D01*
X391215Y113992D01*
X391258Y113935D01*
X391304Y113881D01*
X391353Y113830D01*
X391404Y113781D01*
X391458Y113735D01*
X391515Y113692D01*
X391573Y113652D01*
X391634Y113615D01*
X391696Y113581D01*
X391760Y113550D01*
X391825Y113523D01*
X391892Y113499D01*
X391960Y113479D01*
X392029Y113463D01*
X392099Y113450D01*
X392169Y113440D01*
X392240Y113435D01*
X392311Y113433D01*
X392311Y113434D02*
X395697Y113434D01*
X395697Y113433D02*
X395770Y113435D01*
X395843Y113441D01*
X395916Y113451D01*
X395988Y113465D01*
X396059Y113482D01*
X396130Y113504D01*
X396199Y113529D01*
X396266Y113558D01*
X396332Y113591D01*
X396396Y113627D01*
X396457Y113666D01*
X396517Y113709D01*
X396574Y113755D01*
X396629Y113804D01*
X396681Y113856D01*
X396730Y113911D01*
X396776Y113968D01*
X396819Y114028D01*
X396858Y114089D01*
X396894Y114153D01*
X396927Y114219D01*
X396956Y114286D01*
X396981Y114355D01*
X397003Y114425D01*
X397020Y114497D01*
X397034Y114569D01*
X397044Y114641D01*
X397050Y114715D01*
X397052Y114788D01*
X397052Y116143D01*
X397052Y119817D02*
X390956Y119817D01*
X394343Y119817D02*
X394343Y123204D01*
X397052Y123204D02*
X390956Y123204D01*
X19862Y89876D02*
X13766Y89876D01*
X19862Y89876D02*
X19862Y91569D01*
X19860Y91650D01*
X19854Y91730D01*
X19845Y91810D01*
X19831Y91889D01*
X19814Y91968D01*
X19793Y92046D01*
X19769Y92123D01*
X19741Y92198D01*
X19709Y92272D01*
X19674Y92345D01*
X19635Y92416D01*
X19593Y92484D01*
X19548Y92551D01*
X19500Y92616D01*
X19448Y92678D01*
X19394Y92737D01*
X19337Y92794D01*
X19278Y92848D01*
X19216Y92900D01*
X19151Y92948D01*
X19084Y92993D01*
X19016Y93035D01*
X18945Y93074D01*
X18872Y93109D01*
X18798Y93141D01*
X18723Y93169D01*
X18646Y93193D01*
X18568Y93214D01*
X18489Y93231D01*
X18410Y93245D01*
X18330Y93254D01*
X18250Y93260D01*
X18169Y93262D01*
X18088Y93260D01*
X18008Y93254D01*
X17928Y93245D01*
X17849Y93231D01*
X17770Y93214D01*
X17692Y93193D01*
X17615Y93169D01*
X17540Y93141D01*
X17466Y93109D01*
X17393Y93074D01*
X17323Y93035D01*
X17254Y92993D01*
X17187Y92948D01*
X17122Y92900D01*
X17060Y92848D01*
X17001Y92794D01*
X16944Y92737D01*
X16890Y92678D01*
X16838Y92616D01*
X16790Y92551D01*
X16745Y92484D01*
X16703Y92416D01*
X16664Y92345D01*
X16629Y92272D01*
X16597Y92198D01*
X16569Y92123D01*
X16545Y92046D01*
X16524Y91968D01*
X16507Y91889D01*
X16493Y91810D01*
X16484Y91730D01*
X16478Y91650D01*
X16476Y91569D01*
X16475Y91569D02*
X16475Y89876D01*
X16475Y91908D02*
X13766Y93263D01*
X13766Y97368D02*
X13766Y100077D01*
X13766Y97368D02*
X19862Y97368D01*
X19862Y100077D01*
X17153Y99400D02*
X17153Y97368D01*
X13766Y105222D02*
X13768Y105295D01*
X13774Y105369D01*
X13784Y105441D01*
X13798Y105513D01*
X13815Y105585D01*
X13837Y105655D01*
X13862Y105724D01*
X13891Y105791D01*
X13924Y105857D01*
X13960Y105921D01*
X13999Y105982D01*
X14042Y106042D01*
X14088Y106099D01*
X14137Y106154D01*
X14189Y106206D01*
X14244Y106255D01*
X14301Y106301D01*
X14361Y106344D01*
X14422Y106383D01*
X14486Y106419D01*
X14552Y106452D01*
X14619Y106481D01*
X14688Y106506D01*
X14759Y106528D01*
X14830Y106545D01*
X14902Y106559D01*
X14975Y106569D01*
X15048Y106575D01*
X15121Y106577D01*
X13766Y105222D02*
X13768Y105119D01*
X13773Y105017D01*
X13783Y104914D01*
X13795Y104813D01*
X13812Y104711D01*
X13832Y104610D01*
X13856Y104511D01*
X13883Y104412D01*
X13914Y104314D01*
X13948Y104217D01*
X13986Y104121D01*
X14027Y104027D01*
X14072Y103935D01*
X14120Y103844D01*
X14171Y103755D01*
X14225Y103667D01*
X14282Y103582D01*
X14343Y103499D01*
X14406Y103418D01*
X14472Y103340D01*
X14541Y103263D01*
X14613Y103190D01*
X18507Y103359D02*
X18578Y103361D01*
X18649Y103366D01*
X18719Y103376D01*
X18789Y103389D01*
X18858Y103405D01*
X18926Y103425D01*
X18993Y103449D01*
X19058Y103476D01*
X19122Y103507D01*
X19185Y103541D01*
X19245Y103578D01*
X19303Y103618D01*
X19360Y103661D01*
X19414Y103707D01*
X19465Y103756D01*
X19514Y103807D01*
X19560Y103861D01*
X19603Y103918D01*
X19643Y103976D01*
X19680Y104037D01*
X19714Y104099D01*
X19745Y104163D01*
X19772Y104228D01*
X19796Y104295D01*
X19816Y104363D01*
X19832Y104432D01*
X19845Y104502D01*
X19855Y104572D01*
X19860Y104643D01*
X19862Y104714D01*
X19860Y104810D01*
X19855Y104906D01*
X19846Y105002D01*
X19833Y105097D01*
X19817Y105192D01*
X19797Y105286D01*
X19773Y105379D01*
X19746Y105471D01*
X19716Y105563D01*
X19682Y105653D01*
X19645Y105741D01*
X19604Y105828D01*
X19561Y105914D01*
X19514Y105998D01*
X19463Y106080D01*
X19410Y106160D01*
X19354Y106238D01*
X17322Y104036D02*
X17359Y103976D01*
X17400Y103917D01*
X17444Y103861D01*
X17491Y103807D01*
X17541Y103756D01*
X17593Y103707D01*
X17647Y103661D01*
X17704Y103618D01*
X17763Y103577D01*
X17824Y103540D01*
X17887Y103506D01*
X17952Y103476D01*
X18018Y103449D01*
X18085Y103425D01*
X18154Y103405D01*
X18223Y103389D01*
X18294Y103376D01*
X18364Y103366D01*
X18436Y103361D01*
X18507Y103359D01*
X16306Y105900D02*
X16269Y105960D01*
X16228Y106019D01*
X16184Y106075D01*
X16137Y106129D01*
X16087Y106180D01*
X16035Y106229D01*
X15981Y106275D01*
X15924Y106319D01*
X15865Y106359D01*
X15804Y106396D01*
X15741Y106430D01*
X15676Y106460D01*
X15610Y106487D01*
X15543Y106511D01*
X15474Y106531D01*
X15405Y106547D01*
X15334Y106560D01*
X15264Y106570D01*
X15192Y106575D01*
X15121Y106577D01*
X16306Y105899D02*
X17322Y104037D01*
X13766Y110535D02*
X13766Y113244D01*
X13766Y110535D02*
X19862Y110535D01*
X19862Y113244D01*
X17153Y112567D02*
X17153Y110535D01*
X19862Y117807D02*
X13766Y117807D01*
X19862Y116114D02*
X19862Y119500D01*
D11*
X18874Y474255D02*
X18874Y475666D01*
X18872Y475740D01*
X18866Y475813D01*
X18857Y475887D01*
X18843Y475959D01*
X18826Y476031D01*
X18805Y476102D01*
X18780Y476172D01*
X18752Y476240D01*
X18720Y476307D01*
X18685Y476372D01*
X18646Y476434D01*
X18605Y476495D01*
X18560Y476554D01*
X18512Y476610D01*
X18461Y476664D01*
X18407Y476715D01*
X18351Y476763D01*
X18292Y476808D01*
X18231Y476849D01*
X18169Y476888D01*
X18104Y476923D01*
X18037Y476955D01*
X17969Y476983D01*
X17899Y477008D01*
X17828Y477029D01*
X17756Y477046D01*
X17684Y477060D01*
X17610Y477069D01*
X17537Y477075D01*
X17463Y477077D01*
X17389Y477075D01*
X17316Y477069D01*
X17242Y477060D01*
X17170Y477046D01*
X17098Y477029D01*
X17027Y477008D01*
X16957Y476983D01*
X16889Y476955D01*
X16822Y476923D01*
X16758Y476888D01*
X16695Y476849D01*
X16634Y476808D01*
X16575Y476763D01*
X16519Y476715D01*
X16465Y476664D01*
X16414Y476610D01*
X16366Y476554D01*
X16321Y476495D01*
X16280Y476434D01*
X16241Y476372D01*
X16206Y476307D01*
X16174Y476240D01*
X16146Y476172D01*
X16121Y476102D01*
X16100Y476031D01*
X16083Y475959D01*
X16069Y475887D01*
X16060Y475813D01*
X16054Y475740D01*
X16052Y475666D01*
X16052Y474255D01*
X21132Y474255D01*
X21132Y475666D01*
X21130Y475732D01*
X21124Y475797D01*
X21115Y475862D01*
X21102Y475926D01*
X21085Y475990D01*
X21064Y476052D01*
X21040Y476113D01*
X21012Y476173D01*
X20981Y476231D01*
X20946Y476286D01*
X20909Y476340D01*
X20868Y476392D01*
X20824Y476441D01*
X20778Y476487D01*
X20729Y476531D01*
X20677Y476572D01*
X20623Y476609D01*
X20568Y476644D01*
X20510Y476675D01*
X20450Y476703D01*
X20389Y476727D01*
X20327Y476748D01*
X20263Y476765D01*
X20199Y476778D01*
X20134Y476787D01*
X20069Y476793D01*
X20003Y476795D01*
X19937Y476793D01*
X19872Y476787D01*
X19807Y476778D01*
X19743Y476765D01*
X19679Y476748D01*
X19617Y476727D01*
X19556Y476703D01*
X19496Y476675D01*
X19439Y476644D01*
X19383Y476609D01*
X19329Y476572D01*
X19277Y476531D01*
X19228Y476487D01*
X19182Y476441D01*
X19138Y476392D01*
X19097Y476340D01*
X19060Y476286D01*
X19025Y476231D01*
X18994Y476173D01*
X18966Y476113D01*
X18942Y476052D01*
X18921Y475990D01*
X18904Y475926D01*
X18891Y475862D01*
X18882Y475797D01*
X18876Y475732D01*
X18874Y475666D01*
X19721Y479433D02*
X17463Y479433D01*
X19721Y479433D02*
X19795Y479435D01*
X19868Y479441D01*
X19942Y479450D01*
X20014Y479464D01*
X20086Y479481D01*
X20157Y479502D01*
X20227Y479527D01*
X20295Y479555D01*
X20362Y479587D01*
X20427Y479622D01*
X20489Y479661D01*
X20550Y479702D01*
X20609Y479747D01*
X20665Y479795D01*
X20719Y479846D01*
X20770Y479900D01*
X20818Y479956D01*
X20863Y480015D01*
X20904Y480076D01*
X20943Y480139D01*
X20978Y480203D01*
X21010Y480270D01*
X21038Y480338D01*
X21063Y480408D01*
X21084Y480479D01*
X21101Y480551D01*
X21115Y480623D01*
X21124Y480697D01*
X21130Y480770D01*
X21132Y480844D01*
X21130Y480918D01*
X21124Y480991D01*
X21115Y481065D01*
X21101Y481137D01*
X21084Y481209D01*
X21063Y481280D01*
X21038Y481350D01*
X21010Y481418D01*
X20978Y481485D01*
X20943Y481550D01*
X20904Y481612D01*
X20863Y481673D01*
X20818Y481732D01*
X20770Y481788D01*
X20719Y481842D01*
X20665Y481893D01*
X20609Y481941D01*
X20550Y481986D01*
X20489Y482027D01*
X20426Y482066D01*
X20362Y482101D01*
X20295Y482133D01*
X20227Y482161D01*
X20157Y482186D01*
X20086Y482207D01*
X20014Y482224D01*
X19942Y482238D01*
X19868Y482247D01*
X19795Y482253D01*
X19721Y482255D01*
X17463Y482255D01*
X17389Y482253D01*
X17316Y482247D01*
X17242Y482238D01*
X17170Y482224D01*
X17098Y482207D01*
X17027Y482186D01*
X16957Y482161D01*
X16889Y482133D01*
X16822Y482101D01*
X16758Y482066D01*
X16695Y482027D01*
X16634Y481986D01*
X16575Y481941D01*
X16519Y481893D01*
X16465Y481842D01*
X16414Y481788D01*
X16366Y481732D01*
X16321Y481673D01*
X16280Y481612D01*
X16241Y481550D01*
X16206Y481485D01*
X16174Y481418D01*
X16146Y481350D01*
X16121Y481280D01*
X16100Y481209D01*
X16083Y481137D01*
X16069Y481065D01*
X16060Y480991D01*
X16054Y480918D01*
X16052Y480844D01*
X16054Y480770D01*
X16060Y480697D01*
X16069Y480623D01*
X16083Y480551D01*
X16100Y480479D01*
X16121Y480408D01*
X16146Y480338D01*
X16174Y480270D01*
X16206Y480203D01*
X16241Y480139D01*
X16280Y480076D01*
X16321Y480015D01*
X16366Y479956D01*
X16414Y479900D01*
X16465Y479846D01*
X16519Y479795D01*
X16575Y479747D01*
X16634Y479702D01*
X16695Y479661D01*
X16757Y479622D01*
X16822Y479587D01*
X16889Y479555D01*
X16957Y479527D01*
X17027Y479502D01*
X17098Y479481D01*
X17170Y479464D01*
X17242Y479450D01*
X17316Y479441D01*
X17389Y479435D01*
X17463Y479433D01*
X17463Y484920D02*
X19721Y484920D01*
X19795Y484922D01*
X19868Y484928D01*
X19942Y484937D01*
X20014Y484951D01*
X20086Y484968D01*
X20157Y484989D01*
X20227Y485014D01*
X20295Y485042D01*
X20362Y485074D01*
X20427Y485109D01*
X20489Y485148D01*
X20550Y485189D01*
X20609Y485234D01*
X20665Y485282D01*
X20719Y485333D01*
X20770Y485387D01*
X20818Y485443D01*
X20863Y485502D01*
X20904Y485563D01*
X20943Y485626D01*
X20978Y485690D01*
X21010Y485757D01*
X21038Y485825D01*
X21063Y485895D01*
X21084Y485966D01*
X21101Y486038D01*
X21115Y486110D01*
X21124Y486184D01*
X21130Y486257D01*
X21132Y486331D01*
X21130Y486405D01*
X21124Y486478D01*
X21115Y486552D01*
X21101Y486624D01*
X21084Y486696D01*
X21063Y486767D01*
X21038Y486837D01*
X21010Y486905D01*
X20978Y486972D01*
X20943Y487037D01*
X20904Y487099D01*
X20863Y487160D01*
X20818Y487219D01*
X20770Y487275D01*
X20719Y487329D01*
X20665Y487380D01*
X20609Y487428D01*
X20550Y487473D01*
X20489Y487514D01*
X20426Y487553D01*
X20362Y487588D01*
X20295Y487620D01*
X20227Y487648D01*
X20157Y487673D01*
X20086Y487694D01*
X20014Y487711D01*
X19942Y487725D01*
X19868Y487734D01*
X19795Y487740D01*
X19721Y487742D01*
X17463Y487742D01*
X17389Y487740D01*
X17316Y487734D01*
X17242Y487725D01*
X17170Y487711D01*
X17098Y487694D01*
X17027Y487673D01*
X16957Y487648D01*
X16889Y487620D01*
X16822Y487588D01*
X16758Y487553D01*
X16695Y487514D01*
X16634Y487473D01*
X16575Y487428D01*
X16519Y487380D01*
X16465Y487329D01*
X16414Y487275D01*
X16366Y487219D01*
X16321Y487160D01*
X16280Y487099D01*
X16241Y487037D01*
X16206Y486972D01*
X16174Y486905D01*
X16146Y486837D01*
X16121Y486767D01*
X16100Y486696D01*
X16083Y486624D01*
X16069Y486552D01*
X16060Y486478D01*
X16054Y486405D01*
X16052Y486331D01*
X16054Y486257D01*
X16060Y486184D01*
X16069Y486110D01*
X16083Y486038D01*
X16100Y485966D01*
X16121Y485895D01*
X16146Y485825D01*
X16174Y485757D01*
X16206Y485690D01*
X16241Y485626D01*
X16280Y485563D01*
X16321Y485502D01*
X16366Y485443D01*
X16414Y485387D01*
X16465Y485333D01*
X16519Y485282D01*
X16575Y485234D01*
X16634Y485189D01*
X16695Y485148D01*
X16757Y485109D01*
X16822Y485074D01*
X16889Y485042D01*
X16957Y485014D01*
X17027Y484989D01*
X17098Y484968D01*
X17170Y484951D01*
X17242Y484937D01*
X17316Y484928D01*
X17389Y484922D01*
X17463Y484920D01*
X16052Y491451D02*
X21132Y491451D01*
X21132Y490040D02*
X21132Y492862D01*
X15488Y494894D02*
X15488Y497152D01*
X17463Y499550D02*
X19721Y499550D01*
X19795Y499552D01*
X19868Y499558D01*
X19942Y499567D01*
X20014Y499581D01*
X20086Y499598D01*
X20157Y499619D01*
X20227Y499644D01*
X20295Y499672D01*
X20362Y499704D01*
X20427Y499739D01*
X20489Y499778D01*
X20550Y499819D01*
X20609Y499864D01*
X20665Y499912D01*
X20719Y499963D01*
X20770Y500017D01*
X20818Y500073D01*
X20863Y500132D01*
X20904Y500193D01*
X20943Y500256D01*
X20978Y500320D01*
X21010Y500387D01*
X21038Y500455D01*
X21063Y500525D01*
X21084Y500596D01*
X21101Y500668D01*
X21115Y500740D01*
X21124Y500814D01*
X21130Y500887D01*
X21132Y500961D01*
X21130Y501035D01*
X21124Y501108D01*
X21115Y501182D01*
X21101Y501254D01*
X21084Y501326D01*
X21063Y501397D01*
X21038Y501467D01*
X21010Y501535D01*
X20978Y501602D01*
X20943Y501667D01*
X20904Y501729D01*
X20863Y501790D01*
X20818Y501849D01*
X20770Y501905D01*
X20719Y501959D01*
X20665Y502010D01*
X20609Y502058D01*
X20550Y502103D01*
X20489Y502144D01*
X20426Y502183D01*
X20362Y502218D01*
X20295Y502250D01*
X20227Y502278D01*
X20157Y502303D01*
X20086Y502324D01*
X20014Y502341D01*
X19942Y502355D01*
X19868Y502364D01*
X19795Y502370D01*
X19721Y502372D01*
X17463Y502372D01*
X17389Y502370D01*
X17316Y502364D01*
X17242Y502355D01*
X17170Y502341D01*
X17098Y502324D01*
X17027Y502303D01*
X16957Y502278D01*
X16889Y502250D01*
X16822Y502218D01*
X16758Y502183D01*
X16695Y502144D01*
X16634Y502103D01*
X16575Y502058D01*
X16519Y502010D01*
X16465Y501959D01*
X16414Y501905D01*
X16366Y501849D01*
X16321Y501790D01*
X16280Y501729D01*
X16241Y501667D01*
X16206Y501602D01*
X16174Y501535D01*
X16146Y501467D01*
X16121Y501397D01*
X16100Y501326D01*
X16083Y501254D01*
X16069Y501182D01*
X16060Y501108D01*
X16054Y501035D01*
X16052Y500961D01*
X16054Y500887D01*
X16060Y500814D01*
X16069Y500740D01*
X16083Y500668D01*
X16100Y500596D01*
X16121Y500525D01*
X16146Y500455D01*
X16174Y500387D01*
X16206Y500320D01*
X16241Y500256D01*
X16280Y500193D01*
X16321Y500132D01*
X16366Y500073D01*
X16414Y500017D01*
X16465Y499963D01*
X16519Y499912D01*
X16575Y499864D01*
X16634Y499819D01*
X16695Y499778D01*
X16757Y499739D01*
X16822Y499704D01*
X16889Y499672D01*
X16957Y499644D01*
X17027Y499619D01*
X17098Y499598D01*
X17170Y499581D01*
X17242Y499567D01*
X17316Y499558D01*
X17389Y499552D01*
X17463Y499550D01*
D10*
X345659Y13676D02*
X350062Y13676D01*
X345659Y13676D02*
X345578Y13678D01*
X345498Y13684D01*
X345418Y13693D01*
X345339Y13707D01*
X345260Y13724D01*
X345182Y13745D01*
X345105Y13769D01*
X345030Y13797D01*
X344956Y13829D01*
X344883Y13864D01*
X344813Y13903D01*
X344744Y13945D01*
X344677Y13990D01*
X344612Y14038D01*
X344550Y14090D01*
X344491Y14144D01*
X344434Y14201D01*
X344380Y14260D01*
X344328Y14322D01*
X344280Y14387D01*
X344235Y14454D01*
X344193Y14523D01*
X344154Y14593D01*
X344119Y14666D01*
X344087Y14740D01*
X344059Y14815D01*
X344035Y14892D01*
X344014Y14970D01*
X343997Y15049D01*
X343983Y15128D01*
X343974Y15208D01*
X343968Y15288D01*
X343966Y15369D01*
X343968Y15450D01*
X343974Y15530D01*
X343983Y15610D01*
X343997Y15689D01*
X344014Y15768D01*
X344035Y15846D01*
X344059Y15923D01*
X344087Y15998D01*
X344119Y16072D01*
X344154Y16145D01*
X344193Y16216D01*
X344235Y16284D01*
X344280Y16351D01*
X344328Y16416D01*
X344380Y16478D01*
X344434Y16537D01*
X344491Y16594D01*
X344550Y16648D01*
X344612Y16700D01*
X344677Y16748D01*
X344744Y16793D01*
X344813Y16835D01*
X344883Y16874D01*
X344956Y16909D01*
X345030Y16941D01*
X345105Y16969D01*
X345182Y16993D01*
X345260Y17014D01*
X345339Y17031D01*
X345418Y17045D01*
X345498Y17054D01*
X345578Y17060D01*
X345659Y17062D01*
X345659Y17063D02*
X350062Y17063D01*
X350062Y21702D02*
X343966Y21702D01*
X350062Y21702D02*
X350062Y23396D01*
X350060Y23477D01*
X350054Y23557D01*
X350045Y23637D01*
X350031Y23716D01*
X350014Y23795D01*
X349993Y23873D01*
X349969Y23950D01*
X349941Y24025D01*
X349909Y24099D01*
X349874Y24172D01*
X349835Y24243D01*
X349793Y24311D01*
X349748Y24378D01*
X349700Y24443D01*
X349648Y24505D01*
X349594Y24564D01*
X349537Y24621D01*
X349478Y24675D01*
X349416Y24727D01*
X349351Y24775D01*
X349284Y24820D01*
X349216Y24862D01*
X349145Y24901D01*
X349072Y24936D01*
X348998Y24968D01*
X348923Y24996D01*
X348846Y25020D01*
X348768Y25041D01*
X348689Y25058D01*
X348610Y25072D01*
X348530Y25081D01*
X348450Y25087D01*
X348369Y25089D01*
X348288Y25087D01*
X348208Y25081D01*
X348128Y25072D01*
X348049Y25058D01*
X347970Y25041D01*
X347892Y25020D01*
X347815Y24996D01*
X347740Y24968D01*
X347666Y24936D01*
X347593Y24901D01*
X347523Y24862D01*
X347454Y24820D01*
X347387Y24775D01*
X347322Y24727D01*
X347260Y24675D01*
X347201Y24621D01*
X347144Y24564D01*
X347090Y24505D01*
X347038Y24443D01*
X346990Y24378D01*
X346945Y24311D01*
X346903Y24243D01*
X346864Y24172D01*
X346829Y24099D01*
X346797Y24025D01*
X346769Y23950D01*
X346745Y23873D01*
X346724Y23795D01*
X346707Y23716D01*
X346693Y23637D01*
X346684Y23557D01*
X346678Y23477D01*
X346676Y23396D01*
X346675Y23396D02*
X346675Y21702D01*
X343966Y28824D02*
X350062Y28824D01*
X343966Y28824D02*
X343966Y31533D01*
X345659Y34890D02*
X348369Y34890D01*
X348450Y34892D01*
X348530Y34898D01*
X348610Y34907D01*
X348689Y34921D01*
X348768Y34938D01*
X348846Y34959D01*
X348923Y34983D01*
X348998Y35011D01*
X349072Y35043D01*
X349145Y35078D01*
X349216Y35117D01*
X349284Y35159D01*
X349351Y35204D01*
X349416Y35252D01*
X349478Y35304D01*
X349537Y35358D01*
X349594Y35415D01*
X349648Y35474D01*
X349700Y35536D01*
X349748Y35601D01*
X349793Y35668D01*
X349835Y35737D01*
X349874Y35807D01*
X349909Y35880D01*
X349941Y35954D01*
X349969Y36029D01*
X349993Y36106D01*
X350014Y36184D01*
X350031Y36263D01*
X350045Y36342D01*
X350054Y36422D01*
X350060Y36502D01*
X350062Y36583D01*
X350060Y36664D01*
X350054Y36744D01*
X350045Y36824D01*
X350031Y36903D01*
X350014Y36982D01*
X349993Y37060D01*
X349969Y37137D01*
X349941Y37212D01*
X349909Y37286D01*
X349874Y37359D01*
X349835Y37430D01*
X349793Y37498D01*
X349748Y37565D01*
X349700Y37630D01*
X349648Y37692D01*
X349594Y37751D01*
X349537Y37808D01*
X349478Y37862D01*
X349416Y37914D01*
X349351Y37962D01*
X349284Y38007D01*
X349216Y38049D01*
X349145Y38088D01*
X349072Y38123D01*
X348998Y38155D01*
X348923Y38183D01*
X348846Y38207D01*
X348768Y38228D01*
X348689Y38245D01*
X348610Y38259D01*
X348530Y38268D01*
X348450Y38274D01*
X348369Y38276D01*
X348369Y38277D02*
X345659Y38277D01*
X345659Y38276D02*
X345578Y38274D01*
X345498Y38268D01*
X345418Y38259D01*
X345339Y38245D01*
X345260Y38228D01*
X345182Y38207D01*
X345105Y38183D01*
X345030Y38155D01*
X344956Y38123D01*
X344883Y38088D01*
X344813Y38049D01*
X344744Y38007D01*
X344677Y37962D01*
X344612Y37914D01*
X344550Y37862D01*
X344491Y37808D01*
X344434Y37751D01*
X344380Y37692D01*
X344328Y37630D01*
X344280Y37565D01*
X344235Y37498D01*
X344193Y37430D01*
X344154Y37359D01*
X344119Y37286D01*
X344087Y37212D01*
X344059Y37137D01*
X344035Y37060D01*
X344014Y36982D01*
X343997Y36903D01*
X343983Y36824D01*
X343974Y36744D01*
X343968Y36664D01*
X343966Y36583D01*
X343968Y36502D01*
X343974Y36422D01*
X343983Y36342D01*
X343997Y36263D01*
X344014Y36184D01*
X344035Y36106D01*
X344059Y36029D01*
X344087Y35954D01*
X344119Y35880D01*
X344154Y35807D01*
X344193Y35737D01*
X344235Y35668D01*
X344280Y35601D01*
X344328Y35536D01*
X344380Y35474D01*
X344434Y35415D01*
X344491Y35358D01*
X344550Y35304D01*
X344612Y35252D01*
X344677Y35204D01*
X344744Y35159D01*
X344813Y35117D01*
X344883Y35078D01*
X344956Y35043D01*
X345030Y35011D01*
X345105Y34983D01*
X345182Y34959D01*
X345260Y34938D01*
X345339Y34921D01*
X345418Y34907D01*
X345498Y34898D01*
X345578Y34892D01*
X345659Y34890D01*
X343966Y41867D02*
X350062Y43899D01*
X343966Y45931D01*
X345490Y45423D02*
X345490Y42375D01*
X343966Y49764D02*
X350062Y49764D01*
X350062Y51458D01*
X350060Y51539D01*
X350054Y51619D01*
X350045Y51699D01*
X350031Y51778D01*
X350014Y51857D01*
X349993Y51935D01*
X349969Y52012D01*
X349941Y52087D01*
X349909Y52161D01*
X349874Y52234D01*
X349835Y52305D01*
X349793Y52373D01*
X349748Y52440D01*
X349700Y52505D01*
X349648Y52567D01*
X349594Y52626D01*
X349537Y52683D01*
X349478Y52737D01*
X349416Y52789D01*
X349351Y52837D01*
X349284Y52882D01*
X349216Y52924D01*
X349145Y52963D01*
X349072Y52998D01*
X348998Y53030D01*
X348923Y53058D01*
X348846Y53082D01*
X348768Y53103D01*
X348689Y53120D01*
X348610Y53134D01*
X348530Y53143D01*
X348450Y53149D01*
X348369Y53151D01*
X345659Y53151D01*
X345578Y53149D01*
X345498Y53143D01*
X345418Y53134D01*
X345339Y53120D01*
X345260Y53103D01*
X345182Y53082D01*
X345105Y53058D01*
X345030Y53030D01*
X344956Y52998D01*
X344883Y52963D01*
X344813Y52924D01*
X344744Y52882D01*
X344677Y52837D01*
X344612Y52789D01*
X344550Y52737D01*
X344491Y52683D01*
X344434Y52626D01*
X344380Y52567D01*
X344328Y52505D01*
X344280Y52440D01*
X344235Y52373D01*
X344193Y52305D01*
X344154Y52234D01*
X344119Y52161D01*
X344087Y52087D01*
X344059Y52012D01*
X344035Y51935D01*
X344014Y51857D01*
X343997Y51778D01*
X343983Y51699D01*
X343974Y51619D01*
X343968Y51539D01*
X343966Y51458D01*
X343966Y49764D01*
X343966Y57597D02*
X343966Y60306D01*
X343966Y57597D02*
X350062Y57597D01*
X350062Y60306D01*
X347353Y59629D02*
X347353Y57597D01*
X350062Y64004D02*
X343966Y64004D01*
X350062Y64004D02*
X350062Y65697D01*
X350060Y65778D01*
X350054Y65858D01*
X350045Y65938D01*
X350031Y66017D01*
X350014Y66096D01*
X349993Y66174D01*
X349969Y66251D01*
X349941Y66326D01*
X349909Y66400D01*
X349874Y66473D01*
X349835Y66544D01*
X349793Y66612D01*
X349748Y66679D01*
X349700Y66744D01*
X349648Y66806D01*
X349594Y66865D01*
X349537Y66922D01*
X349478Y66976D01*
X349416Y67028D01*
X349351Y67076D01*
X349284Y67121D01*
X349216Y67163D01*
X349145Y67202D01*
X349072Y67237D01*
X348998Y67269D01*
X348923Y67297D01*
X348846Y67321D01*
X348768Y67342D01*
X348689Y67359D01*
X348610Y67373D01*
X348530Y67382D01*
X348450Y67388D01*
X348369Y67390D01*
X348288Y67388D01*
X348208Y67382D01*
X348128Y67373D01*
X348049Y67359D01*
X347970Y67342D01*
X347892Y67321D01*
X347815Y67297D01*
X347740Y67269D01*
X347666Y67237D01*
X347593Y67202D01*
X347523Y67163D01*
X347454Y67121D01*
X347387Y67076D01*
X347322Y67028D01*
X347260Y66976D01*
X347201Y66922D01*
X347144Y66865D01*
X347090Y66806D01*
X347038Y66744D01*
X346990Y66679D01*
X346945Y66612D01*
X346903Y66544D01*
X346864Y66473D01*
X346829Y66400D01*
X346797Y66326D01*
X346769Y66251D01*
X346745Y66174D01*
X346724Y66096D01*
X346707Y66017D01*
X346693Y65938D01*
X346684Y65858D01*
X346678Y65778D01*
X346676Y65697D01*
X346675Y65697D02*
X346675Y64004D01*
X346675Y66036D02*
X343966Y67391D01*
X343966Y75397D02*
X350062Y75397D01*
X350062Y78107D01*
X347353Y78107D02*
X347353Y75397D01*
X350062Y82669D02*
X343966Y82669D01*
X350062Y80976D02*
X350062Y84362D01*
X350062Y88047D02*
X343966Y88047D01*
X350062Y88047D02*
X350062Y89740D01*
X350060Y89821D01*
X350054Y89901D01*
X350045Y89981D01*
X350031Y90060D01*
X350014Y90139D01*
X349993Y90217D01*
X349969Y90294D01*
X349941Y90369D01*
X349909Y90443D01*
X349874Y90516D01*
X349835Y90587D01*
X349793Y90655D01*
X349748Y90722D01*
X349700Y90787D01*
X349648Y90849D01*
X349594Y90908D01*
X349537Y90965D01*
X349478Y91019D01*
X349416Y91071D01*
X349351Y91119D01*
X349284Y91164D01*
X349216Y91206D01*
X349145Y91245D01*
X349072Y91280D01*
X348998Y91312D01*
X348923Y91340D01*
X348846Y91364D01*
X348768Y91385D01*
X348689Y91402D01*
X348610Y91416D01*
X348530Y91425D01*
X348450Y91431D01*
X348369Y91433D01*
X348369Y91434D02*
X345659Y91434D01*
X345659Y91433D02*
X345578Y91431D01*
X345498Y91425D01*
X345418Y91416D01*
X345339Y91402D01*
X345260Y91385D01*
X345182Y91364D01*
X345105Y91340D01*
X345030Y91312D01*
X344956Y91280D01*
X344883Y91245D01*
X344813Y91206D01*
X344744Y91164D01*
X344677Y91119D01*
X344612Y91071D01*
X344550Y91019D01*
X344491Y90965D01*
X344434Y90908D01*
X344380Y90849D01*
X344328Y90787D01*
X344280Y90722D01*
X344235Y90655D01*
X344193Y90587D01*
X344154Y90516D01*
X344119Y90443D01*
X344087Y90369D01*
X344059Y90294D01*
X344035Y90217D01*
X344014Y90139D01*
X343997Y90060D01*
X343983Y89981D01*
X343974Y89901D01*
X343968Y89821D01*
X343966Y89740D01*
X343966Y88047D01*
X343966Y95836D02*
X350062Y95836D01*
X343966Y95159D02*
X343966Y96514D01*
X350062Y96514D02*
X350062Y95159D01*
D12*
X172135Y201255D02*
X167507Y201255D01*
X172135Y201255D02*
X172135Y211669D01*
X167507Y211669D01*
X168664Y207041D02*
X172135Y207041D01*
X158477Y201255D02*
X158384Y201257D01*
X158291Y201263D01*
X158198Y201272D01*
X158106Y201285D01*
X158014Y201302D01*
X157923Y201322D01*
X157833Y201346D01*
X157744Y201374D01*
X157656Y201405D01*
X157570Y201440D01*
X157485Y201478D01*
X157402Y201520D01*
X157320Y201565D01*
X157240Y201613D01*
X157162Y201665D01*
X157087Y201719D01*
X157014Y201777D01*
X156943Y201837D01*
X156874Y201900D01*
X156808Y201966D01*
X156745Y202035D01*
X156685Y202106D01*
X156627Y202179D01*
X156573Y202254D01*
X156521Y202332D01*
X156473Y202412D01*
X156428Y202494D01*
X156386Y202577D01*
X156348Y202662D01*
X156313Y202748D01*
X156282Y202836D01*
X156254Y202925D01*
X156230Y203015D01*
X156210Y203106D01*
X156193Y203198D01*
X156180Y203290D01*
X156171Y203383D01*
X156165Y203476D01*
X156163Y203569D01*
X158477Y201255D02*
X158615Y201257D01*
X158753Y201263D01*
X158890Y201272D01*
X159027Y201286D01*
X159164Y201304D01*
X159300Y201325D01*
X159436Y201350D01*
X159571Y201379D01*
X159705Y201412D01*
X159837Y201448D01*
X159969Y201488D01*
X160100Y201532D01*
X160229Y201580D01*
X160357Y201631D01*
X160484Y201686D01*
X160609Y201744D01*
X160732Y201806D01*
X160853Y201871D01*
X160973Y201940D01*
X161090Y202012D01*
X161206Y202087D01*
X161319Y202166D01*
X161430Y202248D01*
X161539Y202333D01*
X161645Y202420D01*
X161749Y202511D01*
X161850Y202605D01*
X161948Y202701D01*
X161659Y209355D02*
X161657Y209448D01*
X161651Y209541D01*
X161642Y209634D01*
X161629Y209726D01*
X161612Y209818D01*
X161592Y209909D01*
X161568Y209999D01*
X161540Y210088D01*
X161509Y210176D01*
X161474Y210262D01*
X161436Y210347D01*
X161394Y210430D01*
X161349Y210512D01*
X161301Y210592D01*
X161249Y210670D01*
X161195Y210745D01*
X161137Y210818D01*
X161077Y210889D01*
X161014Y210958D01*
X160948Y211024D01*
X160879Y211087D01*
X160808Y211147D01*
X160735Y211205D01*
X160660Y211259D01*
X160582Y211311D01*
X160502Y211359D01*
X160420Y211404D01*
X160337Y211446D01*
X160252Y211484D01*
X160166Y211519D01*
X160078Y211550D01*
X159989Y211578D01*
X159899Y211602D01*
X159808Y211622D01*
X159716Y211639D01*
X159624Y211652D01*
X159531Y211661D01*
X159438Y211667D01*
X159345Y211669D01*
X159218Y211667D01*
X159091Y211662D01*
X158965Y211652D01*
X158838Y211639D01*
X158713Y211623D01*
X158587Y211602D01*
X158463Y211578D01*
X158339Y211551D01*
X158216Y211520D01*
X158094Y211485D01*
X157973Y211446D01*
X157853Y211404D01*
X157735Y211359D01*
X157617Y211310D01*
X157502Y211258D01*
X157388Y211202D01*
X157275Y211144D01*
X157165Y211081D01*
X157056Y211016D01*
X156949Y210947D01*
X156844Y210876D01*
X156742Y210801D01*
X160502Y207330D02*
X160582Y207380D01*
X160660Y207432D01*
X160735Y207487D01*
X160809Y207546D01*
X160880Y207607D01*
X160948Y207671D01*
X161014Y207738D01*
X161078Y207808D01*
X161138Y207879D01*
X161195Y207954D01*
X161250Y208030D01*
X161301Y208109D01*
X161349Y208189D01*
X161394Y208271D01*
X161436Y208356D01*
X161474Y208441D01*
X161509Y208528D01*
X161540Y208617D01*
X161568Y208707D01*
X161592Y208797D01*
X161612Y208889D01*
X161629Y208981D01*
X161642Y209074D01*
X161652Y209168D01*
X161657Y209261D01*
X161659Y209355D01*
X157321Y205594D02*
X157241Y205544D01*
X157163Y205492D01*
X157087Y205437D01*
X157014Y205378D01*
X156943Y205317D01*
X156875Y205253D01*
X156809Y205186D01*
X156745Y205116D01*
X156685Y205045D01*
X156628Y204970D01*
X156573Y204894D01*
X156522Y204815D01*
X156474Y204735D01*
X156429Y204653D01*
X156387Y204568D01*
X156349Y204483D01*
X156314Y204396D01*
X156283Y204307D01*
X156255Y204217D01*
X156231Y204127D01*
X156211Y204035D01*
X156194Y203943D01*
X156181Y203850D01*
X156171Y203756D01*
X156166Y203663D01*
X156164Y203569D01*
X157320Y205594D02*
X160502Y207330D01*
X148735Y211669D02*
X148735Y201255D01*
X148735Y211669D02*
X145842Y211669D01*
X145735Y211667D01*
X145628Y211661D01*
X145522Y211651D01*
X145416Y211637D01*
X145310Y211620D01*
X145206Y211598D01*
X145102Y211573D01*
X144999Y211543D01*
X144897Y211510D01*
X144797Y211474D01*
X144698Y211433D01*
X144601Y211389D01*
X144505Y211341D01*
X144411Y211290D01*
X144319Y211236D01*
X144229Y211178D01*
X144142Y211116D01*
X144056Y211052D01*
X143973Y210985D01*
X143893Y210914D01*
X143815Y210840D01*
X143740Y210764D01*
X143668Y210685D01*
X143599Y210604D01*
X143533Y210519D01*
X143470Y210433D01*
X143411Y210344D01*
X143355Y210253D01*
X143302Y210160D01*
X143252Y210066D01*
X143206Y209969D01*
X143164Y209871D01*
X143126Y209771D01*
X143091Y209670D01*
X143059Y209568D01*
X143032Y209464D01*
X143009Y209360D01*
X142989Y209255D01*
X142973Y209149D01*
X142961Y209043D01*
X142953Y208936D01*
X142949Y208829D01*
X142949Y208723D01*
X142953Y208616D01*
X142961Y208509D01*
X142973Y208403D01*
X142989Y208297D01*
X143009Y208192D01*
X143032Y208088D01*
X143059Y207984D01*
X143091Y207882D01*
X143126Y207781D01*
X143164Y207681D01*
X143206Y207583D01*
X143252Y207486D01*
X143302Y207392D01*
X143355Y207299D01*
X143411Y207208D01*
X143470Y207119D01*
X143533Y207033D01*
X143599Y206948D01*
X143668Y206867D01*
X143740Y206788D01*
X143815Y206712D01*
X143893Y206638D01*
X143973Y206567D01*
X144056Y206500D01*
X144142Y206436D01*
X144229Y206374D01*
X144319Y206316D01*
X144411Y206262D01*
X144505Y206211D01*
X144601Y206163D01*
X144698Y206119D01*
X144797Y206078D01*
X144897Y206042D01*
X144999Y206009D01*
X145102Y205979D01*
X145206Y205954D01*
X145310Y205932D01*
X145416Y205915D01*
X145522Y205901D01*
X145628Y205891D01*
X145735Y205885D01*
X145842Y205883D01*
X148735Y205883D01*
X136772Y201255D02*
X133880Y201255D01*
X133773Y201257D01*
X133666Y201263D01*
X133560Y201273D01*
X133454Y201287D01*
X133348Y201304D01*
X133244Y201326D01*
X133140Y201351D01*
X133037Y201381D01*
X132935Y201414D01*
X132835Y201450D01*
X132736Y201491D01*
X132639Y201535D01*
X132543Y201583D01*
X132449Y201634D01*
X132357Y201688D01*
X132267Y201746D01*
X132180Y201808D01*
X132094Y201872D01*
X132011Y201939D01*
X131931Y202010D01*
X131853Y202084D01*
X131778Y202160D01*
X131706Y202239D01*
X131637Y202320D01*
X131571Y202405D01*
X131508Y202491D01*
X131449Y202580D01*
X131393Y202671D01*
X131340Y202764D01*
X131290Y202858D01*
X131244Y202955D01*
X131202Y203053D01*
X131164Y203153D01*
X131129Y203254D01*
X131097Y203356D01*
X131070Y203460D01*
X131047Y203564D01*
X131027Y203669D01*
X131011Y203775D01*
X130999Y203881D01*
X130991Y203988D01*
X130987Y204095D01*
X130987Y204201D01*
X130991Y204308D01*
X130999Y204415D01*
X131011Y204521D01*
X131027Y204627D01*
X131047Y204732D01*
X131070Y204836D01*
X131097Y204940D01*
X131129Y205042D01*
X131164Y205143D01*
X131202Y205243D01*
X131244Y205341D01*
X131290Y205438D01*
X131340Y205532D01*
X131393Y205625D01*
X131449Y205716D01*
X131508Y205805D01*
X131571Y205891D01*
X131637Y205976D01*
X131706Y206057D01*
X131778Y206136D01*
X131853Y206212D01*
X131931Y206286D01*
X132011Y206357D01*
X132094Y206424D01*
X132180Y206488D01*
X132267Y206550D01*
X132357Y206608D01*
X132449Y206662D01*
X132543Y206713D01*
X132639Y206761D01*
X132736Y206805D01*
X132835Y206846D01*
X132935Y206882D01*
X133037Y206915D01*
X133140Y206945D01*
X133244Y206970D01*
X133348Y206992D01*
X133454Y207009D01*
X133560Y207023D01*
X133666Y207033D01*
X133773Y207039D01*
X133880Y207041D01*
X133301Y211669D02*
X136772Y211669D01*
X133301Y211669D02*
X133207Y211667D01*
X133112Y211661D01*
X133018Y211652D01*
X132925Y211638D01*
X132832Y211621D01*
X132740Y211600D01*
X132649Y211575D01*
X132559Y211547D01*
X132470Y211515D01*
X132383Y211479D01*
X132297Y211440D01*
X132213Y211397D01*
X132130Y211351D01*
X132050Y211302D01*
X131972Y211249D01*
X131895Y211193D01*
X131822Y211134D01*
X131750Y211073D01*
X131682Y211008D01*
X131615Y210940D01*
X131552Y210870D01*
X131492Y210798D01*
X131434Y210723D01*
X131380Y210645D01*
X131329Y210566D01*
X131281Y210485D01*
X131237Y210401D01*
X131196Y210316D01*
X131159Y210230D01*
X131125Y210142D01*
X131094Y210052D01*
X131068Y209962D01*
X131045Y209870D01*
X131026Y209777D01*
X131011Y209684D01*
X130999Y209591D01*
X130991Y209497D01*
X130987Y209402D01*
X130987Y209308D01*
X130991Y209213D01*
X130999Y209119D01*
X131011Y209026D01*
X131026Y208933D01*
X131045Y208840D01*
X131068Y208748D01*
X131094Y208658D01*
X131125Y208568D01*
X131159Y208480D01*
X131196Y208394D01*
X131237Y208309D01*
X131281Y208225D01*
X131329Y208144D01*
X131380Y208065D01*
X131434Y207987D01*
X131492Y207912D01*
X131552Y207840D01*
X131615Y207770D01*
X131682Y207702D01*
X131750Y207637D01*
X131822Y207576D01*
X131895Y207517D01*
X131972Y207461D01*
X132050Y207408D01*
X132130Y207359D01*
X132213Y207313D01*
X132297Y207270D01*
X132383Y207231D01*
X132470Y207195D01*
X132559Y207163D01*
X132649Y207135D01*
X132740Y207110D01*
X132832Y207089D01*
X132925Y207072D01*
X133018Y207058D01*
X133112Y207049D01*
X133207Y207043D01*
X133301Y207041D01*
X135615Y207041D01*
X120789Y211670D02*
X120689Y211668D01*
X120590Y211662D01*
X120490Y211653D01*
X120392Y211639D01*
X120293Y211622D01*
X120196Y211602D01*
X120099Y211577D01*
X120003Y211549D01*
X119909Y211517D01*
X119816Y211481D01*
X119724Y211442D01*
X119634Y211400D01*
X119545Y211354D01*
X119458Y211304D01*
X119374Y211252D01*
X119291Y211196D01*
X119210Y211137D01*
X119132Y211075D01*
X119056Y211010D01*
X118983Y210942D01*
X118913Y210872D01*
X118845Y210799D01*
X118780Y210723D01*
X118718Y210645D01*
X118659Y210564D01*
X118603Y210481D01*
X118551Y210397D01*
X118501Y210310D01*
X118455Y210221D01*
X118413Y210131D01*
X118374Y210039D01*
X118338Y209946D01*
X118306Y209852D01*
X118278Y209756D01*
X118253Y209659D01*
X118233Y209562D01*
X118216Y209463D01*
X118202Y209365D01*
X118193Y209265D01*
X118187Y209166D01*
X118185Y209066D01*
X120789Y211669D02*
X120903Y211667D01*
X121016Y211661D01*
X121129Y211652D01*
X121242Y211638D01*
X121355Y211621D01*
X121466Y211600D01*
X121577Y211575D01*
X121687Y211546D01*
X121796Y211514D01*
X121904Y211478D01*
X122011Y211438D01*
X122116Y211395D01*
X122219Y211348D01*
X122321Y211297D01*
X122421Y211244D01*
X122520Y211186D01*
X122616Y211126D01*
X122710Y211062D01*
X122802Y210995D01*
X122892Y210925D01*
X122979Y210852D01*
X123064Y210777D01*
X123146Y210698D01*
X123225Y210616D01*
X123301Y210532D01*
X123375Y210446D01*
X123446Y210357D01*
X123513Y210265D01*
X123578Y210171D01*
X123639Y210076D01*
X123697Y209978D01*
X123751Y209878D01*
X123802Y209776D01*
X123850Y209673D01*
X123894Y209568D01*
X123934Y209462D01*
X123971Y209355D01*
X119053Y207041D02*
X118980Y207113D01*
X118909Y207188D01*
X118842Y207266D01*
X118777Y207346D01*
X118715Y207428D01*
X118656Y207512D01*
X118601Y207599D01*
X118548Y207688D01*
X118499Y207778D01*
X118453Y207870D01*
X118411Y207964D01*
X118372Y208060D01*
X118337Y208156D01*
X118305Y208254D01*
X118277Y208353D01*
X118253Y208453D01*
X118232Y208554D01*
X118215Y208656D01*
X118202Y208758D01*
X118193Y208860D01*
X118187Y208963D01*
X118185Y209066D01*
X119053Y207041D02*
X123971Y201255D01*
X118185Y201255D01*
X111871Y200098D02*
X107242Y200098D01*
X100501Y201255D02*
X100501Y211669D01*
X97608Y211669D01*
X97502Y211667D01*
X97397Y211661D01*
X97292Y211652D01*
X97187Y211638D01*
X97083Y211621D01*
X96979Y211600D01*
X96876Y211575D01*
X96775Y211546D01*
X96674Y211514D01*
X96575Y211478D01*
X96477Y211439D01*
X96380Y211395D01*
X96285Y211349D01*
X96192Y211299D01*
X96101Y211245D01*
X96012Y211189D01*
X95925Y211129D01*
X95840Y211066D01*
X95757Y211000D01*
X95677Y210931D01*
X95600Y210859D01*
X95525Y210784D01*
X95453Y210707D01*
X95384Y210627D01*
X95318Y210544D01*
X95255Y210459D01*
X95195Y210372D01*
X95139Y210283D01*
X95085Y210192D01*
X95035Y210099D01*
X94989Y210004D01*
X94945Y209907D01*
X94906Y209809D01*
X94870Y209710D01*
X94838Y209609D01*
X94809Y209508D01*
X94784Y209405D01*
X94763Y209302D01*
X94746Y209197D01*
X94732Y209092D01*
X94723Y208987D01*
X94717Y208882D01*
X94715Y208776D01*
X94716Y208776D02*
X94716Y204148D01*
X94715Y204148D02*
X94717Y204042D01*
X94723Y203937D01*
X94732Y203832D01*
X94746Y203727D01*
X94763Y203623D01*
X94784Y203519D01*
X94809Y203416D01*
X94838Y203315D01*
X94870Y203214D01*
X94906Y203115D01*
X94945Y203017D01*
X94989Y202920D01*
X95035Y202825D01*
X95085Y202732D01*
X95139Y202641D01*
X95195Y202552D01*
X95255Y202465D01*
X95318Y202380D01*
X95384Y202297D01*
X95453Y202217D01*
X95525Y202140D01*
X95600Y202065D01*
X95677Y201993D01*
X95757Y201924D01*
X95840Y201858D01*
X95925Y201795D01*
X96012Y201735D01*
X96101Y201679D01*
X96192Y201625D01*
X96285Y201575D01*
X96380Y201529D01*
X96477Y201485D01*
X96575Y201446D01*
X96674Y201410D01*
X96775Y201378D01*
X96876Y201349D01*
X96979Y201324D01*
X97083Y201303D01*
X97187Y201286D01*
X97292Y201272D01*
X97397Y201263D01*
X97502Y201257D01*
X97608Y201255D01*
X100501Y201255D01*
X86791Y201255D02*
X82163Y201255D01*
X86791Y201255D02*
X86791Y211669D01*
X82163Y211669D01*
X83320Y207041D02*
X86791Y207041D01*
X76757Y211669D02*
X73285Y201255D01*
X69814Y211669D01*
X62537Y211669D02*
X62537Y201255D01*
X62537Y205305D02*
X56752Y211669D01*
X60223Y207619D02*
X56752Y201255D01*
X50243Y201255D02*
X50243Y211669D01*
X51400Y201255D02*
X49085Y201255D01*
X49085Y211669D02*
X51400Y211669D01*
X40855Y211669D02*
X40855Y201255D01*
X43747Y211669D02*
X37962Y211669D01*
D13*
X80831Y28286D02*
X80831Y26630D01*
X80832Y28286D02*
X80830Y28366D01*
X80824Y28446D01*
X80815Y28525D01*
X80801Y28604D01*
X80784Y28682D01*
X80763Y28760D01*
X80738Y28836D01*
X80710Y28910D01*
X80678Y28984D01*
X80642Y29056D01*
X80603Y29126D01*
X80561Y29194D01*
X80516Y29259D01*
X80467Y29323D01*
X80416Y29384D01*
X80361Y29443D01*
X80304Y29499D01*
X80244Y29552D01*
X80181Y29602D01*
X80117Y29649D01*
X80050Y29693D01*
X79981Y29733D01*
X79910Y29770D01*
X79837Y29804D01*
X79763Y29834D01*
X79688Y29861D01*
X79611Y29884D01*
X79533Y29903D01*
X79455Y29918D01*
X79376Y29930D01*
X79296Y29938D01*
X79216Y29942D01*
X79136Y29942D01*
X79056Y29938D01*
X78976Y29930D01*
X78897Y29918D01*
X78819Y29903D01*
X78741Y29884D01*
X78664Y29861D01*
X78589Y29834D01*
X78515Y29804D01*
X78442Y29770D01*
X78371Y29733D01*
X78302Y29693D01*
X78235Y29649D01*
X78171Y29602D01*
X78108Y29552D01*
X78048Y29499D01*
X77991Y29443D01*
X77936Y29384D01*
X77885Y29323D01*
X77836Y29259D01*
X77791Y29194D01*
X77749Y29126D01*
X77710Y29056D01*
X77674Y28984D01*
X77642Y28910D01*
X77614Y28836D01*
X77589Y28760D01*
X77568Y28682D01*
X77551Y28604D01*
X77537Y28525D01*
X77528Y28446D01*
X77522Y28366D01*
X77520Y28286D01*
X77520Y26630D01*
X83480Y26630D01*
X83480Y28286D01*
X83478Y28358D01*
X83472Y28429D01*
X83463Y28500D01*
X83449Y28571D01*
X83432Y28640D01*
X83411Y28709D01*
X83386Y28776D01*
X83358Y28842D01*
X83326Y28906D01*
X83290Y28969D01*
X83252Y29029D01*
X83210Y29087D01*
X83165Y29143D01*
X83117Y29197D01*
X83067Y29247D01*
X83013Y29295D01*
X82957Y29340D01*
X82899Y29382D01*
X82839Y29420D01*
X82776Y29456D01*
X82712Y29488D01*
X82646Y29516D01*
X82579Y29541D01*
X82510Y29562D01*
X82441Y29579D01*
X82370Y29593D01*
X82299Y29602D01*
X82228Y29608D01*
X82156Y29610D01*
X82084Y29608D01*
X82013Y29602D01*
X81942Y29593D01*
X81871Y29579D01*
X81802Y29562D01*
X81733Y29541D01*
X81666Y29516D01*
X81600Y29488D01*
X81536Y29456D01*
X81473Y29420D01*
X81413Y29382D01*
X81355Y29340D01*
X81299Y29295D01*
X81245Y29247D01*
X81195Y29197D01*
X81147Y29143D01*
X81102Y29087D01*
X81060Y29029D01*
X81022Y28969D01*
X80986Y28906D01*
X80954Y28842D01*
X80926Y28776D01*
X80901Y28709D01*
X80880Y28640D01*
X80863Y28571D01*
X80849Y28500D01*
X80840Y28429D01*
X80834Y28358D01*
X80832Y28286D01*
X77520Y33426D02*
X83480Y35412D01*
X77520Y37399D01*
X79010Y36902D02*
X79010Y33922D01*
X77520Y42552D02*
X83480Y42552D01*
X83480Y40897D02*
X83480Y44208D01*
X77520Y48327D02*
X77520Y50976D01*
X77520Y48327D02*
X83480Y48327D01*
X83480Y50976D01*
X80831Y50314D02*
X80831Y48327D01*
X83480Y55038D02*
X77520Y55038D01*
X83480Y55038D02*
X83480Y56694D01*
X83478Y56774D01*
X83472Y56854D01*
X83463Y56933D01*
X83449Y57012D01*
X83432Y57090D01*
X83411Y57168D01*
X83386Y57244D01*
X83358Y57318D01*
X83326Y57392D01*
X83290Y57464D01*
X83251Y57534D01*
X83209Y57602D01*
X83164Y57667D01*
X83115Y57731D01*
X83064Y57792D01*
X83009Y57851D01*
X82952Y57907D01*
X82892Y57960D01*
X82829Y58010D01*
X82765Y58057D01*
X82698Y58101D01*
X82629Y58141D01*
X82558Y58178D01*
X82485Y58212D01*
X82411Y58242D01*
X82336Y58269D01*
X82259Y58292D01*
X82181Y58311D01*
X82103Y58326D01*
X82024Y58338D01*
X81944Y58346D01*
X81864Y58350D01*
X81784Y58350D01*
X81704Y58346D01*
X81624Y58338D01*
X81545Y58326D01*
X81467Y58311D01*
X81389Y58292D01*
X81312Y58269D01*
X81237Y58242D01*
X81163Y58212D01*
X81090Y58178D01*
X81019Y58141D01*
X80950Y58101D01*
X80883Y58057D01*
X80819Y58010D01*
X80756Y57960D01*
X80696Y57907D01*
X80639Y57851D01*
X80584Y57792D01*
X80533Y57731D01*
X80484Y57667D01*
X80439Y57602D01*
X80397Y57534D01*
X80358Y57464D01*
X80322Y57392D01*
X80290Y57318D01*
X80262Y57244D01*
X80237Y57168D01*
X80216Y57090D01*
X80199Y57012D01*
X80185Y56933D01*
X80176Y56854D01*
X80170Y56774D01*
X80168Y56694D01*
X80169Y56694D02*
X80169Y55038D01*
X80169Y57025D02*
X77520Y58349D01*
X77520Y62240D02*
X83480Y64227D01*
X77520Y66214D01*
X79010Y65717D02*
X79010Y62737D01*
X77520Y70347D02*
X83480Y70347D01*
X77520Y69685D02*
X77520Y71009D01*
X83480Y71009D02*
X83480Y69685D01*
X82156Y78892D02*
X83480Y80547D01*
X77520Y80547D01*
X77520Y78892D02*
X77520Y82203D01*
X77520Y88273D02*
X77522Y88345D01*
X77528Y88416D01*
X77537Y88487D01*
X77551Y88558D01*
X77568Y88627D01*
X77589Y88696D01*
X77614Y88763D01*
X77642Y88829D01*
X77674Y88893D01*
X77710Y88956D01*
X77748Y89016D01*
X77790Y89074D01*
X77835Y89130D01*
X77883Y89184D01*
X77933Y89234D01*
X77987Y89282D01*
X78043Y89327D01*
X78101Y89369D01*
X78161Y89407D01*
X78224Y89443D01*
X78288Y89475D01*
X78354Y89503D01*
X78421Y89528D01*
X78490Y89549D01*
X78559Y89566D01*
X78630Y89580D01*
X78701Y89589D01*
X78772Y89595D01*
X78844Y89597D01*
X77520Y88273D02*
X77522Y88168D01*
X77528Y88063D01*
X77538Y87958D01*
X77552Y87854D01*
X77569Y87750D01*
X77591Y87647D01*
X77616Y87545D01*
X77646Y87444D01*
X77679Y87344D01*
X77715Y87246D01*
X77756Y87149D01*
X77800Y87053D01*
X77848Y86959D01*
X77899Y86867D01*
X77953Y86777D01*
X78011Y86690D01*
X78072Y86604D01*
X78137Y86521D01*
X78204Y86440D01*
X78274Y86362D01*
X78348Y86286D01*
X82156Y86452D02*
X82228Y86454D01*
X82299Y86460D01*
X82370Y86469D01*
X82441Y86483D01*
X82510Y86500D01*
X82579Y86521D01*
X82646Y86546D01*
X82712Y86574D01*
X82776Y86606D01*
X82839Y86642D01*
X82899Y86680D01*
X82957Y86722D01*
X83013Y86767D01*
X83067Y86815D01*
X83117Y86865D01*
X83165Y86919D01*
X83210Y86975D01*
X83252Y87033D01*
X83290Y87093D01*
X83326Y87156D01*
X83358Y87220D01*
X83386Y87286D01*
X83411Y87353D01*
X83432Y87422D01*
X83449Y87491D01*
X83463Y87562D01*
X83472Y87633D01*
X83478Y87704D01*
X83480Y87776D01*
X83478Y87870D01*
X83473Y87964D01*
X83464Y88057D01*
X83452Y88151D01*
X83436Y88243D01*
X83416Y88335D01*
X83393Y88426D01*
X83367Y88517D01*
X83337Y88606D01*
X83304Y88694D01*
X83268Y88780D01*
X83228Y88865D01*
X83185Y88949D01*
X83139Y89031D01*
X83090Y89111D01*
X83038Y89190D01*
X82983Y89266D01*
X80997Y87114D02*
X81034Y87055D01*
X81074Y86998D01*
X81117Y86943D01*
X81163Y86890D01*
X81211Y86840D01*
X81262Y86792D01*
X81316Y86747D01*
X81371Y86705D01*
X81429Y86665D01*
X81489Y86629D01*
X81550Y86596D01*
X81613Y86566D01*
X81678Y86540D01*
X81744Y86517D01*
X81811Y86497D01*
X81879Y86481D01*
X81947Y86468D01*
X82017Y86459D01*
X82086Y86454D01*
X82156Y86452D01*
X80003Y88935D02*
X79966Y88994D01*
X79926Y89051D01*
X79883Y89106D01*
X79837Y89159D01*
X79789Y89209D01*
X79738Y89257D01*
X79684Y89302D01*
X79629Y89344D01*
X79571Y89384D01*
X79511Y89420D01*
X79450Y89453D01*
X79387Y89483D01*
X79322Y89509D01*
X79256Y89532D01*
X79189Y89552D01*
X79121Y89568D01*
X79053Y89581D01*
X78983Y89590D01*
X78914Y89595D01*
X78844Y89597D01*
X80003Y88935D02*
X80997Y87114D01*
D14*
X472900Y11600D03*
D15*
X473400Y12600D03*
X473400Y13600D03*
X473400Y14600D03*
X473400Y15600D03*
D16*
X477900Y16600D03*
X496900Y16600D03*
D17*
X478900Y17600D03*
D18*
X495400Y17600D03*
D19*
X504900Y17600D03*
D20*
X523900Y17600D03*
D21*
X479400Y18600D03*
D18*
X494400Y18600D03*
D19*
X504900Y18600D03*
D22*
X524400Y18600D03*
D21*
X479400Y19600D03*
D19*
X489900Y19600D03*
X504900Y19600D03*
D22*
X524400Y19600D03*
D15*
X473400Y20600D03*
D23*
X487400Y20600D03*
D19*
X504900Y20600D03*
D15*
X517400Y20600D03*
X531400Y20600D03*
X473400Y21600D03*
D23*
X487400Y21600D03*
D19*
X504900Y21600D03*
D15*
X517400Y21600D03*
X531400Y21600D03*
X473400Y22600D03*
D23*
X487400Y22600D03*
D17*
X499900Y22600D03*
D15*
X517400Y22600D03*
D16*
X526900Y22600D03*
D15*
X473400Y23600D03*
D23*
X487400Y23600D03*
D17*
X499900Y23600D03*
D22*
X524400Y23600D03*
D15*
X473400Y24600D03*
D23*
X487400Y24600D03*
D18*
X500400Y24600D03*
D20*
X523900Y24600D03*
D15*
X473400Y25600D03*
D23*
X487400Y25600D03*
X503400Y25600D03*
D24*
X518900Y25600D03*
D19*
X473900Y26600D03*
X484900Y26600D03*
D15*
X489400Y26600D03*
X501400Y26600D03*
X505400Y26600D03*
D23*
X518400Y26600D03*
D21*
X479400Y27600D03*
X495400Y27600D03*
D25*
X516900Y27600D03*
D17*
X479900Y28600D03*
X495900Y28600D03*
X510900Y28600D03*
D18*
X525400Y28600D03*
D26*
X479400Y29600D03*
D16*
X495900Y29600D03*
X510900Y29600D03*
D18*
X525400Y29600D03*
D27*
X495400Y35600D03*
D28*
X495400Y36600D03*
D18*
X495400Y37600D03*
D21*
X495400Y38600D03*
D22*
X495400Y39600D03*
D29*
X495400Y40600D03*
X495400Y41600D03*
D30*
X495400Y42600D03*
X495400Y43600D03*
X495400Y44600D03*
D31*
X495400Y45600D03*
X495400Y46600D03*
X495400Y47600D03*
X495400Y48600D03*
X495400Y49600D03*
X495400Y50600D03*
X495400Y51600D03*
D30*
X495400Y52600D03*
X495400Y53600D03*
X495400Y54600D03*
D29*
X495400Y55600D03*
X495400Y56600D03*
D28*
X517400Y56600D03*
X473400Y57600D03*
D22*
X495400Y57600D03*
D16*
X516900Y57600D03*
X473900Y58600D03*
D21*
X495400Y58600D03*
X516400Y58600D03*
D17*
X473900Y59600D03*
D18*
X495400Y59600D03*
D20*
X515900Y59600D03*
D22*
X474400Y60600D03*
D28*
X495400Y60600D03*
D32*
X515900Y60600D03*
X474900Y61600D03*
D29*
X515400Y61600D03*
X475400Y62600D03*
D33*
X514900Y62600D03*
X475900Y63600D03*
D30*
X514400Y63600D03*
D34*
X476900Y64600D03*
D31*
X513400Y64600D03*
D35*
X478400Y65600D03*
D25*
X511900Y65600D03*
D36*
X494900Y66600D03*
X494900Y67600D03*
D14*
X457900Y68600D03*
D37*
X495400Y68600D03*
D19*
X533900Y68600D03*
D23*
X458400Y69600D03*
D38*
X480400Y69600D03*
D35*
X510400Y69600D03*
D23*
X533400Y69600D03*
D28*
X458400Y70600D03*
D31*
X479400Y70600D03*
D30*
X511400Y70600D03*
D39*
X532900Y70600D03*
D40*
X458900Y71600D03*
D33*
X478900Y71600D03*
D32*
X511900Y71600D03*
D26*
X532400Y71600D03*
D16*
X459900Y72600D03*
D32*
X478900Y72600D03*
D22*
X511400Y72600D03*
D16*
X531900Y72600D03*
X459900Y73600D03*
D32*
X478900Y73600D03*
D20*
X510900Y73600D03*
D18*
X531400Y73600D03*
X460400Y74600D03*
D21*
X479400Y74600D03*
D17*
X510900Y74600D03*
X530900Y74600D03*
X460900Y75600D03*
X479900Y75600D03*
D23*
X495400Y75600D03*
D26*
X510400Y75600D03*
D17*
X530900Y75600D03*
X460900Y76600D03*
D16*
X479900Y76600D03*
D40*
X494900Y76600D03*
D23*
X510400Y76600D03*
D21*
X530400Y76600D03*
X461400Y77600D03*
D39*
X479900Y77600D03*
D18*
X495400Y77600D03*
D20*
X528900Y77600D03*
D21*
X462400Y78600D03*
D23*
X479400Y78600D03*
D22*
X495400Y78600D03*
D32*
X527900Y78600D03*
D21*
X462400Y79600D03*
D27*
X479400Y79600D03*
D29*
X496400Y79600D03*
X527400Y79600D03*
D21*
X463400Y80600D03*
D27*
X479400Y80600D03*
D41*
X511400Y80600D03*
D21*
X463400Y81600D03*
D19*
X479900Y81600D03*
D42*
X510900Y81600D03*
D17*
X463900Y82600D03*
D19*
X479900Y82600D03*
D42*
X510900Y82600D03*
D18*
X464400Y83600D03*
D19*
X479900Y83600D03*
D34*
X497900Y83600D03*
D33*
X523900Y83600D03*
D18*
X464400Y84600D03*
D19*
X479900Y84600D03*
D32*
X495900Y84600D03*
D21*
X525400Y84600D03*
D18*
X465400Y85600D03*
D19*
X479900Y85600D03*
D20*
X494900Y85600D03*
D16*
X525900Y85600D03*
D26*
X465400Y86600D03*
D24*
X479900Y86600D03*
D18*
X495400Y86600D03*
D26*
X525400Y86600D03*
D40*
X465900Y87600D03*
D23*
X479400Y87600D03*
D26*
X495400Y87600D03*
D19*
X512900Y87600D03*
D28*
X525400Y87600D03*
D39*
X466900Y88600D03*
D26*
X478400Y88600D03*
D23*
X495400Y88600D03*
D26*
X512400Y88600D03*
D39*
X524900Y88600D03*
D19*
X466900Y89600D03*
D17*
X478900Y89600D03*
X511900Y89600D03*
D27*
X524400Y89600D03*
D21*
X479400Y90600D03*
D20*
X510900Y90600D03*
D22*
X480400Y91600D03*
D32*
X509900Y91600D03*
D30*
X482400Y92600D03*
X507400Y92600D03*
D43*
X494900Y93600D03*
D44*
X494900Y94600D03*
D22*
X483400Y95600D03*
X507400Y95600D03*
D17*
X482900Y96600D03*
D21*
X507400Y96600D03*
D26*
X483400Y97600D03*
X506400Y97600D03*
D27*
X484400Y98600D03*
D24*
X505900Y98600D03*
D39*
X495900Y99600D03*
D18*
X495400Y100600D03*
D21*
X495400Y101600D03*
X495400Y102600D03*
X495400Y103600D03*
D18*
X495400Y104600D03*
D39*
X495900Y105600D03*
D45*
X325800Y-8850D02*
X323800Y-9850D01*
X320800Y-3850D01*
X316800Y-3850D01*
X316800Y-9850D01*
X254800Y-9850D01*
X254800Y-3850D01*
X250800Y-3850D01*
X247800Y-9850D01*
X245800Y-8850D01*
X248300Y-3850D01*
X248300Y46150D01*
X254200Y46150D01*
X323300Y-3850D02*
X325800Y-8850D01*
X323300Y-3850D02*
X323300Y46150D01*
X317400Y46150D01*
X307700Y34150D02*
X299800Y34150D01*
X312400Y34150D02*
X313800Y34150D01*
X259200Y34150D02*
X257800Y34150D01*
X263900Y34150D02*
X271800Y34150D01*
X313800Y34150D02*
X313800Y34750D01*
X257800Y34750D02*
X257800Y34150D01*
X299800Y34150D02*
X299800Y36350D01*
X271800Y36350D02*
X271800Y34150D01*
X304800Y5150D02*
X313800Y5150D01*
X304800Y5150D02*
X304800Y11150D01*
X305800Y11150D01*
X305800Y21150D01*
X309200Y21150D01*
X313800Y7350D02*
X313800Y5150D01*
X266800Y5150D02*
X257800Y5150D01*
X266800Y5150D02*
X266800Y11150D01*
X265800Y11150D01*
X265800Y21150D01*
X262400Y21150D01*
X257800Y7350D02*
X257800Y5150D01*
D46*
X291230Y21296D02*
X294955Y15708D01*
X291230Y15708D02*
X294955Y21296D01*
X289158Y20054D02*
X287606Y21296D01*
X287606Y15708D01*
X289158Y15708D02*
X286054Y15708D01*
D47*
X207060Y560030D02*
X613460Y560030D01*
X207060Y560030D02*
X207060Y128230D01*
X613460Y128230D02*
X613460Y560030D01*
X613460Y128230D02*
X207060Y128230D01*
X219760Y547330D02*
X600760Y547330D01*
X600760Y140930D01*
X219760Y140930D01*
X219760Y547330D01*
X232460Y534630D02*
X588060Y534630D01*
X588060Y153630D01*
X232460Y153630D01*
X232460Y534630D01*
X245160Y521930D02*
X575360Y521930D01*
X575360Y166330D01*
X245160Y166330D01*
X245160Y521930D01*
X257860Y509230D02*
X562660Y509230D01*
X562660Y179030D01*
X257860Y179030D01*
X257860Y509230D01*
D48*
X410260Y293330D03*
D49*
X511860Y452080D03*
D50*
X327710Y318730D03*
D51*
X365810Y236180D03*
X505510Y223480D03*
D52*
X403910Y426680D03*
D51*
X518210Y299680D03*
X327710Y274280D03*
X327710Y236180D03*
X327710Y210780D03*
D47*
X265299Y483830D02*
X265304Y484271D01*
X265321Y484711D01*
X265348Y485151D01*
X265385Y485590D01*
X265434Y486029D01*
X265493Y486465D01*
X265563Y486901D01*
X265644Y487334D01*
X265735Y487765D01*
X265837Y488194D01*
X265950Y488620D01*
X266072Y489044D01*
X266206Y489464D01*
X266349Y489881D01*
X266503Y490294D01*
X266666Y490703D01*
X266840Y491109D01*
X267023Y491509D01*
X267217Y491905D01*
X267420Y492297D01*
X267632Y492683D01*
X267854Y493064D01*
X268086Y493439D01*
X268326Y493809D01*
X268575Y494172D01*
X268834Y494529D01*
X269101Y494880D01*
X269376Y495224D01*
X269660Y495562D01*
X269952Y495892D01*
X270252Y496215D01*
X270560Y496530D01*
X270875Y496838D01*
X271198Y497138D01*
X271528Y497430D01*
X271866Y497714D01*
X272210Y497989D01*
X272561Y498256D01*
X272918Y498515D01*
X273281Y498764D01*
X273651Y499004D01*
X274026Y499236D01*
X274407Y499458D01*
X274793Y499670D01*
X275185Y499873D01*
X275581Y500067D01*
X275981Y500250D01*
X276387Y500424D01*
X276796Y500587D01*
X277209Y500741D01*
X277626Y500884D01*
X278046Y501018D01*
X278470Y501140D01*
X278896Y501253D01*
X279325Y501355D01*
X279756Y501446D01*
X280189Y501527D01*
X280625Y501597D01*
X281061Y501656D01*
X281500Y501705D01*
X281939Y501742D01*
X282379Y501769D01*
X282819Y501786D01*
X283260Y501791D01*
X283701Y501786D01*
X284141Y501769D01*
X284581Y501742D01*
X285020Y501705D01*
X285459Y501656D01*
X285895Y501597D01*
X286331Y501527D01*
X286764Y501446D01*
X287195Y501355D01*
X287624Y501253D01*
X288050Y501140D01*
X288474Y501018D01*
X288894Y500884D01*
X289311Y500741D01*
X289724Y500587D01*
X290133Y500424D01*
X290539Y500250D01*
X290939Y500067D01*
X291335Y499873D01*
X291727Y499670D01*
X292113Y499458D01*
X292494Y499236D01*
X292869Y499004D01*
X293239Y498764D01*
X293602Y498515D01*
X293959Y498256D01*
X294310Y497989D01*
X294654Y497714D01*
X294992Y497430D01*
X295322Y497138D01*
X295645Y496838D01*
X295960Y496530D01*
X296268Y496215D01*
X296568Y495892D01*
X296860Y495562D01*
X297144Y495224D01*
X297419Y494880D01*
X297686Y494529D01*
X297945Y494172D01*
X298194Y493809D01*
X298434Y493439D01*
X298666Y493064D01*
X298888Y492683D01*
X299100Y492297D01*
X299303Y491905D01*
X299497Y491509D01*
X299680Y491109D01*
X299854Y490703D01*
X300017Y490294D01*
X300171Y489881D01*
X300314Y489464D01*
X300448Y489044D01*
X300570Y488620D01*
X300683Y488194D01*
X300785Y487765D01*
X300876Y487334D01*
X300957Y486901D01*
X301027Y486465D01*
X301086Y486029D01*
X301135Y485590D01*
X301172Y485151D01*
X301199Y484711D01*
X301216Y484271D01*
X301221Y483830D01*
X301216Y483389D01*
X301199Y482949D01*
X301172Y482509D01*
X301135Y482070D01*
X301086Y481631D01*
X301027Y481195D01*
X300957Y480759D01*
X300876Y480326D01*
X300785Y479895D01*
X300683Y479466D01*
X300570Y479040D01*
X300448Y478616D01*
X300314Y478196D01*
X300171Y477779D01*
X300017Y477366D01*
X299854Y476957D01*
X299680Y476551D01*
X299497Y476151D01*
X299303Y475755D01*
X299100Y475363D01*
X298888Y474977D01*
X298666Y474596D01*
X298434Y474221D01*
X298194Y473851D01*
X297945Y473488D01*
X297686Y473131D01*
X297419Y472780D01*
X297144Y472436D01*
X296860Y472098D01*
X296568Y471768D01*
X296268Y471445D01*
X295960Y471130D01*
X295645Y470822D01*
X295322Y470522D01*
X294992Y470230D01*
X294654Y469946D01*
X294310Y469671D01*
X293959Y469404D01*
X293602Y469145D01*
X293239Y468896D01*
X292869Y468656D01*
X292494Y468424D01*
X292113Y468202D01*
X291727Y467990D01*
X291335Y467787D01*
X290939Y467593D01*
X290539Y467410D01*
X290133Y467236D01*
X289724Y467073D01*
X289311Y466919D01*
X288894Y466776D01*
X288474Y466642D01*
X288050Y466520D01*
X287624Y466407D01*
X287195Y466305D01*
X286764Y466214D01*
X286331Y466133D01*
X285895Y466063D01*
X285459Y466004D01*
X285020Y465955D01*
X284581Y465918D01*
X284141Y465891D01*
X283701Y465874D01*
X283260Y465869D01*
X282819Y465874D01*
X282379Y465891D01*
X281939Y465918D01*
X281500Y465955D01*
X281061Y466004D01*
X280625Y466063D01*
X280189Y466133D01*
X279756Y466214D01*
X279325Y466305D01*
X278896Y466407D01*
X278470Y466520D01*
X278046Y466642D01*
X277626Y466776D01*
X277209Y466919D01*
X276796Y467073D01*
X276387Y467236D01*
X275981Y467410D01*
X275581Y467593D01*
X275185Y467787D01*
X274793Y467990D01*
X274407Y468202D01*
X274026Y468424D01*
X273651Y468656D01*
X273281Y468896D01*
X272918Y469145D01*
X272561Y469404D01*
X272210Y469671D01*
X271866Y469946D01*
X271528Y470230D01*
X271198Y470522D01*
X270875Y470822D01*
X270560Y471130D01*
X270252Y471445D01*
X269952Y471768D01*
X269660Y472098D01*
X269376Y472436D01*
X269101Y472780D01*
X268834Y473131D01*
X268575Y473488D01*
X268326Y473851D01*
X268086Y474221D01*
X267854Y474596D01*
X267632Y474977D01*
X267420Y475363D01*
X267217Y475755D01*
X267023Y476151D01*
X266840Y476551D01*
X266666Y476957D01*
X266503Y477366D01*
X266349Y477779D01*
X266206Y478196D01*
X266072Y478616D01*
X265950Y479040D01*
X265837Y479466D01*
X265735Y479895D01*
X265644Y480326D01*
X265563Y480759D01*
X265493Y481195D01*
X265434Y481631D01*
X265385Y482070D01*
X265348Y482509D01*
X265321Y482949D01*
X265304Y483389D01*
X265299Y483830D01*
X517180Y204430D02*
X517186Y204923D01*
X517204Y205415D01*
X517234Y205907D01*
X517277Y206398D01*
X517331Y206888D01*
X517397Y207376D01*
X517476Y207863D01*
X517566Y208347D01*
X517668Y208830D01*
X517782Y209309D01*
X517907Y209786D01*
X518045Y210259D01*
X518193Y210729D01*
X518354Y211195D01*
X518526Y211657D01*
X518708Y212114D01*
X518903Y212567D01*
X519108Y213015D01*
X519324Y213458D01*
X519551Y213896D01*
X519789Y214327D01*
X520037Y214753D01*
X520295Y215173D01*
X520564Y215586D01*
X520843Y215992D01*
X521132Y216392D01*
X521430Y216784D01*
X521738Y217169D01*
X522055Y217546D01*
X522382Y217915D01*
X522717Y218276D01*
X523061Y218629D01*
X523414Y218973D01*
X523775Y219308D01*
X524144Y219635D01*
X524521Y219952D01*
X524906Y220260D01*
X525298Y220558D01*
X525698Y220847D01*
X526104Y221126D01*
X526517Y221395D01*
X526937Y221653D01*
X527363Y221901D01*
X527794Y222139D01*
X528232Y222366D01*
X528675Y222582D01*
X529123Y222787D01*
X529576Y222982D01*
X530033Y223164D01*
X530495Y223336D01*
X530961Y223497D01*
X531431Y223645D01*
X531904Y223783D01*
X532381Y223908D01*
X532860Y224022D01*
X533343Y224124D01*
X533827Y224214D01*
X534314Y224293D01*
X534802Y224359D01*
X535292Y224413D01*
X535783Y224456D01*
X536275Y224486D01*
X536767Y224504D01*
X537260Y224510D01*
X537753Y224504D01*
X538245Y224486D01*
X538737Y224456D01*
X539228Y224413D01*
X539718Y224359D01*
X540206Y224293D01*
X540693Y224214D01*
X541177Y224124D01*
X541660Y224022D01*
X542139Y223908D01*
X542616Y223783D01*
X543089Y223645D01*
X543559Y223497D01*
X544025Y223336D01*
X544487Y223164D01*
X544944Y222982D01*
X545397Y222787D01*
X545845Y222582D01*
X546288Y222366D01*
X546726Y222139D01*
X547157Y221901D01*
X547583Y221653D01*
X548003Y221395D01*
X548416Y221126D01*
X548822Y220847D01*
X549222Y220558D01*
X549614Y220260D01*
X549999Y219952D01*
X550376Y219635D01*
X550745Y219308D01*
X551106Y218973D01*
X551459Y218629D01*
X551803Y218276D01*
X552138Y217915D01*
X552465Y217546D01*
X552782Y217169D01*
X553090Y216784D01*
X553388Y216392D01*
X553677Y215992D01*
X553956Y215586D01*
X554225Y215173D01*
X554483Y214753D01*
X554731Y214327D01*
X554969Y213896D01*
X555196Y213458D01*
X555412Y213015D01*
X555617Y212567D01*
X555812Y212114D01*
X555994Y211657D01*
X556166Y211195D01*
X556327Y210729D01*
X556475Y210259D01*
X556613Y209786D01*
X556738Y209309D01*
X556852Y208830D01*
X556954Y208347D01*
X557044Y207863D01*
X557123Y207376D01*
X557189Y206888D01*
X557243Y206398D01*
X557286Y205907D01*
X557316Y205415D01*
X557334Y204923D01*
X557340Y204430D01*
X557334Y203937D01*
X557316Y203445D01*
X557286Y202953D01*
X557243Y202462D01*
X557189Y201972D01*
X557123Y201484D01*
X557044Y200997D01*
X556954Y200513D01*
X556852Y200030D01*
X556738Y199551D01*
X556613Y199074D01*
X556475Y198601D01*
X556327Y198131D01*
X556166Y197665D01*
X555994Y197203D01*
X555812Y196746D01*
X555617Y196293D01*
X555412Y195845D01*
X555196Y195402D01*
X554969Y194964D01*
X554731Y194533D01*
X554483Y194107D01*
X554225Y193687D01*
X553956Y193274D01*
X553677Y192868D01*
X553388Y192468D01*
X553090Y192076D01*
X552782Y191691D01*
X552465Y191314D01*
X552138Y190945D01*
X551803Y190584D01*
X551459Y190231D01*
X551106Y189887D01*
X550745Y189552D01*
X550376Y189225D01*
X549999Y188908D01*
X549614Y188600D01*
X549222Y188302D01*
X548822Y188013D01*
X548416Y187734D01*
X548003Y187465D01*
X547583Y187207D01*
X547157Y186959D01*
X546726Y186721D01*
X546288Y186494D01*
X545845Y186278D01*
X545397Y186073D01*
X544944Y185878D01*
X544487Y185696D01*
X544025Y185524D01*
X543559Y185363D01*
X543089Y185215D01*
X542616Y185077D01*
X542139Y184952D01*
X541660Y184838D01*
X541177Y184736D01*
X540693Y184646D01*
X540206Y184567D01*
X539718Y184501D01*
X539228Y184447D01*
X538737Y184404D01*
X538245Y184374D01*
X537753Y184356D01*
X537260Y184350D01*
X536767Y184356D01*
X536275Y184374D01*
X535783Y184404D01*
X535292Y184447D01*
X534802Y184501D01*
X534314Y184567D01*
X533827Y184646D01*
X533343Y184736D01*
X532860Y184838D01*
X532381Y184952D01*
X531904Y185077D01*
X531431Y185215D01*
X530961Y185363D01*
X530495Y185524D01*
X530033Y185696D01*
X529576Y185878D01*
X529123Y186073D01*
X528675Y186278D01*
X528232Y186494D01*
X527794Y186721D01*
X527363Y186959D01*
X526937Y187207D01*
X526517Y187465D01*
X526104Y187734D01*
X525698Y188013D01*
X525298Y188302D01*
X524906Y188600D01*
X524521Y188908D01*
X524144Y189225D01*
X523775Y189552D01*
X523414Y189887D01*
X523061Y190231D01*
X522717Y190584D01*
X522382Y190945D01*
X522055Y191314D01*
X521738Y191691D01*
X521430Y192076D01*
X521132Y192468D01*
X520843Y192868D01*
X520564Y193274D01*
X520295Y193687D01*
X520037Y194107D01*
X519789Y194533D01*
X519551Y194964D01*
X519324Y195402D01*
X519108Y195845D01*
X518903Y196293D01*
X518708Y196746D01*
X518526Y197203D01*
X518354Y197665D01*
X518193Y198131D01*
X518045Y198601D01*
X517907Y199074D01*
X517782Y199551D01*
X517668Y200030D01*
X517566Y200513D01*
X517476Y200997D01*
X517397Y201484D01*
X517331Y201972D01*
X517277Y202462D01*
X517234Y202953D01*
X517204Y203445D01*
X517186Y203937D01*
X517180Y204430D01*
D45*
X452572Y375692D02*
X452572Y394168D01*
X447440Y394168D01*
X447299Y394166D01*
X447157Y394160D01*
X447016Y394150D01*
X446875Y394137D01*
X446735Y394119D01*
X446595Y394098D01*
X446456Y394073D01*
X446318Y394044D01*
X446180Y394011D01*
X446044Y393974D01*
X445908Y393934D01*
X445774Y393890D01*
X445641Y393842D01*
X445509Y393791D01*
X445378Y393736D01*
X445250Y393677D01*
X445123Y393615D01*
X444997Y393549D01*
X444874Y393480D01*
X444753Y393408D01*
X444633Y393332D01*
X444516Y393253D01*
X444401Y393171D01*
X444288Y393086D01*
X444177Y392997D01*
X444070Y392906D01*
X443964Y392812D01*
X443861Y392715D01*
X443761Y392615D01*
X443664Y392512D01*
X443570Y392406D01*
X443479Y392299D01*
X443390Y392188D01*
X443305Y392075D01*
X443223Y391960D01*
X443144Y391843D01*
X443068Y391723D01*
X442996Y391602D01*
X442927Y391479D01*
X442861Y391353D01*
X442799Y391226D01*
X442740Y391098D01*
X442685Y390967D01*
X442634Y390835D01*
X442586Y390702D01*
X442542Y390568D01*
X442502Y390432D01*
X442465Y390296D01*
X442432Y390158D01*
X442403Y390020D01*
X442378Y389881D01*
X442357Y389741D01*
X442339Y389601D01*
X442326Y389460D01*
X442316Y389319D01*
X442310Y389177D01*
X442308Y389036D01*
X442310Y388895D01*
X442316Y388753D01*
X442326Y388612D01*
X442339Y388471D01*
X442357Y388331D01*
X442378Y388191D01*
X442403Y388052D01*
X442432Y387914D01*
X442465Y387776D01*
X442502Y387640D01*
X442542Y387504D01*
X442586Y387370D01*
X442634Y387237D01*
X442685Y387105D01*
X442740Y386974D01*
X442799Y386846D01*
X442861Y386719D01*
X442927Y386593D01*
X442996Y386470D01*
X443068Y386349D01*
X443144Y386229D01*
X443223Y386112D01*
X443305Y385997D01*
X443390Y385884D01*
X443479Y385773D01*
X443570Y385666D01*
X443664Y385560D01*
X443761Y385457D01*
X443861Y385357D01*
X443964Y385260D01*
X444070Y385166D01*
X444177Y385075D01*
X444288Y384986D01*
X444401Y384901D01*
X444516Y384819D01*
X444633Y384740D01*
X444753Y384664D01*
X444874Y384592D01*
X444997Y384523D01*
X445123Y384457D01*
X445250Y384395D01*
X445378Y384336D01*
X445509Y384281D01*
X445641Y384230D01*
X445774Y384182D01*
X445908Y384138D01*
X446044Y384098D01*
X446180Y384061D01*
X446318Y384028D01*
X446456Y383999D01*
X446595Y383974D01*
X446735Y383953D01*
X446875Y383935D01*
X447016Y383922D01*
X447157Y383912D01*
X447299Y383906D01*
X447440Y383904D01*
X452572Y383904D01*
X435511Y375692D02*
X435511Y394168D01*
X425247Y375692D01*
X425247Y394168D01*
X417686Y375692D02*
X411528Y375692D01*
X411402Y375694D01*
X411275Y375700D01*
X411149Y375710D01*
X411023Y375723D01*
X410898Y375741D01*
X410774Y375762D01*
X410650Y375787D01*
X410526Y375816D01*
X410404Y375849D01*
X410283Y375885D01*
X410163Y375925D01*
X410045Y375969D01*
X409928Y376017D01*
X409812Y376068D01*
X409698Y376122D01*
X409585Y376181D01*
X409475Y376242D01*
X409366Y376307D01*
X409260Y376375D01*
X409156Y376447D01*
X409054Y376521D01*
X408954Y376599D01*
X408857Y376680D01*
X408762Y376764D01*
X408670Y376850D01*
X408580Y376940D01*
X408494Y377032D01*
X408410Y377127D01*
X408329Y377224D01*
X408251Y377324D01*
X408177Y377426D01*
X408105Y377530D01*
X408037Y377636D01*
X407972Y377745D01*
X407911Y377855D01*
X407852Y377968D01*
X407798Y378082D01*
X407747Y378197D01*
X407699Y378315D01*
X407655Y378433D01*
X407615Y378553D01*
X407579Y378674D01*
X407546Y378796D01*
X407517Y378920D01*
X407492Y379043D01*
X407471Y379168D01*
X407453Y379293D01*
X407440Y379419D01*
X407430Y379545D01*
X407424Y379671D01*
X407422Y379798D01*
X407422Y381851D01*
X407424Y381977D01*
X407430Y382104D01*
X407440Y382230D01*
X407453Y382356D01*
X407471Y382481D01*
X407492Y382605D01*
X407517Y382729D01*
X407546Y382853D01*
X407579Y382975D01*
X407615Y383096D01*
X407655Y383216D01*
X407699Y383334D01*
X407747Y383451D01*
X407798Y383567D01*
X407852Y383681D01*
X407911Y383794D01*
X407972Y383904D01*
X408037Y384013D01*
X408105Y384119D01*
X408177Y384223D01*
X408251Y384325D01*
X408329Y384425D01*
X408410Y384522D01*
X408494Y384617D01*
X408580Y384709D01*
X408670Y384799D01*
X408762Y384885D01*
X408857Y384969D01*
X408954Y385050D01*
X409054Y385128D01*
X409156Y385202D01*
X409260Y385274D01*
X409366Y385342D01*
X409475Y385407D01*
X409585Y385468D01*
X409698Y385527D01*
X409812Y385581D01*
X409928Y385632D01*
X410045Y385680D01*
X410163Y385724D01*
X410283Y385764D01*
X410404Y385800D01*
X410527Y385833D01*
X410650Y385862D01*
X410774Y385887D01*
X410898Y385908D01*
X411023Y385926D01*
X411149Y385939D01*
X411275Y385949D01*
X411402Y385955D01*
X411528Y385957D01*
X411528Y385956D02*
X417686Y385956D01*
X417686Y394168D01*
X407422Y394168D01*
X400436Y375692D02*
X395304Y375692D01*
X395163Y375694D01*
X395021Y375700D01*
X394880Y375710D01*
X394739Y375723D01*
X394599Y375741D01*
X394459Y375762D01*
X394320Y375787D01*
X394182Y375816D01*
X394044Y375849D01*
X393908Y375886D01*
X393772Y375926D01*
X393638Y375970D01*
X393505Y376018D01*
X393373Y376069D01*
X393242Y376124D01*
X393114Y376183D01*
X392987Y376245D01*
X392861Y376311D01*
X392738Y376380D01*
X392617Y376452D01*
X392497Y376528D01*
X392380Y376607D01*
X392265Y376689D01*
X392152Y376774D01*
X392041Y376863D01*
X391934Y376954D01*
X391828Y377048D01*
X391725Y377145D01*
X391625Y377245D01*
X391528Y377348D01*
X391434Y377454D01*
X391343Y377561D01*
X391254Y377672D01*
X391169Y377785D01*
X391087Y377900D01*
X391008Y378017D01*
X390932Y378137D01*
X390860Y378258D01*
X390791Y378381D01*
X390725Y378507D01*
X390663Y378634D01*
X390604Y378762D01*
X390549Y378893D01*
X390498Y379025D01*
X390450Y379158D01*
X390406Y379292D01*
X390366Y379428D01*
X390329Y379564D01*
X390296Y379702D01*
X390267Y379840D01*
X390242Y379979D01*
X390221Y380119D01*
X390203Y380259D01*
X390190Y380400D01*
X390180Y380541D01*
X390174Y380683D01*
X390172Y380824D01*
X390174Y380965D01*
X390180Y381107D01*
X390190Y381248D01*
X390203Y381389D01*
X390221Y381529D01*
X390242Y381669D01*
X390267Y381808D01*
X390296Y381946D01*
X390329Y382084D01*
X390366Y382220D01*
X390406Y382356D01*
X390450Y382490D01*
X390498Y382623D01*
X390549Y382755D01*
X390604Y382886D01*
X390663Y383014D01*
X390725Y383141D01*
X390791Y383267D01*
X390860Y383390D01*
X390932Y383511D01*
X391008Y383631D01*
X391087Y383748D01*
X391169Y383863D01*
X391254Y383976D01*
X391343Y384087D01*
X391434Y384194D01*
X391528Y384300D01*
X391625Y384403D01*
X391725Y384503D01*
X391828Y384600D01*
X391934Y384694D01*
X392041Y384785D01*
X392152Y384874D01*
X392265Y384959D01*
X392380Y385041D01*
X392497Y385120D01*
X392617Y385196D01*
X392738Y385268D01*
X392861Y385337D01*
X392987Y385403D01*
X393114Y385465D01*
X393242Y385524D01*
X393373Y385579D01*
X393505Y385630D01*
X393638Y385678D01*
X393772Y385722D01*
X393908Y385762D01*
X394044Y385799D01*
X394182Y385832D01*
X394320Y385861D01*
X394459Y385886D01*
X394599Y385907D01*
X394739Y385925D01*
X394880Y385938D01*
X395021Y385948D01*
X395163Y385954D01*
X395304Y385956D01*
X394278Y394168D02*
X400436Y394168D01*
X394278Y394168D02*
X394152Y394166D01*
X394025Y394160D01*
X393899Y394150D01*
X393773Y394137D01*
X393648Y394119D01*
X393524Y394098D01*
X393400Y394073D01*
X393276Y394044D01*
X393154Y394011D01*
X393033Y393975D01*
X392913Y393935D01*
X392795Y393891D01*
X392678Y393843D01*
X392562Y393792D01*
X392448Y393738D01*
X392335Y393679D01*
X392225Y393618D01*
X392116Y393553D01*
X392010Y393485D01*
X391906Y393413D01*
X391804Y393339D01*
X391704Y393261D01*
X391607Y393180D01*
X391512Y393096D01*
X391420Y393010D01*
X391330Y392920D01*
X391244Y392828D01*
X391160Y392733D01*
X391079Y392636D01*
X391001Y392536D01*
X390927Y392434D01*
X390855Y392330D01*
X390787Y392224D01*
X390722Y392115D01*
X390661Y392005D01*
X390602Y391892D01*
X390548Y391778D01*
X390497Y391662D01*
X390449Y391545D01*
X390405Y391427D01*
X390365Y391307D01*
X390329Y391186D01*
X390296Y391064D01*
X390267Y390940D01*
X390242Y390816D01*
X390221Y390692D01*
X390203Y390567D01*
X390190Y390441D01*
X390180Y390315D01*
X390174Y390188D01*
X390172Y390062D01*
X390174Y389936D01*
X390180Y389809D01*
X390190Y389683D01*
X390203Y389557D01*
X390221Y389432D01*
X390242Y389308D01*
X390267Y389184D01*
X390296Y389060D01*
X390329Y388938D01*
X390365Y388817D01*
X390405Y388697D01*
X390449Y388579D01*
X390497Y388462D01*
X390548Y388346D01*
X390602Y388232D01*
X390661Y388119D01*
X390722Y388009D01*
X390787Y387900D01*
X390855Y387794D01*
X390927Y387690D01*
X391001Y387588D01*
X391079Y387488D01*
X391160Y387391D01*
X391244Y387296D01*
X391330Y387204D01*
X391420Y387114D01*
X391512Y387028D01*
X391607Y386944D01*
X391704Y386863D01*
X391804Y386785D01*
X391906Y386711D01*
X392010Y386639D01*
X392116Y386571D01*
X392225Y386506D01*
X392335Y386445D01*
X392448Y386386D01*
X392562Y386332D01*
X392678Y386281D01*
X392795Y386233D01*
X392913Y386189D01*
X393033Y386149D01*
X393154Y386113D01*
X393276Y386080D01*
X393400Y386051D01*
X393524Y386026D01*
X393648Y386005D01*
X393773Y385987D01*
X393899Y385974D01*
X394025Y385964D01*
X394152Y385958D01*
X394278Y385956D01*
X398384Y385956D01*
X377541Y394168D02*
X377407Y394166D01*
X377272Y394160D01*
X377138Y394150D01*
X377005Y394137D01*
X376872Y394119D01*
X376739Y394098D01*
X376607Y394073D01*
X376476Y394043D01*
X376345Y394011D01*
X376216Y393974D01*
X376088Y393934D01*
X375961Y393889D01*
X375836Y393842D01*
X375711Y393790D01*
X375589Y393735D01*
X375468Y393677D01*
X375349Y393615D01*
X375231Y393549D01*
X375116Y393480D01*
X375003Y393408D01*
X374892Y393333D01*
X374783Y393254D01*
X374676Y393172D01*
X374572Y393087D01*
X374470Y392999D01*
X374371Y392909D01*
X374275Y392815D01*
X374181Y392719D01*
X374090Y392620D01*
X374003Y392518D01*
X373918Y392414D01*
X373836Y392307D01*
X373757Y392198D01*
X373682Y392087D01*
X373610Y391974D01*
X373541Y391858D01*
X373475Y391741D01*
X373413Y391622D01*
X373355Y391501D01*
X373300Y391378D01*
X373248Y391254D01*
X373201Y391129D01*
X373156Y391002D01*
X373116Y390874D01*
X373079Y390744D01*
X373047Y390614D01*
X373017Y390483D01*
X372992Y390351D01*
X372971Y390218D01*
X372953Y390085D01*
X372940Y389952D01*
X372930Y389818D01*
X372924Y389683D01*
X372922Y389549D01*
X377541Y394168D02*
X377693Y394166D01*
X377845Y394160D01*
X377997Y394150D01*
X378149Y394137D01*
X378300Y394119D01*
X378451Y394098D01*
X378601Y394072D01*
X378751Y394043D01*
X378899Y394010D01*
X379047Y393974D01*
X379194Y393933D01*
X379340Y393889D01*
X379484Y393841D01*
X379628Y393789D01*
X379769Y393734D01*
X379910Y393675D01*
X380049Y393612D01*
X380186Y393546D01*
X380321Y393476D01*
X380455Y393403D01*
X380587Y393327D01*
X380716Y393247D01*
X380844Y393164D01*
X380969Y393077D01*
X381093Y392988D01*
X381213Y392895D01*
X381332Y392799D01*
X381448Y392701D01*
X381561Y392599D01*
X381672Y392494D01*
X381780Y392387D01*
X381885Y392277D01*
X381987Y392164D01*
X382087Y392049D01*
X382183Y391931D01*
X382276Y391810D01*
X382366Y391688D01*
X382454Y391563D01*
X382537Y391435D01*
X382618Y391306D01*
X382695Y391175D01*
X382769Y391042D01*
X382839Y390907D01*
X382906Y390770D01*
X382969Y390631D01*
X383029Y390491D01*
X383085Y390350D01*
X383138Y390207D01*
X383186Y390062D01*
X374462Y385957D02*
X374363Y386053D01*
X374266Y386153D01*
X374173Y386255D01*
X374083Y386360D01*
X373995Y386468D01*
X373910Y386577D01*
X373829Y386689D01*
X373751Y386804D01*
X373676Y386920D01*
X373604Y387039D01*
X373536Y387159D01*
X373471Y387281D01*
X373409Y387406D01*
X373351Y387531D01*
X373296Y387659D01*
X373245Y387787D01*
X373198Y387918D01*
X373154Y388049D01*
X373114Y388182D01*
X373078Y388315D01*
X373045Y388450D01*
X373016Y388585D01*
X372991Y388722D01*
X372970Y388859D01*
X372953Y388996D01*
X372939Y389134D01*
X372930Y389272D01*
X372924Y389410D01*
X372922Y389549D01*
X374462Y385956D02*
X383186Y375692D01*
X372922Y375692D01*
D10*
X40690Y401410D02*
X12920Y401410D01*
X12920Y391140D01*
X167690Y401410D02*
X195460Y401410D01*
X195460Y391140D01*
X12920Y214030D02*
X12920Y143870D01*
X195460Y143870D02*
X195460Y214030D01*
X195460Y143870D02*
X12920Y143870D01*
D53*
X110016Y373103D02*
X110016Y378423D01*
X110016Y373103D02*
X110014Y373014D01*
X110008Y372925D01*
X109998Y372836D01*
X109985Y372748D01*
X109968Y372660D01*
X109946Y372573D01*
X109921Y372488D01*
X109893Y372403D01*
X109860Y372320D01*
X109824Y372238D01*
X109785Y372158D01*
X109742Y372080D01*
X109696Y372004D01*
X109646Y371929D01*
X109593Y371857D01*
X109537Y371788D01*
X109478Y371721D01*
X109417Y371656D01*
X109352Y371595D01*
X109285Y371536D01*
X109216Y371480D01*
X109144Y371427D01*
X109069Y371377D01*
X108993Y371331D01*
X108915Y371288D01*
X108835Y371249D01*
X108753Y371213D01*
X108670Y371180D01*
X108585Y371152D01*
X108500Y371127D01*
X108413Y371105D01*
X108325Y371088D01*
X108237Y371075D01*
X108148Y371065D01*
X108059Y371059D01*
X107970Y371057D01*
X107881Y371059D01*
X107792Y371065D01*
X107703Y371075D01*
X107615Y371088D01*
X107527Y371105D01*
X107440Y371127D01*
X107355Y371152D01*
X107270Y371180D01*
X107187Y371213D01*
X107105Y371249D01*
X107025Y371288D01*
X106947Y371331D01*
X106871Y371377D01*
X106796Y371427D01*
X106724Y371480D01*
X106655Y371536D01*
X106588Y371595D01*
X106523Y371656D01*
X106462Y371721D01*
X106403Y371788D01*
X106347Y371857D01*
X106294Y371929D01*
X106244Y372004D01*
X106198Y372080D01*
X106155Y372158D01*
X106116Y372238D01*
X106080Y372320D01*
X106047Y372403D01*
X106019Y372488D01*
X105994Y372573D01*
X105972Y372660D01*
X105955Y372748D01*
X105942Y372836D01*
X105932Y372925D01*
X105926Y373014D01*
X105924Y373103D01*
X105923Y373103D02*
X105923Y378423D01*
X102457Y376786D02*
X100411Y378423D01*
X100411Y371057D01*
X102457Y371057D02*
X98364Y371057D01*
D45*
X30530Y124420D02*
X30530Y83780D01*
X61010Y83780D01*
X61010Y124420D01*
X30530Y124420D01*
X35531Y102830D02*
X35534Y103081D01*
X35543Y103332D01*
X35559Y103583D01*
X35580Y103834D01*
X35608Y104083D01*
X35642Y104332D01*
X35682Y104580D01*
X35728Y104828D01*
X35780Y105073D01*
X35838Y105318D01*
X35902Y105561D01*
X35972Y105802D01*
X36048Y106042D01*
X36130Y106279D01*
X36217Y106515D01*
X36310Y106748D01*
X36409Y106979D01*
X36514Y107208D01*
X36624Y107434D01*
X36740Y107657D01*
X36861Y107877D01*
X36988Y108094D01*
X37120Y108308D01*
X37257Y108518D01*
X37399Y108726D01*
X37546Y108929D01*
X37698Y109129D01*
X37855Y109326D01*
X38017Y109518D01*
X38183Y109706D01*
X38354Y109890D01*
X38530Y110070D01*
X38710Y110246D01*
X38894Y110417D01*
X39082Y110583D01*
X39274Y110745D01*
X39471Y110902D01*
X39671Y111054D01*
X39874Y111201D01*
X40082Y111343D01*
X40292Y111480D01*
X40506Y111612D01*
X40723Y111739D01*
X40943Y111860D01*
X41166Y111976D01*
X41392Y112086D01*
X41621Y112191D01*
X41852Y112290D01*
X42085Y112383D01*
X42321Y112470D01*
X42558Y112552D01*
X42798Y112628D01*
X43039Y112698D01*
X43282Y112762D01*
X43527Y112820D01*
X43772Y112872D01*
X44020Y112918D01*
X44268Y112958D01*
X44517Y112992D01*
X44766Y113020D01*
X45017Y113041D01*
X45268Y113057D01*
X45519Y113066D01*
X45770Y113069D01*
X46021Y113066D01*
X46272Y113057D01*
X46523Y113041D01*
X46774Y113020D01*
X47023Y112992D01*
X47272Y112958D01*
X47520Y112918D01*
X47768Y112872D01*
X48013Y112820D01*
X48258Y112762D01*
X48501Y112698D01*
X48742Y112628D01*
X48982Y112552D01*
X49219Y112470D01*
X49455Y112383D01*
X49688Y112290D01*
X49919Y112191D01*
X50148Y112086D01*
X50374Y111976D01*
X50597Y111860D01*
X50817Y111739D01*
X51034Y111612D01*
X51248Y111480D01*
X51458Y111343D01*
X51666Y111201D01*
X51869Y111054D01*
X52069Y110902D01*
X52266Y110745D01*
X52458Y110583D01*
X52646Y110417D01*
X52830Y110246D01*
X53010Y110070D01*
X53186Y109890D01*
X53357Y109706D01*
X53523Y109518D01*
X53685Y109326D01*
X53842Y109129D01*
X53994Y108929D01*
X54141Y108726D01*
X54283Y108518D01*
X54420Y108308D01*
X54552Y108094D01*
X54679Y107877D01*
X54800Y107657D01*
X54916Y107434D01*
X55026Y107208D01*
X55131Y106979D01*
X55230Y106748D01*
X55323Y106515D01*
X55410Y106279D01*
X55492Y106042D01*
X55568Y105802D01*
X55638Y105561D01*
X55702Y105318D01*
X55760Y105073D01*
X55812Y104828D01*
X55858Y104580D01*
X55898Y104332D01*
X55932Y104083D01*
X55960Y103834D01*
X55981Y103583D01*
X55997Y103332D01*
X56006Y103081D01*
X56009Y102830D01*
X56006Y102579D01*
X55997Y102328D01*
X55981Y102077D01*
X55960Y101826D01*
X55932Y101577D01*
X55898Y101328D01*
X55858Y101080D01*
X55812Y100832D01*
X55760Y100587D01*
X55702Y100342D01*
X55638Y100099D01*
X55568Y99858D01*
X55492Y99618D01*
X55410Y99381D01*
X55323Y99145D01*
X55230Y98912D01*
X55131Y98681D01*
X55026Y98452D01*
X54916Y98226D01*
X54800Y98003D01*
X54679Y97783D01*
X54552Y97566D01*
X54420Y97352D01*
X54283Y97142D01*
X54141Y96934D01*
X53994Y96731D01*
X53842Y96531D01*
X53685Y96334D01*
X53523Y96142D01*
X53357Y95954D01*
X53186Y95770D01*
X53010Y95590D01*
X52830Y95414D01*
X52646Y95243D01*
X52458Y95077D01*
X52266Y94915D01*
X52069Y94758D01*
X51869Y94606D01*
X51666Y94459D01*
X51458Y94317D01*
X51248Y94180D01*
X51034Y94048D01*
X50817Y93921D01*
X50597Y93800D01*
X50374Y93684D01*
X50148Y93574D01*
X49919Y93469D01*
X49688Y93370D01*
X49455Y93277D01*
X49219Y93190D01*
X48982Y93108D01*
X48742Y93032D01*
X48501Y92962D01*
X48258Y92898D01*
X48013Y92840D01*
X47768Y92788D01*
X47520Y92742D01*
X47272Y92702D01*
X47023Y92668D01*
X46774Y92640D01*
X46523Y92619D01*
X46272Y92603D01*
X46021Y92594D01*
X45770Y92591D01*
X45519Y92594D01*
X45268Y92603D01*
X45017Y92619D01*
X44766Y92640D01*
X44517Y92668D01*
X44268Y92702D01*
X44020Y92742D01*
X43772Y92788D01*
X43527Y92840D01*
X43282Y92898D01*
X43039Y92962D01*
X42798Y93032D01*
X42558Y93108D01*
X42321Y93190D01*
X42085Y93277D01*
X41852Y93370D01*
X41621Y93469D01*
X41392Y93574D01*
X41166Y93684D01*
X40943Y93800D01*
X40723Y93921D01*
X40506Y94048D01*
X40292Y94180D01*
X40082Y94317D01*
X39874Y94459D01*
X39671Y94606D01*
X39471Y94758D01*
X39274Y94915D01*
X39082Y95077D01*
X38894Y95243D01*
X38710Y95414D01*
X38530Y95590D01*
X38354Y95770D01*
X38183Y95954D01*
X38017Y96142D01*
X37855Y96334D01*
X37698Y96531D01*
X37546Y96731D01*
X37399Y96934D01*
X37257Y97142D01*
X37120Y97352D01*
X36988Y97566D01*
X36861Y97783D01*
X36740Y98003D01*
X36624Y98226D01*
X36514Y98452D01*
X36409Y98681D01*
X36310Y98912D01*
X36217Y99145D01*
X36130Y99381D01*
X36048Y99618D01*
X35972Y99858D01*
X35902Y100099D01*
X35838Y100342D01*
X35780Y100587D01*
X35728Y100832D01*
X35682Y101080D01*
X35642Y101328D01*
X35608Y101577D01*
X35580Y101826D01*
X35559Y102077D01*
X35543Y102328D01*
X35534Y102579D01*
X35531Y102830D01*
X31800Y85050D02*
X59740Y85050D01*
X31800Y85050D02*
X31800Y86320D01*
X59740Y86320D01*
X59740Y87590D01*
X31800Y87590D01*
X31800Y123150D02*
X59740Y123150D01*
X31800Y123150D02*
X31800Y121880D01*
X31800Y120610D01*
X31800Y121880D02*
X59740Y121880D01*
X59740Y120610D01*
X31800Y120610D01*
X31800Y119340D01*
X59740Y119340D01*
X57200Y469860D02*
X57200Y510500D01*
X26720Y510500D01*
X26720Y469860D01*
X57200Y469860D01*
X31721Y491450D02*
X31724Y491701D01*
X31733Y491952D01*
X31749Y492203D01*
X31770Y492454D01*
X31798Y492703D01*
X31832Y492952D01*
X31872Y493200D01*
X31918Y493448D01*
X31970Y493693D01*
X32028Y493938D01*
X32092Y494181D01*
X32162Y494422D01*
X32238Y494662D01*
X32320Y494899D01*
X32407Y495135D01*
X32500Y495368D01*
X32599Y495599D01*
X32704Y495828D01*
X32814Y496054D01*
X32930Y496277D01*
X33051Y496497D01*
X33178Y496714D01*
X33310Y496928D01*
X33447Y497138D01*
X33589Y497346D01*
X33736Y497549D01*
X33888Y497749D01*
X34045Y497946D01*
X34207Y498138D01*
X34373Y498326D01*
X34544Y498510D01*
X34720Y498690D01*
X34900Y498866D01*
X35084Y499037D01*
X35272Y499203D01*
X35464Y499365D01*
X35661Y499522D01*
X35861Y499674D01*
X36064Y499821D01*
X36272Y499963D01*
X36482Y500100D01*
X36696Y500232D01*
X36913Y500359D01*
X37133Y500480D01*
X37356Y500596D01*
X37582Y500706D01*
X37811Y500811D01*
X38042Y500910D01*
X38275Y501003D01*
X38511Y501090D01*
X38748Y501172D01*
X38988Y501248D01*
X39229Y501318D01*
X39472Y501382D01*
X39717Y501440D01*
X39962Y501492D01*
X40210Y501538D01*
X40458Y501578D01*
X40707Y501612D01*
X40956Y501640D01*
X41207Y501661D01*
X41458Y501677D01*
X41709Y501686D01*
X41960Y501689D01*
X42211Y501686D01*
X42462Y501677D01*
X42713Y501661D01*
X42964Y501640D01*
X43213Y501612D01*
X43462Y501578D01*
X43710Y501538D01*
X43958Y501492D01*
X44203Y501440D01*
X44448Y501382D01*
X44691Y501318D01*
X44932Y501248D01*
X45172Y501172D01*
X45409Y501090D01*
X45645Y501003D01*
X45878Y500910D01*
X46109Y500811D01*
X46338Y500706D01*
X46564Y500596D01*
X46787Y500480D01*
X47007Y500359D01*
X47224Y500232D01*
X47438Y500100D01*
X47648Y499963D01*
X47856Y499821D01*
X48059Y499674D01*
X48259Y499522D01*
X48456Y499365D01*
X48648Y499203D01*
X48836Y499037D01*
X49020Y498866D01*
X49200Y498690D01*
X49376Y498510D01*
X49547Y498326D01*
X49713Y498138D01*
X49875Y497946D01*
X50032Y497749D01*
X50184Y497549D01*
X50331Y497346D01*
X50473Y497138D01*
X50610Y496928D01*
X50742Y496714D01*
X50869Y496497D01*
X50990Y496277D01*
X51106Y496054D01*
X51216Y495828D01*
X51321Y495599D01*
X51420Y495368D01*
X51513Y495135D01*
X51600Y494899D01*
X51682Y494662D01*
X51758Y494422D01*
X51828Y494181D01*
X51892Y493938D01*
X51950Y493693D01*
X52002Y493448D01*
X52048Y493200D01*
X52088Y492952D01*
X52122Y492703D01*
X52150Y492454D01*
X52171Y492203D01*
X52187Y491952D01*
X52196Y491701D01*
X52199Y491450D01*
X52196Y491199D01*
X52187Y490948D01*
X52171Y490697D01*
X52150Y490446D01*
X52122Y490197D01*
X52088Y489948D01*
X52048Y489700D01*
X52002Y489452D01*
X51950Y489207D01*
X51892Y488962D01*
X51828Y488719D01*
X51758Y488478D01*
X51682Y488238D01*
X51600Y488001D01*
X51513Y487765D01*
X51420Y487532D01*
X51321Y487301D01*
X51216Y487072D01*
X51106Y486846D01*
X50990Y486623D01*
X50869Y486403D01*
X50742Y486186D01*
X50610Y485972D01*
X50473Y485762D01*
X50331Y485554D01*
X50184Y485351D01*
X50032Y485151D01*
X49875Y484954D01*
X49713Y484762D01*
X49547Y484574D01*
X49376Y484390D01*
X49200Y484210D01*
X49020Y484034D01*
X48836Y483863D01*
X48648Y483697D01*
X48456Y483535D01*
X48259Y483378D01*
X48059Y483226D01*
X47856Y483079D01*
X47648Y482937D01*
X47438Y482800D01*
X47224Y482668D01*
X47007Y482541D01*
X46787Y482420D01*
X46564Y482304D01*
X46338Y482194D01*
X46109Y482089D01*
X45878Y481990D01*
X45645Y481897D01*
X45409Y481810D01*
X45172Y481728D01*
X44932Y481652D01*
X44691Y481582D01*
X44448Y481518D01*
X44203Y481460D01*
X43958Y481408D01*
X43710Y481362D01*
X43462Y481322D01*
X43213Y481288D01*
X42964Y481260D01*
X42713Y481239D01*
X42462Y481223D01*
X42211Y481214D01*
X41960Y481211D01*
X41709Y481214D01*
X41458Y481223D01*
X41207Y481239D01*
X40956Y481260D01*
X40707Y481288D01*
X40458Y481322D01*
X40210Y481362D01*
X39962Y481408D01*
X39717Y481460D01*
X39472Y481518D01*
X39229Y481582D01*
X38988Y481652D01*
X38748Y481728D01*
X38511Y481810D01*
X38275Y481897D01*
X38042Y481990D01*
X37811Y482089D01*
X37582Y482194D01*
X37356Y482304D01*
X37133Y482420D01*
X36913Y482541D01*
X36696Y482668D01*
X36482Y482800D01*
X36272Y482937D01*
X36064Y483079D01*
X35861Y483226D01*
X35661Y483378D01*
X35464Y483535D01*
X35272Y483697D01*
X35084Y483863D01*
X34900Y484034D01*
X34720Y484210D01*
X34544Y484390D01*
X34373Y484574D01*
X34207Y484762D01*
X34045Y484954D01*
X33888Y485151D01*
X33736Y485351D01*
X33589Y485554D01*
X33447Y485762D01*
X33310Y485972D01*
X33178Y486186D01*
X33051Y486403D01*
X32930Y486623D01*
X32814Y486846D01*
X32704Y487072D01*
X32599Y487301D01*
X32500Y487532D01*
X32407Y487765D01*
X32320Y488001D01*
X32238Y488238D01*
X32162Y488478D01*
X32092Y488719D01*
X32028Y488962D01*
X31970Y489207D01*
X31918Y489452D01*
X31872Y489700D01*
X31832Y489948D01*
X31798Y490197D01*
X31770Y490446D01*
X31749Y490697D01*
X31733Y490948D01*
X31724Y491199D01*
X31721Y491450D01*
X27990Y509230D02*
X55930Y509230D01*
X55930Y507960D01*
X27990Y507960D01*
X27990Y506690D01*
X55930Y506690D01*
X55930Y471130D02*
X27990Y471130D01*
X55930Y471130D02*
X55930Y472400D01*
X55930Y473670D01*
X55930Y472400D02*
X27990Y472400D01*
X27990Y473670D01*
X55930Y473670D01*
X55930Y474940D01*
X27990Y474940D01*
D11*
X166428Y440307D02*
X174224Y440307D01*
X170326Y436409D02*
X170326Y444205D01*
D47*
X175900Y477800D02*
X175900Y517800D01*
X153400Y540300D02*
X113400Y540300D01*
D11*
X93549Y445688D02*
X93549Y437898D01*
D47*
X90900Y477800D02*
X90900Y517800D01*
X113400Y455300D02*
X153400Y455300D01*
D54*
X133400Y536535D03*
D45*
X125780Y518120D02*
X141020Y518120D01*
X132130Y527010D01*
X123240Y518120D01*
X125780Y518120D01*
X125780Y519390D01*
X138480Y519390D01*
X137210Y520660D01*
X127050Y520660D01*
X128320Y521930D01*
X135940Y521930D01*
X134670Y523200D01*
X133400Y523200D01*
X132130Y523200D02*
X129590Y523200D01*
X130860Y524470D01*
X132130Y523200D01*
X133400Y523200D01*
X133400Y524470D01*
X132130Y525740D01*
X132130Y524470D01*
X153720Y539710D02*
X175310Y518120D01*
X174040Y518120D01*
X152450Y539710D01*
X152450Y538440D01*
X175310Y515580D01*
X175310Y516850D01*
X174040Y518120D01*
X152450Y539710D02*
X151180Y539710D01*
X152450Y538440D01*
X151180Y539710D02*
X149910Y539710D01*
X175310Y514310D01*
X139965Y482560D02*
X139967Y482742D01*
X139974Y482923D01*
X139985Y483105D01*
X140001Y483286D01*
X140021Y483466D01*
X140045Y483647D01*
X140074Y483826D01*
X140107Y484005D01*
X140145Y484182D01*
X140187Y484359D01*
X140233Y484535D01*
X140284Y484710D01*
X140339Y484883D01*
X140398Y485055D01*
X140461Y485225D01*
X140529Y485394D01*
X140600Y485561D01*
X140676Y485726D01*
X140756Y485889D01*
X140839Y486051D01*
X140927Y486210D01*
X141019Y486367D01*
X141114Y486522D01*
X141213Y486674D01*
X141316Y486824D01*
X141422Y486971D01*
X141532Y487116D01*
X141646Y487258D01*
X141763Y487397D01*
X141883Y487533D01*
X142007Y487666D01*
X142134Y487796D01*
X142264Y487923D01*
X142397Y488047D01*
X142533Y488167D01*
X142672Y488284D01*
X142814Y488398D01*
X142959Y488508D01*
X143106Y488614D01*
X143256Y488717D01*
X143408Y488816D01*
X143563Y488911D01*
X143720Y489003D01*
X143879Y489091D01*
X144041Y489174D01*
X144204Y489254D01*
X144369Y489330D01*
X144536Y489401D01*
X144705Y489469D01*
X144875Y489532D01*
X145047Y489591D01*
X145220Y489646D01*
X145395Y489697D01*
X145571Y489743D01*
X145748Y489785D01*
X145925Y489823D01*
X146104Y489856D01*
X146283Y489885D01*
X146464Y489909D01*
X146644Y489929D01*
X146825Y489945D01*
X147007Y489956D01*
X147188Y489963D01*
X147370Y489965D01*
X147552Y489963D01*
X147733Y489956D01*
X147915Y489945D01*
X148096Y489929D01*
X148276Y489909D01*
X148457Y489885D01*
X148636Y489856D01*
X148815Y489823D01*
X148992Y489785D01*
X149169Y489743D01*
X149345Y489697D01*
X149520Y489646D01*
X149693Y489591D01*
X149865Y489532D01*
X150035Y489469D01*
X150204Y489401D01*
X150371Y489330D01*
X150536Y489254D01*
X150699Y489174D01*
X150861Y489091D01*
X151020Y489003D01*
X151177Y488911D01*
X151332Y488816D01*
X151484Y488717D01*
X151634Y488614D01*
X151781Y488508D01*
X151926Y488398D01*
X152068Y488284D01*
X152207Y488167D01*
X152343Y488047D01*
X152476Y487923D01*
X152606Y487796D01*
X152733Y487666D01*
X152857Y487533D01*
X152977Y487397D01*
X153094Y487258D01*
X153208Y487116D01*
X153318Y486971D01*
X153424Y486824D01*
X153527Y486674D01*
X153626Y486522D01*
X153721Y486367D01*
X153813Y486210D01*
X153901Y486051D01*
X153984Y485889D01*
X154064Y485726D01*
X154140Y485561D01*
X154211Y485394D01*
X154279Y485225D01*
X154342Y485055D01*
X154401Y484883D01*
X154456Y484710D01*
X154507Y484535D01*
X154553Y484359D01*
X154595Y484182D01*
X154633Y484005D01*
X154666Y483826D01*
X154695Y483647D01*
X154719Y483466D01*
X154739Y483286D01*
X154755Y483105D01*
X154766Y482923D01*
X154773Y482742D01*
X154775Y482560D01*
X154773Y482378D01*
X154766Y482197D01*
X154755Y482015D01*
X154739Y481834D01*
X154719Y481654D01*
X154695Y481473D01*
X154666Y481294D01*
X154633Y481115D01*
X154595Y480938D01*
X154553Y480761D01*
X154507Y480585D01*
X154456Y480410D01*
X154401Y480237D01*
X154342Y480065D01*
X154279Y479895D01*
X154211Y479726D01*
X154140Y479559D01*
X154064Y479394D01*
X153984Y479231D01*
X153901Y479069D01*
X153813Y478910D01*
X153721Y478753D01*
X153626Y478598D01*
X153527Y478446D01*
X153424Y478296D01*
X153318Y478149D01*
X153208Y478004D01*
X153094Y477862D01*
X152977Y477723D01*
X152857Y477587D01*
X152733Y477454D01*
X152606Y477324D01*
X152476Y477197D01*
X152343Y477073D01*
X152207Y476953D01*
X152068Y476836D01*
X151926Y476722D01*
X151781Y476612D01*
X151634Y476506D01*
X151484Y476403D01*
X151332Y476304D01*
X151177Y476209D01*
X151020Y476117D01*
X150861Y476029D01*
X150699Y475946D01*
X150536Y475866D01*
X150371Y475790D01*
X150204Y475719D01*
X150035Y475651D01*
X149865Y475588D01*
X149693Y475529D01*
X149520Y475474D01*
X149345Y475423D01*
X149169Y475377D01*
X148992Y475335D01*
X148815Y475297D01*
X148636Y475264D01*
X148457Y475235D01*
X148276Y475211D01*
X148096Y475191D01*
X147915Y475175D01*
X147733Y475164D01*
X147552Y475157D01*
X147370Y475155D01*
X147188Y475157D01*
X147007Y475164D01*
X146825Y475175D01*
X146644Y475191D01*
X146464Y475211D01*
X146283Y475235D01*
X146104Y475264D01*
X145925Y475297D01*
X145748Y475335D01*
X145571Y475377D01*
X145395Y475423D01*
X145220Y475474D01*
X145047Y475529D01*
X144875Y475588D01*
X144705Y475651D01*
X144536Y475719D01*
X144369Y475790D01*
X144204Y475866D01*
X144041Y475946D01*
X143879Y476029D01*
X143720Y476117D01*
X143563Y476209D01*
X143408Y476304D01*
X143256Y476403D01*
X143106Y476506D01*
X142959Y476612D01*
X142814Y476722D01*
X142672Y476836D01*
X142533Y476953D01*
X142397Y477073D01*
X142264Y477197D01*
X142134Y477324D01*
X142007Y477454D01*
X141883Y477587D01*
X141763Y477723D01*
X141646Y477862D01*
X141532Y478004D01*
X141422Y478149D01*
X141316Y478296D01*
X141213Y478446D01*
X141114Y478598D01*
X141019Y478753D01*
X140927Y478910D01*
X140839Y479069D01*
X140756Y479231D01*
X140676Y479394D01*
X140600Y479559D01*
X140529Y479726D01*
X140461Y479895D01*
X140398Y480065D01*
X140339Y480237D01*
X140284Y480410D01*
X140233Y480585D01*
X140187Y480761D01*
X140145Y480938D01*
X140107Y481115D01*
X140074Y481294D01*
X140045Y481473D01*
X140021Y481654D01*
X140001Y481834D01*
X139985Y482015D01*
X139974Y482197D01*
X139967Y482378D01*
X139965Y482560D01*
X143560Y482560D02*
X147370Y482560D01*
X151180Y482560D01*
X147370Y482560D02*
X147370Y478750D01*
X147370Y482560D02*
X147370Y486370D01*
X119430Y539710D02*
X91490Y511770D01*
X91490Y514310D01*
X116890Y539710D01*
X118160Y539710D01*
X92760Y514310D01*
X91490Y515580D01*
X115620Y539710D01*
X114350Y539710D01*
X113080Y539710D01*
X91490Y518120D01*
X91490Y516850D01*
X114350Y539710D01*
D11*
X81170Y521341D02*
X69480Y521341D01*
X69480Y526536D01*
X69480Y534362D02*
X69482Y534462D01*
X69488Y534561D01*
X69497Y534660D01*
X69510Y534759D01*
X69528Y534857D01*
X69548Y534954D01*
X69573Y535050D01*
X69601Y535146D01*
X69633Y535240D01*
X69668Y535333D01*
X69707Y535425D01*
X69750Y535515D01*
X69796Y535603D01*
X69845Y535690D01*
X69897Y535774D01*
X69953Y535857D01*
X70012Y535937D01*
X70074Y536015D01*
X70138Y536091D01*
X70206Y536164D01*
X70276Y536234D01*
X70349Y536302D01*
X70425Y536366D01*
X70503Y536428D01*
X70583Y536487D01*
X70666Y536543D01*
X70750Y536595D01*
X70837Y536644D01*
X70925Y536690D01*
X71015Y536733D01*
X71107Y536772D01*
X71200Y536807D01*
X71294Y536839D01*
X71390Y536867D01*
X71486Y536892D01*
X71583Y536912D01*
X71681Y536930D01*
X71780Y536943D01*
X71879Y536952D01*
X71978Y536958D01*
X72078Y536960D01*
X69481Y534362D02*
X69483Y534218D01*
X69489Y534073D01*
X69498Y533929D01*
X69511Y533785D01*
X69528Y533642D01*
X69549Y533499D01*
X69574Y533357D01*
X69602Y533215D01*
X69634Y533074D01*
X69670Y532934D01*
X69709Y532796D01*
X69752Y532658D01*
X69799Y532521D01*
X69849Y532386D01*
X69903Y532252D01*
X69960Y532119D01*
X70021Y531988D01*
X70085Y531859D01*
X70153Y531731D01*
X70224Y531605D01*
X70298Y531481D01*
X70375Y531359D01*
X70456Y531240D01*
X70540Y531122D01*
X70627Y531007D01*
X70716Y530893D01*
X70809Y530783D01*
X70905Y530675D01*
X71003Y530569D01*
X71104Y530466D01*
X78572Y530790D02*
X78672Y530792D01*
X78771Y530798D01*
X78870Y530807D01*
X78969Y530820D01*
X79067Y530838D01*
X79164Y530858D01*
X79260Y530883D01*
X79356Y530911D01*
X79450Y530943D01*
X79543Y530978D01*
X79635Y531017D01*
X79725Y531060D01*
X79813Y531106D01*
X79900Y531155D01*
X79984Y531207D01*
X80067Y531263D01*
X80147Y531322D01*
X80225Y531384D01*
X80301Y531448D01*
X80374Y531516D01*
X80444Y531586D01*
X80512Y531659D01*
X80576Y531735D01*
X80638Y531813D01*
X80697Y531893D01*
X80753Y531976D01*
X80805Y532060D01*
X80854Y532147D01*
X80900Y532235D01*
X80943Y532325D01*
X80982Y532417D01*
X81017Y532510D01*
X81049Y532604D01*
X81077Y532700D01*
X81102Y532796D01*
X81122Y532893D01*
X81140Y532991D01*
X81153Y533090D01*
X81162Y533189D01*
X81168Y533288D01*
X81170Y533388D01*
X81168Y533524D01*
X81162Y533660D01*
X81153Y533796D01*
X81140Y533932D01*
X81122Y534067D01*
X81102Y534202D01*
X81077Y534336D01*
X81048Y534469D01*
X81016Y534602D01*
X80981Y534733D01*
X80941Y534864D01*
X80898Y534993D01*
X80851Y535121D01*
X80801Y535248D01*
X80747Y535373D01*
X80690Y535496D01*
X80629Y535618D01*
X80565Y535739D01*
X80498Y535857D01*
X80427Y535974D01*
X80353Y536088D01*
X80276Y536200D01*
X80196Y536311D01*
X76299Y532090D02*
X76352Y532003D01*
X76409Y531919D01*
X76469Y531837D01*
X76531Y531757D01*
X76597Y531680D01*
X76666Y531605D01*
X76737Y531534D01*
X76811Y531464D01*
X76888Y531398D01*
X76968Y531335D01*
X77049Y531275D01*
X77133Y531218D01*
X77219Y531164D01*
X77307Y531114D01*
X77397Y531067D01*
X77489Y531024D01*
X77582Y530984D01*
X77677Y530947D01*
X77773Y530915D01*
X77870Y530886D01*
X77969Y530861D01*
X78068Y530840D01*
X78168Y530822D01*
X78268Y530809D01*
X78369Y530799D01*
X78471Y530793D01*
X78572Y530791D01*
X74351Y535661D02*
X74298Y535748D01*
X74241Y535832D01*
X74181Y535914D01*
X74119Y535994D01*
X74053Y536071D01*
X73984Y536146D01*
X73913Y536217D01*
X73838Y536287D01*
X73762Y536353D01*
X73682Y536416D01*
X73601Y536476D01*
X73517Y536533D01*
X73431Y536587D01*
X73343Y536637D01*
X73253Y536684D01*
X73161Y536727D01*
X73068Y536767D01*
X72973Y536804D01*
X72877Y536836D01*
X72780Y536865D01*
X72681Y536890D01*
X72582Y536911D01*
X72482Y536929D01*
X72382Y536942D01*
X72281Y536952D01*
X72179Y536958D01*
X72078Y536960D01*
X74351Y535661D02*
X76299Y532089D01*
X78572Y541520D02*
X81170Y544767D01*
X69480Y544767D01*
X69480Y541520D02*
X69480Y548014D01*
D45*
X3830Y51870D02*
X3830Y31870D01*
X21580Y21870D02*
X46330Y21870D01*
X46330Y31870D01*
X46330Y51870D02*
X46330Y61870D01*
X21580Y61870D01*
D53*
X39119Y40692D02*
X29721Y34426D01*
X29721Y40692D02*
X39119Y34426D01*
X29721Y44092D02*
X29721Y46703D01*
X29723Y46804D01*
X29729Y46905D01*
X29739Y47006D01*
X29752Y47106D01*
X29770Y47206D01*
X29791Y47305D01*
X29817Y47403D01*
X29846Y47500D01*
X29878Y47596D01*
X29915Y47690D01*
X29955Y47783D01*
X29999Y47875D01*
X30046Y47964D01*
X30097Y48052D01*
X30151Y48138D01*
X30208Y48221D01*
X30268Y48303D01*
X30332Y48381D01*
X30398Y48458D01*
X30468Y48531D01*
X30540Y48602D01*
X30615Y48670D01*
X30693Y48735D01*
X30773Y48797D01*
X30855Y48856D01*
X30940Y48912D01*
X31027Y48964D01*
X31115Y49013D01*
X31206Y49059D01*
X31298Y49100D01*
X31392Y49139D01*
X31487Y49173D01*
X31583Y49204D01*
X31681Y49231D01*
X31779Y49255D01*
X31879Y49274D01*
X31979Y49290D01*
X32079Y49302D01*
X32180Y49310D01*
X32281Y49314D01*
X32383Y49314D01*
X32484Y49310D01*
X32585Y49302D01*
X32685Y49290D01*
X32785Y49274D01*
X32885Y49255D01*
X32983Y49231D01*
X33081Y49204D01*
X33177Y49173D01*
X33272Y49139D01*
X33366Y49100D01*
X33458Y49059D01*
X33549Y49013D01*
X33638Y48964D01*
X33724Y48912D01*
X33809Y48856D01*
X33891Y48797D01*
X33971Y48735D01*
X34049Y48670D01*
X34124Y48602D01*
X34196Y48531D01*
X34266Y48458D01*
X34332Y48381D01*
X34396Y48303D01*
X34456Y48221D01*
X34513Y48138D01*
X34567Y48052D01*
X34618Y47964D01*
X34665Y47875D01*
X34709Y47783D01*
X34749Y47690D01*
X34786Y47596D01*
X34818Y47500D01*
X34847Y47403D01*
X34873Y47305D01*
X34894Y47206D01*
X34912Y47106D01*
X34925Y47006D01*
X34935Y46905D01*
X34941Y46804D01*
X34943Y46703D01*
X39119Y47225D02*
X39119Y44092D01*
X39119Y47225D02*
X39117Y47315D01*
X39111Y47404D01*
X39102Y47494D01*
X39088Y47583D01*
X39071Y47671D01*
X39050Y47758D01*
X39025Y47845D01*
X38996Y47930D01*
X38964Y48014D01*
X38929Y48096D01*
X38889Y48177D01*
X38847Y48256D01*
X38801Y48333D01*
X38751Y48408D01*
X38699Y48481D01*
X38643Y48552D01*
X38585Y48620D01*
X38523Y48685D01*
X38459Y48748D01*
X38392Y48808D01*
X38323Y48865D01*
X38251Y48919D01*
X38177Y48970D01*
X38101Y49018D01*
X38023Y49062D01*
X37943Y49103D01*
X37861Y49141D01*
X37778Y49175D01*
X37693Y49205D01*
X37607Y49232D01*
X37521Y49255D01*
X37433Y49274D01*
X37344Y49289D01*
X37255Y49301D01*
X37166Y49309D01*
X37076Y49313D01*
X36986Y49313D01*
X36896Y49309D01*
X36807Y49301D01*
X36718Y49289D01*
X36629Y49274D01*
X36541Y49255D01*
X36455Y49232D01*
X36369Y49205D01*
X36284Y49175D01*
X36201Y49141D01*
X36119Y49103D01*
X36039Y49062D01*
X35961Y49018D01*
X35885Y48970D01*
X35811Y48919D01*
X35739Y48865D01*
X35670Y48808D01*
X35603Y48748D01*
X35539Y48685D01*
X35477Y48620D01*
X35419Y48552D01*
X35363Y48481D01*
X35311Y48408D01*
X35261Y48333D01*
X35215Y48256D01*
X35173Y48177D01*
X35133Y48096D01*
X35098Y48014D01*
X35066Y47930D01*
X35037Y47845D01*
X35012Y47758D01*
X34991Y47671D01*
X34974Y47583D01*
X34960Y47494D01*
X34951Y47404D01*
X34945Y47315D01*
X34943Y47225D01*
X34942Y47225D02*
X34942Y45137D01*
D45*
X354380Y72350D02*
X354380Y112990D01*
X354380Y72350D02*
X384860Y72350D01*
X384860Y112990D01*
X354380Y112990D01*
X359381Y91400D02*
X359384Y91651D01*
X359393Y91902D01*
X359409Y92153D01*
X359430Y92404D01*
X359458Y92653D01*
X359492Y92902D01*
X359532Y93150D01*
X359578Y93398D01*
X359630Y93643D01*
X359688Y93888D01*
X359752Y94131D01*
X359822Y94372D01*
X359898Y94612D01*
X359980Y94849D01*
X360067Y95085D01*
X360160Y95318D01*
X360259Y95549D01*
X360364Y95778D01*
X360474Y96004D01*
X360590Y96227D01*
X360711Y96447D01*
X360838Y96664D01*
X360970Y96878D01*
X361107Y97088D01*
X361249Y97296D01*
X361396Y97499D01*
X361548Y97699D01*
X361705Y97896D01*
X361867Y98088D01*
X362033Y98276D01*
X362204Y98460D01*
X362380Y98640D01*
X362560Y98816D01*
X362744Y98987D01*
X362932Y99153D01*
X363124Y99315D01*
X363321Y99472D01*
X363521Y99624D01*
X363724Y99771D01*
X363932Y99913D01*
X364142Y100050D01*
X364356Y100182D01*
X364573Y100309D01*
X364793Y100430D01*
X365016Y100546D01*
X365242Y100656D01*
X365471Y100761D01*
X365702Y100860D01*
X365935Y100953D01*
X366171Y101040D01*
X366408Y101122D01*
X366648Y101198D01*
X366889Y101268D01*
X367132Y101332D01*
X367377Y101390D01*
X367622Y101442D01*
X367870Y101488D01*
X368118Y101528D01*
X368367Y101562D01*
X368616Y101590D01*
X368867Y101611D01*
X369118Y101627D01*
X369369Y101636D01*
X369620Y101639D01*
X369871Y101636D01*
X370122Y101627D01*
X370373Y101611D01*
X370624Y101590D01*
X370873Y101562D01*
X371122Y101528D01*
X371370Y101488D01*
X371618Y101442D01*
X371863Y101390D01*
X372108Y101332D01*
X372351Y101268D01*
X372592Y101198D01*
X372832Y101122D01*
X373069Y101040D01*
X373305Y100953D01*
X373538Y100860D01*
X373769Y100761D01*
X373998Y100656D01*
X374224Y100546D01*
X374447Y100430D01*
X374667Y100309D01*
X374884Y100182D01*
X375098Y100050D01*
X375308Y99913D01*
X375516Y99771D01*
X375719Y99624D01*
X375919Y99472D01*
X376116Y99315D01*
X376308Y99153D01*
X376496Y98987D01*
X376680Y98816D01*
X376860Y98640D01*
X377036Y98460D01*
X377207Y98276D01*
X377373Y98088D01*
X377535Y97896D01*
X377692Y97699D01*
X377844Y97499D01*
X377991Y97296D01*
X378133Y97088D01*
X378270Y96878D01*
X378402Y96664D01*
X378529Y96447D01*
X378650Y96227D01*
X378766Y96004D01*
X378876Y95778D01*
X378981Y95549D01*
X379080Y95318D01*
X379173Y95085D01*
X379260Y94849D01*
X379342Y94612D01*
X379418Y94372D01*
X379488Y94131D01*
X379552Y93888D01*
X379610Y93643D01*
X379662Y93398D01*
X379708Y93150D01*
X379748Y92902D01*
X379782Y92653D01*
X379810Y92404D01*
X379831Y92153D01*
X379847Y91902D01*
X379856Y91651D01*
X379859Y91400D01*
X379856Y91149D01*
X379847Y90898D01*
X379831Y90647D01*
X379810Y90396D01*
X379782Y90147D01*
X379748Y89898D01*
X379708Y89650D01*
X379662Y89402D01*
X379610Y89157D01*
X379552Y88912D01*
X379488Y88669D01*
X379418Y88428D01*
X379342Y88188D01*
X379260Y87951D01*
X379173Y87715D01*
X379080Y87482D01*
X378981Y87251D01*
X378876Y87022D01*
X378766Y86796D01*
X378650Y86573D01*
X378529Y86353D01*
X378402Y86136D01*
X378270Y85922D01*
X378133Y85712D01*
X377991Y85504D01*
X377844Y85301D01*
X377692Y85101D01*
X377535Y84904D01*
X377373Y84712D01*
X377207Y84524D01*
X377036Y84340D01*
X376860Y84160D01*
X376680Y83984D01*
X376496Y83813D01*
X376308Y83647D01*
X376116Y83485D01*
X375919Y83328D01*
X375719Y83176D01*
X375516Y83029D01*
X375308Y82887D01*
X375098Y82750D01*
X374884Y82618D01*
X374667Y82491D01*
X374447Y82370D01*
X374224Y82254D01*
X373998Y82144D01*
X373769Y82039D01*
X373538Y81940D01*
X373305Y81847D01*
X373069Y81760D01*
X372832Y81678D01*
X372592Y81602D01*
X372351Y81532D01*
X372108Y81468D01*
X371863Y81410D01*
X371618Y81358D01*
X371370Y81312D01*
X371122Y81272D01*
X370873Y81238D01*
X370624Y81210D01*
X370373Y81189D01*
X370122Y81173D01*
X369871Y81164D01*
X369620Y81161D01*
X369369Y81164D01*
X369118Y81173D01*
X368867Y81189D01*
X368616Y81210D01*
X368367Y81238D01*
X368118Y81272D01*
X367870Y81312D01*
X367622Y81358D01*
X367377Y81410D01*
X367132Y81468D01*
X366889Y81532D01*
X366648Y81602D01*
X366408Y81678D01*
X366171Y81760D01*
X365935Y81847D01*
X365702Y81940D01*
X365471Y82039D01*
X365242Y82144D01*
X365016Y82254D01*
X364793Y82370D01*
X364573Y82491D01*
X364356Y82618D01*
X364142Y82750D01*
X363932Y82887D01*
X363724Y83029D01*
X363521Y83176D01*
X363321Y83328D01*
X363124Y83485D01*
X362932Y83647D01*
X362744Y83813D01*
X362560Y83984D01*
X362380Y84160D01*
X362204Y84340D01*
X362033Y84524D01*
X361867Y84712D01*
X361705Y84904D01*
X361548Y85101D01*
X361396Y85301D01*
X361249Y85504D01*
X361107Y85712D01*
X360970Y85922D01*
X360838Y86136D01*
X360711Y86353D01*
X360590Y86573D01*
X360474Y86796D01*
X360364Y87022D01*
X360259Y87251D01*
X360160Y87482D01*
X360067Y87715D01*
X359980Y87951D01*
X359898Y88188D01*
X359822Y88428D01*
X359752Y88669D01*
X359688Y88912D01*
X359630Y89157D01*
X359578Y89402D01*
X359532Y89650D01*
X359492Y89898D01*
X359458Y90147D01*
X359430Y90396D01*
X359409Y90647D01*
X359393Y90898D01*
X359384Y91149D01*
X359381Y91400D01*
X355650Y73620D02*
X383590Y73620D01*
X355650Y73620D02*
X355650Y74890D01*
X383590Y74890D01*
X383590Y76160D01*
X355650Y76160D01*
X355650Y111720D02*
X383590Y111720D01*
X355650Y111720D02*
X355650Y110450D01*
X355650Y109180D01*
X355650Y110450D02*
X383590Y110450D01*
X383590Y109180D01*
X355650Y109180D01*
X355650Y107910D01*
X383590Y107910D01*
M02*
