G04 EAGLE Gerber RS-274X export*
G75*
%MOMM*%
%FSLAX34Y34*%
%LPD*%
%INSoldermask Top*%
%IPPOS*%
%AMOC8*
5,1,8,0,0,1.08239X$1,22.5*%
G01*
%ADD10R,1.503200X1.803200*%
%ADD11R,1.303200X1.203200*%
%ADD12R,1.203200X1.303200*%
%ADD13R,2.260600X0.812800*%
%ADD14R,2.489200X2.489200*%
%ADD15R,1.403200X0.753200*%
%ADD16R,1.403200X0.553200*%
%ADD17C,2.453200*%
%ADD18C,1.411200*%
%ADD19C,1.711200*%
%ADD20C,2.082800*%
%ADD21R,1.003200X1.103200*%
%ADD22R,1.103200X1.003200*%
%ADD23R,1.422400X2.438400*%
%ADD24R,3.803200X2.403200*%
%ADD25R,2.703200X1.403200*%
%ADD26R,1.803200X1.503200*%
%ADD27R,1.283200X1.253200*%
%ADD28C,0.487116*%
%ADD29R,1.253200X1.283200*%
%ADD30R,1.103200X1.103200*%
%ADD31R,0.703200X0.953200*%
%ADD32R,1.403200X2.003200*%
%ADD33R,1.403200X2.403200*%
%ADD34R,1.803200X1.703200*%
%ADD35C,0.959600*%


D10*
X78950Y21550D03*
X98950Y21550D03*
D11*
X199830Y74890D03*
X216830Y74890D03*
X110150Y87590D03*
X93150Y87590D03*
D12*
X92760Y59260D03*
X92760Y42260D03*
D11*
X103800Y109180D03*
X86800Y109180D03*
X181270Y143470D03*
X164270Y143470D03*
D13*
X123526Y65110D03*
X123526Y52410D03*
X123526Y39710D03*
X123526Y27010D03*
X177374Y27010D03*
X177374Y39710D03*
X177374Y52410D03*
X177374Y65110D03*
D14*
X150450Y46060D03*
D15*
X152750Y99680D03*
X152750Y109180D03*
X152750Y118680D03*
X126750Y118680D03*
X126750Y109180D03*
X126750Y99680D03*
D16*
X175270Y118930D03*
X175270Y112430D03*
X175270Y105930D03*
X175270Y99430D03*
X233770Y99430D03*
X233770Y105930D03*
X233770Y112430D03*
X233770Y118930D03*
D17*
X249800Y17650D03*
X321800Y17650D03*
D18*
X310050Y40610D02*
X310050Y52690D01*
X261550Y52690D02*
X261550Y40610D01*
D19*
X397560Y496530D03*
X422960Y496530D03*
X448360Y496530D03*
X372160Y496530D03*
D20*
X629970Y114260D03*
X629970Y139660D03*
X629970Y165060D03*
X629970Y190460D03*
X629970Y215860D03*
X629970Y241260D03*
X629970Y266660D03*
X629970Y292060D03*
X629970Y317460D03*
X629970Y342860D03*
X629970Y368260D03*
X629970Y393660D03*
X629970Y419060D03*
X629970Y444460D03*
D11*
X40300Y104100D03*
X23300Y104100D03*
D12*
X69900Y480410D03*
X69900Y497410D03*
D11*
X266360Y256500D03*
X249360Y256500D03*
X266360Y276820D03*
X249360Y276820D03*
D21*
X142900Y495100D03*
X123900Y495100D03*
X133400Y474100D03*
D11*
X123630Y515580D03*
X140630Y515580D03*
D22*
X555200Y304100D03*
X555200Y285100D03*
X576200Y294600D03*
D12*
X537260Y286100D03*
X537260Y303100D03*
D11*
X201100Y49490D03*
X218100Y49490D03*
X201100Y31710D03*
X218100Y31710D03*
D23*
X588314Y465288D03*
X565200Y465288D03*
X542086Y465288D03*
D24*
X565200Y403310D03*
D11*
X561000Y325080D03*
X544000Y325080D03*
D25*
X486460Y507950D03*
X486460Y474950D03*
D26*
X519480Y482720D03*
X519480Y502720D03*
D27*
X528370Y544650D03*
X528370Y527150D03*
X505510Y544650D03*
X505510Y527150D03*
X481380Y544650D03*
X481380Y527150D03*
D11*
X477960Y102830D03*
X494960Y102830D03*
X533060Y102830D03*
X516060Y102830D03*
D28*
X498081Y62029D02*
X481219Y62029D01*
X481219Y64891D01*
X498081Y64891D01*
X498081Y62029D01*
X498081Y49329D02*
X481219Y49329D01*
X481219Y52191D01*
X498081Y52191D01*
X498081Y49329D01*
X498081Y36629D02*
X481219Y36629D01*
X481219Y39491D01*
X498081Y39491D01*
X498081Y36629D01*
X498081Y23929D02*
X481219Y23929D01*
X481219Y26791D01*
X498081Y26791D01*
X498081Y23929D01*
X530719Y23929D02*
X547581Y23929D01*
X530719Y23929D02*
X530719Y26791D01*
X547581Y26791D01*
X547581Y23929D01*
X547581Y36629D02*
X530719Y36629D01*
X530719Y39491D01*
X547581Y39491D01*
X547581Y36629D01*
X547581Y49329D02*
X530719Y49329D01*
X530719Y52191D01*
X547581Y52191D01*
X547581Y49329D01*
X547581Y62029D02*
X530719Y62029D01*
X530719Y64891D01*
X547581Y64891D01*
X547581Y62029D01*
D27*
X461060Y34110D03*
X461060Y16610D03*
D12*
X438200Y33860D03*
X438200Y16860D03*
D29*
X398970Y15200D03*
X416470Y15200D03*
D11*
X416220Y34250D03*
X399220Y34250D03*
D27*
X458520Y77290D03*
X458520Y59790D03*
D11*
X456860Y102830D03*
X439860Y102830D03*
D12*
X439470Y61310D03*
X439470Y78310D03*
D30*
X398830Y50690D03*
X398830Y73690D03*
D12*
X416610Y61310D03*
X416610Y78310D03*
D31*
X342320Y401570D03*
X331320Y401570D03*
X320320Y401570D03*
X309320Y401570D03*
X298320Y401570D03*
X287320Y401570D03*
X276320Y401570D03*
X265320Y401570D03*
X254320Y401570D03*
D32*
X354320Y411820D03*
D33*
X354320Y504820D03*
D34*
X211070Y409320D03*
D33*
X199320Y504820D03*
D35*
X223570Y74890D03*
X245160Y105930D03*
X105460Y17740D03*
X100380Y59650D03*
X539800Y523200D03*
X586790Y450810D03*
X476300Y116800D03*
X120700Y447000D03*
X306120Y74890D03*
X135940Y22820D03*
X187154Y74890D03*
X66250Y17740D03*
X330250Y57110D03*
X425500Y44410D03*
X66090Y53300D03*
X62280Y35520D03*
X304850Y476210D03*
X116890Y496530D03*
X585520Y274280D03*
X585520Y137120D03*
X22910Y232370D03*
X17830Y402550D03*
X50850Y491450D03*
X39420Y124420D03*
X48310Y471130D03*
X157530Y420330D03*
X330250Y349210D03*
X448360Y363180D03*
X280720Y92670D03*
X292300Y89980D03*
X210870Y257770D03*
X210870Y270470D03*
X26720Y321270D03*
X160070Y466050D03*
X26720Y308570D03*
X576630Y288250D03*
X151180Y299680D03*
X161340Y314920D03*
X149910Y327620D03*
X275640Y387310D03*
X175310Y358100D03*
X298500Y374610D03*
X549960Y356830D03*
X35610Y359370D03*
X367080Y392390D03*
X315010Y363180D03*
X223570Y53300D03*
X148640Y237450D03*
X41960Y292060D03*
X223570Y35520D03*
X308660Y170140D03*
X179120Y176490D03*
X256590Y153630D03*
X458520Y91400D03*
X533450Y90130D03*
X533450Y219670D03*
X522020Y346670D03*
X375970Y59650D03*
X245160Y346670D03*
X360730Y335240D03*
X386130Y134580D03*
X265480Y412710D03*
X334060Y427950D03*
X552500Y129500D03*
X552500Y154900D03*
X501700Y180300D03*
X463600Y193000D03*
X450900Y218400D03*
X489000Y205700D03*
X412800Y218400D03*
X425500Y205700D03*
X425500Y243800D03*
X82600Y154900D03*
X69900Y167600D03*
M02*
