G04 EAGLE Gerber RS-274X export*
G75*
%MOMM*%
%FSLAX34Y34*%
%LPD*%
%INSoldermask Bottom*%
%IPPOS*%
%AMOC8*
5,1,8,0,0,1.08239X$1,22.5*%
G01*
%ADD10C,2.453200*%
%ADD11R,0.500000X1.450000*%
%ADD12C,1.411200*%
%ADD13C,1.711200*%
%ADD14C,2.082800*%
%ADD15R,1.703200X1.103200*%
%ADD16R,1.103200X1.703200*%
%ADD17R,6.203200X6.203200*%
%ADD18R,1.703200X1.803200*%
%ADD19R,2.703200X2.703200*%
%ADD20R,1.753200X0.803200*%
%ADD21R,2.003200X1.403200*%
%ADD22C,0.959600*%


D10*
X249800Y17650D03*
X321800Y17650D03*
D11*
X298800Y44400D03*
D12*
X310050Y40610D02*
X310050Y52690D01*
X261550Y52690D02*
X261550Y40610D01*
D11*
X292300Y44400D03*
X285800Y44400D03*
X279300Y44400D03*
X272800Y44400D03*
D13*
X397560Y496530D03*
X422960Y496530D03*
X448360Y496530D03*
X372160Y496530D03*
D14*
X629970Y114260D03*
X629970Y139660D03*
X629970Y165060D03*
X629970Y190460D03*
X629970Y215860D03*
X629970Y241260D03*
X629970Y266660D03*
X629970Y292060D03*
X629970Y317460D03*
X629970Y342860D03*
X629970Y368260D03*
X629970Y393660D03*
X629970Y419060D03*
X629970Y444460D03*
D15*
X14190Y220140D03*
X14190Y232840D03*
X14190Y245540D03*
X14190Y258240D03*
X14190Y270940D03*
X14190Y283640D03*
X14190Y296340D03*
X14190Y309040D03*
X14190Y321740D03*
X14190Y334440D03*
X14190Y347140D03*
X14190Y359840D03*
X14190Y372540D03*
X14190Y385240D03*
D16*
X47040Y400140D03*
X59740Y400140D03*
X72440Y400140D03*
X85140Y400140D03*
X97840Y400140D03*
X110540Y400140D03*
X123240Y400140D03*
X135940Y400140D03*
X148640Y400140D03*
X161340Y400140D03*
D15*
X194190Y385240D03*
X194190Y372540D03*
X194190Y359840D03*
X194190Y347140D03*
X194190Y334440D03*
X194190Y321740D03*
X194190Y309040D03*
X194190Y296340D03*
X194190Y283640D03*
X194190Y270940D03*
X194190Y258240D03*
X194190Y245540D03*
X194190Y232840D03*
X194190Y220140D03*
D17*
X104190Y297140D03*
D18*
X45770Y128230D03*
X45770Y79970D03*
X41960Y466050D03*
X41960Y514310D03*
D19*
X168400Y462800D03*
X98400Y462800D03*
X98400Y532800D03*
X168400Y532800D03*
D20*
X49580Y36870D03*
X49580Y46870D03*
D21*
X10830Y23870D03*
X10830Y59870D03*
D18*
X369620Y116800D03*
X369620Y68540D03*
D22*
X223570Y74890D03*
X245160Y105930D03*
X105460Y17740D03*
X100380Y59650D03*
X539800Y523200D03*
X586790Y450810D03*
X476300Y116800D03*
X120700Y447000D03*
X306120Y74890D03*
X135940Y22820D03*
X187154Y74890D03*
X66250Y17740D03*
X330250Y57110D03*
X425500Y44410D03*
X66090Y53300D03*
X62280Y35520D03*
X304850Y476210D03*
X116890Y496530D03*
X585520Y274280D03*
X585520Y137120D03*
X22910Y232370D03*
X17830Y402550D03*
X50850Y491450D03*
X39420Y124420D03*
X48310Y471130D03*
X157530Y420330D03*
X330250Y349210D03*
X448360Y363180D03*
X280720Y92670D03*
X292300Y89980D03*
X210870Y257770D03*
X210870Y270470D03*
X26720Y321270D03*
X160070Y466050D03*
X26720Y308570D03*
X576630Y288250D03*
X151180Y299680D03*
X161340Y314920D03*
X149910Y327620D03*
X275640Y387310D03*
X175310Y358100D03*
X298500Y374610D03*
X549960Y356830D03*
X35610Y359370D03*
X367080Y392390D03*
X315010Y363180D03*
X223570Y53300D03*
X148640Y237450D03*
X41960Y292060D03*
X223570Y35520D03*
X308660Y170140D03*
X179120Y176490D03*
X256590Y153630D03*
X458520Y91400D03*
X533450Y90130D03*
X533450Y219670D03*
X522020Y346670D03*
X375970Y59650D03*
X245160Y346670D03*
X360730Y335240D03*
X386130Y134580D03*
X265480Y412710D03*
X334060Y427950D03*
X552500Y129500D03*
X552500Y154900D03*
X501700Y180300D03*
X463600Y193000D03*
X450900Y218400D03*
X489000Y205700D03*
X412800Y218400D03*
X425500Y205700D03*
X425500Y243800D03*
X82600Y154900D03*
X69900Y167600D03*
M02*
