G04 EAGLE Gerber RS-274X export*
G75*
%MOMM*%
%FSLAX34Y34*%
%LPD*%
%INSolderpaste Bottom*%
%IPPOS*%
%AMOC8*
5,1,8,0,0,1.08239X$1,22.5*%
G01*
%ADD10R,0.400000X1.350000*%
%ADD11R,1.500000X0.900000*%
%ADD12R,0.900000X1.500000*%
%ADD13R,6.000000X6.000000*%
%ADD14R,1.500000X1.600000*%
%ADD15R,2.500000X2.500000*%
%ADD16R,1.550000X0.600000*%
%ADD17R,1.800000X1.200000*%


D10*
X298800Y44400D03*
X292300Y44400D03*
X285800Y44400D03*
X279300Y44400D03*
X272800Y44400D03*
D11*
X14190Y220140D03*
X14190Y232840D03*
X14190Y245540D03*
X14190Y258240D03*
X14190Y270940D03*
X14190Y283640D03*
X14190Y296340D03*
X14190Y309040D03*
X14190Y321740D03*
X14190Y334440D03*
X14190Y347140D03*
X14190Y359840D03*
X14190Y372540D03*
X14190Y385240D03*
D12*
X47040Y400140D03*
X59740Y400140D03*
X72440Y400140D03*
X85140Y400140D03*
X97840Y400140D03*
X110540Y400140D03*
X123240Y400140D03*
X135940Y400140D03*
X148640Y400140D03*
X161340Y400140D03*
D11*
X194190Y385240D03*
X194190Y372540D03*
X194190Y359840D03*
X194190Y347140D03*
X194190Y334440D03*
X194190Y321740D03*
X194190Y309040D03*
X194190Y296340D03*
X194190Y283640D03*
X194190Y270940D03*
X194190Y258240D03*
X194190Y245540D03*
X194190Y232840D03*
X194190Y220140D03*
D13*
X104190Y297140D03*
D14*
X45770Y128230D03*
X45770Y79970D03*
X41960Y466050D03*
X41960Y514310D03*
D15*
X168400Y462800D03*
X98400Y462800D03*
X98400Y532800D03*
X168400Y532800D03*
D16*
X49580Y36870D03*
X49580Y46870D03*
D17*
X10830Y23870D03*
X10830Y59870D03*
D14*
X369620Y116800D03*
X369620Y68540D03*
M02*
