G04 EAGLE Gerber RS-274X export*
G75*
%MOMM*%
%FSLAX34Y34*%
%LPD*%
%INSolderpaste Top*%
%IPPOS*%
%AMOC8*
5,1,8,0,0,1.08239X$1,22.5*%
G01*
%ADD10R,1.300000X1.600000*%
%ADD11R,1.100000X1.000000*%
%ADD12R,1.000000X1.100000*%
%ADD13R,2.057400X0.609600*%
%ADD14R,2.286000X2.286000*%
%ADD15R,1.200000X0.550000*%
%ADD16R,1.200000X0.350000*%
%ADD17R,0.800000X0.900000*%
%ADD18R,0.900000X0.800000*%
%ADD19R,1.219200X2.235200*%
%ADD20R,3.600000X2.200000*%
%ADD21R,2.500000X1.200000*%
%ADD22R,1.600000X1.300000*%
%ADD23R,1.080000X1.050000*%
%ADD24C,0.285000*%
%ADD25R,1.050000X1.080000*%
%ADD26R,0.900000X0.900000*%
%ADD27R,0.500000X0.750000*%
%ADD28R,1.200000X1.800000*%
%ADD29R,1.200000X2.200000*%
%ADD30R,1.600000X1.500000*%


D10*
X78950Y21550D03*
X98950Y21550D03*
D11*
X199830Y74890D03*
X216830Y74890D03*
X110150Y87590D03*
X93150Y87590D03*
D12*
X92760Y59260D03*
X92760Y42260D03*
D11*
X103800Y109180D03*
X86800Y109180D03*
X181270Y143470D03*
X164270Y143470D03*
D13*
X123526Y65110D03*
X123526Y52410D03*
X123526Y39710D03*
X123526Y27010D03*
X177374Y27010D03*
X177374Y39710D03*
X177374Y52410D03*
X177374Y65110D03*
D14*
X150450Y46060D03*
D15*
X152750Y99680D03*
X152750Y109180D03*
X152750Y118680D03*
X126750Y118680D03*
X126750Y109180D03*
X126750Y99680D03*
D16*
X175270Y118930D03*
X175270Y112430D03*
X175270Y105930D03*
X175270Y99430D03*
X233770Y99430D03*
X233770Y105930D03*
X233770Y112430D03*
X233770Y118930D03*
D11*
X40300Y104100D03*
X23300Y104100D03*
D12*
X69900Y480410D03*
X69900Y497410D03*
D11*
X266360Y256500D03*
X249360Y256500D03*
X266360Y276820D03*
X249360Y276820D03*
D17*
X142900Y495100D03*
X123900Y495100D03*
X133400Y474100D03*
D11*
X123630Y515580D03*
X140630Y515580D03*
D18*
X555200Y304100D03*
X555200Y285100D03*
X576200Y294600D03*
D12*
X537260Y286100D03*
X537260Y303100D03*
D11*
X201100Y49490D03*
X218100Y49490D03*
X201100Y31710D03*
X218100Y31710D03*
D19*
X588314Y465288D03*
X565200Y465288D03*
X542086Y465288D03*
D20*
X565200Y403310D03*
D11*
X561000Y325080D03*
X544000Y325080D03*
D21*
X486460Y507950D03*
X486460Y474950D03*
D22*
X519480Y482720D03*
X519480Y502720D03*
D23*
X528370Y544650D03*
X528370Y527150D03*
X505510Y544650D03*
X505510Y527150D03*
X481380Y544650D03*
X481380Y527150D03*
D11*
X477960Y102830D03*
X494960Y102830D03*
X533060Y102830D03*
X516060Y102830D03*
D24*
X498075Y62035D02*
X481225Y62035D01*
X481225Y64885D01*
X498075Y64885D01*
X498075Y62035D01*
X498075Y64742D02*
X481225Y64742D01*
X481225Y49335D02*
X498075Y49335D01*
X481225Y49335D02*
X481225Y52185D01*
X498075Y52185D01*
X498075Y49335D01*
X498075Y52042D02*
X481225Y52042D01*
X481225Y36635D02*
X498075Y36635D01*
X481225Y36635D02*
X481225Y39485D01*
X498075Y39485D01*
X498075Y36635D01*
X498075Y39342D02*
X481225Y39342D01*
X481225Y23935D02*
X498075Y23935D01*
X481225Y23935D02*
X481225Y26785D01*
X498075Y26785D01*
X498075Y23935D01*
X498075Y26642D02*
X481225Y26642D01*
X530725Y23935D02*
X547575Y23935D01*
X530725Y23935D02*
X530725Y26785D01*
X547575Y26785D01*
X547575Y23935D01*
X547575Y26642D02*
X530725Y26642D01*
X530725Y36635D02*
X547575Y36635D01*
X530725Y36635D02*
X530725Y39485D01*
X547575Y39485D01*
X547575Y36635D01*
X547575Y39342D02*
X530725Y39342D01*
X530725Y49335D02*
X547575Y49335D01*
X530725Y49335D02*
X530725Y52185D01*
X547575Y52185D01*
X547575Y49335D01*
X547575Y52042D02*
X530725Y52042D01*
X530725Y62035D02*
X547575Y62035D01*
X530725Y62035D02*
X530725Y64885D01*
X547575Y64885D01*
X547575Y62035D01*
X547575Y64742D02*
X530725Y64742D01*
D23*
X461060Y34110D03*
X461060Y16610D03*
D12*
X438200Y33860D03*
X438200Y16860D03*
D25*
X398970Y15200D03*
X416470Y15200D03*
D11*
X416220Y34250D03*
X399220Y34250D03*
D23*
X458520Y77290D03*
X458520Y59790D03*
D11*
X456860Y102830D03*
X439860Y102830D03*
D12*
X439470Y61310D03*
X439470Y78310D03*
D26*
X398830Y50690D03*
X398830Y73690D03*
D12*
X416610Y61310D03*
X416610Y78310D03*
D27*
X342320Y401570D03*
X331320Y401570D03*
X320320Y401570D03*
X309320Y401570D03*
X298320Y401570D03*
X287320Y401570D03*
X276320Y401570D03*
X265320Y401570D03*
X254320Y401570D03*
D28*
X354320Y411820D03*
D29*
X354320Y504820D03*
D30*
X211070Y409320D03*
D29*
X199320Y504820D03*
M02*
