<svg width="119" height="237" viewBox="0 0 119 237" fill="none" xmlns="http://www.w3.org/2000/svg">
<path d="M59.6574 72.7221C43.5666 72.7221 29.6361 67.1273 20.9698 58.9005C31.2326 53.5406 44.7248 50.2029 59.6574 50.2029C74.5901 50.2029 88.0822 53.5406 98.345 58.9005C89.6787 67.1273 75.7483 72.7221 59.6574 72.7221ZM23.1824 20.8322L59.5762 4.9455L95.867 20.8292L112.876 43.3301L105.447 49.7873C95.7414 44.3522 82.8147 40.725 68.4868 39.647C68.9811 39.3452 69.4712 39.0134 69.9367 38.6488C71.9434 37.0771 73.9167 34.5612 73.9167 30.8888C73.9167 28.0354 73.0845 26.1773 72.5196 24.9159L72.5007 24.8736C72.2329 24.2755 72.1058 23.9765 72.0137 23.6574C71.936 23.3879 71.8704 23.0491 71.8704 22.5359C71.8704 21.7729 71.9959 21.5 72.0158 21.4568L72.0163 21.4556C72.0548 21.3717 72.0967 21.2939 72.5002 20.8209C72.5002 20.8209 72.5002 20.8208 72.5002 20.8208L72.5146 20.804C72.6228 20.6771 72.778 20.4952 72.9323 20.3022C73.9064 19.083 74.1793 17.4462 73.6535 15.9769C73.1277 14.5076 71.8782 13.4157 70.3517 13.0914C69.351 12.8788 68.5035 12.6729 67.6668 12.4693L67.6541 12.4662C65.3263 11.8999 63.2339 11.3909 59.6616 11.2625C59.553 11.2586 59.4444 11.2586 59.3358 11.2626C55.8058 11.3915 53.7357 11.9033 51.4429 12.47L51.4297 12.4733C50.6062 12.6769 49.7739 12.8824 48.7913 13.0945C47.2745 13.4219 46.0334 14.5076 45.5073 15.9674C44.9812 17.4272 45.2443 19.055 46.2034 20.2748C46.3555 20.4681 46.5084 20.6503 46.6149 20.7771L46.6286 20.7934C47.0244 21.265 47.0667 21.3435 47.1061 21.4309L47.1064 21.4314C47.1277 21.4786 47.2546 21.7592 47.2546 22.5359C47.2546 23.0562 47.189 23.4012 47.111 23.6757C47.0193 23.9988 46.8929 24.3005 46.6296 24.898L46.6117 24.9387C46.0555 26.2007 45.2407 28.0495 45.2407 30.8888C45.2407 34.5307 47.1671 37.0431 49.1575 38.6271C49.6228 38.9975 50.113 39.3342 50.6071 39.6399C36.2509 40.7085 23.2954 44.3358 13.5703 49.7778L6.13157 43.3292L23.1824 20.8322ZM21.4431 73.7207C25.9387 76.4694 30.8345 78.7419 36.034 80.4612C30.3772 86.3506 26.895 94.3544 26.895 103.175C26.895 121.277 41.5603 135.957 59.6574 135.957C77.7545 135.957 92.4198 121.277 92.4198 103.175C92.4198 94.3544 88.9376 86.3506 83.2808 80.4612C88.4803 78.7419 93.3762 76.4694 97.8717 73.7207C104.155 81.8717 107.889 92.0824 107.889 103.175C107.889 109.576 104.879 120.887 99.9093 134.873C95.0197 148.633 88.4788 164.335 81.9075 179.196C75.3417 194.045 68.7722 207.995 63.842 218.236C62.2594 221.524 60.8463 224.428 59.6574 226.855C58.4685 224.428 57.0554 221.524 55.4728 218.236C50.5426 207.995 43.9731 194.045 37.4073 179.196C30.836 164.335 24.2951 148.633 19.4055 134.873C14.4358 120.887 11.4259 109.576 11.4259 103.175C11.4259 92.0824 15.1598 81.8717 21.4431 73.7207Z" fill="#36315B" stroke="white" stroke-width="9" stroke-linejoin="round"/>
</svg>
